<svg width="151" height="150" viewBox="0 0 151 150" fill="none" xmlns="http://www.w3.org/2000/svg">
<rect width="150" height="150" transform="translate(0.00341797)" fill="url(#paint0_linear_260_3644)"/>
<path d="M40.1411 50.7954C39.8264 50.822 39.2982 50.9127 38.9621 50.9981C37.0734 51.4783 35.889 52.572 35.4569 54.2525C35.3555 54.6473 35.3502 54.69 35.4302 54.8394C35.4836 54.9514 35.5743 55.0154 35.713 55.0528C35.9157 55.1115 37.8577 55.3249 38.1565 55.3249C38.3645 55.3249 38.5246 55.1541 38.6046 54.8447C38.7593 54.2472 39.1701 53.7724 39.7197 53.5536C40.1411 53.3882 40.9787 53.3829 41.3255 53.5429C42.0351 53.8737 42.2858 54.4339 42.2858 55.7357V56.1198L42.1151 56.1465C42.0191 56.1625 41.5816 56.2158 41.1388 56.2585C39.725 56.4079 38.9194 56.5519 38.1511 56.8027C36.5719 57.3149 35.5476 58.3285 35.1261 59.7904C35.0194 60.1478 35.0034 60.3345 35.0034 61.0601C35.0034 61.791 35.0194 61.9724 35.1261 62.3405C35.4142 63.3382 36.0224 64.0958 36.8494 64.4906C37.4896 64.8 38.0018 64.9014 38.8447 64.8907C40.3385 64.8747 41.3095 64.4906 42.3499 63.4983L42.7553 63.1088L42.9314 63.3649C43.2515 63.8397 43.6356 64.2825 43.9611 64.56C44.4519 64.9761 44.4572 64.9708 45.727 63.8824C46.3299 63.3649 46.7833 62.9274 46.7993 62.858C46.8527 62.666 46.7887 62.5273 46.4579 62.0631C46.0738 61.5296 45.887 61.1188 45.8124 60.66C45.775 60.4466 45.7537 59.1875 45.7537 57.4162C45.7537 53.9644 45.7217 53.6336 45.2895 52.8067C44.7027 51.681 43.3635 50.9661 41.5123 50.79C41.1921 50.7634 40.8774 50.742 40.8187 50.742C40.76 50.7473 40.4559 50.774 40.1411 50.7954ZM42.2858 58.59C42.2805 60.0464 42.1151 60.8147 41.6723 61.4656C41.2562 62.0738 40.7333 62.3779 40.0931 62.3779C39.2075 62.3779 38.674 61.7964 38.6153 60.7667C38.5619 59.8224 38.9247 59.0808 39.6503 58.654C40.1465 58.3606 41.0054 58.1685 41.8484 58.1578L42.2858 58.1525V58.59Z" fill="white"/>
<path d="M72.6695 50.7901C70.1566 50.9982 68.4707 52.2092 67.9425 54.1886C67.7238 55.0048 67.7772 55.0422 69.4417 55.2182C70.8555 55.3623 70.8982 55.357 71.0316 54.9782C71.0743 54.8608 71.1436 54.6634 71.1863 54.5407C71.2877 54.2419 71.6878 53.8044 71.9972 53.6497C72.6801 53.3029 73.5444 53.335 74.1153 53.7297C74.5581 54.0339 74.7235 54.514 74.7235 55.4957C74.7235 56.2266 74.8248 56.1412 73.8432 56.2319C71.6771 56.4293 70.2526 56.7974 69.3563 57.379C68.8815 57.6937 68.2627 58.3393 68.0066 58.7981C67.5477 59.625 67.3557 60.6174 67.4677 61.5884C67.5904 62.6447 67.9212 63.3596 68.5668 63.9625C69.3617 64.7041 70.4394 65.0082 71.8158 64.8801C73.0803 64.7574 73.9499 64.352 74.9155 63.4236L75.241 63.1089L75.4757 63.4717C75.7798 63.9412 76.5694 64.7468 76.7722 64.8001C76.8575 64.8214 76.9962 64.8108 77.0709 64.7841C77.2897 64.6987 79.1836 63.0555 79.2637 62.8848C79.3437 62.7034 79.2583 62.522 78.8102 61.8818C78.6554 61.6577 78.4687 61.3323 78.3994 61.1616L78.2713 60.8468L78.2393 57.5123C78.218 55.357 78.1806 54.0819 78.1433 53.9111C77.9672 53.1376 77.7165 52.62 77.279 52.1559C76.5587 51.3823 75.4704 50.9288 74.0032 50.7901C73.3737 50.7314 73.3844 50.7314 72.6695 50.7901ZM74.7075 59.1769C74.6915 59.8758 74.6541 60.2973 74.5954 60.5C74.3714 61.2789 73.8859 61.9245 73.315 62.2072C73.0322 62.346 72.9202 62.3726 72.5788 62.3726C71.9225 62.3726 71.5064 62.1059 71.2343 61.519C71.1383 61.3056 71.1223 61.1776 71.1223 60.58C71.1276 59.9452 71.1383 59.8598 71.2663 59.5824C71.6771 58.6914 72.7495 58.1899 74.2913 58.1579L74.7341 58.1526L74.7075 59.1769Z" fill="white"/>
<path d="M54.1937 51.0035C53.2921 51.2436 52.5878 51.8251 52.145 52.6947L51.8943 53.1855L51.8783 52.2999L51.8623 51.4196L51.7129 51.2916C51.5635 51.1635 51.5635 51.1635 50.2297 51.1635H48.8959L48.7679 51.2916C48.6985 51.3609 48.6292 51.4997 48.6078 51.5957C48.5918 51.6971 48.5865 54.6314 48.5918 58.1152L48.6078 64.4586L48.7572 64.5867L48.9066 64.7147H50.3151H51.7236L51.8729 64.5867L52.0223 64.4586L52.0543 60.0625C52.081 56.0558 52.0917 55.645 52.177 55.3516C52.3638 54.7274 52.5825 54.4233 52.9986 54.2206C53.2547 54.0925 53.3668 54.0712 53.7296 54.0712C54.6152 54.0765 55.042 54.53 55.1914 55.613C55.2287 55.8798 55.2501 57.523 55.2501 60.2386V64.4533L55.3834 64.5813L55.5115 64.7147H56.952H58.3871L58.5258 64.5493L58.6645 64.3839V60.3506C58.6645 58.0565 58.6912 56.1412 58.7179 55.9118C58.8353 55.0155 59.0967 54.5727 59.6729 54.2739C59.9556 54.1245 60.0623 54.0979 60.3824 54.0979C60.5905 54.0979 60.8519 54.1245 60.964 54.1619C61.2627 54.2472 61.5615 54.53 61.7109 54.8554L61.8389 55.1382L61.8656 59.7957L61.8923 64.4586L62.0417 64.5867L62.191 64.7147H63.6048H65.0187L65.1467 64.5867L65.2694 64.464L65.2907 59.5877C65.3014 56.9041 65.2907 54.4713 65.2694 54.1725C65.1894 53.1162 64.8906 52.428 64.2557 51.8304C63.8343 51.4303 63.3168 51.1582 62.6659 50.9982C62.2871 50.9021 62.1164 50.8861 61.5988 50.9128C60.5638 50.9608 59.9183 51.2382 59.2194 51.9371C58.91 52.2466 58.7339 52.476 58.5845 52.7747L58.3711 53.1855L58.1844 52.8281C57.9069 52.2999 57.6935 52.0172 57.3308 51.681C56.7332 51.1262 56.2477 50.9448 55.2767 50.9181C54.7059 50.9021 54.5138 50.9128 54.1937 51.0035Z" fill="white"/>
<path d="M96.2558 50.9821C93.7749 51.4729 92.1584 53.5643 91.7903 56.7653C91.7103 57.4749 91.7529 59.0221 91.8756 59.6996C92.3665 62.4205 93.8336 64.2772 95.9303 64.8267C96.5385 64.9867 97.7069 65.0241 98.2991 64.9067C100.769 64.4052 102.412 62.4419 102.903 59.4062C103.015 58.6913 102.989 57.0801 102.845 56.2585C102.247 52.844 100.214 50.886 97.2908 50.902C96.9227 50.9074 96.4585 50.9394 96.2558 50.9821ZM97.947 53.5856C98.6459 53.8363 98.9713 54.4339 99.1954 55.869C99.3128 56.6373 99.3288 59.2728 99.2221 59.9397C99.062 60.9107 98.8273 61.5029 98.4432 61.8924C98.0377 62.3032 97.4562 62.4526 96.896 62.2925C96.1171 62.0631 95.6316 61.0814 95.4715 59.4169C95.3755 58.3819 95.4342 56.0237 95.5729 55.3889C95.7756 54.4819 96.1491 53.8844 96.6772 53.6389C96.9867 53.4896 97.6109 53.4682 97.947 53.5856Z" fill="white"/>
<path d="M110.479 51.0035C109.482 51.2702 108.761 51.9425 108.228 53.0948L108.073 53.431V52.4546L108.068 51.473L107.913 51.3183L107.758 51.1635H106.441H105.123L104.968 51.3183L104.813 51.473V57.9391V64.4053L104.968 64.56L105.123 64.7147H106.547H107.967L108.095 64.5813L108.228 64.4533V60.7561C108.228 58.67 108.249 56.8081 108.281 56.488C108.399 55.2396 108.793 54.4873 109.492 54.1672C109.738 54.0552 109.844 54.0338 110.17 54.0552C110.842 54.0872 111.248 54.4393 111.466 55.1915C111.552 55.485 111.562 55.8958 111.573 59.8864C111.584 62.2926 111.6 64.3146 111.616 64.3786C111.632 64.4426 111.696 64.5493 111.76 64.608C111.872 64.7094 111.941 64.7147 113.307 64.7147H114.742L114.87 64.5813L115.004 64.4533V59.6997C115.004 54.8181 114.988 54.3166 114.785 53.463C114.513 52.2839 113.755 51.425 112.688 51.0728C112.091 50.8808 111.056 50.8434 110.479 51.0035Z" fill="white"/>
<path d="M81.3868 51.2648L81.2321 51.4195V52.4919C81.2321 53.5429 81.2321 53.5589 81.3602 53.7083L81.4882 53.8577L83.6969 53.8844L85.9057 53.911L83.5369 57.2988C82.2351 59.1608 81.1094 60.7933 81.0347 60.9214C80.8 61.3108 80.752 61.6469 80.752 62.9114V64.0638L80.8907 64.2291C80.9707 64.3252 81.0774 64.3945 81.1521 64.3945C81.2161 64.3945 81.4722 64.2985 81.7229 64.1811C83.0621 63.5569 84.4172 63.2902 86.0017 63.3435C87.3195 63.3862 88.4452 63.6476 89.5496 64.1598C89.827 64.2878 90.0937 64.3945 90.1471 64.3945C90.2004 64.3945 90.3125 64.3358 90.3925 64.2665L90.5419 64.1384L90.5579 63.0074C90.5739 61.9457 90.5686 61.8657 90.4619 61.6416C90.3285 61.3749 90.1311 61.2361 89.4428 60.948C88.5039 60.5533 87.5115 60.3452 86.2898 60.2918L85.5109 60.2598L87.7783 57.0321C89.0214 55.2555 90.1044 53.6923 90.1738 53.5536C90.2965 53.3135 90.3018 53.2495 90.3018 52.3532C90.2965 51.3609 90.2858 51.2968 90.0511 51.1741C89.9657 51.1261 88.8293 51.1101 85.7403 51.1101H81.5415L81.3868 51.2648Z" fill="white"/>
<path d="M84.1932 65.3815C83.0622 65.5683 82.0378 65.9151 81.3069 66.3632C80.8268 66.6566 80.7734 66.71 80.7254 66.9021C80.7041 67.0034 80.7201 67.0674 80.8001 67.1368C80.9068 67.2328 80.9388 67.2328 81.6964 67.1475C84.1826 66.8754 85.655 66.8967 86.2846 67.2115C86.5567 67.3555 86.674 67.5903 86.674 68.0118C86.674 68.812 86.3433 69.9964 85.5057 72.1678C85.3563 72.5573 85.2496 72.9094 85.2656 72.9574C85.2869 73.0001 85.3456 73.0641 85.4043 73.0961C85.7511 73.2828 86.8234 72.1785 87.5117 70.9141C88.4026 69.2868 88.9575 66.6886 88.5733 65.9524C88.472 65.755 88.1359 65.595 87.533 65.4509C86.9141 65.3069 84.9188 65.2642 84.1932 65.3815Z" fill="white"/>
<path d="M46.3351 66.1979C46.2551 66.2672 46.2178 66.3579 46.2178 66.4753C46.2178 66.63 46.2711 66.71 46.6126 67.0248C46.8313 67.2329 47.3702 67.6864 47.813 68.0438C54.5779 73.4643 63.4022 75.8011 72.0824 74.4726C76.4519 73.8057 80.6506 72.2532 83.8517 70.1245C84.9027 69.4256 85.0627 69.2122 84.892 68.8014C84.796 68.5667 84.4118 68.3639 84.1771 68.4226C84.0971 68.4386 83.5902 68.6307 83.046 68.8494C79.5676 70.2312 75.6036 71.1862 71.789 71.565C65.3121 72.2105 58.4192 71.2289 52.2571 68.7907C50.5392 68.1132 49.2855 67.5263 47.6422 66.63C47.1087 66.3366 46.6286 66.1018 46.5699 66.1018C46.5059 66.1018 46.4045 66.1445 46.3351 66.1979Z" fill="white"/>
<path d="M92.8467 79.7597C92.516 79.845 92.2492 80.0104 92.0251 80.2612C91.7637 80.5546 91.6623 80.8854 91.6677 81.3869C91.6783 82.3312 92.3186 82.9287 93.3162 82.9287C94.3139 82.9287 94.9541 82.3312 94.9648 81.3869C94.9701 81.1788 94.9381 80.896 94.8954 80.7573C94.7941 80.4105 94.4366 80.0211 94.0845 79.8664C93.7697 79.733 93.1615 79.6796 92.8467 79.7597Z" fill="white"/>
<path d="M49.0614 84.9667C47.7543 85.1962 46.6179 85.6336 45.4388 86.3699C45.1934 86.5193 44.9854 86.6366 44.98 86.6313C44.9694 86.6206 44.9267 86.4232 44.884 86.1885C44.7186 85.3349 44.6759 85.3082 43.5929 85.3082C42.7713 85.3082 42.6006 85.3615 42.5045 85.6336C42.4618 85.7563 42.4458 87.629 42.4458 92.0945C42.4458 98.9661 42.4352 98.6887 42.7499 98.8114C42.8406 98.8434 43.2835 98.8594 43.897 98.8487C44.772 98.8327 44.9107 98.822 44.9907 98.7367C45.0814 98.646 45.0867 98.3419 45.1134 93.4336L45.1401 88.2212L45.7269 87.9171C46.794 87.3569 47.765 87.1008 48.8747 87.1008C49.6536 87.0955 49.8883 87.1488 50.2725 87.4049C50.7259 87.709 50.982 88.2105 51.0887 89.0161C51.1154 89.2188 51.1421 91.4276 51.1421 93.9244C51.1421 96.4159 51.1581 98.5126 51.1741 98.5819C51.2381 98.8167 51.4302 98.8594 52.4972 98.8594C53.4628 98.8594 53.4842 98.854 53.6336 98.7313L53.783 98.6033V93.4176V88.2372L54.4765 87.8957C55.6449 87.3142 56.4719 87.1061 57.5709 87.1008C58.1364 87.0955 58.3178 87.1168 58.5525 87.2022C59.0754 87.3942 59.4488 87.821 59.6569 88.4559C59.7476 88.728 59.7583 89.1068 59.785 93.6736L59.8116 98.6033L59.961 98.7313C60.1104 98.854 60.1317 98.8594 61.0921 98.8594C62.1377 98.8594 62.2925 98.8274 62.3938 98.6086C62.4365 98.5179 62.4525 97.0134 62.4525 93.4229C62.4525 89.1761 62.4418 88.2905 62.3725 87.9064C62.1111 86.4179 61.2681 85.4469 59.8917 85.0574C59.3955 84.9241 57.8163 84.9187 57.1708 85.0574C56.0931 85.2869 54.818 85.8257 53.8256 86.4766L53.3348 86.7967L53.1641 86.4926C52.796 85.8364 52.049 85.2869 51.2221 85.0628C50.9127 84.9774 49.3815 84.9081 49.0614 84.9667Z" fill="white"/>
<path d="M83.6545 85.0149C82.15 85.2816 80.9069 86.1032 80.3894 87.1756C79.6158 88.7815 80.0479 90.6647 81.4297 91.7051C81.9793 92.1212 82.4541 92.34 84.1133 92.9642C86.3914 93.8178 86.7542 94.0152 87.0209 94.5647C87.1543 94.8315 87.165 94.9008 87.1436 95.3543C87.1276 95.7704 87.101 95.8878 86.9676 96.1279C86.5141 96.9602 85.5164 97.2803 83.7398 97.1522C83.313 97.1202 82.7475 97.0615 82.4808 97.0135C82.0273 96.9388 81.7819 96.8802 80.5761 96.56L80.1013 96.432L79.9733 96.5814C79.8559 96.7201 79.8452 96.7734 79.8452 97.3176C79.8452 98.2193 79.9252 98.3313 80.7522 98.6407C82.6141 99.329 85.1216 99.4517 86.7222 98.9288C87.8959 98.5447 88.8242 97.7925 89.267 96.8588C89.5551 96.2506 89.6351 95.8825 89.6351 95.0982C89.6351 94.522 89.6138 94.3353 89.5071 94.0045C89.3417 93.471 89.1176 93.0869 88.7602 92.7294C88.1573 92.1266 87.5971 91.8331 85.6071 91.0702C83.3397 90.2006 82.8649 89.9285 82.6195 89.3523C82.5181 89.1176 82.5021 89.0055 82.5234 88.6107C82.5448 88.2106 82.5661 88.1092 82.7048 87.8905C82.9129 87.549 83.2383 87.309 83.6758 87.1702C83.9693 87.0742 84.1987 87.0475 84.9402 87.0315C86.0019 87.0049 86.5728 87.0742 87.7412 87.3676C88.5841 87.5864 88.7495 87.5811 88.8509 87.3623C88.9416 87.1702 88.9309 86.1993 88.8402 85.9805C88.7335 85.7244 88.5575 85.6124 87.9759 85.4203C86.9623 85.0842 86.3327 84.9829 85.1537 84.9562C84.3907 84.9455 83.9639 84.9615 83.6545 85.0149Z" fill="white"/>
<path d="M102.674 85.1215C101.25 85.3509 100.257 85.8204 99.3557 86.69C98.1873 87.8157 97.6058 89.2348 97.4404 91.3475C97.3391 92.644 97.4831 94.0311 97.8352 95.1248C98.5555 97.3869 100.161 98.6993 102.653 99.0781C103.256 99.1688 104.68 99.1528 105.294 99.0514C106.382 98.8754 107.284 98.5286 107.428 98.2458C107.529 98.0378 107.566 97.1415 107.486 96.8427C107.39 96.4853 107.289 96.4693 106.51 96.6613C105.555 96.8961 105.139 96.9547 104.36 96.9547C101.943 96.9601 100.679 95.9731 100.311 93.791C100.113 92.6013 100.156 90.9367 100.412 89.9177C100.695 88.808 101.239 88.0718 102.087 87.661C102.797 87.3195 103.17 87.2555 104.44 87.2555C105.454 87.2555 105.576 87.2715 106.147 87.4102C107.102 87.6396 107.182 87.645 107.3 87.4636C107.385 87.3409 107.401 87.2075 107.401 86.6953C107.401 86.0338 107.342 85.7937 107.14 85.6657C106.98 85.5643 106.265 85.3295 105.694 85.1962C105.059 85.0521 103.362 85.0094 102.674 85.1215Z" fill="white"/>
<path d="M66.0163 85.3882C65.9256 85.4416 65.8509 85.5429 65.8189 85.671C65.7442 85.9271 65.7442 94.9968 65.8136 95.733C65.9843 97.4563 66.8112 98.598 68.225 99.0461C69.2654 99.3769 70.6739 99.3182 72.0557 98.8861C72.6905 98.6833 73.6935 98.1925 74.3071 97.7817L74.8246 97.4349L74.8886 97.7337C74.9206 97.8991 74.9686 98.1498 75.0006 98.2885C75.0273 98.4272 75.1073 98.6086 75.1767 98.6887C75.2994 98.8327 75.3047 98.8327 76.153 98.8487C76.9906 98.8647 77.0066 98.8647 77.156 98.7367L77.3107 98.6033V92.0891V85.5803L77.188 85.4576C77.0707 85.3402 77.0387 85.3349 75.9983 85.3349H74.9259L74.7979 85.4843L74.6699 85.6336V90.7287V95.8184L74.3658 96.0158C73.2347 96.736 71.8102 97.1468 70.6205 97.0828C69.6869 97.0401 69.1267 96.736 68.8066 96.0905C68.5025 95.4876 68.5131 95.733 68.4811 90.5099C68.4598 86.8127 68.4385 85.6283 68.3904 85.5429C68.2784 85.3509 68.0383 85.3082 67.0727 85.3082C66.3738 85.3135 66.1283 85.3295 66.0163 85.3882Z" fill="white"/>
<path d="M92.2229 85.3775C91.9454 85.5216 91.9561 85.2442 91.9721 92.1531L91.9828 98.6033L92.1322 98.7313C92.2815 98.854 92.3029 98.8594 93.2685 98.8594C94.3356 98.8594 94.5276 98.8167 94.5916 98.5819C94.6077 98.5126 94.6237 95.5729 94.6237 92.0464V85.6336L94.4956 85.4843L94.3676 85.3349L93.3592 85.3189C92.623 85.3082 92.3189 85.3242 92.2229 85.3775Z" fill="white"/>
<defs>
<linearGradient id="paint0_linear_260_3644" x1="75" y1="0" x2="75" y2="150" gradientUnits="userSpaceOnUse">
<stop stop-color="#2C1F6E"/>
<stop offset="1" stop-color="#4400FB"/>
</linearGradient>
</defs>
</svg>
