<svg width="151" height="150" viewBox="0 0 151 150" fill="none" xmlns="http://www.w3.org/2000/svg">
<rect width="150" height="150" transform="translate(0.00341797)" fill="url(#paint0_linear_260_3710)"/>
<g clip-path="url(#clip0_260_3710)">
<path d="M68.598 84.2528V71.4414H68.5031L63.3785 84.2528H61.3856L56.2611 71.4414H56.1662V84.2528H53.7937V66.8862H56.8305L62.3346 80.7415H62.4295L67.9337 66.8862H71.0653V84.2528H68.598ZM84.4461 84.2528H81.9787V82.0701H81.8838C81.2196 83.5885 79.891 84.4426 77.993 84.4426C75.2409 84.4426 73.6276 82.6395 73.6276 79.6976V71.5363H76.1899V79.2231C76.1899 81.1211 77.1389 82.165 78.8471 82.165C80.7451 82.165 81.7889 80.8364 81.7889 78.8435V71.5363H84.3512L84.4461 84.2528ZM91.4687 71.3465C94.4105 71.3465 96.2136 72.9598 96.3085 75.3322H93.936C93.7462 74.0985 92.8922 73.3394 91.4687 73.3394C90.0452 73.3394 89.0962 74.0036 89.0962 75.0475C89.0962 75.8067 89.6656 76.3761 90.9942 76.6608L92.987 77.1353C95.5493 77.7047 96.4983 78.7486 96.4983 80.5517C96.4983 82.8293 94.4105 84.4426 91.4687 84.4426C88.337 84.4426 86.439 82.9242 86.2492 80.4568H88.8115C89.0013 81.7854 89.9503 82.4497 91.4687 82.4497C92.9871 82.4497 93.936 81.7854 93.936 80.7415C93.936 79.8874 93.4615 79.4129 92.133 79.1282L90.1401 78.6537C87.7676 78.0843 86.6288 76.9455 86.6288 75.0475C86.6288 72.8649 88.5268 71.3465 91.4687 71.3465ZM98.3963 68.2148C98.3963 67.3607 99.0606 66.6964 99.9147 66.6964C100.769 66.6964 101.433 67.3607 101.433 68.2148C101.433 69.0689 100.769 69.7332 99.9147 69.7332C99.0606 69.7332 98.3963 69.0689 98.3963 68.2148ZM98.5861 71.5363H101.148V84.2528H98.5861V71.5363ZM111.967 75.9016C111.682 74.573 110.733 73.4342 109.025 73.4342C107.032 73.4342 105.704 75.1424 105.704 77.7996C105.704 80.5517 107.032 82.165 109.025 82.165C110.638 82.165 111.587 81.3109 111.967 79.7925H114.434C114.15 82.4497 112.062 84.3477 109.025 84.3477C105.419 84.3477 103.141 81.8803 103.141 77.7996C103.141 73.8138 105.419 71.2516 109.025 71.2516C112.252 71.2516 114.15 73.3394 114.434 75.8067L111.967 75.9016ZM45.9171 68.5944C45.2528 69.3536 44.2089 70.0179 43.165 69.923C42.9752 68.7842 43.5446 67.6454 44.114 66.9811C44.7783 66.127 45.9171 65.5576 46.866 65.5576C46.9609 66.6015 46.5814 67.7403 45.9171 68.5944ZM46.866 70.1128C47.4354 70.1128 49.1436 70.3026 50.2824 72.0108C50.1875 72.1057 48.2895 73.2445 48.2895 75.6169C48.2895 78.4639 50.7569 79.4129 50.7569 79.4129C50.7569 79.5078 50.3773 80.7415 49.5232 82.0701C48.764 83.2089 47.9099 84.3477 46.6763 84.3477C45.4426 84.3477 45.063 83.5885 43.6395 83.5885C42.216 83.5885 41.7415 84.3477 40.6027 84.3477C39.369 84.3477 38.42 83.114 37.6608 81.9752C36.0475 79.6027 34.8139 75.3322 36.522 72.4853C37.2812 71.0618 38.7996 70.1128 40.318 70.1128C41.5517 70.1128 42.6905 70.9669 43.3548 70.9669C44.0191 70.9669 45.3477 70.0179 46.866 70.1128Z" fill="white"/>
</g>
<defs>
<linearGradient id="paint0_linear_260_3710" x1="75" y1="0" x2="75" y2="150" gradientUnits="userSpaceOnUse">
<stop stop-color="#FB5A72"/>
<stop offset="1" stop-color="#FA354C"/>
</linearGradient>
<clipPath id="clip0_260_3710">
<rect width="80" height="19.6441" fill="white" transform="translate(35.0034 65.178)"/>
</clipPath>
</defs>
</svg>
