<svg width="151" height="150" viewBox="0 0 151 150" fill="none" xmlns="http://www.w3.org/2000/svg">
<rect width="150" height="150" transform="translate(0.00341797)" fill="black"/>
<path d="M115.003 33.8838H97.7051V44.0108H115.003V33.8838Z" fill="#40AB5D"/>
<path d="M115.003 47.9243H97.7051V58.0514H115.003V47.9243Z" fill="url(#paint0_linear_260_3568)"/>
<path d="M115.003 61.9652H97.7051V72.0922H115.003V61.9652Z" fill="url(#paint1_linear_260_3568)"/>
<path d="M52.3018 76.0059H35.0034V86.1329H52.3018V76.0059Z" fill="url(#paint2_linear_260_3568)"/>
<path d="M73.189 76.0059H55.8906V86.1329H73.189V76.0059Z" fill="url(#paint3_linear_260_3568)"/>
<path d="M94.1163 76.0059H76.8179V86.1329H94.1163V76.0059Z" fill="url(#paint4_linear_260_3568)"/>
<path d="M115.003 76.0059H97.7051V86.1329H115.003V76.0059Z" fill="url(#paint5_linear_260_3568)"/>
<path d="M94.1163 61.9652H76.8179V72.0922H94.1163V61.9652Z" fill="url(#paint6_linear_260_3568)"/>
<path d="M73.189 61.9652H55.8906V72.0922H73.189V61.9652Z" fill="url(#paint7_linear_260_3568)"/>
<path d="M73.189 47.9243H55.8906V58.0514H73.189V47.9243Z" fill="url(#paint8_linear_260_3568)"/>
<path d="M35.0034 109.396C35.0034 113.587 37.5834 116.095 41.4168 116.095C43.3283 116.095 44.9368 115.562 45.8351 114.162V116.095H49.3343V96.1329H45.6993V104.62C44.8742 103.219 43.3492 102.592 41.4377 102.592C37.6983 102.582 35.0034 105.142 35.0034 109.396ZM45.8142 109.396C45.8142 111.789 44.1848 113.284 42.2315 113.284C40.2051 113.284 38.6488 111.789 38.6488 109.396C38.6488 106.961 40.2156 105.435 42.2315 105.435C44.1848 105.435 45.8142 106.982 45.8142 109.396Z" fill="white"/>
<path d="M60.6464 110.943C60.2286 112.49 59.1737 113.263 57.5129 113.263C55.5805 113.263 53.9928 112.092 53.951 110.023H63.1115C63.2264 109.511 63.2786 108.967 63.2786 108.372C63.2786 104.661 60.7509 102.571 57.0219 102.571C53.0423 102.571 50.3057 105.403 50.3057 109.25C50.3057 113.535 53.3243 116.106 57.5024 116.106C60.6569 116.106 62.7982 114.789 63.7382 112.166L60.6464 110.943ZM53.951 107.598C54.2957 106.104 55.5387 105.226 57.0324 105.226C58.6618 105.226 59.769 106.104 59.769 107.483L59.7481 107.598H53.951V107.598Z" fill="white"/>
<path d="M74.1313 110.943C73.7135 112.49 72.6585 113.263 70.9977 113.263C69.0654 113.263 67.4777 112.092 67.4359 110.023H76.5964C76.7113 109.511 76.7635 108.967 76.7635 108.372C76.7635 104.661 74.2358 102.571 70.5068 102.571C66.5272 102.571 63.7905 105.403 63.7905 109.25C63.7905 113.535 66.8092 116.106 70.9873 116.106C74.1417 116.106 76.283 114.789 77.2231 112.166L74.1313 110.943ZM67.4359 107.598C67.7806 106.104 69.0236 105.226 70.5173 105.226C72.1467 105.226 73.2539 106.104 73.2539 107.483L73.233 107.598H67.4359V107.598Z" fill="white"/>
<path d="M89.59 116.116V112.824H81.9545L89.3811 105.592V102.582H77.6302V105.717H84.8061L77.4004 112.981V116.116H89.59Z" fill="white"/>
<path d="M100.213 110.943C99.795 112.49 98.7401 113.263 97.0793 113.263C95.1469 113.263 93.5592 112.092 93.5175 110.023H102.678C102.793 109.511 102.845 108.967 102.845 108.372C102.845 104.661 100.317 102.571 96.5884 102.571C92.6087 102.571 89.8721 105.403 89.8721 109.25C89.8721 113.535 92.8907 116.106 97.0688 116.106C100.223 116.106 102.365 114.789 103.305 112.166L100.213 110.943ZM93.5175 107.598C93.8621 106.104 95.1051 105.226 96.5988 105.226C98.2283 105.226 99.3354 106.104 99.3354 107.483L99.3146 107.598H93.5175V107.598Z" fill="white"/>
<path d="M111.463 107.253C111.463 107.389 111.463 107.64 111.463 107.64H115.004C115.004 107.64 115.004 106.971 115.004 106.605C115.004 104.285 113.552 102.602 111.118 102.602C109.551 102.602 108.444 103.365 107.87 104.63V102.602H104.214V116.116H107.87V107.41C107.87 106.031 108.611 105.268 109.75 105.268C110.794 105.278 111.463 106.26 111.463 107.253Z" fill="white"/>
<defs>
<linearGradient id="paint0_linear_260_3568" x1="106.439" y1="58.1388" x2="106.276" y2="47.7756" gradientUnits="userSpaceOnUse">
<stop stop-color="#358C7B"/>
<stop offset="0.5256" stop-color="#33A65E"/>
</linearGradient>
<linearGradient id="paint1_linear_260_3568" x1="97.4508" y1="71.5723" x2="115.27" y2="62.4983" gradientUnits="userSpaceOnUse">
<stop stop-color="#222B90"/>
<stop offset="1" stop-color="#367B99"/>
</linearGradient>
<linearGradient id="paint2_linear_260_3568" x1="35.0066" y1="81.0733" x2="52.2905" y2="81.0733" gradientUnits="userSpaceOnUse">
<stop stop-color="#FF9900"/>
<stop offset="1" stop-color="#FF8000"/>
</linearGradient>
<linearGradient id="paint3_linear_260_3568" x1="55.9099" y1="81.0733" x2="73.1938" y2="81.0733" gradientUnits="userSpaceOnUse">
<stop stop-color="#FF8000"/>
<stop offset="1" stop-color="#CC1953"/>
</linearGradient>
<linearGradient id="paint4_linear_260_3568" x1="76.8129" y1="81.0733" x2="94.0969" y2="81.0733" gradientUnits="userSpaceOnUse">
<stop stop-color="#CC1953"/>
<stop offset="1" stop-color="#241284"/>
</linearGradient>
<linearGradient id="paint5_linear_260_3568" x1="97.6958" y1="81.0733" x2="114.98" y2="81.0733" gradientUnits="userSpaceOnUse">
<stop stop-color="#222B90"/>
<stop offset="1" stop-color="#3559A6"/>
</linearGradient>
<linearGradient id="paint6_linear_260_3568" x1="76.1307" y1="69.7592" x2="94.7808" y2="64.3088" gradientUnits="userSpaceOnUse">
<stop stop-color="#CC1953"/>
<stop offset="1" stop-color="#241284"/>
</linearGradient>
<linearGradient id="paint7_linear_260_3568" x1="55.2947" y1="63.6596" x2="73.8116" y2="70.3953" gradientUnits="userSpaceOnUse">
<stop offset="0.00266984" stop-color="#FFCC00"/>
<stop offset="0.9999" stop-color="#CE1938"/>
</linearGradient>
<linearGradient id="paint8_linear_260_3568" x1="57.3626" y1="46.3505" x2="71.749" y2="59.6178" gradientUnits="userSpaceOnUse">
<stop offset="0.00266984" stop-color="#FFD100"/>
<stop offset="1" stop-color="#FD5A22"/>
</linearGradient>
</defs>
</svg>
