<svg width="151" height="150" viewBox="0 0 151 150" fill="none" xmlns="http://www.w3.org/2000/svg">
<rect width="150.004" height="150" fill="#1ED760"/>
<path d="M75.0017 35C52.9104 35 35.001 52.9089 35.001 75.0002C35.001 97.0925 52.9104 115 75.0017 115C97.0954 115 115.003 97.0925 115.003 75.0002C115.003 52.9104 97.0954 35.0019 75.0012 35.0019L75.0017 35V35ZM93.3458 92.6918C92.6293 93.8669 91.0912 94.2394 89.9162 93.5182C80.5244 87.7815 68.7013 86.4822 54.7775 89.6635C53.4358 89.9692 52.0984 89.1285 51.7927 87.7863C51.4855 86.444 52.3229 85.1066 53.6679 84.8009C68.9053 81.3183 81.9755 82.8186 92.5194 89.2622C93.6945 89.9835 94.067 91.5168 93.3458 92.6918V92.6918ZM98.2418 81.7988C97.339 83.2676 95.4188 83.7309 93.9524 82.8281C83.2003 76.2178 66.8103 74.3038 54.0926 78.1643C52.4432 78.6625 50.7012 77.7329 50.2006 76.0864C49.7038 74.4371 50.6338 72.6984 52.2803 72.1969C66.8074 67.789 84.8673 69.9241 97.2148 77.5118C98.6812 78.4146 99.1446 80.3347 98.2418 81.7993V81.7988ZM98.6621 70.4572C85.7701 62.7998 64.4999 62.0958 52.191 65.8315C50.2145 66.431 48.1242 65.3152 47.5252 63.3386C46.9262 61.3611 48.0411 59.2723 50.0191 58.6714C64.1488 54.382 87.6377 55.2108 102.481 64.0222C104.262 65.0773 104.845 67.3734 103.789 69.1489C102.738 70.9267 100.436 71.5128 98.664 70.4572H98.6621Z" fill="white"/>
</svg>
