<svg width="151" height="150" viewBox="0 0 151 150" fill="none" xmlns="http://www.w3.org/2000/svg">
<rect width="150" height="150" transform="translate(0.00341797)" fill="white"/>
<g clip-path="url(#clip0_260_3689)">
<path d="M67.8648 55.5439H67.9089C68.2447 55.9292 68.6244 56.2704 68.9821 56.6392L71.4148 59.0719V59.1159C70.2371 60.2882 69.0647 61.4716 67.8868 62.6439C66.7035 61.4661 65.5257 60.2827 64.3424 59.1049C64.403 58.9893 64.5185 58.9123 64.6066 58.8187C65.6908 57.7235 66.7916 56.6447 67.8648 55.5439ZM74.9648 55.5439H75.0088C75.0419 55.5935 75.0748 55.6375 75.1189 55.6815C76.2581 56.8098 77.381 57.9546 78.5312 59.0774C78.5037 59.1434 78.4432 59.1875 78.3936 59.237C77.2544 60.3708 76.1206 61.5101 74.9813 62.6439C73.7924 61.4716 72.6256 60.2772 71.4313 59.1104C72.5871 57.9051 73.8034 56.7438 74.9648 55.5439ZM82.0647 55.5439H82.1087C82.3289 55.8081 82.5875 56.0338 82.8242 56.2815C83.7158 57.1731 84.602 58.0592 85.4935 58.9508C85.5377 59.0003 85.6092 59.0444 85.6256 59.1159C84.4313 60.2772 83.2755 61.4826 82.0757 62.6439L78.6908 59.259C78.6358 59.1985 78.5642 59.1545 78.5367 59.0774C79.1366 58.494 79.72 57.8941 80.3145 57.3052C80.8979 56.7163 81.4923 56.1439 82.0647 55.5439ZM71.4808 66.1388C72.6421 64.9775 73.809 63.8162 74.9703 62.6494L75.0197 62.6714C76.1865 63.8437 77.3533 65.016 78.5311 66.1773C78.4927 66.2654 78.4101 66.3149 78.3495 66.3865C77.502 67.2286 76.6543 68.0816 75.8067 68.9237C75.5315 69.1879 75.2674 69.4851 74.9868 69.7328C74.585 69.3695 74.2162 68.9623 73.8254 68.588C73.0329 67.7954 72.2459 67.0029 71.4478 66.2159C71.4588 66.1938 71.4698 66.1608 71.4808 66.1388ZM35.0181 81.4064H45.6074C45.6129 82.2539 45.6129 83.1016 45.6074 83.9437H41.7933V93.9606C41.7878 94.1257 41.8043 94.2908 41.7712 94.456H38.8267C38.8377 90.95 38.8322 87.4496 38.8322 83.9437H35.0181V81.4064ZM54.441 81.4064C55.4317 81.4064 56.4224 81.4064 57.4131 81.4119C57.4076 85.7599 57.4241 90.1079 57.4021 94.456H54.4465C54.43 93.3001 54.441 92.1443 54.4355 90.9885C54.441 87.7963 54.4355 84.6041 54.441 81.4064V81.4064ZM106.843 81.4064C107.834 81.4064 108.824 81.4064 109.815 81.4119V91.8361C111.538 91.847 113.266 91.8416 114.988 91.8416V94.456H106.848C106.832 90.1079 106.848 85.7599 106.843 81.4064ZM78.9055 85.7819C78.6083 84.7581 78.0304 83.8281 77.2268 83.1291C76.1646 82.1879 74.7776 81.6761 73.3852 81.4945C72.5981 81.3789 71.8001 81.4119 71.0076 81.4064H67.4907C67.4246 81.4064 67.3531 81.4119 67.287 81.4229C67.3036 85.7324 67.287 90.0419 67.2981 94.3513C67.2925 94.3788 67.287 94.4283 67.2815 94.4558H72.367C72.8239 94.3733 73.2917 94.3788 73.7429 94.2797C75.284 93.999 76.7645 93.234 77.7717 92.0176C78.5147 91.137 78.9715 90.0307 79.1201 88.8915C79.2522 87.8514 79.1972 86.7836 78.9055 85.7819V85.7819ZM75.5537 90.1134C75.1849 90.7023 74.64 91.1702 74.0071 91.4564C73.4347 91.7206 72.8018 91.8416 72.1742 91.8581C71.5138 91.8638 70.8533 91.8581 70.1928 91.8638C70.1598 91.1316 70.1873 90.3996 70.1763 89.6677C70.1763 87.7579 70.1763 85.8536 70.1819 83.9438H72.2239C73.2476 83.9658 74.2878 84.318 75.0308 85.0445C75.6968 85.6885 76.071 86.5966 76.1316 87.5157C76.1921 88.4128 76.027 89.3429 75.5537 90.1134V90.1134ZM97.6845 91.3848C96.4406 88.3632 95.2023 85.3361 93.9475 82.32C93.8318 82.0173 93.7108 81.7091 93.5732 81.4174C92.5494 81.4009 91.5258 81.4009 90.502 81.4174C88.7518 85.6278 87.0016 89.8382 85.2515 94.0432C85.1965 94.1808 85.1304 94.3129 85.1029 94.456H88.2676C88.5813 93.5863 88.917 92.7278 89.2308 91.8581C91.025 91.8306 92.8247 91.8526 94.6245 91.8471C94.7181 91.8196 94.7456 91.9188 94.7676 91.9847C95.0703 92.8103 95.3786 93.6304 95.6757 94.456H98.9396C98.5431 93.4212 98.1028 92.4085 97.6845 91.3848V91.3848ZM90.0672 89.541C90.0507 89.4254 90.1223 89.3264 90.1553 89.2218C90.7552 87.6532 91.3717 86.0846 91.966 84.5161C91.977 84.5104 91.9991 84.505 92.0101 84.505C92.632 86.1562 93.2649 87.8017 93.8924 89.4529C93.8924 89.4749 93.8979 89.5189 93.8979 89.541C92.621 89.53 91.3441 89.53 90.0672 89.541Z" fill="black" stroke="black" stroke-width="0.161675"/>
</g>
<defs>
<clipPath id="clip0_260_3689">
<rect width="80" height="38.912" fill="white" transform="translate(35.0034 55.5439)"/>
</clipPath>
</defs>
</svg>
