<svg width="151" height="150" viewBox="0 0 151 150" fill="none" xmlns="http://www.w3.org/2000/svg">
<rect width="150" height="150" transform="translate(0.00341797)" fill="#282828"/>
<g clip-path="url(#clip0_260_3613)">
<path d="M75.0034 115C97.0948 115 115.003 97.0914 115.003 75C115.003 52.9086 97.0948 35 75.0034 35C52.912 35 35.0034 52.9086 35.0034 75C35.0034 97.0914 52.912 115 75.0034 115Z" fill="#FF0000"/>
<path d="M75.0033 55.9091C85.5033 55.9091 94.0942 64.4546 94.0942 75C94.0942 85.5455 85.5488 94.0909 75.0033 94.0909C64.4579 94.0909 55.9124 85.5455 55.9124 75C55.9124 64.4546 64.5033 55.9091 75.0033 55.9091ZM75.0033 54.0909C63.4579 54.0909 54.0942 63.4546 54.0942 75C54.0942 86.5455 63.4579 95.9091 75.0033 95.9091C86.5488 95.9091 95.9124 86.5455 95.9124 75C95.9124 63.4546 86.5488 54.0909 75.0033 54.0909Z" fill="white"/>
<path d="M67.7305 85.4545L85.4577 74.5454L67.7305 64.5454V85.4545Z" fill="white"/>
</g>
<defs>
<clipPath id="clip0_260_3613">
<rect width="80" height="80" fill="white" transform="translate(35.0034 35)"/>
</clipPath>
</defs>
</svg>
