<svg width="151" height="150" viewBox="0 0 151 150" fill="none" xmlns="http://www.w3.org/2000/svg">
<rect width="150.004" height="150" transform="translate(0.00341797)" fill="url(#paint0_linear_260_4018)"/>
<g clip-path="url(#clip0_260_4018)">
<path fill-rule="evenodd" clip-rule="evenodd" d="M61.1853 39.4396C61.1303 39.5022 61.0853 39.5742 61.0853 39.6C61.0853 39.6448 61.0005 39.7572 60.7853 39.997C60.7303 40.0584 60.6853 40.134 60.6853 40.1652C60.6853 40.1962 60.5953 40.305 60.4853 40.407C60.3753 40.509 60.2853 40.6318 60.2853 40.68C60.2853 40.7282 60.2011 40.847 60.0983 40.9438C59.9953 41.0408 59.8429 41.228 59.7597 41.36C59.6763 41.492 59.5445 41.647 59.4667 41.7046C59.3889 41.762 59.3253 41.8622 59.3253 41.927C59.3253 41.992 59.2713 42.0658 59.2053 42.091C59.1393 42.1164 59.0853 42.1708 59.0853 42.212C59.0853 42.29 59.0009 42.4036 58.7149 42.7106C58.6211 42.8112 58.5203 42.9696 58.4907 43.0626C58.4613 43.1558 58.3669 43.254 58.2813 43.2812C58.1955 43.3086 58.1253 43.3954 58.1253 43.4742C58.1253 43.553 58.0353 43.6852 57.9253 43.7678C57.8153 43.8504 57.7253 43.9632 57.7253 44.0182C57.7253 44.0734 57.6173 44.2218 57.4853 44.348C57.3533 44.4742 57.2453 44.634 57.2453 44.7032C57.2453 44.7726 57.1751 44.8514 57.0893 44.8788C57.0037 44.906 56.9093 45.0042 56.8799 45.0974C56.8503 45.1904 56.7405 45.3522 56.6357 45.4568C56.5309 45.5616 56.4453 45.6996 56.4453 45.7636C56.4453 45.8276 56.4093 45.88 56.3653 45.88C56.3213 45.88 56.2853 45.931 56.2853 45.9934C56.2853 46.0556 56.2403 46.1218 56.1853 46.1404C56.0487 46.1864 56.0573 49.4174 56.1941 49.463C56.2485 49.481 56.2853 49.6822 56.2853 49.962C56.2853 50.2196 56.3169 50.4502 56.3557 50.474C56.3943 50.498 56.4519 50.932 56.4835 51.4388C56.5151 51.9454 56.5735 52.36 56.6131 52.36C56.6529 52.36 56.6853 52.576 56.6853 52.84C56.6853 53.104 56.7169 53.32 56.7557 53.32C56.7943 53.32 56.8521 53.77 56.8837 54.32C56.9155 54.87 56.9737 55.32 57.0133 55.32C57.0529 55.32 57.0853 55.536 57.0853 55.8C57.0853 56.064 57.1167 56.28 57.1551 56.28C57.1933 56.28 57.2505 56.7118 57.2821 57.2396C57.3135 57.7674 57.3721 58.2196 57.4123 58.2444C57.4525 58.2692 57.4853 58.4854 57.4853 58.7248C57.4853 58.9642 57.5169 59.16 57.5557 59.16C57.5943 59.16 57.6521 59.61 57.6837 60.16C57.7155 60.71 57.7737 61.16 57.8133 61.16C57.8529 61.16 57.8853 61.376 57.8853 61.64C57.8853 61.9066 57.9209 62.12 57.9653 62.12C58.0093 62.12 58.0453 62.192 58.0453 62.28C58.0453 62.518 58.3837 62.4996 60.9253 62.1242C61.2113 62.082 61.9133 61.988 62.4853 61.9152C63.8283 61.7444 63.9037 61.7148 63.8537 61.38C63.7379 60.6042 63.4089 58.244 63.2431 57C63.1441 56.2574 62.9257 54.6502 62.8409 54.04C62.8011 53.754 62.7137 53.124 62.6463 52.64C62.4703 51.3736 62.3743 50.6774 62.2385 49.68C62.1727 49.196 62.0865 48.566 62.0471 48.28C62.0077 47.994 61.9207 47.346 61.8537 46.84C61.7867 46.334 61.7137 45.812 61.6915 45.68C61.6693 45.548 61.5949 45.008 61.5259 44.48C61.3787 43.3502 61.2857 42.691 61.1633 41.9092C61.0561 41.2234 61.0495 40.2582 61.1509 40.0618C61.2245 39.9196 61.3533 39.3174 61.3089 39.323C61.2959 39.3248 61.2403 39.3772 61.1853 39.4396ZM72.5399 40.68C72.4969 40.79 72.3849 41.078 72.2913 41.32C72.1975 41.562 72.0887 41.832 72.0493 41.92C72.0099 42.008 71.7025 42.782 71.3663 43.64C71.0301 44.498 70.7233 45.272 70.6843 45.36C70.6453 45.448 70.4707 45.88 70.2963 46.32C69.9837 47.1088 67.6353 53.0192 66.6377 55.5284C66.0487 57.0096 66.0445 57.03 66.3453 56.9658C66.4663 56.9398 66.9613 56.867 67.4453 56.8038C68.7151 56.6378 68.9891 56.6002 69.5253 56.519C69.7893 56.479 70.4553 56.3894 71.0053 56.32C71.5553 56.2506 72.2213 56.16 72.4853 56.1186C72.7493 56.0772 73.3973 55.9874 73.9253 55.9192C74.4533 55.8508 75.1013 55.7614 75.3653 55.7206C75.6293 55.6796 76.2953 55.5894 76.8453 55.52C77.3953 55.4506 78.0613 55.361 78.3253 55.321C78.5893 55.281 79.2193 55.1926 79.7253 55.1244C83.2965 54.6438 83.7253 54.5798 83.7251 54.5272C83.7249 54.4718 83.4703 54.147 79.9233 49.68C78.8751 48.36 77.7753 46.974 77.4793 46.6C77.1833 46.226 76.3417 45.164 75.6091 44.24C74.8765 43.316 74.1799 42.4352 74.0611 42.2828C73.9425 42.1304 73.7541 41.8964 73.6427 41.7628C73.5313 41.6292 73.3447 41.394 73.2279 41.24C73.1111 41.086 72.9263 40.852 72.8169 40.72L72.6181 40.48L72.5399 40.68ZM74.1633 46.7044C74.7831 47.497 76.5287 49.708 77.3651 50.76C78.9079 52.7006 78.8365 52.5588 78.3053 52.6254C77.8537 52.6822 77.0495 52.7916 75.8453 52.9598C75.3613 53.0274 74.6953 53.1178 74.3653 53.161C74.0353 53.204 73.3873 53.2936 72.9253 53.36C72.4633 53.4264 71.7805 53.5178 71.4079 53.5632C71.0353 53.6086 70.6523 53.6654 70.5567 53.6894C70.4611 53.7134 70.3621 53.6994 70.3367 53.6586C70.2985 53.5966 70.9849 51.7268 71.3567 50.88C71.4147 50.748 71.8863 49.569 72.4049 48.26C72.9233 46.951 73.3875 45.882 73.4365 45.8844C73.4853 45.887 73.8123 46.256 74.1633 46.7044ZM99.1653 60.5276C96.4129 60.7944 93.8843 62.595 92.7185 65.1182C90.1797 70.613 94.2831 76.8274 100.285 76.5776C107.782 76.2656 110.834 66.8776 104.959 62.2012C103.682 61.1848 100.932 60.2336 99.8969 60.4508C99.8685 60.4568 99.5393 60.4912 99.1653 60.5276ZM101.467 63.392C104.547 64.3398 106.158 67.6992 104.923 70.6C102.817 75.547 95.6115 74.6718 94.7145 69.36C94.2569 66.6496 96.1309 63.8602 98.7653 63.33C99.0073 63.2814 99.2773 63.225 99.3653 63.2046C99.6953 63.1284 100.983 63.2432 101.467 63.392ZM40.9853 65.8974C40.9083 65.9936 40.8453 66.1106 40.8453 66.1572C40.8453 66.2038 40.7553 66.3096 40.6453 66.3922C40.5353 66.4748 40.4453 66.607 40.4453 66.6858C40.4453 66.7646 40.3751 66.8514 40.2893 66.8788C40.2037 66.906 40.1093 67.0042 40.0799 67.0974C40.0503 67.1904 39.9495 67.3488 39.8557 67.4494C39.5947 67.7296 39.4853 67.8686 39.4853 67.9204C39.4853 67.9464 39.3953 68.051 39.2853 68.153C39.1753 68.255 39.0853 68.3628 39.0853 68.3926C39.0853 68.4442 39.0067 68.5502 38.7853 68.797C38.7303 68.8584 38.6853 68.934 38.6853 68.9652C38.6853 68.9962 38.5953 69.105 38.4853 69.207C38.3753 69.309 38.2853 69.4318 38.2853 69.48C38.2853 69.5282 38.1953 69.651 38.0853 69.753C37.9753 69.855 37.8853 69.9638 37.8853 69.9948C37.8853 70.026 37.8403 70.0988 37.7853 70.1568C37.7303 70.2148 37.6133 70.3628 37.5253 70.4858C37.4373 70.6088 37.2663 70.8188 37.1453 70.9524C37.0243 71.0862 36.9253 71.218 36.9253 71.2454C36.9253 71.2728 36.8351 71.3998 36.7249 71.5276C36.6145 71.6554 36.5041 71.823 36.4795 71.9C36.4547 71.977 36.4009 72.04 36.3599 72.04C36.3189 72.04 36.2853 72.094 36.2853 72.16C36.2853 72.226 36.2497 72.28 36.2063 72.28C36.1627 72.28 36.1041 72.424 36.0761 72.6C36.0479 72.776 35.9935 72.92 35.9551 72.92C35.9167 72.92 35.8853 73.244 35.8853 73.64C35.8853 74.036 35.9163 74.36 35.9539 74.36C35.9917 74.36 36.0481 74.801 36.0795 75.34C36.1107 75.879 36.1697 76.332 36.2107 76.3466C36.2517 76.3614 36.2853 76.5864 36.2853 76.8466C36.2853 77.107 36.3169 77.32 36.3557 77.32C36.3943 77.32 36.4521 77.77 36.4837 78.32C36.5155 78.87 36.5737 79.32 36.6133 79.32C36.6529 79.32 36.6853 79.536 36.6853 79.8C36.6853 80.064 36.7167 80.28 36.7551 80.28C36.7933 80.28 36.8505 80.7118 36.8821 81.2396C36.9135 81.7674 36.9721 82.2196 37.0123 82.2444C37.0525 82.2692 37.0853 82.4854 37.0853 82.7248C37.0853 82.9642 37.1169 83.16 37.1557 83.16C37.1943 83.16 37.2521 83.61 37.2837 84.16C37.3155 84.71 37.3737 85.16 37.4133 85.16C37.4529 85.16 37.4853 85.376 37.4853 85.64C37.4853 85.904 37.5167 86.12 37.5551 86.12C37.5933 86.12 37.6505 86.5518 37.6821 87.0796C37.7135 87.6074 37.7721 88.0596 37.8123 88.0844C37.8525 88.1092 37.8853 88.3434 37.8853 88.6048C37.8853 88.8662 37.9181 89.08 37.9583 89.08C37.9985 89.08 38.0571 89.5128 38.0887 90.0416C38.1203 90.5706 38.1773 91.0228 38.2157 91.0464C38.2539 91.07 38.2853 91.2854 38.2853 91.5248C38.2853 91.7642 38.3163 91.96 38.3541 91.96C38.3919 91.96 38.4443 92.1664 38.4703 92.4188C38.4963 92.671 38.5553 92.89 38.6015 92.9054C38.6475 92.9208 38.6853 92.9844 38.6853 93.0466C38.6853 93.109 38.7189 93.16 38.7599 93.16C38.8009 93.16 38.8567 93.2302 38.8841 93.316C38.9113 93.4016 39.0019 93.4934 39.0853 93.52C39.1687 93.5466 39.2593 93.6382 39.2865 93.724C39.3137 93.8096 39.4235 93.9016 39.5307 93.9284C39.6377 93.9554 39.7253 94.0094 39.7253 94.0486C39.7253 94.088 39.8153 94.12 39.9253 94.12C40.0353 94.12 40.1253 94.156 40.1253 94.2C40.1253 94.2494 40.5387 94.28 41.2053 94.28C41.8719 94.28 42.2853 94.2494 42.2853 94.2C42.2853 94.1556 42.4971 94.12 42.7605 94.12C43.0219 94.12 43.2555 94.0884 43.2793 94.0496C43.3033 94.011 43.7373 93.9534 44.2441 93.9218C44.7507 93.8902 45.1653 93.8318 45.1653 93.7922C45.1653 93.7524 45.3813 93.72 45.6453 93.72C45.9093 93.72 46.1253 93.6884 46.1253 93.6496C46.1253 93.611 46.5753 93.5532 47.1253 93.5216C47.6753 93.4898 48.1253 93.4316 48.1253 93.392C48.1253 93.3524 48.3413 93.32 48.6053 93.32C48.8693 93.32 49.0853 93.2886 49.0853 93.2502C49.0853 93.212 49.5171 93.1548 50.0449 93.1232C50.5727 93.0918 51.0249 93.0332 51.0497 92.993C51.0745 92.9528 51.2907 92.92 51.5301 92.92C51.7695 92.92 51.9653 92.8876 51.9653 92.848C51.9653 92.8084 52.4153 92.7502 52.9653 92.7184C53.5153 92.6868 53.9653 92.629 53.9653 92.5904C53.9653 92.5516 54.1813 92.52 54.4453 92.52C54.7093 92.52 54.9253 92.488 54.9253 92.4488C54.9253 92.4098 55.3577 92.3518 55.8861 92.32C56.4145 92.2882 56.8667 92.2302 56.8907 92.1912C56.9149 92.152 57.1487 92.12 57.4101 92.12C57.6715 92.12 57.8853 92.0876 57.8853 92.0478C57.8853 92.0082 58.2999 91.9498 58.8065 91.9182C59.3133 91.8866 59.7473 91.829 59.7713 91.7904C59.7951 91.7516 60.0257 91.72 60.2833 91.72C60.5411 91.72 60.7639 91.6894 60.7787 91.6518C60.7933 91.6144 61.0809 91.5634 61.4179 91.5386L62.0303 91.4934L62.0875 92.4068C62.1189 92.909 62.1761 93.32 62.2149 93.32C62.2537 93.32 62.2853 93.554 62.2853 93.84C62.2853 94.126 62.3173 94.36 62.3565 94.36C62.3955 94.36 62.4535 94.792 62.4853 95.32C62.5171 95.848 62.5751 96.28 62.6141 96.28C62.6533 96.28 62.6853 96.4938 62.6853 96.7552C62.6853 97.0166 62.7169 97.2502 62.7557 97.274C62.7943 97.298 62.8519 97.732 62.8835 98.2388C62.9151 98.7454 62.9735 99.16 63.0131 99.16C63.0529 99.16 63.0853 99.394 63.0853 99.68C63.0853 99.966 63.1173 100.2 63.1565 100.2C63.1955 100.2 63.2535 100.632 63.2853 101.16C63.3171 101.688 63.3751 102.12 63.4141 102.12C63.4533 102.12 63.4853 102.334 63.4853 102.595C63.4853 102.857 63.5173 103.09 63.5565 103.115C63.5955 103.139 63.6535 103.591 63.6853 104.119C63.7171 104.648 63.7751 105.08 63.8141 105.08C63.8533 105.08 63.8853 105.276 63.8853 105.515C63.8853 105.755 63.9167 105.97 63.9549 105.994C63.9933 106.017 64.0503 106.469 64.0819 106.998C64.1135 107.527 64.1721 107.96 64.2123 107.96C64.2525 107.96 64.2853 108.176 64.2853 108.44C64.2853 108.704 64.3169 108.92 64.3557 108.92C64.3943 108.92 64.4521 109.37 64.4837 109.92C64.5155 110.47 64.5737 110.92 64.6133 110.92C64.6529 110.92 64.6853 111.136 64.6853 111.4C64.6853 111.664 64.7167 111.88 64.7551 111.88C64.7935 111.88 64.8429 112.067 64.8649 112.297C64.8869 112.526 64.9455 112.727 64.9951 112.743C65.0447 112.76 65.0853 112.838 65.0853 112.918C65.0853 112.998 65.1393 113.084 65.2053 113.109C65.2713 113.134 65.3253 113.208 65.3253 113.272C65.3253 113.336 65.4423 113.471 65.5853 113.572C65.7283 113.672 65.8929 113.801 65.9511 113.857C66.0091 113.914 66.1241 113.96 66.2063 113.96C66.2885 113.96 66.3781 113.996 66.4053 114.04C66.4325 114.084 66.5427 114.12 66.6501 114.12C66.7575 114.12 66.8453 114.156 66.8453 114.2C66.8453 114.247 67.1119 114.28 67.4853 114.28C67.8587 114.28 68.1253 114.247 68.1253 114.2C68.1253 114.156 68.3387 114.12 68.6053 114.12C68.8693 114.12 69.0853 114.089 69.0853 114.05C69.0853 114.012 69.5171 113.955 70.0449 113.923C70.5727 113.892 71.0249 113.833 71.0497 113.793C71.0745 113.753 71.2907 113.72 71.5301 113.72C71.7695 113.72 71.9653 113.688 71.9653 113.65C71.9653 113.611 72.4153 113.553 72.9653 113.522C73.5153 113.49 73.9653 113.432 73.9653 113.392C73.9653 113.352 74.1813 113.32 74.4453 113.32C74.7093 113.32 74.9253 113.288 74.9253 113.249C74.9253 113.21 75.3577 113.152 75.8861 113.12C76.4145 113.088 76.8667 113.03 76.8907 112.991C76.9149 112.952 77.1487 112.92 77.4101 112.92C77.6715 112.92 77.8853 112.888 77.8853 112.848C77.8853 112.808 78.2999 112.75 78.8065 112.718C79.3133 112.687 79.7473 112.629 79.7713 112.59C79.7951 112.552 80.0287 112.52 80.2901 112.52C80.5515 112.52 80.7653 112.488 80.7653 112.449C80.7653 112.41 81.1973 112.352 81.7253 112.32C82.2533 112.288 82.6853 112.23 82.6853 112.191C82.6853 112.152 82.9193 112.12 83.2053 112.12C83.4913 112.12 83.7253 112.088 83.7253 112.05C83.7253 112.011 84.1393 111.953 84.6453 111.922C85.1513 111.89 85.5653 111.832 85.5653 111.792C85.5653 111.752 85.7453 111.72 85.9653 111.72C86.1853 111.72 86.3653 111.689 86.3653 111.65C86.3653 111.612 86.4979 111.559 86.6601 111.533C86.9553 111.485 87.0111 111.445 87.6053 110.845C88.0101 110.436 88.1253 110.301 88.1253 110.233C88.1253 110.203 88.2153 110.095 88.3253 109.993C88.4353 109.891 88.5253 109.768 88.5253 109.72C88.5253 109.672 88.6153 109.549 88.7253 109.447C88.8353 109.345 88.9253 109.236 88.9253 109.205C88.9253 109.174 88.9703 109.101 89.0253 109.043C89.0803 108.985 89.1973 108.837 89.2853 108.714C89.3733 108.591 89.5443 108.381 89.6653 108.248C89.7863 108.114 89.8853 107.978 89.8853 107.946C89.8853 107.914 89.9753 107.797 90.0853 107.687C90.1953 107.577 90.2853 107.449 90.2853 107.403C90.2853 107.357 90.3753 107.241 90.4853 107.145C90.5953 107.049 90.6853 106.929 90.6853 106.877C90.6853 106.825 90.7753 106.715 90.8853 106.632C90.9953 106.55 91.0853 106.44 91.0853 106.389C91.0853 106.339 91.1933 106.181 91.3253 106.04C91.4573 105.899 91.5653 105.735 91.5653 105.677C91.5653 105.619 91.6355 105.549 91.7213 105.521C91.8069 105.494 91.9013 105.396 91.9307 105.303C91.9603 105.21 92.0701 105.048 92.1749 104.943C92.2797 104.838 92.3653 104.714 92.3653 104.666C92.3653 104.618 92.4429 104.512 92.5375 104.429C92.8007 104.201 92.6017 104.251 92.1777 104.52C91.5947 104.89 91.3321 104.976 90.3525 105.115C89.8535 105.186 89.2113 105.279 88.9253 105.322C88.6393 105.366 87.9913 105.455 87.4853 105.52C86.9793 105.585 86.3313 105.674 86.0453 105.718C85.7593 105.762 85.0933 105.853 84.5653 105.922C84.0373 105.991 83.4073 106.08 83.1653 106.12C82.9233 106.16 82.2573 106.25 81.6853 106.319C81.1133 106.389 80.4473 106.479 80.2053 106.521C79.9633 106.562 79.3333 106.651 78.8053 106.718C77.9005 106.833 77.6237 106.871 76.2453 107.076C75.9373 107.121 75.3793 107.197 75.0053 107.245C74.6313 107.292 74.1093 107.365 73.8453 107.405C72.1483 107.666 71.4139 107.546 70.7047 106.892C70.0831 106.319 69.9537 105.934 69.6817 103.84C69.6131 103.312 69.5243 102.664 69.4845 102.4C69.4445 102.136 69.3553 101.488 69.2863 100.96C69.2173 100.432 69.1267 99.766 69.0849 99.48C69.0431 99.194 68.9539 98.546 68.8865 98.04C68.8191 97.534 68.7285 96.868 68.6847 96.56C68.6031 95.9834 68.4253 94.6956 68.2815 93.64C68.2365 93.31 68.1653 92.806 68.1233 92.52C68.0811 92.234 68.0081 91.694 67.9607 91.32C67.9135 90.946 67.8431 90.424 67.8045 90.16C67.7659 89.896 67.6759 89.248 67.6045 88.72C67.5331 88.192 67.4447 87.544 67.4079 87.28C67.3713 87.016 67.3005 86.476 67.2507 86.08C67.2009 85.684 67.1407 85.2382 67.1171 85.0892L67.0739 84.8184L66.6197 84.8702C66.3697 84.8986 65.9313 84.9548 65.6453 84.9948C65.1699 85.0614 64.1825 85.1986 62.7253 85.401C62.4173 85.4436 61.7693 85.534 61.2853 85.6018C60.8013 85.6694 60.1443 85.7598 59.8253 85.8024C59.5063 85.845 58.9843 85.915 58.6653 85.9576C58.3463 86.0002 57.6893 86.0906 57.2053 86.1582C55.3039 86.4242 53.6909 86.6468 52.5253 86.8042C52.0193 86.8726 51.3533 86.964 51.0453 87.0072C50.7373 87.0506 50.2333 87.1196 49.9253 87.1606C49.6173 87.2016 48.9513 87.2926 48.4453 87.3628C45.8841 87.7184 45.9259 87.715 45.4625 87.6072C44.3545 87.3498 43.5889 86.4962 43.4469 85.36C43.4193 85.14 43.3625 84.726 43.3203 84.44C43.2783 84.154 43.1897 83.506 43.1233 83C43.0571 82.494 42.9687 81.864 42.9271 81.6C42.8855 81.336 42.7943 80.67 42.7245 80.12C42.6547 79.57 42.5625 78.886 42.5197 78.6C42.4183 77.9238 42.1309 75.8362 42.0407 75.12C42.0019 74.812 41.9147 74.164 41.8471 73.68C41.7793 73.196 41.6889 72.548 41.6463 72.24C41.6035 71.932 41.5131 71.284 41.4453 70.8C41.3777 70.316 41.2897 69.668 41.2499 69.36C41.2099 69.052 41.1343 68.4974 41.0817 68.1274C40.9735 67.3654 41.0127 66.2406 41.1523 66.101C41.2553 65.998 41.2797 65.7194 41.1853 65.721C41.1523 65.7216 41.0623 65.801 40.9853 65.8974ZM59.7975 66.6346C59.7753 66.6566 59.4531 66.7116 59.0813 66.7568C58.7095 66.802 58.0093 66.8944 57.5253 66.962C57.0413 67.0296 56.3933 67.1192 56.0853 67.161C55.7773 67.2026 55.1293 67.2922 54.6453 67.36C54.1613 67.4276 53.5133 67.5156 53.2053 67.5556C52.8973 67.5956 52.2313 67.6876 51.7253 67.7602C51.2193 67.8328 50.5713 67.9224 50.2853 67.9594C46.5397 68.4432 45.5169 68.6168 45.6015 68.7538C45.6229 68.7884 45.6981 69.263 45.7687 69.8084C46.0061 71.6428 46.2327 73.3166 46.5685 75.72C46.6393 76.226 46.7293 76.892 46.7687 77.2C46.8083 77.508 46.8963 78.156 46.9643 78.64C47.0325 79.124 47.1207 79.772 47.1603 80.08C47.2991 81.1612 47.4053 81.9254 47.4975 82.508L47.5907 83.096L48.1179 83.0436C48.4081 83.015 48.8433 82.959 49.0853 82.9192C49.3273 82.8796 49.9573 82.79 50.4853 82.7202C51.0133 82.6506 51.6613 82.5606 51.9253 82.5206C52.1893 82.4804 52.8553 82.3906 53.4053 82.3208C53.9553 82.2512 54.6393 82.1596 54.9253 82.1174C55.2113 82.0752 55.8413 81.9866 56.3253 81.9202C56.8093 81.854 57.4573 81.764 57.7653 81.7202C58.0733 81.6766 58.7573 81.5854 59.2853 81.5178C59.8133 81.4502 60.4613 81.3612 60.7253 81.32C60.9893 81.2788 61.3943 81.2226 61.6253 81.195C62.1199 81.136 62.1103 81.1766 61.9249 79.9296C61.7471 78.735 61.6589 78.1048 61.5253 77.08C61.4593 76.574 61.3699 75.908 61.3265 75.6C61.2829 75.292 61.1929 74.644 61.1263 74.16C61.0597 73.676 60.9693 73.028 60.9255 72.72C60.8819 72.412 60.7907 71.728 60.7231 71.2C60.6555 70.672 60.5669 70.024 60.5263 69.76C60.4857 69.496 60.3935 68.83 60.3213 68.28C60.1063 66.6392 60.0305 66.4014 59.7975 66.6346ZM57.8781 70.2C57.9991 70.9772 58.0989 71.6792 58.2479 72.8C58.3717 73.733 58.5177 74.813 58.6857 76.04C58.7307 76.37 58.8211 77.0042 58.8865 77.4496C59.1069 78.9516 59.1631 78.853 58.0053 78.9994C57.3421 79.0832 56.8859 79.1452 55.3253 79.3632C54.8193 79.434 54.1533 79.524 53.8453 79.5634C53.5373 79.603 52.8893 79.6906 52.4053 79.7584C51.9213 79.8262 51.2373 79.9182 50.8853 79.963C50.5333 80.0078 50.2003 80.0604 50.1453 80.0798C49.9405 80.152 49.8053 80.0228 49.8053 79.7554C49.8053 79.6082 49.7717 79.3152 49.7305 79.104C49.6895 78.8928 49.5985 78.27 49.5285 77.72C49.4583 77.17 49.3673 76.504 49.3261 76.24C49.2851 75.976 49.1587 75.058 49.0455 74.2C48.9323 73.342 48.7841 72.2666 48.7161 71.8104C48.5681 70.817 48.4937 70.8966 49.7253 70.73C50.2753 70.6556 50.9413 70.5612 51.2053 70.5204C51.4693 70.4796 52.1353 70.3894 52.6853 70.32C53.2353 70.2506 53.9013 70.1608 54.1653 70.1206C54.4293 70.0802 55.0953 69.9878 55.6453 69.915C56.1953 69.8424 56.8073 69.7548 57.0053 69.7204C57.7985 69.5828 57.7803 69.5728 57.8781 70.2ZM112.125 78.283C111.652 78.6132 111.285 78.7324 110.406 78.8422C109.897 78.9056 108.982 79.0308 107.445 79.2472C107.137 79.2906 106.633 79.3596 106.325 79.4006C106.017 79.4416 105.369 79.5306 104.885 79.5982C104.401 79.666 103.753 79.7558 103.445 79.798C102.942 79.867 102.184 79.9722 100.485 80.2086C100.177 80.2514 99.5113 80.3414 99.0053 80.4086C98.4993 80.4758 97.8693 80.5622 97.6053 80.6008C97.3413 80.6394 96.7113 80.7272 96.2053 80.7958C95.6993 80.8642 95.0153 80.9578 94.6853 81.0036C94.3553 81.0492 93.6893 81.1406 93.2053 81.2066C92.7213 81.2726 92.0733 81.3612 91.7653 81.4036C91.4573 81.446 91.0153 81.5038 90.7829 81.5318C90.2205 81.5998 90.2317 81.4326 90.6081 84.16C90.8055 85.59 90.9321 86.5236 90.9769 86.88C91.0047 87.1 91.0627 87.325 91.1061 87.38C91.1993 87.4984 91.8853 87.516 91.8853 87.4C91.8853 87.3548 92.1119 87.32 92.4053 87.32C92.6913 87.32 92.9253 87.2884 92.9253 87.2496C92.9253 87.2108 93.3393 87.1534 93.8453 87.1216C94.3513 87.09 94.7653 87.0318 94.7653 86.9922C94.7653 86.9524 94.9993 86.92 95.2853 86.92C95.5713 86.92 95.8053 86.888 95.8053 86.8488C95.8053 86.8098 96.2373 86.7518 96.7653 86.72C97.2933 86.6882 97.7253 86.6302 97.7253 86.5912C97.7253 86.552 97.9413 86.52 98.2053 86.52C98.4693 86.52 98.6853 86.4886 98.6853 86.4502C98.6853 86.412 99.1171 86.3548 99.6449 86.3232C100.173 86.2918 100.625 86.2332 100.65 86.193C100.674 86.1528 100.891 86.12 101.13 86.12C101.369 86.12 101.565 86.0884 101.565 86.0496C101.565 86.011 102.015 85.9532 102.565 85.9216C103.115 85.8898 103.565 85.8316 103.565 85.792C103.565 85.7524 103.781 85.72 104.045 85.72C104.309 85.72 104.525 85.6892 104.525 85.6514C104.525 85.6136 104.93 85.5574 105.425 85.5264C105.92 85.4952 106.337 85.4362 106.352 85.395C106.367 85.3538 106.466 85.32 106.572 85.32C106.678 85.32 106.765 85.2886 106.765 85.25C106.765 85.2116 106.865 85.16 106.988 85.1354C107.226 85.0878 107.965 84.4242 107.965 84.2578C107.965 84.203 108.055 84.0904 108.165 84.0078C108.275 83.9252 108.365 83.793 108.365 83.7142C108.365 83.6354 108.435 83.5486 108.521 83.5212C108.607 83.494 108.701 83.3958 108.731 83.3026C108.76 83.2096 108.87 83.0478 108.975 82.9432C109.08 82.8384 109.165 82.7264 109.165 82.6942C109.165 82.662 109.264 82.5262 109.385 82.3924C109.506 82.2588 109.677 82.0488 109.765 81.9258C109.853 81.8028 109.97 81.6548 110.025 81.5968C110.08 81.5388 110.125 81.466 110.125 81.4348C110.125 81.4038 110.215 81.295 110.325 81.193C110.435 81.091 110.525 80.9682 110.525 80.92C110.525 80.8718 110.615 80.749 110.725 80.647C110.835 80.545 110.925 80.4362 110.925 80.4052C110.925 80.374 110.97 80.3012 111.025 80.2432C111.08 80.1852 111.197 80.0372 111.285 79.9142C111.373 79.7912 111.544 79.5812 111.665 79.4476C111.786 79.3138 111.885 79.178 111.885 79.1458C111.885 79.1136 111.975 78.9972 112.085 78.8872C112.195 78.7772 112.285 78.6494 112.285 78.6032C112.285 78.5568 112.375 78.4406 112.485 78.345C112.973 77.9212 112.709 77.8758 112.125 78.283ZM84.6291 86.7824C84.5415 86.8802 83.7919 87.86 82.9633 88.96C80.6855 91.9838 80.0275 92.84 79.9817 92.84C79.9587 92.84 79.5227 92.5232 79.0127 92.136C78.5027 91.7488 77.4013 90.9146 76.5653 90.282C75.7293 89.6496 74.7537 88.9056 74.3971 88.6286C73.8571 88.2092 73.7281 88.1414 73.6249 88.2226C73.4469 88.3622 72.1257 90.1444 72.1291 90.24C72.1307 90.284 72.9315 90.9228 73.9087 91.6594C77.8363 94.6202 78.2793 94.9634 78.2823 95.0464C78.2839 95.094 77.8657 95.688 77.3527 96.3664C76.8397 97.0448 76.0399 98.104 75.5751 98.72C75.1103 99.336 74.4859 100.154 74.1877 100.539C73.8893 100.923 73.6453 101.273 73.6453 101.316C73.6453 101.412 75.5697 102.916 75.6949 102.918C75.7441 102.919 76.2667 102.281 76.8561 101.5C79.7659 97.6446 80.4017 96.821 80.4965 96.7846C80.5929 96.7476 81.3489 97.299 84.2453 99.5188C86.0707 100.918 86.7617 101.415 86.8423 101.386C87.1237 101.286 88.4285 99.3296 88.2945 99.2084C88.1617 99.0882 86.6713 97.9502 83.5453 95.5822C82.8083 95.024 82.2053 94.539 82.2053 94.5044C82.2053 94.47 82.5949 93.9284 83.0711 93.3008C83.5473 92.6734 84.5789 91.314 85.3635 90.28C86.1481 89.246 86.8051 88.3424 86.8237 88.2722C86.8471 88.1842 86.5621 87.9202 85.9115 87.4264C84.7261 86.527 84.8173 86.5728 84.6291 86.7824Z" fill="#A77C2C"/>
<path fill-rule="evenodd" clip-rule="evenodd" d="M80.6252 35.6945C80.3502 35.7127 80.1252 35.7621 80.1252 35.8039C80.1252 35.8459 79.8911 35.8801 79.6051 35.8801C79.3191 35.8801 79.0851 35.9121 79.0851 35.9513C79.0851 35.9905 78.6887 36.0485 78.2043 36.0801C77.7199 36.1117 77.3039 36.1697 77.2797 36.2089C77.2555 36.2481 77.0038 36.2801 76.7204 36.2801C76.437 36.2801 76.2051 36.3117 76.2051 36.3505C76.2051 36.3893 75.7911 36.4467 75.2849 36.4785C74.7789 36.5101 74.3448 36.5683 74.3204 36.6081C74.2958 36.6477 74.0617 36.6801 73.8003 36.6801C73.5389 36.6801 73.3252 36.7121 73.3252 36.7513C73.3252 36.7903 72.8928 36.8483 72.3644 36.8801C71.836 36.9119 71.3837 36.9699 71.3597 37.0089C71.3355 37.0481 71.1198 37.0801 70.8804 37.0801C70.641 37.0801 70.4451 37.1117 70.4451 37.1505C70.4451 37.1891 69.9951 37.2469 69.4451 37.2785C68.8951 37.3103 68.4451 37.3685 68.4451 37.4081C68.4451 37.4477 68.2292 37.4801 67.9652 37.4801C67.7012 37.4801 67.4851 37.5115 67.4851 37.5499C67.4851 37.5881 67.0534 37.6453 66.5256 37.6769C65.9978 37.7083 65.5456 37.7669 65.5208 37.8071C65.496 37.8473 65.2819 37.8801 65.0451 37.8801C64.8083 37.8801 64.595 37.9117 64.5712 37.9505C64.5472 37.9891 64.1492 38.0467 63.6864 38.0781C63.2238 38.1097 62.8451 38.1681 62.8451 38.2077C62.8451 38.2475 62.7551 38.2801 62.6451 38.2801C62.5351 38.2801 62.4451 38.3161 62.4451 38.3601C62.4451 38.4041 62.3811 38.4401 62.3029 38.4401C62.2247 38.4401 62.1039 38.5031 62.0343 38.5801C61.9649 38.6571 61.84 38.7779 61.7566 38.8487C61.4716 39.0907 61.334 39.3117 61.279 39.6159C61.2488 39.7831 61.1911 39.9839 61.1507 40.0619C61.0493 40.2583 61.0559 41.2235 61.1631 41.9093C61.2855 42.6911 61.3785 43.3503 61.5257 44.4801C61.5947 45.0081 61.6692 45.5481 61.6914 45.6801C61.7136 45.8121 61.7866 46.3341 61.8536 46.8401C61.9206 47.3461 62.0076 47.9941 62.047 48.2801C62.0864 48.5661 62.1726 49.1961 62.2384 49.6801C62.3742 50.6775 62.4702 51.3737 62.6462 52.6401C62.7136 53.1241 62.8009 53.7541 62.8407 54.0401C62.9255 54.6503 63.1439 56.2575 63.2429 57.0001C63.4087 58.2441 63.7378 60.6043 63.8536 61.3801C63.9036 61.7151 63.8275 61.7447 62.4851 61.9145C61.9131 61.9869 61.2292 62.0793 60.9652 62.1199C59.7942 62.3005 58.4836 62.4369 57.4852 62.4823C56.8912 62.5091 56.371 62.5647 56.3292 62.6057C56.2874 62.6467 56.0444 62.6801 55.7892 62.6801C55.534 62.6801 55.3252 62.7125 55.3252 62.7523C55.3252 62.7919 54.9106 62.8503 54.404 62.8819C53.8972 62.9135 53.4632 62.9711 53.4392 63.0097C53.4154 63.0485 53.1818 63.0801 52.9204 63.0801C52.659 63.0801 52.4452 63.1121 52.4452 63.1513C52.4452 63.1903 52.0132 63.2483 51.4852 63.2801C50.9572 63.3119 50.5252 63.3699 50.5252 63.4089C50.5252 63.4481 50.2912 63.4801 50.0052 63.4801C49.7192 63.4801 49.4852 63.5117 49.4852 63.5505C49.4852 63.5893 49.0712 63.6467 48.5652 63.6785C48.0592 63.7101 47.6452 63.7683 47.6452 63.8079C47.6452 63.8477 47.4134 63.8801 47.13 63.8801C46.8466 63.8801 46.5948 63.9121 46.5706 63.9513C46.5464 63.9905 46.13 64.0485 45.6452 64.0801C45.1604 64.1117 44.744 64.1697 44.7198 64.2089C44.6956 64.2481 44.464 64.2801 44.2052 64.2801C43.9464 64.2801 43.7156 64.3107 43.6926 64.3483C43.6694 64.3857 43.3886 64.4385 43.0688 64.4653C42.749 64.4921 42.4748 64.5513 42.4596 64.5971C42.4444 64.6427 42.3628 64.6801 42.2786 64.6801C42.1942 64.6801 42.1252 64.7121 42.1252 64.7515C42.1252 64.7907 42.0376 64.8447 41.9306 64.8717C41.8234 64.8985 41.7136 64.9905 41.6864 65.0761C41.6592 65.1619 41.5698 65.2533 41.4876 65.2793C41.3868 65.3113 41.32 65.4363 41.2826 65.6635C41.252 65.8487 41.1892 66.0471 41.1426 66.1045C41.0102 66.2683 40.9766 67.3873 41.0816 68.1275C41.1342 68.4975 41.2098 69.0521 41.2498 69.3601C41.2896 69.6681 41.3776 70.3161 41.4452 70.8001C41.513 71.2841 41.6034 71.9321 41.6462 72.2401C41.6888 72.5481 41.7792 73.1961 41.847 73.6801C41.9146 74.1641 42.0018 74.8121 42.0406 75.1201C42.1308 75.8363 42.4182 77.9239 42.5196 78.6001C42.5624 78.8861 42.6546 79.5701 42.7244 80.1201C42.7942 80.6701 42.8854 81.3361 42.927 81.6001C42.9686 81.8641 43.057 82.4941 43.1232 83.0001C43.1896 83.5061 43.2782 84.1541 43.3202 84.4401C43.3624 84.7261 43.4192 85.1401 43.4468 85.3601C43.5888 86.4963 44.3544 87.3499 45.4624 87.6073C45.9234 87.7145 45.9338 87.7137 48.5252 87.3525C48.9872 87.2879 49.6172 87.2017 49.9252 87.1607C50.2332 87.1197 50.7372 87.0507 51.0452 87.0073C51.3532 86.9641 52.0192 86.8727 52.5252 86.8043C53.6908 86.6469 55.3038 86.4243 57.2052 86.1583C57.6892 86.0907 58.3462 86.0003 58.6652 85.9577C58.9842 85.9151 59.5061 85.8451 59.8251 85.8025C60.1441 85.7599 60.8011 85.6695 61.2851 85.6019C61.7691 85.5341 62.4172 85.4437 62.7252 85.4011C64.1824 85.1987 65.1697 85.0615 65.6451 84.9949C65.9311 84.9549 66.3696 84.8987 66.6196 84.8703L67.0738 84.8185L67.117 85.0893C67.1406 85.2383 67.2008 85.6841 67.2506 86.0801C67.3004 86.4761 67.3711 87.0161 67.4077 87.2801C67.4445 87.5441 67.533 88.1921 67.6044 88.7201C67.6758 89.2481 67.7658 89.8961 67.8044 90.1601C67.843 90.4241 67.9133 90.9461 67.9605 91.3201C68.0079 91.6941 68.0809 92.2341 68.1231 92.5201C68.1651 92.8061 68.2363 93.3101 68.2813 93.6401C68.4251 94.6957 68.603 95.9835 68.6846 96.5601C68.7284 96.8681 68.819 97.5341 68.8864 98.0401C68.9538 98.5461 69.0429 99.1941 69.0847 99.4801C69.1265 99.7661 69.2171 100.432 69.2861 100.96C69.3551 101.488 69.4443 102.136 69.4843 102.4C69.5241 102.664 69.613 103.312 69.6816 103.84C69.9536 105.934 70.0829 106.319 70.7045 106.892C71.4137 107.546 72.1481 107.666 73.8451 107.405C74.1091 107.365 74.6311 107.292 75.0051 107.245C75.3791 107.197 75.9371 107.121 76.2451 107.076C77.6235 106.871 77.9003 106.833 78.8051 106.718C79.3331 106.651 79.9631 106.562 80.2051 106.521C80.4471 106.479 81.1131 106.389 81.6851 106.319C82.2571 106.25 82.9231 106.16 83.1651 106.12C83.4071 106.08 84.0371 105.991 84.5651 105.922C85.0931 105.853 85.7591 105.762 86.0451 105.718C86.3311 105.674 86.9791 105.585 87.4851 105.52C87.9911 105.455 88.6391 105.366 88.9251 105.322C89.2111 105.279 89.8591 105.185 90.3651 105.114C90.9439 105.032 91.4188 104.917 91.6452 104.802C92.4044 104.419 92.726 104.222 92.747 104.128C92.7588 104.074 92.8393 103.954 92.9259 103.861C93.1913 103.576 93.2639 100.54 93.0073 100.454C92.9621 100.439 92.9251 100.196 92.9251 99.9135C92.9251 99.6311 92.8931 99.4001 92.8539 99.4001C92.8149 99.4001 92.7569 98.9681 92.7251 98.4401C92.6933 97.9121 92.6353 97.4801 92.5963 97.4801C92.5571 97.4801 92.5251 97.2663 92.5251 97.0049C92.5251 96.7435 92.4935 96.5099 92.4547 96.4861C92.4161 96.4621 92.3586 96.0279 92.327 95.5211C92.2954 95.0145 92.2369 94.5797 92.1971 94.5553C92.1575 94.5307 92.1251 94.3147 92.1251 94.0753C92.1251 93.8359 92.0937 93.6401 92.0553 93.6401C92.0171 93.6401 91.9599 93.2083 91.9283 92.6805C91.8969 92.1527 91.8383 91.7005 91.7981 91.6757C91.7579 91.6509 91.7251 91.4167 91.7251 91.1553C91.7251 90.8939 91.6937 90.6801 91.6553 90.6801C91.6171 90.6801 91.5599 90.2483 91.5283 89.7205C91.4969 89.1927 91.4383 88.7405 91.3981 88.7157C91.3579 88.6909 91.3251 88.4567 91.3251 88.1953C91.3251 87.9319 91.2896 87.7201 91.2452 87.7201C91.2012 87.7201 91.1651 87.6503 91.1651 87.5649C91.1651 87.4795 91.1343 87.3905 91.0965 87.3671C91.0589 87.3439 91.0055 87.1347 90.9781 86.9025C90.9505 86.6701 90.871 86.0661 90.8012 85.5601C90.1972 81.1833 90.1989 81.6025 90.7827 81.5319C91.0151 81.5039 91.4571 81.4461 91.7651 81.4037C92.0731 81.3613 92.7211 81.2727 93.2051 81.2067C93.6891 81.1407 94.3551 81.0493 94.6851 81.0037C95.0151 80.9579 95.6991 80.8643 96.2051 80.7959C96.7111 80.7273 97.3411 80.6395 97.6051 80.6009C97.8691 80.5623 98.4991 80.4759 99.0051 80.4087C99.5111 80.3415 100.177 80.2515 100.485 80.2087C102.184 79.9723 102.942 79.8671 103.445 79.7981C103.753 79.7559 104.401 79.6661 104.885 79.5983C105.369 79.5307 106.017 79.4421 106.325 79.4017C106.851 79.3325 108.005 79.1731 109.285 78.9929C109.593 78.9495 110.104 78.8813 110.42 78.8415C111.281 78.7331 111.638 78.6163 112.147 78.2771C112.401 78.1079 112.672 77.9497 112.748 77.9255C112.887 77.8815 113.165 77.3441 113.165 77.1195C113.165 77.0539 113.201 77.0001 113.245 77.0001C113.293 77.0001 113.325 76.6801 113.325 76.2001C113.325 75.7601 113.293 75.4001 113.254 75.4001C113.215 75.4001 113.157 74.9681 113.125 74.4401C113.093 73.9121 113.035 73.4801 112.996 73.4801C112.957 73.4801 112.925 73.2663 112.925 73.0049C112.925 72.7435 112.894 72.5099 112.855 72.4861C112.816 72.4621 112.759 72.0281 112.727 71.5213C112.695 71.0147 112.637 70.6001 112.597 70.6001C112.558 70.6001 112.525 70.4043 112.525 70.1649C112.525 69.9255 112.494 69.7099 112.455 69.6861C112.416 69.6621 112.359 69.1921 112.327 68.6413C112.295 68.0907 112.237 67.6401 112.197 67.6401C112.158 67.6401 112.125 67.4241 112.125 67.1601C112.125 66.8961 112.094 66.6801 112.055 66.6801C112.017 66.6801 111.96 66.2483 111.928 65.7205C111.897 65.1927 111.838 64.7405 111.798 64.7157C111.758 64.6909 111.725 64.4567 111.725 64.1953C111.725 63.9339 111.693 63.7201 111.654 63.7201C111.615 63.7201 111.557 63.2877 111.525 62.7593C111.493 62.2309 111.435 61.7787 111.396 61.7547C111.357 61.7305 111.325 61.5147 111.325 61.2753C111.325 61.0359 111.294 60.8401 111.255 60.8401C111.216 60.8401 111.158 60.3901 111.127 59.8401C111.095 59.2901 111.037 58.8401 110.997 58.8401C110.958 58.8401 110.925 58.6241 110.925 58.3601C110.925 58.0935 110.89 57.8801 110.845 57.8801C110.801 57.8801 110.765 57.7945 110.765 57.6901C110.765 57.3391 110.669 57.0123 110.516 56.8489C110.433 56.7597 110.365 56.6633 110.365 56.6347C110.365 56.5575 109.708 55.9385 109.481 55.8025C109.222 55.6471 107.694 55.6015 106.685 55.7195C106.267 55.7683 105.727 55.8281 105.485 55.8521C105.243 55.8761 105.009 55.9249 104.965 55.9605C104.921 55.9959 104.48 56.0509 103.985 56.0829C103.49 56.1147 103.085 56.1721 103.085 56.2103C103.085 56.2487 102.871 56.2801 102.61 56.2801C102.349 56.2801 102.115 56.3121 102.091 56.3513C102.067 56.3903 101.614 56.4483 101.086 56.4801C100.558 56.5119 100.125 56.5699 100.125 56.6089C100.125 56.6481 99.9294 56.6801 99.69 56.6801C99.4506 56.6801 99.2356 56.7109 99.2124 56.7485C99.189 56.7863 98.764 56.8425 98.2676 56.8737C97.7712 56.9047 97.331 56.9639 97.2892 57.0051C97.2474 57.0463 96.9863 57.0801 96.7091 57.0801C96.4319 57.0801 96.2051 57.1117 96.2051 57.1505C96.2051 57.1893 95.7911 57.2467 95.2849 57.2785C94.7789 57.3101 94.3447 57.3683 94.3203 57.4081C94.2957 57.4477 94.0618 57.4801 93.8004 57.4801C93.539 57.4801 93.3251 57.5121 93.3251 57.5513C93.3251 57.5903 92.8927 57.6483 92.3643 57.6801C91.8359 57.7119 91.3838 57.7699 91.3598 57.8089C91.3356 57.8481 91.1197 57.8801 90.8803 57.8801C90.6409 57.8801 90.4452 57.9125 90.4452 57.9521C90.4452 57.9917 89.9952 58.0499 89.4452 58.0817C88.8952 58.1133 88.4452 58.1711 88.4452 58.2097C88.4452 58.2485 88.2291 58.2801 87.9651 58.2801C87.6985 58.2801 87.4851 58.3157 87.4851 58.3601C87.4851 58.4041 87.4176 58.4401 87.3348 58.4401C87.1996 58.4401 87.1785 58.3469 87.1267 57.5199C87.0951 57.0139 87.0369 56.5797 86.9971 56.5553C86.9575 56.5307 86.9251 56.2787 86.9251 55.9953C86.9251 55.7119 86.8941 55.4801 86.8561 55.4801C86.8181 55.4801 86.7611 55.0931 86.7293 54.6203C86.6977 54.1473 86.6421 53.7243 86.6061 53.6803C86.5699 53.6361 86.5205 53.3841 86.4961 53.1201C86.3777 51.8389 86.2391 50.7661 86.1851 50.7127C86.1521 50.6801 86.1251 50.4255 86.1251 50.1467C86.1251 49.8681 86.0931 49.6401 86.0539 49.6401C86.0149 49.6401 85.9569 49.2081 85.9251 48.6801C85.8933 48.1521 85.8353 47.7201 85.7963 47.7201C85.7571 47.7201 85.7251 47.5063 85.7251 47.2449C85.7251 46.9835 85.6935 46.7499 85.6547 46.7261C85.6161 46.7021 85.5585 46.2681 85.5269 45.7613C85.4953 45.2547 85.4369 44.8401 85.3973 44.8401C85.3575 44.8401 85.3251 44.6263 85.3251 44.3649C85.3251 44.1035 85.2931 43.8697 85.2539 43.8455C85.2149 43.8215 85.1569 43.3693 85.1251 42.8409C85.0933 42.3125 85.0353 41.8801 84.9963 41.8801C84.9571 41.8801 84.9251 41.6641 84.9251 41.4001C84.9251 41.1361 84.8931 40.9201 84.8539 40.9201C84.8149 40.9201 84.7569 40.4877 84.7251 39.9593C84.6933 39.4309 84.6353 38.9787 84.5963 38.9547C84.5571 38.9305 84.5251 38.7147 84.5251 38.4753C84.5251 38.2359 84.4935 38.0401 84.4551 38.0401C84.4165 38.0401 84.368 37.8349 84.3472 37.5841C84.3264 37.3333 84.2679 37.1143 84.2171 37.0975C84.1665 37.0805 84.1252 37.0157 84.1252 36.9535C84.1252 36.8911 84.0915 36.8401 84.0505 36.8401C84.0095 36.8401 83.9504 36.7591 83.9192 36.6601C83.8648 36.4881 83.5049 36.1205 83.3909 36.1201C83.3609 36.1201 83.2889 36.0747 83.2309 36.0191C82.9157 35.7183 81.9938 35.6035 80.6252 35.6945ZM73.2278 41.2401C73.3446 41.3941 73.5311 41.6293 73.6425 41.7629C73.7539 41.8965 73.9424 42.1305 74.061 42.2829C74.1798 42.4353 74.8763 43.3161 75.6089 44.2401C76.3415 45.1641 77.1831 46.2261 77.4791 46.6001C77.7751 46.9741 78.8749 48.3601 79.9231 49.6801C83.4701 54.1471 83.7247 54.4719 83.7249 54.5273C83.7251 54.5799 83.2964 54.6439 79.7252 55.1245C79.2192 55.1927 78.5892 55.2811 78.3252 55.3211C78.0612 55.3611 77.3951 55.4507 76.8451 55.5201C76.2951 55.5895 75.6291 55.6797 75.3651 55.7207C75.1011 55.7615 74.4532 55.8509 73.9252 55.9193C73.3972 55.9875 72.7491 56.0773 72.4851 56.1187C72.2211 56.1601 71.5551 56.2507 71.0051 56.3201C70.4551 56.3895 69.7892 56.4791 69.5252 56.5191C68.989 56.6003 68.7149 56.6379 67.4451 56.8039C66.9611 56.8671 66.4661 56.9399 66.3451 56.9659C66.0443 57.0301 66.0486 57.0097 66.6376 55.5285C67.6352 53.0193 69.9836 47.1089 70.2961 46.3201C70.4705 45.8801 70.6452 45.4481 70.6842 45.3601C70.7232 45.2721 71.0299 44.4981 71.3661 43.6401C71.7023 42.7821 72.0097 42.0081 72.0491 41.9201C72.0885 41.8321 72.1973 41.5621 72.2911 41.3201C72.3847 41.0781 72.4968 40.7901 72.5398 40.6801L72.6179 40.4801L72.8167 40.7201C72.9261 40.8521 73.111 41.0861 73.2278 41.2401ZM72.4047 48.2601C71.8861 49.5691 71.4146 50.7481 71.3566 50.8801C70.9848 51.7269 70.2983 53.5967 70.3365 53.6587C70.3619 53.6995 70.461 53.7135 70.5566 53.6895C70.6522 53.6655 71.0351 53.6087 71.4077 53.5633C71.7803 53.5179 72.4632 53.4265 72.9252 53.3601C73.3872 53.2937 74.0352 53.2041 74.3651 53.1611C74.6951 53.1179 75.3611 53.0275 75.8451 52.9599C77.0493 52.7917 77.8535 52.6823 78.3051 52.6255C78.8363 52.5589 78.9077 52.7007 77.3649 50.7601C76.5285 49.7081 74.7829 47.4971 74.1631 46.7045C73.8121 46.2561 73.4852 45.8871 73.4364 45.8845C73.3874 45.8821 72.9231 46.9511 72.4047 48.2601ZM100.759 60.5233C106.477 61.1101 109.756 67.1699 107.12 72.2809C104.186 77.9705 95.9183 78.0167 92.9072 72.3601C90.2214 67.3149 93.5215 61.0749 99.1651 60.5277C99.5391 60.4913 99.8683 60.4569 99.8967 60.4509C99.9249 60.4449 100.313 60.4775 100.759 60.5233ZM99.3651 63.2047C99.2771 63.2251 99.0071 63.2815 98.7651 63.3301C96.1307 63.8603 94.2567 66.6497 94.7143 69.3601C95.6113 74.6719 102.817 75.5471 104.923 70.6001C106.158 67.6993 104.547 64.3399 101.467 63.3921C100.983 63.2433 99.6951 63.1285 99.3651 63.2047ZM60.1352 66.9607C60.1654 67.1363 60.2492 67.7301 60.3212 68.2801C60.3934 68.8301 60.4856 69.4961 60.5262 69.7601C60.5668 70.0241 60.6554 70.6721 60.723 71.2001C60.7906 71.7281 60.8817 72.4121 60.9253 72.7201C60.9691 73.0281 61.0595 73.6761 61.1261 74.1601C61.1927 74.6441 61.2828 75.2921 61.3264 75.6001C61.3698 75.9081 61.4592 76.5741 61.5252 77.0801C61.6588 78.1049 61.747 78.7351 61.9248 79.9297C62.1102 81.1767 62.1198 81.1361 61.6252 81.1951C61.3942 81.2227 60.9892 81.2789 60.7252 81.3201C60.4612 81.3613 59.8132 81.4503 59.2852 81.5179C58.7572 81.5855 58.0732 81.6767 57.7652 81.7203C57.4572 81.7641 56.8092 81.8541 56.3252 81.9203C55.8412 81.9867 55.2112 82.0753 54.9252 82.1175C54.6392 82.1597 53.9552 82.2513 53.4052 82.3209C52.8552 82.3907 52.1892 82.4805 51.9252 82.5207C51.6612 82.5607 51.0132 82.6507 50.4852 82.7203C49.9572 82.7901 49.3272 82.8797 49.0852 82.9193C48.8432 82.9591 48.408 83.0151 48.1178 83.0437L47.5906 83.0961L47.4974 82.5081C47.4052 81.9255 47.299 81.1613 47.1602 80.0801C47.1206 79.7721 47.0324 79.1241 46.9642 78.6401C46.8962 78.1561 46.8082 77.5081 46.7686 77.2001C46.7292 76.8921 46.6392 76.2261 46.5684 75.7201C46.2326 73.3167 46.006 71.6429 45.7686 69.8085C45.698 69.2631 45.6228 68.7885 45.6014 68.7539C45.5168 68.6169 46.5396 68.4433 50.2852 67.9595C50.5712 67.9225 51.2192 67.8329 51.7252 67.7603C52.2312 67.6877 52.8972 67.5957 53.2052 67.5557C53.5132 67.5157 54.1611 67.4277 54.6451 67.3601C55.1291 67.2923 55.7772 67.2027 56.0852 67.1611C56.3932 67.1193 57.0412 67.0297 57.5252 66.9621C58.0092 66.8945 58.7093 66.8021 59.0811 66.7569C59.4529 66.7117 59.7751 66.6567 59.7973 66.6347C59.9185 66.5135 60.0862 66.6751 60.1352 66.9607ZM57.0052 69.7205C56.8072 69.7549 56.1951 69.8425 55.6451 69.9151C55.0951 69.9879 54.4292 70.0803 54.1652 70.1207C53.9012 70.1609 53.2352 70.2507 52.6852 70.3201C52.1352 70.3895 51.4692 70.4797 51.2052 70.5205C50.9412 70.5613 50.2752 70.6557 49.7252 70.7301C48.4936 70.8967 48.568 70.8171 48.716 71.8105C48.784 72.2667 48.9322 73.3421 49.0454 74.2001C49.1586 75.0581 49.285 75.9761 49.326 76.2401C49.3672 76.5041 49.4582 77.1701 49.5284 77.7201C49.5984 78.2701 49.6894 78.8929 49.7304 79.1041C49.7716 79.3153 49.8052 79.6083 49.8052 79.7555C49.8052 80.0229 49.9404 80.1521 50.1452 80.0799C50.2002 80.0605 50.5332 80.0079 50.8852 79.9631C51.2372 79.9183 51.9212 79.8263 52.4052 79.7585C52.8892 79.6907 53.5372 79.6031 53.8451 79.5635C54.1531 79.5241 54.8192 79.4341 55.3252 79.3633C56.8858 79.1453 57.342 79.0833 58.0052 78.9995C59.163 78.8531 59.1067 78.9517 58.8863 77.4497C58.8209 77.0043 58.7306 76.3701 58.6856 76.0401C58.5176 74.8131 58.3715 73.7331 58.2477 72.8001C57.7781 69.2647 57.8996 69.5653 57.0052 69.7205ZM85.9113 87.4265C86.5619 87.9203 86.847 88.1843 86.8236 88.2723C86.805 88.3425 86.1479 89.2461 85.3633 90.2801C84.5787 91.3141 83.5471 92.6735 83.0709 93.3009C82.5947 93.9285 82.2051 94.4701 82.2051 94.5045C82.2051 94.5391 82.8081 95.0241 83.5451 95.5823C86.6711 97.9503 88.1616 99.0883 88.2944 99.2085C88.4284 99.3297 87.1235 101.286 86.8421 101.386C86.7615 101.415 86.0705 100.918 84.2451 99.5189C81.3487 97.2991 80.5927 96.7477 80.4963 96.7847C80.4015 96.8211 79.7657 97.6447 76.8559 101.5C76.2665 102.281 75.7439 102.919 75.6947 102.918C75.5695 102.916 73.6451 101.412 73.6451 101.316C73.6451 101.273 73.8891 100.923 74.1875 100.539C74.4857 100.154 75.1101 99.3361 75.5749 98.7201C76.0397 98.1041 76.8395 97.0449 77.3525 96.3665C77.8655 95.6881 78.2837 95.0941 78.2821 95.0465C78.2791 94.9635 77.8361 94.6203 73.9085 91.6595C72.9313 90.9229 72.1306 90.2841 72.129 90.2401C72.1256 90.1445 73.4468 88.3623 73.6248 88.2227C73.728 88.1415 73.8569 88.2093 74.3969 88.6287C74.7535 88.9057 75.7291 89.6497 76.5651 90.2821C77.4011 90.9147 78.5025 91.7489 79.0125 92.1361C79.5225 92.5233 79.9585 92.8401 79.9815 92.8401C80.0273 92.8401 80.6853 91.9839 82.9631 88.9601C84.6889 86.6689 84.7571 86.5867 84.8767 86.6569C84.9253 86.6853 85.3909 87.0317 85.9113 87.4265ZM97.6452 101.598V101.88H98.0851H98.5251V103.32V104.76H98.8452H99.1651V103.324V101.887L99.7051 101.864L100.245 101.84V101.6V101.36L98.9452 101.338L97.6452 101.316V101.598ZM100.445 103.04V104.76H100.765H101.085V103.84C101.085 102.889 101.189 102.619 101.285 103.32C101.315 103.54 101.373 103.72 101.413 103.72C101.453 103.72 101.485 103.803 101.485 103.904C101.485 104.005 101.518 104.122 101.559 104.164C101.6 104.206 101.645 104.348 101.659 104.48C101.69 104.761 102.525 104.919 102.525 104.644C102.525 104.576 102.558 104.52 102.598 104.52C102.638 104.52 102.695 104.34 102.725 104.12C102.755 103.9 102.813 103.72 102.853 103.72C102.893 103.72 102.925 103.63 102.925 103.52C102.925 103.41 102.956 103.32 102.994 103.32C103.032 103.32 103.099 103.131 103.143 102.9C103.215 102.528 103.225 102.611 103.235 103.62L103.245 104.76H103.565H103.885V103.04V101.32H103.414C102.924 101.32 102.845 101.376 102.845 101.727C102.845 101.811 102.809 101.88 102.765 101.88C102.721 101.88 102.685 101.968 102.685 102.075C102.685 102.183 102.652 102.291 102.611 102.317C102.57 102.342 102.512 102.56 102.482 102.801C102.451 103.043 102.395 103.24 102.356 103.24C102.317 103.24 102.285 103.33 102.285 103.44C102.285 103.853 101.987 103.688 101.925 103.24C101.895 103.02 101.838 102.84 101.798 102.84C101.758 102.84 101.725 102.734 101.725 102.605C101.725 102.475 101.693 102.35 101.654 102.326C101.616 102.302 101.558 102.114 101.528 101.908C101.454 101.417 101.342 101.32 100.851 101.32H100.445V103.04Z" fill="#F2D13B"/>
</g>
<defs>
<linearGradient id="paint0_linear_260_4018" x1="75.0018" y1="0" x2="75.0018" y2="150" gradientUnits="userSpaceOnUse">
<stop stop-color="#107C10" stop-opacity="0"/>
<stop offset="0.0001" stop-color="#006AC4"/>
<stop offset="1" stop-color="#023388"/>
</linearGradient>
<clipPath id="clip0_260_4018">
<rect width="80" height="80" fill="white" transform="translate(35.0054 35)"/>
</clipPath>
</defs>
</svg>
