<svg width="151" height="150" viewBox="0 0 151 150" fill="none" xmlns="http://www.w3.org/2000/svg">
<rect width="150.004" height="150" fill="#107C10"/>
<g clip-path="url(#clip0_260_3769)">
<path d="M61.4922 88.9338H59.0552L54.8697 83.1589L50.6843 88.9338H48.2472L53.6512 81.4636L48.671 74.5762H51.1081L54.8697 79.7682L58.6313 74.5762H61.0684L56.0883 81.4636L61.4922 88.9338ZM74.1545 84.8543C74.1545 86.1258 73.7306 87.1324 72.9359 87.8212C72.0883 88.5629 70.9227 88.9338 69.3863 88.9338H62.6578V82.5232H59.479L60.8035 80.6689H62.6578V74.5762H69.1214C70.5518 74.5762 71.6644 74.947 72.4591 75.5828C73.2538 76.2715 73.6247 77.1722 73.6247 78.2848C73.6247 79.6622 72.9889 80.7219 71.7704 81.4106C72.5651 81.7285 73.2008 82.1523 73.5717 82.7351C73.9426 83.3709 74.1545 84.0596 74.1545 84.8543ZM64.83 80.7219H68.9624C69.8101 80.7219 70.3929 80.5099 70.8167 80.192C71.2406 79.8212 71.4525 79.2914 71.4525 78.5497C71.4525 77.9139 71.2406 77.4371 70.8167 77.0662C70.3929 76.6954 69.7571 76.5364 68.9624 76.5364H64.83V80.7219ZM71.9293 84.8013C71.9293 84.0596 71.7174 83.4768 71.2406 83.106C70.8167 82.7351 70.128 82.5232 69.2273 82.5232H64.83V87.0265H69.2273C70.128 87.0265 70.7638 86.8146 71.2406 86.4437C71.7174 86.0728 71.9293 85.543 71.9293 84.8013ZM88.883 81.7285C88.883 82.8411 88.724 83.8477 88.4061 84.7483C88.0883 85.649 87.6114 86.4437 86.9757 87.1324C86.3399 87.8212 85.5982 88.351 84.7505 88.6689C83.9028 88.9868 82.9492 89.1987 81.8896 89.1987C80.83 89.1987 79.8763 89.0397 79.0287 88.6689C78.181 88.351 77.4393 87.8212 76.8035 87.1324C76.1677 86.4437 75.6909 85.649 75.373 84.7483C75.0552 83.8477 74.8962 82.8411 74.8962 81.7285C74.8962 80.6159 75.0552 79.6093 75.373 78.7086C75.6909 77.8079 76.1677 77.0132 76.8035 76.3245C77.4393 75.6358 78.181 75.106 79.0287 74.7881C79.8763 74.4702 80.83 74.2583 81.8896 74.2583C82.9492 74.2583 83.9028 74.4172 84.7505 74.7881C85.5982 75.106 86.3399 75.6358 86.9757 76.3245C87.6114 77.0132 88.0883 77.8079 88.4061 78.7086C88.724 79.6093 88.883 80.6689 88.883 81.7285ZM77.1744 81.7285C77.1744 83.4238 77.5982 84.7483 78.4989 85.755C79.3465 86.7616 80.5121 87.2384 81.9426 87.2384C83.373 87.2384 84.5386 86.7086 85.3863 85.755C86.234 84.8013 86.6578 83.4238 86.6578 81.7285C86.6578 80.0331 86.234 78.6556 85.3863 77.702C84.5386 76.6954 83.373 76.2185 81.9426 76.2185C80.5121 76.2185 79.3465 76.6954 78.4989 77.702C77.5982 78.7086 77.1744 80.0861 77.1744 81.7285ZM95.8234 81.4636L100.803 74.5762H98.3664L94.6048 79.7682L90.8432 74.5762H88.4061L93.3863 81.4636L87.9293 88.9338H90.3664L94.5518 83.1589L98.7373 88.9338H101.174L95.8234 81.4636ZM74.7373 56.5629C78.3399 59.3179 84.4326 65.9934 82.5783 67.9007C80.4591 69.755 77.7571 70.8675 74.7373 70.8675C71.7174 70.8675 68.9624 69.755 66.8962 67.9007C64.9889 65.9934 71.1346 59.3179 74.7373 56.5629C74.6843 56.5629 74.6843 56.5629 74.7373 56.5629ZM80.9359 48.7219C79.1346 47.6623 77.1214 46.9735 74.7373 46.9735C72.3532 46.9735 70.3399 47.6093 68.5386 48.7219C68.5386 48.7219 68.4856 48.7748 68.5386 48.7748H68.5916C70.9227 48.298 74.4194 50.2583 74.7373 50.4702C75.0552 50.2583 78.6048 48.298 80.883 48.7748H80.9359C80.9889 48.7748 80.9359 48.7748 80.9359 48.7219ZM66.3664 50.4172C66.3664 50.4172 66.3134 50.4702 66.3664 50.4172C64.1412 52.6424 62.7638 55.6093 62.7638 58.947C62.7638 61.649 63.6644 64.1921 65.2008 66.1523C65.2008 66.1523 65.2538 66.2053 65.2538 66.1523V66.0993C64.3532 63.2914 69.0154 56.457 71.3995 53.596C71.3995 53.596 71.3995 53.596 71.3995 53.543V53.4901C67.7969 49.9404 66.5783 50.3113 66.3664 50.4172ZM77.9691 53.543C77.9691 53.543 77.9691 53.596 77.9691 53.543C77.9691 53.596 77.9691 53.596 77.9691 53.596C80.3532 56.457 85.0154 63.2914 84.1148 66.0993V66.1523H84.1677C85.7042 64.1391 86.6048 61.649 86.6048 58.947C86.6048 55.6623 85.2803 52.6424 83.0552 50.4702L83.0022 50.4172C82.8962 50.3113 81.6247 49.9404 77.9691 53.543ZM51.8499 92.6424H50.1015L46.128 102.762H47.7174L48.671 100.113H53.1744L54.128 102.762H55.7174L51.8499 92.6424ZM49.2538 98.7881L51.0022 94.1258L52.7505 98.7881H49.2538ZM45.3333 97.4106V99.2649V102.762H43.9028V101.437C43.532 101.967 43.0552 102.338 42.5254 102.603C41.9956 102.868 41.3598 102.974 40.6181 102.974C39.8763 102.974 39.2406 102.868 38.6578 102.603C38.075 102.338 37.5452 101.967 37.1214 101.49C36.6975 101.013 36.3267 100.43 36.1148 99.7947C35.9028 99.1589 35.7969 98.4172 35.7969 97.6755C35.7969 96.8808 35.9028 96.1391 36.1148 95.5033C36.3267 94.8675 36.6975 94.2848 37.1214 93.8079C37.5982 93.3841 38.075 93.0132 38.7108 92.8013C39.2936 92.5364 39.9823 92.4305 40.724 92.4305C41.9426 92.4305 43.0022 92.7483 43.7969 93.3841C44.5916 94.0199 45.0684 94.9205 45.2273 95.9801H43.6379C43.479 95.2914 43.1611 94.7616 42.6313 94.3907C42.1015 94.0199 41.4657 93.8079 40.724 93.8079C39.7174 93.8079 38.9227 94.1788 38.3399 94.8675C37.7571 95.5563 37.4393 96.5099 37.4393 97.7285C37.4393 98.947 37.7571 99.9007 38.3399 100.589C38.9227 101.278 39.7704 101.649 40.777 101.649C41.6247 101.649 42.4194 101.384 43.0022 100.854C43.585 100.324 43.9028 99.6358 43.9558 98.7881H40.9889V97.4636H45.3333V97.4106ZM70.128 94.0199V96.9338H75.1611V98.2053H70.128V101.331H75.7969V102.709H68.5916V92.6424H75.8499V94.0199H70.128V94.0199ZM67.0552 92.6424V102.762H65.5717V94.7086C65.3598 95.2914 65.1479 95.9801 64.83 96.7748L62.5518 102.709H61.2803L58.9492 96.7748C58.6843 96.0331 58.4194 95.3444 58.2075 94.7086V102.709H56.724V92.6424H58.8432L60.9095 98.0464C61.3333 99.1589 61.6512 100.06 61.9161 100.854C62.234 99.9536 62.5518 98.947 62.9757 97.8874L64.9889 92.6424H67.0552ZM86.5518 93.4901C85.9691 92.9073 85.0684 92.6424 84.0088 92.6424H79.7174V102.762H81.2538V99.053H84.0088C85.1214 99.053 85.9691 98.7881 86.5518 98.2053C87.1346 97.6225 87.4525 96.8278 87.4525 95.8742C87.5055 94.8675 87.1876 94.0728 86.5518 93.4901ZM81.2538 94.0199H84.0088C84.6446 94.0199 85.1214 94.1788 85.4393 94.4967C85.7571 94.8146 85.9161 95.2914 85.9161 95.8742C85.9161 96.4569 85.7571 96.9338 85.4393 97.2517C85.1214 97.5695 84.6446 97.7285 84.0088 97.7285H81.2538V94.0199ZM104.618 99.9536C104.618 100.907 104.247 101.649 103.558 102.179C102.87 102.709 101.863 102.974 100.645 102.974C99.3201 102.974 98.2604 102.656 97.5187 102.073C96.777 101.49 96.4061 100.589 96.4061 99.4238H97.9426C97.9426 100.166 98.2075 100.748 98.6313 101.119C99.1081 101.49 99.7439 101.702 100.645 101.702C101.386 101.702 101.969 101.543 102.34 101.278C102.711 101.013 102.923 100.589 102.923 100.06C102.923 99.6358 102.764 99.2649 102.446 99.053C102.128 98.7881 101.492 98.5762 100.645 98.4172L99.7969 98.2583C98.7373 98.0464 97.9426 97.7285 97.4128 97.2517C96.883 96.7748 96.6181 96.1391 96.6181 95.2914C96.6181 94.4437 96.9359 93.8079 97.5717 93.2781C98.2075 92.8013 99.1081 92.5364 100.168 92.5364C101.492 92.5364 102.499 92.8013 103.188 93.3841C103.876 93.9669 104.194 94.7616 104.247 95.7152H102.817C102.764 95.0795 102.552 94.6026 102.181 94.2848C101.81 93.9669 101.174 93.8079 100.327 93.8079C99.6909 93.8079 99.1611 93.9139 98.7903 94.1788C98.4724 94.4437 98.2605 94.7616 98.2605 95.2384C98.2605 95.7152 98.4194 96.0331 98.7373 96.298C99.0552 96.5629 99.6379 96.7748 100.486 96.9338L101.386 97.0927C102.552 97.3576 103.4 97.6755 103.876 98.1523C104.353 98.5232 104.618 99.1589 104.618 99.9536ZM113.625 99.9536C113.625 100.907 113.254 101.649 112.565 102.179C111.876 102.709 110.87 102.974 109.651 102.974C108.327 102.974 107.267 102.656 106.525 102.073C105.784 101.49 105.413 100.589 105.413 99.4238H106.949C106.949 100.166 107.214 100.748 107.638 101.119C108.115 101.49 108.751 101.702 109.651 101.702C110.393 101.702 110.976 101.543 111.347 101.278C111.717 101.013 111.929 100.589 111.929 100.06C111.929 99.6358 111.77 99.2649 111.453 99.053C111.135 98.7881 110.499 98.5762 109.651 98.4172L108.803 98.2583C107.744 98.0464 106.949 97.7285 106.419 97.2517C105.89 96.7748 105.625 96.1391 105.625 95.2914C105.625 94.4437 105.943 93.8079 106.578 93.2781C107.214 92.8013 108.115 92.5364 109.174 92.5364C110.499 92.5364 111.505 92.8013 112.194 93.3841C112.883 93.9669 113.201 94.7616 113.254 95.7152H111.823C111.77 95.0795 111.558 94.6026 111.188 94.2848C110.817 93.9669 110.181 93.8079 109.333 93.8079C108.698 93.8079 108.168 93.9139 107.797 94.1788C107.479 94.4437 107.267 94.7616 107.267 95.2384C107.267 95.7152 107.426 96.0331 107.744 96.298C108.062 96.5629 108.645 96.7748 109.492 96.9338L110.393 97.0927C111.558 97.3576 112.406 97.6755 112.883 98.1523C113.36 98.5232 113.625 99.1589 113.625 99.9536ZM92.1148 92.6424H90.3664L86.3929 102.762H87.9823L88.9359 100.113H93.4393L94.3929 102.762H95.9823L92.1148 92.6424ZM89.4657 98.7881L91.2141 94.1258L92.9624 98.7881H89.4657Z" fill="white"/>
</g>
<defs>
<clipPath id="clip0_260_3769">
<rect width="80" height="56.1589" fill="white" transform="translate(35.002 46.9205)"/>
</clipPath>
</defs>
</svg>
