<svg width="192" height="193" viewBox="0 0 192 193" fill="none" xmlns="http://www.w3.org/2000/svg">
<path d="M135.085 192.302H51.573C42.5192 192.302 35.1533 184.94 35.1533 175.891V16.4101C35.1533 7.36161 42.5192 0 51.573 0H135.085C144.138 0 151.504 7.36161 151.504 16.4101V175.891C151.504 184.94 144.138 192.302 135.085 192.302Z" fill="#3F3D56"/>
<path d="M151.505 58.6624C151.122 58.6624 150.81 58.9737 150.81 59.3566V81.5719C150.81 81.9548 151.122 82.2661 151.505 82.2661C151.888 82.2661 152.199 81.9548 152.199 81.5719V59.3566C152.199 58.9737 151.888 58.6624 151.505 58.6624Z" fill="#3F3D56"/>
<path d="M149.942 16.4103V175.889C149.942 183.765 143.808 190.207 136.053 190.707H136.049C135.935 190.714 135.82 190.721 135.702 190.724C135.497 190.735 135.292 190.738 135.084 190.738C135.084 190.738 134.32 190.683 132.923 190.578C131.513 190.474 129.461 190.318 126.901 190.113C126.133 190.054 125.324 189.988 124.47 189.919C122.768 189.78 120.899 189.627 118.895 189.454C118.096 189.388 117.27 189.315 116.426 189.242C112.112 188.871 107.281 188.437 102.186 187.944C101.325 187.864 100.456 187.781 99.581 187.694C99.3518 187.67 99.1191 187.649 98.8864 187.625C95.2535 187.267 91.5198 186.882 87.7723 186.472C87.5396 186.448 87.3069 186.424 87.0777 186.399C80.621 185.688 74.1401 184.914 68.076 184.081C63.4115 183.442 58.9937 182.768 55.0273 182.071C53.7353 181.842 52.4919 181.613 51.3041 181.38C51.0714 181.335 50.8387 181.29 50.6094 181.241C42.2148 179.561 36.7168 177.749 36.7168 175.889V16.4103C36.7168 8.20804 43.3679 1.56079 51.575 1.56079H60.4454C61.8625 1.56079 63.0017 2.66461 63.1233 4.07737C63.1337 4.1711 63.1441 4.26481 63.1615 4.35853C63.4185 5.77824 64.7209 6.76751 66.1657 6.76751H120.493C121.938 6.76751 123.24 5.77824 123.497 4.35853C123.515 4.26481 123.525 4.1711 123.535 4.07737C123.657 2.66461 124.796 1.56079 126.213 1.56079H135.084C143.291 1.56079 149.942 8.20804 149.942 16.4103Z" fill="white"/>
<path d="M79.8464 161.408C79.8985 161.641 79.9437 161.87 79.9888 162.102H54.9508C53.3323 162.102 51.9569 163.161 51.4811 164.623C51.3873 164.47 51.2901 164.317 51.1963 164.164V164.161C51.2241 163.918 51.2518 163.675 51.2831 163.432C51.7798 159.506 52.7523 155.65 54.1797 151.956C56.1977 152.303 58.1183 150.95 58.4691 148.933C58.6532 147.857 58.3545 146.75 57.6494 145.913L57.5244 144.882L57.6529 144.653C60.4141 139.894 66.5129 138.277 71.2712 141.036C73.5322 142.345 75.1889 144.493 75.8801 147.013C77.1929 151.772 78.8253 156.576 79.8464 161.408Z" fill="#FAFAFA"/>
<path d="M147.26 122.202L147.198 122.427C145.84 122.792 144.506 123.239 143.207 123.767C142.464 124.073 141.731 124.402 141.009 124.76C138.522 126.002 137.515 129.022 138.762 131.508C139.39 132.768 140.522 133.705 141.88 134.094L141.978 134.121L142.186 134.18C139.317 139.162 135.615 143.615 131.239 147.343C124.935 167.132 108.566 167.028 92.0578 158.961L92.0474 158.957C90.7762 162.429 89.3487 165.834 87.7719 169.173C87.5427 169.656 87.3135 170.135 87.0773 170.614V165.747C87.0773 165.435 87.0391 165.129 86.9627 164.841C87.1016 164.532 87.2336 164.223 87.3656 163.911C91.6063 153.942 94.4682 143.407 95.8436 132.601C96.375 128.384 96.6702 124.142 96.7292 119.893C96.7744 116.412 96.6632 112.934 96.4028 109.462C94.9579 90.6212 89.0639 72.3907 79.2001 56.2673C73.9244 52.4664 69.9407 47.1382 67.7873 41.0047C67.0024 38.8005 66.5439 36.4922 66.4224 34.1527C67.051 34.3193 70.0483 24.8118 69.6385 24.1558C70.7013 22.9166 72.3788 22.4445 73.518 21.2504C79.1793 15.3009 85.7019 17.2864 88.0602 26.6307C95.0204 31.3132 94.3119 37.5405 88.998 42.9485C85.6186 46.3884 84.5697 51.4841 81.5133 55.2364C81.7321 55.6043 81.9648 55.9653 82.1836 56.3332C86.1986 63.0881 89.5398 70.2178 92.162 77.6252C92.294 69.7145 94.3015 61.946 98.0213 54.9621C101.717 48.4815 107.757 43.3928 113.182 38.0681C117.197 34.0693 123.698 34.0798 127.699 38.0924C129.62 40.0189 130.697 42.6292 130.697 45.3471L130.69 45.6109C129.947 45.9163 129.214 46.2461 128.491 46.6036C126.005 47.8463 125.001 50.8697 126.244 53.3515C126.873 54.6115 128.005 55.5522 129.363 55.9375L129.46 55.9653C128.898 58.4402 128.151 60.8665 127.22 63.2269C130.304 87.1882 116.276 94.0124 97.7191 92.0651C97.2815 92.2248 96.8577 92.3845 96.4236 92.5303C98.6881 102.926 99.5877 113.576 99.1014 124.201C98.7958 130.47 97.983 136.704 96.6737 142.841L96.7327 142.626C98.9416 135.895 103.405 130.133 109.372 126.311C118.225 120.733 129.863 119.734 139.185 115.527C142.065 114.152 145.51 115.37 146.885 118.248C147.476 119.48 147.608 120.879 147.26 122.202L147.26 122.202Z" fill="#FAFAFA"/>
<path d="M34.8064 42.001C34.4233 42.001 34.1118 42.3123 34.1118 42.6952V48.249C34.1118 48.6319 34.4233 48.9433 34.8064 48.9433C35.1896 48.9433 35.5011 48.6319 35.5011 48.249V42.6952C35.5011 42.3123 35.1896 42.001 34.8064 42.001Z" fill="#3F3D56"/>
<path d="M34.8064 58.6624C34.4233 58.6624 34.1118 58.9737 34.1118 59.3566V70.1171C34.1118 70.5 34.4233 70.8114 34.8064 70.8114C35.1896 70.8114 35.5011 70.5 35.5011 70.1171V59.3566C35.5011 58.9737 35.1896 58.6624 34.8064 58.6624Z" fill="#3F3D56"/>
<path d="M34.8064 73.9355C34.4233 73.9355 34.1118 74.2469 34.1118 74.6298V85.3903C34.1118 85.7732 34.4233 86.0846 34.8064 86.0846C35.1896 86.0846 35.5011 85.7732 35.5011 85.3903V74.6298C35.5011 74.2469 35.1896 73.9355 34.8064 73.9355Z" fill="#3F3D56"/>
<path d="M59.6393 3.99194H47.4832C47.0996 3.99194 46.7886 4.30276 46.7886 4.68617V5.03329C46.7886 5.4167 47.0996 5.72752 47.4832 5.72752H59.6393C60.0229 5.72752 60.3339 5.4167 60.3339 5.03329V4.68617C60.3339 4.30276 60.0229 3.99194 59.6393 3.99194Z" fill="#3F3D56"/>
<path d="M128.408 5.72736C129.175 5.72736 129.797 5.10572 129.797 4.3389C129.797 3.57207 129.175 2.95044 128.408 2.95044C127.641 2.95044 127.019 3.57207 127.019 4.3389C127.019 5.10572 127.641 5.72736 128.408 5.72736Z" fill="#3F3D56"/>
<path d="M132.229 5.72736C132.996 5.72736 133.618 5.10572 133.618 4.3389C133.618 3.57207 132.996 2.95044 132.229 2.95044C131.461 2.95044 130.839 3.57207 130.839 4.3389C130.839 5.10572 131.461 5.72736 132.229 5.72736Z" fill="#3F3D56"/>
<path d="M136.049 5.72736C136.816 5.72736 137.438 5.10572 137.438 4.3389C137.438 3.57207 136.816 2.95044 136.049 2.95044C135.282 2.95044 134.66 3.57207 134.66 4.3389C134.66 5.10572 135.282 5.72736 136.049 5.72736Z" fill="#3F3D56"/>
<path d="M124.587 21.5211H62.0704C60.4425 21.5211 59.1182 20.1975 59.1182 18.5706C59.1182 16.9437 60.4425 15.6201 62.0704 15.6201H124.587C126.215 15.6201 127.539 16.9437 127.539 18.5706C127.539 20.1975 126.215 21.5211 124.587 21.5211Z" fill="#E6E6E6"/>
<path d="M63.1126 19.9592C62.1551 19.9592 61.376 19.1805 61.376 18.2236C61.376 17.2667 62.1551 16.488 63.1126 16.488C64.0701 16.488 64.8491 17.2667 64.8491 18.2236C64.8491 19.1805 64.0701 19.9592 63.1126 19.9592ZM63.1126 17.1823C62.538 17.1823 62.0706 17.6494 62.0706 18.2236C62.0706 18.7978 62.538 19.265 63.1126 19.265C63.6871 19.265 64.1545 18.7978 64.1545 18.2236C64.1545 17.6494 63.6871 17.1823 63.1126 17.1823Z" fill="white"/>
<path d="M65.7844 21.1385C65.6992 21.1385 65.6139 21.1075 65.5469 21.0446L63.917 19.518C63.777 19.387 63.7698 19.1673 63.9011 19.0275C64.032 18.8872 64.2518 18.8802 64.3919 19.0116L66.0218 20.5382C66.1619 20.6692 66.169 20.8888 66.0377 21.0287C65.9694 21.1017 65.877 21.1385 65.7844 21.1385H65.7844Z" fill="white"/>
<path d="M62.9389 80.1836C62.6517 80.1836 62.418 80.4171 62.418 80.7043V81.0514C62.418 81.3385 62.6517 81.5721 62.9389 81.5721H75.095C75.3823 81.5721 75.616 81.3385 75.616 81.0514V80.7043C75.616 80.4171 75.3823 80.1836 75.095 80.1836H62.9389Z" fill="#3F3D56"/>
<path d="M83.4308 74.9767H54.9508C52.5569 74.9767 50.6094 73.0303 50.6094 70.6378V42.1744C50.6094 39.7819 52.5569 37.8354 54.9508 37.8354H83.4308C85.8247 37.8354 87.7722 39.7819 87.7722 42.1744V70.6378C87.7722 73.0303 85.8247 74.9767 83.4308 74.9767ZM54.9508 38.5297C52.9367 38.5297 51.304 40.1615 51.304 42.1744V70.6378C51.304 72.6507 52.9367 74.2825 54.9508 74.2825H74.9003C81.6256 74.2825 87.0776 68.8337 87.0776 62.1123V42.1744C87.0776 40.1615 85.4448 38.5297 83.4308 38.5297H54.9508Z" fill="#F2F2F2"/>
<path d="M59.1186 41.4802C56.9162 41.4802 55.1245 43.2709 55.1245 45.472V51.7201C55.1245 53.9213 56.9162 55.7119 59.1186 55.7119H65.3703C67.5728 55.7119 69.3645 53.9213 69.3645 51.7201V45.472C69.3645 43.2709 67.5728 41.4802 65.3703 41.4802H59.1186Z" fill="#F2F2F2"/>
<path d="M75.4424 41.4802C73.2399 41.4802 71.4482 43.2709 71.4482 45.472V51.7201C71.4482 53.9213 73.2399 55.7119 75.4424 55.7119H81.6941C83.8965 55.7119 85.6882 53.9213 85.6882 51.7201V45.472C85.6882 43.2709 83.8965 41.4802 81.6941 41.4802H75.4424Z" fill="#F2F2F2"/>
<path d="M57.9028 57.2739C55.7004 57.2739 53.9087 59.0646 53.9087 61.2657V67.5138C53.9087 69.715 55.7004 71.5056 57.9028 71.5056H64.1545C66.357 71.5056 68.1487 69.715 68.1487 67.5138V61.2657C68.1487 59.0646 66.357 57.2739 64.1545 57.2739H57.9028Z" fill="#F2F2F2"/>
<path d="M111.216 80.1836C110.929 80.1836 110.695 80.4171 110.695 80.7043V81.0514C110.695 81.3385 110.929 81.5721 111.216 81.5721H123.372C123.659 81.5721 123.893 81.3385 123.893 81.0514V80.7043C123.893 80.4171 123.659 80.1836 123.372 80.1836H111.216Z" fill="#3F3D56"/>
<path d="M62.9389 141.97C62.6517 141.97 62.418 142.204 62.418 142.491V142.838C62.418 143.125 62.6517 143.358 62.9389 143.358H75.095C75.3823 143.358 75.616 143.125 75.616 142.838V142.491C75.616 142.204 75.3823 141.97 75.095 141.97H62.9389Z" fill="#3F3D56"/>
<path d="M83.4308 136.763H54.9508C52.5569 136.763 50.6094 134.817 50.6094 132.424V103.961C50.6094 101.568 52.5569 99.6218 54.9508 99.6218H83.4308C85.8247 99.6218 87.7722 101.568 87.7722 103.961V132.424C87.7722 134.817 85.8247 136.763 83.4308 136.763ZM54.9508 100.316C52.9367 100.316 51.304 101.948 51.304 103.961V132.424C51.304 134.437 52.9367 136.069 54.9508 136.069H75.2476C81.7811 136.069 87.0776 130.775 87.0776 124.246V103.961C87.0776 101.948 85.4448 100.316 83.4308 100.316H54.9508Z" fill="#F2F2F2"/>
<path d="M57.9028 103.093C55.7004 103.093 53.9087 104.884 53.9087 107.085V113.333C53.9087 115.534 55.7004 117.325 57.9028 117.325H64.1545C66.357 117.325 68.1487 115.534 68.1487 113.333V107.085C68.1487 104.884 66.357 103.093 64.1545 103.093H57.9028Z" fill="#F2F2F2"/>
<path d="M74.2266 103.093C72.0241 103.093 70.2324 104.884 70.2324 107.085V113.333C70.2324 115.534 72.0241 117.325 74.2266 117.325H80.4782C82.6807 117.325 84.4724 115.534 84.4724 113.333V107.085C84.4724 104.884 82.6807 103.093 80.4782 103.093H74.2266Z" fill="#F2F2F2"/>
<path d="M57.9028 119.06C55.7004 119.06 53.9087 120.851 53.9087 123.052V129.3C53.9087 131.501 55.7004 133.292 57.9028 133.292H64.1545C66.357 133.292 68.1487 131.501 68.1487 129.3V123.052C68.1487 120.851 66.357 119.06 64.1545 119.06H57.9028Z" fill="#F2F2F2"/>
<path d="M111.216 141.97C110.929 141.97 110.695 142.204 110.695 142.491V142.838C110.695 143.125 110.929 143.358 111.216 143.358H123.372C123.659 143.358 123.893 143.125 123.893 142.838V142.491C123.893 142.204 123.659 141.97 123.372 141.97H111.216Z" fill="#3F3D56"/>
<path d="M131.708 136.763H103.228C100.834 136.763 98.8862 134.817 98.8862 132.424V103.961C98.8862 101.568 100.834 99.6218 103.228 99.6218H131.708C134.102 99.6218 136.049 101.568 136.049 103.961V132.424C136.049 134.817 134.102 136.763 131.708 136.763ZM103.228 100.316C101.214 100.316 99.5809 101.948 99.5809 103.961V132.424C99.5809 134.437 101.214 136.069 103.228 136.069H123.753C130.16 136.069 135.354 130.878 135.354 124.474V103.961C135.354 101.948 133.722 100.316 131.708 100.316H103.228Z" fill="#F2F2F2"/>
<path d="M106.18 103.093C103.977 103.093 102.186 104.884 102.186 107.085V113.333C102.186 115.534 103.977 117.325 106.18 117.325H112.431C114.634 117.325 116.426 115.534 116.426 113.333V107.085C116.426 104.884 114.634 103.093 112.431 103.093H106.18Z" fill="#F2F2F2"/>
<path d="M122.503 103.093C120.301 103.093 118.509 104.884 118.509 107.085V113.333C118.509 115.534 120.301 117.325 122.503 117.325H128.755C130.958 117.325 132.749 115.534 132.749 113.333V107.085C132.749 104.884 130.958 103.093 128.755 103.093H122.503Z" fill="#F2F2F2"/>
<path d="M106.18 119.06C103.977 119.06 102.186 120.851 102.186 123.052V129.3C102.186 131.501 103.977 133.292 106.18 133.292H112.431C114.634 133.292 116.426 131.501 116.426 129.3V123.052C116.426 120.851 114.634 119.06 112.431 119.06H106.18Z" fill="#F2F2F2"/>
<path d="M87.7722 165.746V186.472C87.5395 186.448 87.3068 186.424 87.0776 186.399V165.746C87.0776 165.433 87.0394 165.128 86.963 164.84C86.5601 163.268 85.1292 162.101 83.4308 162.101H54.9508C53.3323 162.101 51.957 163.16 51.4811 164.621C51.3665 164.975 51.304 165.354 51.304 165.746V181.38C51.0713 181.335 50.8386 181.29 50.6094 181.241V165.746C50.6094 164.895 50.856 164.101 51.2832 163.431C52.0542 162.216 53.4087 161.407 54.9508 161.407H83.4308C85.1674 161.407 86.6678 162.431 87.3659 163.91C87.6264 164.465 87.7722 165.09 87.7722 165.746V165.746Z" fill="#F2F2F2"/>
<path d="M64.1545 164.879H57.9028C55.7008 164.879 53.9087 166.67 53.9087 168.871V175.119C53.9087 177.32 55.7008 179.111 57.9028 179.111H64.1545C66.3565 179.111 68.1487 177.32 68.1487 175.119V168.871C68.1487 166.67 66.3565 164.879 64.1545 164.879Z" fill="#F2F2F2"/>
<path d="M80.4782 164.879H74.2266C72.0246 164.879 70.2324 166.67 70.2324 168.871V175.119C70.2324 177.32 72.0246 179.111 74.2266 179.111H80.4782C82.6802 179.111 84.4724 177.32 84.4724 175.119V168.871C84.4724 166.67 82.6802 164.879 80.4782 164.879Z" fill="#F2F2F2"/>
<path d="M64.1548 180.845H57.9031C56.7743 180.845 55.7532 181.317 55.0273 182.071C58.9937 182.768 63.4115 183.442 68.076 184.08C67.7218 182.241 66.0998 180.845 64.1548 180.845Z" fill="#F2F2F2"/>
<path d="M136.049 165.746V190.724H135.354V165.746C135.354 163.736 133.719 162.101 131.708 162.101H103.228C101.217 162.101 99.5809 163.736 99.5809 165.746V187.694C99.3516 187.67 99.1189 187.649 98.8862 187.625V165.746C98.8862 163.354 100.835 161.407 103.228 161.407H131.708C134.101 161.407 136.049 163.354 136.049 165.746Z" fill="#F2F2F2"/>
<path d="M112.431 164.879H106.18C103.978 164.879 102.186 166.67 102.186 168.871V175.119C102.186 177.32 103.978 179.111 106.18 179.111H112.431C114.633 179.111 116.426 177.32 116.426 175.119V168.871C116.426 166.67 114.633 164.879 112.431 164.879Z" fill="#F2F2F2"/>
<path d="M128.755 164.879H122.503C120.301 164.879 118.509 166.67 118.509 168.871V175.119C118.509 177.32 120.301 179.111 122.503 179.111H128.755C130.957 179.111 132.749 177.32 132.749 175.119V168.871C132.749 166.67 130.957 164.879 128.755 164.879Z" fill="#F2F2F2"/>
<path d="M112.431 180.845H106.18C103.978 180.845 102.186 182.636 102.186 184.837V187.944C107.281 188.437 112.112 188.871 116.426 189.242V184.837C116.426 182.636 114.633 180.845 112.431 180.845Z" fill="#F2F2F2"/>
<path d="M71.8752 119.001C70.9352 119.001 70.1704 119.765 70.1704 120.705V123.372C70.1704 124.311 70.9352 125.075 71.8752 125.075H74.5436C75.4837 125.075 76.2485 124.311 76.2485 123.372V120.705C76.2485 119.765 75.4837 119.001 74.5436 119.001H71.8752Z" fill="#F2F2F2"/>
<path d="M80.2107 119.001C79.2706 119.001 78.5059 119.765 78.5059 120.705V123.372C78.5059 124.311 79.2706 125.075 80.2107 125.075H82.8791C83.8192 125.075 84.5839 124.311 84.5839 123.372V120.705C84.5839 119.765 83.8192 119.001 82.8791 119.001H80.2107Z" fill="#F2F2F2"/>
<path d="M71.8752 57.9087C70.9352 57.9087 70.1704 58.673 70.1704 59.6125V62.2794C70.1704 63.2189 70.9352 63.9832 71.8752 63.9832H74.5436C75.4837 63.9832 76.2485 63.2189 76.2485 62.2794V59.6125C76.2485 58.673 75.4837 57.9087 74.5436 57.9087H71.8752Z" fill="#F2F2F2"/>
<path d="M80.2107 57.9087C79.2706 57.9087 78.5059 58.673 78.5059 59.6125V62.2794C78.5059 63.2189 79.2706 63.9832 80.2107 63.9832H82.8791C83.8192 63.9832 84.5839 63.2189 84.5839 62.2794V59.6125C84.5839 58.673 83.8192 57.9087 82.8791 57.9087H80.2107Z" fill="#F2F2F2"/>
<path d="M122.882 180.847H120.215C119.273 180.847 118.509 181.61 118.509 182.551V185.217C118.509 186.158 119.273 186.921 120.215 186.921H122.882C123.823 186.921 124.587 186.158 124.587 185.217V182.551C124.587 181.61 123.823 180.847 122.882 180.847Z" fill="#F2F2F2"/>
<path d="M131.218 180.847H128.551C127.609 180.847 126.845 181.61 126.845 182.551V185.217C126.845 186.158 127.609 186.921 128.551 186.921H131.218C132.159 186.921 132.923 186.158 132.923 185.217V182.551C132.923 181.61 132.159 180.847 131.218 180.847Z" fill="#F2F2F2"/>
<path d="M122.882 188.829H120.215C119.683 188.829 119.208 189.072 118.895 189.454C120.899 189.627 122.768 189.78 124.469 189.919C124.226 189.28 123.608 188.829 122.882 188.829Z" fill="#F2F2F2"/>
<path d="M131.218 188.829H128.551C127.755 188.829 127.085 189.374 126.901 190.113C129.461 190.318 131.513 190.474 132.923 190.579V190.533C132.923 189.593 132.159 188.829 131.218 188.829Z" fill="#F2F2F2"/>
<path d="M138.21 42.1896L139.379 48.017L136.142 49.149L135.125 42.9439C134.976 42.8225 134.842 42.6777 134.73 42.5099C134.118 41.5971 134.362 40.3614 135.275 39.7499C136.189 39.1384 137.425 39.3826 138.037 40.2954C138.427 40.8776 138.468 41.5905 138.21 42.1896V42.1896Z" fill="#A0616A"/>
<path d="M155.141 80.3455L159.88 75.2436L144.687 59.7124C144.687 59.7124 144.066 59.1291 144.486 59.0483C144.905 58.9675 144.271 58.3394 144.271 58.3394C144.271 58.3394 143.281 57.4001 144.075 57.6932C144.869 57.9864 143.863 56.9928 143.863 56.9928L140.304 45.2537L139.673 43.1716L134.359 46.3416C134.359 46.3416 134.407 46.7445 134.5 47.4319C134.975 50.8998 136.64 61.607 139.452 64.328C142.821 67.5883 155.141 80.3455 155.141 80.3455L155.141 80.3455Z" fill="#439AD8"/>
<path d="M141.77 189.064L138.422 189.064L136.83 176.161L141.77 176.161L141.77 189.064Z" fill="#A0616A"/>
<path d="M141.888 192.554L131.594 192.554V192.424C131.594 190.212 133.388 188.42 135.601 188.42H135.601L137.481 186.994L140.989 188.42L141.888 188.42L141.888 192.554Z" fill="#2F2E41"/>
<path d="M169.077 185.785L165.912 186.873L160.207 175.189L164.878 173.583L169.077 185.785Z" fill="#A0616A"/>
<path d="M170.324 189.047L160.59 192.393L160.548 192.27C159.828 190.178 160.941 187.9 163.034 187.181L163.034 187.181L164.348 185.222L168.129 185.43L168.979 185.137L170.324 189.047Z" fill="#2F2E41"/>
<path d="M162.831 102.717H140.384C140.384 102.717 139.291 112.43 138.886 111.84C138.48 111.25 138.598 112.107 138.713 112.893C138.828 113.68 137.685 114.166 138.43 114.617C139.175 115.069 138.908 115.906 138.173 116.181C137.438 116.457 137.786 118.54 137.786 118.54L133.965 155.826L137.091 183.797H142.301L149.247 132.771V158.805L163.14 182.062L167.655 180.326L162.098 155.334L166.266 109.168L162.831 102.717V102.717Z" fill="#2F2E41"/>
<path d="M166.613 105.349L164.897 107.231L138.828 108.126L137.786 105.696L142.995 93.8945L148.552 69.9436L150.984 64.7369V64.1643C150.984 64.0843 150.965 64.0054 150.929 63.9339C150.78 63.6356 150.949 63.2763 151.274 63.2013L151.331 62.3071L150.636 62.6542L155.151 60.5715L158.868 60.936L158.972 61.2658L159.746 61.8593C162.973 64.3238 164.835 68.1733 164.762 72.2311L164.529 85.2167L166.613 105.349Z" fill="#3F3D56"/>
<path d="M151.421 58.8282C151.576 58.8639 151.731 58.8949 151.886 58.9187C152.368 58.9973 152.849 59.0211 153.319 58.9925C154.744 58.9187 156.088 58.3923 157.175 57.5252C158.324 56.6105 159.182 55.317 159.542 53.7782C160.388 50.1456 158.126 46.5106 154.491 45.665C150.909 44.8289 147.327 47.0108 146.411 50.5506C146.397 50.6053 146.383 50.6578 146.371 50.7125C145.525 54.3475 147.784 57.9802 151.421 58.8282H151.421Z" fill="#A0616A"/>
<path d="M141.151 105.701L144.629 100.88L147.662 102.481L143.804 107.447C143.816 107.639 143.801 107.836 143.754 108.032C143.501 109.101 142.429 109.763 141.359 109.51C140.289 109.257 139.627 108.185 139.88 107.116C140.041 106.434 140.537 105.92 141.151 105.701Z" fill="#A0616A"/>
<path d="M157.613 67.3401H150.647L149.594 89.0347C149.594 89.0347 149.589 89.8862 149.244 89.634C148.9 89.3819 148.871 90.2737 148.871 90.2737C148.871 90.2737 148.855 91.6376 148.53 90.8568C148.205 90.0761 148.161 91.4889 148.161 91.4889L141.973 102.082L140.876 103.961L146.816 105.696C146.816 105.696 147.079 105.388 147.519 104.851C149.74 102.144 156.459 93.6399 156.541 89.729C156.639 85.0429 157.613 67.3401 157.613 67.3401Z" fill="#439AD8"/>
<path d="M148.552 72.3733C148.552 72.3733 154.109 65.0839 158.972 72.0261L157.93 63.0012L152.615 62.023C152.304 61.9896 152.035 62.2395 152.045 62.5526L148.552 72.3733Z" fill="#3F3D56"/>
<path d="M150.636 65.0839L150.619 63.8829L150.459 63.6261L150.636 63.3484L150.664 63.2859L151.331 60.5715L157.27 58.4888L158.868 60.9359C156.468 62.5535 155.922 65.1429 150.636 65.0839Z" fill="#439AD8"/>
<path d="M156.243 57.8252L155.664 53.4813C155.607 53.0503 155.046 52.9202 154.804 53.2821H153.762L152.72 49.811C152.72 49.811 152.323 51.3822 151.652 50.9971C150.912 50.573 149.986 50.7857 149.163 51.0096L149.539 50.0126L147.866 50.4695L148.091 49.7621L147.051 50.0949C147.23 49.9618 147.069 49.6456 146.849 49.6114C146.629 49.5773 145.774 50.5052 145.427 50.5052C145.14 50.5052 144.859 50.2756 144.638 50.0937C144.051 49.6114 143.759 47.1899 144.038 46.6869C144.554 45.7541 145.726 46.0643 146.469 45.2985C146.634 45.1278 148.384 45.1193 148.553 44.9514C148.76 44.7443 150.26 44.0033 150.553 44.0007C150.847 43.9981 151.124 44.3647 150.933 44.5873C151.069 44.1458 151.638 44.0319 152.1 44.0408C152.425 44.0471 153.438 43.1872 153.762 43.2158C154.46 43.2774 154.469 44.2276 155.167 44.2893C155.73 44.3391 156.399 44.4613 156.621 44.9815C156.729 45.2356 156.697 45.524 156.705 45.8001C156.713 46.0763 156.785 46.3843 157.021 46.5292C157.226 46.6555 157.5 46.6148 157.706 46.4912C157.913 46.3676 158.067 46.1743 158.216 45.9853C158.441 46.7145 159.709 48.485 159.934 49.2141C160.162 49.9517 160.391 50.6927 160.508 51.4559C160.862 53.7827 158.356 56.2551 156.742 57.9695" fill="#2F2E41"/>
<path d="M103.228 38.1826C101.025 38.1826 99.2334 39.9733 99.2334 42.1744V70.6378C99.2334 72.839 101.025 74.6296 103.228 74.6296H131.707C133.91 74.6296 135.702 72.839 135.702 70.6378V42.1744C135.702 39.9733 133.91 38.1826 131.707 38.1826H103.228Z" fill="#F2F2F2"/>
<path d="M106.18 41.3066C103.977 41.3066 102.186 43.0973 102.186 45.2985V51.5465C102.186 53.7477 103.977 55.5383 106.18 55.5383H112.431C114.634 55.5383 116.426 53.7477 116.426 51.5465V45.2985C116.426 43.0973 114.634 41.3066 112.431 41.3066H106.18Z" fill="#439AD8"/>
<path d="M122.503 41.3066C120.301 41.3066 118.509 43.0973 118.509 45.2985V51.5465C118.509 53.7477 120.301 55.5383 122.503 55.5383H128.755C130.958 55.5383 132.749 53.7477 132.749 51.5465V45.2985C132.749 43.0973 130.958 41.3066 128.755 41.3066H122.503Z" fill="#439AD8"/>
<path d="M106.18 57.2739C103.977 57.2739 102.186 59.0646 102.186 61.2657V67.5138C102.186 69.715 103.977 71.5056 106.18 71.5056H112.431C114.634 71.5056 116.426 69.715 116.426 67.5138V61.2657C116.426 59.0646 114.634 57.2739 112.431 57.2739H106.18Z" fill="white"/>
<path d="M120.214 57.2739C119.274 57.2739 118.509 58.0382 118.509 58.9778V61.6446C118.509 62.5841 119.274 63.3484 120.214 63.3484H122.882C123.823 63.3484 124.587 62.5841 124.587 61.6446V58.9778C124.587 58.0382 123.823 57.2739 122.882 57.2739H120.214Z" fill="white"/>
<path d="M128.55 57.2739C127.609 57.2739 126.845 58.0382 126.845 58.9778V61.6446C126.845 62.5841 127.609 63.3484 128.55 63.3484H131.218C132.158 63.3484 132.923 62.5841 132.923 61.6446V58.9778C132.923 58.0382 132.158 57.2739 131.218 57.2739H128.55Z" fill="white"/>
<path d="M120.214 65.2576C119.274 65.2576 118.509 66.0219 118.509 66.9614V69.6282C118.509 70.5678 119.274 71.3321 120.214 71.3321H122.882C123.823 71.3321 124.587 70.5678 124.587 69.6282V66.9614C124.587 66.0219 123.823 65.2576 122.882 65.2576H120.214Z" fill="white"/>
<path d="M128.55 65.2576C127.609 65.2576 126.845 66.0219 126.845 66.9614V69.6282C126.845 70.5678 127.609 71.3321 128.55 71.3321H131.218C132.158 71.3321 132.923 70.5678 132.923 69.6282V66.9614C132.923 66.0219 132.158 65.2576 131.218 65.2576H128.55Z" fill="white"/>
<path d="M173.155 186.984C173.872 187.028 174.269 186.138 173.726 185.618L173.672 185.404C173.679 185.386 173.686 185.369 173.694 185.352C174.419 183.623 176.878 183.635 177.598 185.367C178.236 186.904 179.049 188.443 179.25 190.069C179.339 190.786 179.299 191.517 179.14 192.221C180.636 188.954 181.423 185.387 181.423 181.8C181.423 180.899 181.374 179.998 181.273 179.099C181.19 178.363 181.076 177.632 180.928 176.908C180.127 172.994 178.393 169.265 175.891 166.151C174.689 165.494 173.686 164.468 173.081 163.237C172.863 162.793 172.693 162.315 172.612 161.829C172.749 161.847 173.128 159.764 173.025 159.636C173.215 159.347 173.557 159.203 173.765 158.921C174.801 157.517 176.228 157.763 176.973 159.67C178.564 160.473 178.58 161.804 177.603 163.084C176.982 163.899 176.896 165.001 176.351 165.873C176.407 165.945 176.466 166.015 176.522 166.086C177.55 167.405 178.44 168.822 179.19 170.31C178.978 168.656 179.291 166.663 179.824 165.378C180.431 163.914 181.569 162.681 182.571 161.416C183.775 159.895 186.244 160.559 186.456 162.486C186.458 162.504 186.46 162.523 186.462 162.542C186.313 162.626 186.167 162.715 186.025 162.809C185.212 163.346 185.493 164.605 186.456 164.753L186.477 164.757C186.424 165.293 186.332 165.824 186.197 166.346C187.483 171.316 184.707 173.125 180.744 173.207C180.656 173.252 180.571 173.296 180.483 173.339C180.885 174.469 181.206 175.628 181.444 176.803C181.657 177.841 181.805 178.89 181.888 179.944C181.991 181.273 181.982 182.61 181.87 183.937L181.877 183.89C182.161 182.428 182.956 181.063 184.109 180.117C185.826 178.706 188.253 178.187 190.106 177.054C190.998 176.508 192.141 177.213 191.986 178.247L191.978 178.296C191.702 178.408 191.433 178.538 191.173 178.684C191.024 178.768 190.878 178.857 190.735 178.951C189.923 179.488 190.204 180.747 191.167 180.896L191.188 180.899C191.204 180.901 191.217 180.903 191.233 180.906C190.76 182.029 190.1 183.071 189.275 183.97C188.471 188.308 185.018 188.72 181.325 187.457H181.322C180.919 189.214 180.329 190.932 179.57 192.568H173.312C173.289 192.499 173.269 192.427 173.249 192.358C173.828 192.394 174.411 192.36 174.981 192.255C174.516 191.685 174.052 191.111 173.588 190.542C173.576 190.53 173.567 190.519 173.558 190.508C173.323 190.217 173.085 189.927 172.85 189.636L172.849 189.636C172.835 188.741 172.942 187.849 173.155 186.984L173.155 186.984Z" fill="#F2F2F2"/>
<path d="M0 192.587C0 192.816 0.184088 193 0.413327 193H191.538C191.767 193 191.951 192.816 191.951 192.587C191.951 192.358 191.767 192.174 191.538 192.174H0.413327C0.184088 192.174 0 192.358 0 192.587Z" fill="#CCCCCC"/>
</svg>
