<svg width="30" height="30" viewBox="0 0 30 30" fill="none" xmlns="http://www.w3.org/2000/svg">
<rect width="30" height="30" rx="5" fill="#C4C4C4"/>
<path d="M14.4435 5H16.248C16.4084 5 16.4886 5.07407 16.4886 5.22222V24.7778C16.4886 24.9259 16.4084 25 16.248 25H14.4435C14.2831 25 14.2029 24.9259 14.2029 24.7778V5.22222C14.2029 5.07407 14.2831 5 14.4435 5Z" fill="white"/>
<path d="M5.2406 13.9445H25.4508C25.6112 13.9445 25.6914 14.0185 25.6914 14.1667V15.8333C25.6914 15.9815 25.6112 16.0556 25.4508 16.0556H5.2406C5.0802 16.0556 5 15.9815 5 15.8333V14.1667C5 14.0185 5.0802 13.9445 5.2406 13.9445Z" fill="white"/>
</svg>
