<svg width="13" height="14" viewBox="0 0 13 14" fill="none" xmlns="http://www.w3.org/2000/svg">
<path d="M6.36364 14C2.82736 13.2141 0 9.87764 0 6.36364V2.54545L6.36364 0L12.7273 2.54545V6.36364C12.7273 9.87891 9.89991 13.2141 6.36364 14ZM1.27273 3.18182V6.36364C1.30909 7.83499 1.82659 9.2539 2.74602 10.4032C3.66545 11.5525 4.93615 12.3688 6.36364 12.7273C7.79112 12.3688 9.06182 11.5525 9.98125 10.4032C10.9007 9.2539 11.4182 7.83499 11.4545 6.36364V3.18182L6.36364 1.27273L1.27273 3.18182Z" fill="black"/>
<path d="M6.36361 6.36358C7.24225 6.36358 7.95452 5.65131 7.95452 4.77267C7.95452 3.89404 7.24225 3.18176 6.36361 3.18176C5.48498 3.18176 4.77271 3.89404 4.77271 4.77267C4.77271 5.65131 5.48498 6.36358 6.36361 6.36358Z" fill="black"/>
<path d="M3.18176 8.90909C3.49542 9.48067 3.95532 9.95865 4.5144 10.2941C5.07347 10.6295 5.71164 10.8104 6.36358 10.8182C7.01552 10.8104 7.65369 10.6295 8.21277 10.2941C8.77184 9.95865 9.23174 9.48067 9.5454 8.90909C9.52949 7.70255 7.41867 7 6.36358 7C5.30276 7 3.19767 7.70255 3.18176 8.90909Z" fill="black"/>
</svg>
