<svg width="169" height="23" viewBox="0 0 169 23" fill="none" xmlns="http://www.w3.org/2000/svg">
<mask id="mask0_497_878" style="mask-type:alpha" maskUnits="userSpaceOnUse" x="0" y="0" width="168" height="22">
<path d="M167.661 0.75L68.1544 21.25H0.942749L0.839355 0.75H167.661Z" fill="black"/>
</mask>
<g mask="url(#mask0_497_878)">
<path d="M9.25415 12.1938H4.67651L4.6521 9.38623H8.36304C9.03035 9.38623 9.5634 9.31299 9.96216 9.1665C10.3609 9.01188 10.6498 8.78809 10.8289 8.49512C11.016 8.20215 11.1096 7.83594 11.1096 7.39648C11.1096 6.89193 11.016 6.48503 10.8289 6.17578C10.6417 5.86654 10.3446 5.64274 9.93774 5.50439C9.53898 5.35791 9.02222 5.28467 8.38745 5.28467H6.28784V19.75H2.00317V1.97656H8.38745C9.48608 1.97656 10.4667 2.07829 11.3293 2.28174C12.192 2.47705 12.9244 2.77816 13.5266 3.18506C14.137 3.59196 14.6008 4.10465 14.9182 4.72314C15.2356 5.3335 15.3943 6.05371 15.3943 6.88379C15.3943 7.60807 15.2397 8.2876 14.9304 8.92236C14.6212 9.55713 14.1044 10.0739 13.3801 10.4727C12.664 10.8633 11.6833 11.0667 10.4382 11.083L9.25415 12.1938ZM9.08325 19.75H3.63892L5.10376 16.4541H9.08325C9.66919 16.4541 10.1371 16.3646 10.4871 16.1855C10.8451 15.9984 11.1015 15.7542 11.2561 15.4531C11.4189 15.1439 11.5002 14.8021 11.5002 14.4277C11.5002 13.972 11.4229 13.5773 11.2683 13.2437C11.1218 12.91 10.8858 12.6536 10.5603 12.4746C10.2348 12.2874 9.7994 12.1938 9.25415 12.1938H5.65308L5.67749 9.38623H9.98657L10.9875 10.5093C12.1757 10.4604 13.1156 10.6273 13.8074 11.0098C14.5072 11.3923 15.0077 11.8968 15.3088 12.5234C15.6099 13.1501 15.7605 13.8052 15.7605 14.4888C15.7605 15.6525 15.5082 16.625 15.0037 17.4062C14.5072 18.1875 13.7626 18.7734 12.7698 19.1641C11.7769 19.5547 10.5481 19.75 9.08325 19.75ZM33.1799 10.5093V11.2295C33.1799 12.5885 32.9887 13.8092 32.6062 14.8916C32.2319 15.9658 31.6988 16.8854 31.0071 17.6504C30.3153 18.4072 29.4975 18.9891 28.5535 19.396C27.6095 19.7948 26.5678 19.9941 25.4285 19.9941C24.281 19.9941 23.2312 19.7948 22.2791 19.396C21.335 18.9891 20.5131 18.4072 19.8132 17.6504C19.1215 16.8854 18.5844 15.9658 18.2019 14.8916C17.8276 13.8092 17.6404 12.5885 17.6404 11.2295V10.5093C17.6404 9.15023 17.8276 7.92952 18.2019 6.84717C18.5844 5.76481 19.1174 4.84521 19.801 4.08838C20.4928 3.3234 21.3106 2.74154 22.2546 2.34277C23.2068 1.93587 24.2566 1.73242 25.4041 1.73242C26.5434 1.73242 27.585 1.93587 28.5291 2.34277C29.4812 2.74154 30.3031 3.3234 30.9949 4.08838C31.6866 4.84521 32.2237 5.76481 32.6062 6.84717C32.9887 7.92952 33.1799 9.15023 33.1799 10.5093ZM28.8342 11.2295V10.4849C28.8342 9.60596 28.7569 8.83285 28.6023 8.16553C28.4558 7.49007 28.2361 6.92448 27.9431 6.46875C27.6501 6.01302 27.288 5.67122 26.8567 5.44336C26.4335 5.20736 25.9493 5.08936 25.4041 5.08936C24.8344 5.08936 24.338 5.20736 23.9148 5.44336C23.4916 5.67122 23.1376 6.01302 22.8528 6.46875C22.568 6.92448 22.3523 7.49007 22.2058 8.16553C22.0675 8.83285 21.9983 9.60596 21.9983 10.4849V11.2295C21.9983 12.1003 22.0675 12.8734 22.2058 13.5488C22.3523 14.2161 22.568 14.7817 22.8528 15.2456C23.1458 15.7095 23.5038 16.0594 23.927 16.2954C24.3583 16.5314 24.8588 16.6494 25.4285 16.6494C25.9737 16.6494 26.4579 16.5314 26.8811 16.2954C27.3043 16.0594 27.6583 15.7095 27.9431 15.2456C28.2361 14.7817 28.4558 14.2161 28.6023 13.5488C28.7569 12.8734 28.8342 12.1003 28.8342 11.2295ZM35.4016 1.97656H42.3962C43.7634 1.97656 44.9516 2.18001 45.9607 2.58691C46.9698 2.99382 47.747 3.59603 48.2922 4.39355C48.8456 5.19108 49.1223 6.17578 49.1223 7.34766C49.1223 8.36491 48.9636 9.21533 48.6462 9.89893C48.3289 10.5825 47.8853 11.1481 47.3157 11.5957C46.7542 12.0352 46.099 12.3973 45.3503 12.6821L43.9465 13.4756H38.075L38.0505 10.1675H42.3962C42.9415 10.1675 43.3931 10.0698 43.7512 9.87451C44.1093 9.6792 44.3778 9.40251 44.5569 9.04443C44.7441 8.67822 44.8376 8.24284 44.8376 7.73828C44.8376 7.22559 44.7441 6.78613 44.5569 6.41992C44.3697 6.05371 44.093 5.77295 43.7268 5.57764C43.3687 5.38232 42.9252 5.28467 42.3962 5.28467H39.6863V19.75H35.4016V1.97656ZM45.1306 19.75L41.2 11.8887L45.741 11.8643L49.7205 19.5669V19.75H45.1306ZM59.2419 5.71191L54.9084 19.75H50.3064L56.8372 1.97656H59.7546L59.2419 5.71191ZM62.8308 19.75L58.4851 5.71191L57.9236 1.97656H60.8777L67.4451 19.75H62.8308ZM62.6599 13.1216V16.4297H53.5413V13.1216H62.6599ZM69.4592 1.97656H75.343C76.6777 1.97656 77.8048 2.18001 78.7244 2.58691C79.6521 2.99382 80.356 3.59603 80.8362 4.39355C81.3245 5.18294 81.5686 6.15544 81.5686 7.31104C81.5686 8.12484 81.4018 8.86947 81.0681 9.54492C80.7426 10.2122 80.2706 10.7819 79.6521 11.2539C79.0417 11.7178 78.3093 12.0636 77.4548 12.2915L76.7957 12.5479H71.2659L71.2415 10.6313H75.4163C76.2626 10.6313 76.9666 10.4849 77.5281 10.1919C78.0896 9.89079 78.5128 9.48796 78.7976 8.9834C79.0824 8.47884 79.2249 7.92139 79.2249 7.31104C79.2249 6.62744 79.0906 6.0293 78.822 5.5166C78.5535 5.00391 78.1303 4.60921 77.5525 4.33252C76.9828 4.04769 76.2463 3.90527 75.343 3.90527H71.8152V19.75H69.4592V1.97656ZM79.8474 19.75L75.5261 11.6934L77.9797 11.6812L82.3621 19.6035V19.75H79.8474ZM91.4441 3.55127L85.5603 19.75H83.1555L89.9304 1.97656H91.4807L91.4441 3.55127ZM96.3757 19.75L90.4797 3.55127L90.4431 1.97656H91.9934L98.7927 19.75H96.3757ZM96.0706 13.1704V15.0991H86.0852V13.1704H96.0706ZM111.757 14.0981H114.1C113.978 15.2212 113.657 16.2262 113.136 17.1133C112.615 18.0003 111.879 18.7043 110.927 19.2251C109.974 19.7378 108.786 19.9941 107.362 19.9941C106.32 19.9941 105.372 19.7988 104.518 19.4082C103.671 19.0176 102.943 18.4642 102.333 17.748C101.722 17.0238 101.25 16.1571 100.917 15.1479C100.591 14.1307 100.428 12.9995 100.428 11.7544V9.98438C100.428 8.73926 100.591 7.61214 100.917 6.60303C101.25 5.58577 101.726 4.71501 102.345 3.99072C102.972 3.26644 103.724 2.70898 104.603 2.31836C105.482 1.92773 106.471 1.73242 107.57 1.73242C108.912 1.73242 110.048 1.9847 110.975 2.48926C111.903 2.99382 112.623 3.69368 113.136 4.58887C113.657 5.47591 113.978 6.50537 114.1 7.67725H111.757C111.643 6.84717 111.431 6.13509 111.122 5.54102C110.813 4.9388 110.373 4.47493 109.803 4.14941C109.234 3.82389 108.489 3.66113 107.57 3.66113C106.78 3.66113 106.084 3.81169 105.482 4.11279C104.888 4.4139 104.388 4.84115 103.981 5.39453C103.582 5.94792 103.281 6.61117 103.077 7.38428C102.874 8.15739 102.772 9.01595 102.772 9.95996V11.7544C102.772 12.6252 102.862 13.443 103.041 14.208C103.228 14.973 103.509 15.6444 103.883 16.2222C104.257 16.8 104.733 17.2557 105.311 17.5894C105.889 17.9149 106.573 18.0776 107.362 18.0776C108.363 18.0776 109.161 17.9189 109.755 17.6016C110.349 17.2842 110.796 16.8285 111.097 16.2344C111.407 15.6403 111.626 14.9282 111.757 14.0981ZM128.92 9.61816V11.5347H119.301V9.61816H128.92ZM119.667 1.97656V19.75H117.311V1.97656H119.667ZM130.97 1.97656V19.75H128.627V1.97656H130.97ZM141.957 3.55127L136.073 19.75H133.668L140.443 1.97656H141.993L141.957 3.55127ZM146.888 19.75L140.992 3.55127L140.956 1.97656H142.506L149.305 19.75H146.888ZM146.583 13.1704V15.0991H136.598V13.1704H146.583ZM151.686 1.97656H157.57C158.904 1.97656 160.031 2.18001 160.951 2.58691C161.879 2.99382 162.583 3.59603 163.063 4.39355C163.551 5.18294 163.795 6.15544 163.795 7.31104C163.795 8.12484 163.628 8.86947 163.295 9.54492C162.969 10.2122 162.497 10.7819 161.879 11.2539C161.268 11.7178 160.536 12.0636 159.681 12.2915L159.022 12.5479H153.492L153.468 10.6313H157.643C158.489 10.6313 159.193 10.4849 159.755 10.1919C160.316 9.89079 160.739 9.48796 161.024 8.9834C161.309 8.47884 161.451 7.92139 161.451 7.31104C161.451 6.62744 161.317 6.0293 161.049 5.5166C160.78 5.00391 160.357 4.60921 159.779 4.33252C159.209 4.04769 158.473 3.90527 157.57 3.90527H154.042V19.75H151.686V1.97656ZM162.074 19.75L157.753 11.6934L160.206 11.6812L164.589 19.6035V19.75H162.074Z" fill="black"/>
</g>
<mask id="mask1_497_878" style="mask-type:alpha" maskUnits="userSpaceOnUse" x="69" y="1" width="100" height="22">
<path d="M168.66 1.75L69.1543 22.25H168.66V1.75Z" fill="black"/>
</mask>
<g mask="url(#mask1_497_878)">
<path d="M10.2539 13.1938H5.67627L5.65186 10.3862H9.36279C10.0301 10.3862 10.5632 10.313 10.9619 10.1665C11.3607 10.0119 11.6496 9.78809 11.8286 9.49512C12.0158 9.20215 12.1094 8.83594 12.1094 8.39648C12.1094 7.89193 12.0158 7.48503 11.8286 7.17578C11.6414 6.86654 11.3444 6.64274 10.9375 6.50439C10.5387 6.35791 10.022 6.28467 9.38721 6.28467H7.2876V20.75H3.00293V2.97656H9.38721C10.4858 2.97656 11.4665 3.07829 12.3291 3.28174C13.1917 3.47705 13.9242 3.77816 14.5264 4.18506C15.1367 4.59196 15.6006 5.10465 15.918 5.72314C16.2354 6.3335 16.394 7.05371 16.394 7.88379C16.394 8.60807 16.2394 9.2876 15.9302 9.92236C15.6209 10.5571 15.1042 11.0739 14.3799 11.4727C13.6637 11.8633 12.6831 12.0667 11.438 12.083L10.2539 13.1938ZM10.083 20.75H4.63867L6.10352 17.4541H10.083C10.6689 17.4541 11.1369 17.3646 11.4868 17.1855C11.8449 16.9984 12.1012 16.7542 12.2559 16.4531C12.4186 16.1439 12.5 15.8021 12.5 15.4277C12.5 14.972 12.4227 14.5773 12.2681 14.2437C12.1216 13.91 11.8856 13.6536 11.5601 13.4746C11.2345 13.2874 10.7992 13.1938 10.2539 13.1938H6.65283L6.67725 10.3862H10.9863L11.9873 11.5093C13.1755 11.4604 14.1154 11.6273 14.8071 12.0098C15.507 12.3923 16.0075 12.8968 16.3086 13.5234C16.6097 14.1501 16.7603 14.8052 16.7603 15.4888C16.7603 16.6525 16.508 17.625 16.0034 18.4062C15.507 19.1875 14.7624 19.7734 13.7695 20.1641C12.7767 20.5547 11.5479 20.75 10.083 20.75ZM34.1797 11.5093V12.2295C34.1797 13.5885 33.9884 14.8092 33.606 15.8916C33.2316 16.9658 32.6986 17.8854 32.0068 18.6504C31.3151 19.4072 30.4972 19.9891 29.5532 20.396C28.6092 20.7948 27.5675 20.9941 26.4282 20.9941C25.2808 20.9941 24.231 20.7948 23.2788 20.396C22.3348 19.9891 21.5129 19.4072 20.813 18.6504C20.1213 17.8854 19.5841 16.9658 19.2017 15.8916C18.8273 14.8092 18.6401 13.5885 18.6401 12.2295V11.5093C18.6401 10.1502 18.8273 8.92952 19.2017 7.84717C19.5841 6.76481 20.1172 5.84521 20.8008 5.08838C21.4925 4.3234 22.3104 3.74154 23.2544 3.34277C24.2065 2.93587 25.2563 2.73242 26.4038 2.73242C27.5431 2.73242 28.5848 2.93587 29.5288 3.34277C30.481 3.74154 31.3029 4.3234 31.9946 5.08838C32.6864 5.84521 33.2235 6.76481 33.606 7.84717C33.9884 8.92952 34.1797 10.1502 34.1797 11.5093ZM29.834 12.2295V11.4849C29.834 10.606 29.7567 9.83285 29.6021 9.16553C29.4556 8.49007 29.2358 7.92448 28.9429 7.46875C28.6499 7.01302 28.2878 6.67122 27.8564 6.44336C27.4333 6.20736 26.9491 6.08936 26.4038 6.08936C25.8341 6.08936 25.3377 6.20736 24.9146 6.44336C24.4914 6.67122 24.1374 7.01302 23.8525 7.46875C23.5677 7.92448 23.3521 8.49007 23.2056 9.16553C23.0672 9.83285 22.998 10.606 22.998 11.4849V12.2295C22.998 13.1003 23.0672 13.8734 23.2056 14.5488C23.3521 15.2161 23.5677 15.7817 23.8525 16.2456C24.1455 16.7095 24.5036 17.0594 24.9268 17.2954C25.3581 17.5314 25.8586 17.6494 26.4282 17.6494C26.9735 17.6494 27.4577 17.5314 27.8809 17.2954C28.304 17.0594 28.658 16.7095 28.9429 16.2456C29.2358 15.7817 29.4556 15.2161 29.6021 14.5488C29.7567 13.8734 29.834 13.1003 29.834 12.2295ZM36.4014 2.97656H43.396C44.7632 2.97656 45.9513 3.18001 46.9604 3.58691C47.9696 3.99382 48.7467 4.59603 49.292 5.39355C49.8454 6.19108 50.1221 7.17578 50.1221 8.34766C50.1221 9.36491 49.9634 10.2153 49.646 10.8989C49.3286 11.5825 48.8851 12.1481 48.3154 12.5957C47.7539 13.0352 47.0988 13.3973 46.3501 13.6821L44.9463 14.4756H39.0747L39.0503 11.1675H43.396C43.9412 11.1675 44.3929 11.0698 44.751 10.8745C45.109 10.6792 45.3776 10.4025 45.5566 10.0444C45.7438 9.67822 45.8374 9.24284 45.8374 8.73828C45.8374 8.22559 45.7438 7.78613 45.5566 7.41992C45.3695 7.05371 45.0928 6.77295 44.7266 6.57764C44.3685 6.38232 43.925 6.28467 43.396 6.28467H40.686V20.75H36.4014V2.97656ZM46.1304 20.75L42.1997 12.8887L46.7407 12.8643L50.7202 20.5669V20.75H46.1304ZM60.2417 6.71191L55.9082 20.75H51.3062L57.8369 2.97656H60.7544L60.2417 6.71191ZM63.8306 20.75L59.4849 6.71191L58.9233 2.97656H61.8774L68.4448 20.75H63.8306ZM63.6597 14.1216V17.4297H54.541V14.1216H63.6597ZM70.459 2.97656H76.3428C77.6774 2.97656 78.8045 3.18001 79.7241 3.58691C80.6519 3.99382 81.3558 4.59603 81.8359 5.39355C82.3242 6.18294 82.5684 7.15544 82.5684 8.31104C82.5684 9.12484 82.4015 9.86947 82.0679 10.5449C81.7424 11.2122 81.2703 11.7819 80.6519 12.2539C80.0415 12.7178 79.3091 13.0636 78.4546 13.2915L77.7954 13.5479H72.2656L72.2412 11.6313H76.416C77.2624 11.6313 77.9663 11.4849 78.5278 11.1919C79.0894 10.8908 79.5125 10.488 79.7974 9.9834C80.0822 9.47884 80.2246 8.92139 80.2246 8.31104C80.2246 7.62744 80.0903 7.0293 79.8218 6.5166C79.5532 6.00391 79.13 5.60921 78.5522 5.33252C77.9826 5.04769 77.2461 4.90527 76.3428 4.90527H72.8149V20.75H70.459V2.97656ZM80.8472 20.75L76.5259 12.6934L78.9795 12.6812L83.3618 20.6035V20.75H80.8472ZM92.4438 4.55127L86.5601 20.75H84.1553L90.9302 2.97656H92.4805L92.4438 4.55127ZM97.3755 20.75L91.4795 4.55127L91.4429 2.97656H92.9932L99.7925 20.75H97.3755ZM97.0703 14.1704V16.0991H87.085V14.1704H97.0703ZM112.756 15.0981H115.1C114.978 16.2212 114.657 17.2262 114.136 18.1133C113.615 19.0003 112.878 19.7043 111.926 20.2251C110.974 20.7378 109.786 20.9941 108.362 20.9941C107.32 20.9941 106.372 20.7988 105.518 20.4082C104.671 20.0176 103.943 19.4642 103.333 18.748C102.722 18.0238 102.25 17.1571 101.917 16.1479C101.591 15.1307 101.428 13.9995 101.428 12.7544V10.9844C101.428 9.73926 101.591 8.61214 101.917 7.60303C102.25 6.58577 102.726 5.71501 103.345 4.99072C103.971 4.26644 104.724 3.70898 105.603 3.31836C106.482 2.92773 107.471 2.73242 108.569 2.73242C109.912 2.73242 111.047 2.9847 111.975 3.48926C112.903 3.99382 113.623 4.69368 114.136 5.58887C114.657 6.47591 114.978 7.50537 115.1 8.67725H112.756C112.642 7.84717 112.431 7.13509 112.122 6.54102C111.812 5.9388 111.373 5.47493 110.803 5.14941C110.234 4.82389 109.489 4.66113 108.569 4.66113C107.78 4.66113 107.084 4.81169 106.482 5.11279C105.888 5.4139 105.387 5.84115 104.98 6.39453C104.582 6.94792 104.281 7.61117 104.077 8.38428C103.874 9.15739 103.772 10.016 103.772 10.96V12.7544C103.772 13.6252 103.861 14.443 104.041 15.208C104.228 15.973 104.508 16.6444 104.883 17.2222C105.257 17.8 105.733 18.2557 106.311 18.5894C106.889 18.9149 107.572 19.0776 108.362 19.0776C109.363 19.0776 110.16 18.9189 110.754 18.6016C111.348 18.2842 111.796 17.8285 112.097 17.2344C112.406 16.6403 112.626 15.9282 112.756 15.0981ZM129.919 10.6182V12.5347H120.3V10.6182H129.919ZM120.667 2.97656V20.75H118.311V2.97656H120.667ZM131.97 2.97656V20.75H129.626V2.97656H131.97ZM142.957 4.55127L137.073 20.75H134.668L141.443 2.97656H142.993L142.957 4.55127ZM147.888 20.75L141.992 4.55127L141.956 2.97656H143.506L150.305 20.75H147.888ZM147.583 14.1704V16.0991H137.598V14.1704H147.583ZM152.686 2.97656H158.569C159.904 2.97656 161.031 3.18001 161.951 3.58691C162.878 3.99382 163.582 4.59603 164.062 5.39355C164.551 6.18294 164.795 7.15544 164.795 8.31104C164.795 9.12484 164.628 9.86947 164.294 10.5449C163.969 11.2122 163.497 11.7819 162.878 12.2539C162.268 12.7178 161.536 13.0636 160.681 13.2915L160.022 13.5479H154.492L154.468 11.6313H158.643C159.489 11.6313 160.193 11.4849 160.754 11.1919C161.316 10.8908 161.739 10.488 162.024 9.9834C162.309 9.47884 162.451 8.92139 162.451 8.31104C162.451 7.62744 162.317 7.0293 162.048 6.5166C161.78 6.00391 161.357 5.60921 160.779 5.33252C160.209 5.04769 159.473 4.90527 158.569 4.90527H155.042V20.75H152.686V2.97656ZM163.074 20.75L158.752 12.6934L161.206 12.6812L165.588 20.6035V20.75H163.074Z" fill="black"/>
</g>
</svg>
