<svg width="168" height="22" viewBox="0 0 168 22" fill="none" xmlns="http://www.w3.org/2000/svg">
<mask id="mask0_497_3210" style="mask-type:alpha" maskUnits="userSpaceOnUse" x="0" y="0" width="167" height="21">
<path d="M166.821 0.25L67.3151 20.75H0.103394L0 0.25H166.821Z" fill="url(#paint0_linear_497_3210)"/>
</mask>
<g mask="url(#mask0_497_3210)">
<path d="M8.41455 11.6938H3.83691L3.8125 8.88623H7.52344C8.19076 8.88623 8.7238 8.81299 9.12256 8.6665C9.52132 8.51188 9.81022 8.28809 9.98926 7.99512C10.1764 7.70215 10.27 7.33594 10.27 6.89648C10.27 6.39193 10.1764 5.98503 9.98926 5.67578C9.80208 5.36654 9.50505 5.14274 9.09814 5.00439C8.69938 4.85791 8.18262 4.78467 7.54785 4.78467H5.44824V19.25H1.16357V1.47656H7.54785C8.64648 1.47656 9.62712 1.57829 10.4897 1.78174C11.3524 1.97705 12.0848 2.27816 12.687 2.68506C13.2974 3.09196 13.7612 3.60465 14.0786 4.22314C14.396 4.8335 14.5547 5.55371 14.5547 6.38379C14.5547 7.10807 14.4001 7.7876 14.0908 8.42236C13.7816 9.05713 13.2648 9.57389 12.5405 9.97266C11.8244 10.3633 10.8438 10.5667 9.59863 10.583L8.41455 11.6938ZM8.24365 19.25H2.79932L4.26416 15.9541H8.24365C8.82959 15.9541 9.29753 15.8646 9.64746 15.6855C10.0055 15.4984 10.2619 15.2542 10.4165 14.9531C10.5793 14.6439 10.6606 14.3021 10.6606 13.9277C10.6606 13.472 10.5833 13.0773 10.4287 12.7437C10.2822 12.41 10.0462 12.1536 9.7207 11.9746C9.39518 11.7874 8.9598 11.6938 8.41455 11.6938H4.81348L4.83789 8.88623H9.14697L10.1479 10.0093C11.3361 9.96045 12.276 10.1273 12.9678 10.5098C13.6676 10.8923 14.1681 11.3968 14.4692 12.0234C14.7703 12.6501 14.9209 13.3052 14.9209 13.9888C14.9209 15.1525 14.6686 16.125 14.1641 16.9062C13.6676 17.6875 12.923 18.2734 11.9302 18.6641C10.9373 19.0547 9.7085 19.25 8.24365 19.25ZM32.3403 10.0093V10.7295C32.3403 12.0885 32.1491 13.3092 31.7666 14.3916C31.3923 15.4658 30.8592 16.3854 30.1675 17.1504C29.4757 17.9072 28.6579 18.4891 27.7139 18.896C26.7699 19.2948 25.7282 19.4941 24.5889 19.4941C23.4414 19.4941 22.3916 19.2948 21.4395 18.896C20.4954 18.4891 19.6735 17.9072 18.9736 17.1504C18.2819 16.3854 17.7448 15.4658 17.3623 14.3916C16.988 13.3092 16.8008 12.0885 16.8008 10.7295V10.0093C16.8008 8.65023 16.988 7.42952 17.3623 6.34717C17.7448 5.26481 18.2778 4.34521 18.9614 3.58838C19.6532 2.8234 20.471 2.24154 21.415 1.84277C22.3672 1.43587 23.417 1.23242 24.5645 1.23242C25.7038 1.23242 26.7454 1.43587 27.6895 1.84277C28.6416 2.24154 29.4635 2.8234 30.1553 3.58838C30.847 4.34521 31.3841 5.26481 31.7666 6.34717C32.1491 7.42952 32.3403 8.65023 32.3403 10.0093ZM27.9946 10.7295V9.98486C27.9946 9.10596 27.9173 8.33285 27.7627 7.66553C27.6162 6.99007 27.3965 6.42448 27.1035 5.96875C26.8105 5.51302 26.4484 5.17122 26.0171 4.94336C25.5939 4.70736 25.1097 4.58936 24.5645 4.58936C23.9948 4.58936 23.4984 4.70736 23.0752 4.94336C22.652 5.17122 22.298 5.51302 22.0132 5.96875C21.7284 6.42448 21.5127 6.99007 21.3662 7.66553C21.2279 8.33285 21.1587 9.10596 21.1587 9.98486V10.7295C21.1587 11.6003 21.2279 12.3734 21.3662 13.0488C21.5127 13.7161 21.7284 14.2817 22.0132 14.7456C22.3062 15.2095 22.6642 15.5594 23.0874 15.7954C23.5187 16.0314 24.0192 16.1494 24.5889 16.1494C25.1341 16.1494 25.6183 16.0314 26.0415 15.7954C26.4647 15.5594 26.8187 15.2095 27.1035 14.7456C27.3965 14.2817 27.6162 13.7161 27.7627 13.0488C27.9173 12.3734 27.9946 11.6003 27.9946 10.7295ZM34.562 1.47656H41.5566C42.9238 1.47656 44.112 1.68001 45.1211 2.08691C46.1302 2.49382 46.9074 3.09603 47.4526 3.89355C48.006 4.69108 48.2827 5.67578 48.2827 6.84766C48.2827 7.86491 48.124 8.71533 47.8066 9.39893C47.4893 10.0825 47.0457 10.6481 46.4761 11.0957C45.9146 11.5352 45.2594 11.8973 44.5107 12.1821L43.1069 12.9756H37.2354L37.2109 9.66748H41.5566C42.1019 9.66748 42.5535 9.56982 42.9116 9.37451C43.2697 9.1792 43.5382 8.90251 43.7173 8.54443C43.9045 8.17822 43.998 7.74284 43.998 7.23828C43.998 6.72559 43.9045 6.28613 43.7173 5.91992C43.5301 5.55371 43.2534 5.27295 42.8872 5.07764C42.5291 4.88232 42.0856 4.78467 41.5566 4.78467H38.8467V19.25H34.562V1.47656ZM44.291 19.25L40.3604 11.3887L44.9014 11.3643L48.8809 19.0669V19.25H44.291ZM58.4023 5.21191L54.0688 19.25H49.4668L55.9976 1.47656H58.915L58.4023 5.21191ZM61.9912 19.25L57.6455 5.21191L57.084 1.47656H60.0381L66.6055 19.25H61.9912ZM61.8203 12.6216V15.9297H52.7017V12.6216H61.8203ZM68.6196 1.47656H74.5034C75.8381 1.47656 76.9652 1.68001 77.8848 2.08691C78.8125 2.49382 79.5164 3.09603 79.9966 3.89355C80.4849 4.68294 80.729 5.65544 80.729 6.81104C80.729 7.62484 80.5622 8.36947 80.2285 9.04492C79.903 9.71224 79.431 10.2819 78.8125 10.7539C78.2021 11.2178 77.4697 11.5636 76.6152 11.7915L75.9561 12.0479H70.4263L70.4019 10.1313H74.5767C75.423 10.1313 76.127 9.98486 76.6885 9.69189C77.25 9.39079 77.6732 8.98796 77.958 8.4834C78.2428 7.97884 78.3853 7.42139 78.3853 6.81104C78.3853 6.12744 78.251 5.5293 77.9824 5.0166C77.7139 4.50391 77.2907 4.10921 76.7129 3.83252C76.1432 3.54769 75.4067 3.40527 74.5034 3.40527H70.9756V19.25H68.6196V1.47656ZM79.0078 19.25L74.6865 11.1934L77.1401 11.1812L81.5225 19.1035V19.25H79.0078ZM90.6045 3.05127L84.7207 19.25H82.3159L89.0908 1.47656H90.6411L90.6045 3.05127ZM95.5361 19.25L89.6401 3.05127L89.6035 1.47656H91.1538L97.9531 19.25H95.5361ZM95.231 12.6704V14.5991H85.2456V12.6704H95.231ZM110.917 13.5981H113.261C113.139 14.7212 112.817 15.7262 112.296 16.6133C111.776 17.5003 111.039 18.2043 110.087 18.7251C109.135 19.2378 107.947 19.4941 106.522 19.4941C105.481 19.4941 104.533 19.2988 103.678 18.9082C102.832 18.5176 102.104 17.9642 101.493 17.248C100.883 16.5238 100.411 15.6571 100.077 14.6479C99.7516 13.6307 99.5889 12.4995 99.5889 11.2544V9.48438C99.5889 8.23926 99.7516 7.11214 100.077 6.10303C100.411 5.08577 100.887 4.21501 101.505 3.49072C102.132 2.76644 102.885 2.20898 103.764 1.81836C104.643 1.42773 105.631 1.23242 106.73 1.23242C108.073 1.23242 109.208 1.4847 110.136 1.98926C111.063 2.49382 111.784 3.19368 112.296 4.08887C112.817 4.97591 113.139 6.00537 113.261 7.17725H110.917C110.803 6.34717 110.591 5.63509 110.282 5.04102C109.973 4.4388 109.534 3.97493 108.964 3.64941C108.394 3.32389 107.65 3.16113 106.73 3.16113C105.941 3.16113 105.245 3.31169 104.643 3.61279C104.049 3.9139 103.548 4.34115 103.141 4.89453C102.742 5.44792 102.441 6.11117 102.238 6.88428C102.034 7.65739 101.933 8.51595 101.933 9.45996V11.2544C101.933 12.1252 102.022 12.943 102.201 13.708C102.388 14.473 102.669 15.1444 103.043 15.7222C103.418 16.3 103.894 16.7557 104.472 17.0894C105.049 17.4149 105.733 17.5776 106.522 17.5776C107.523 17.5776 108.321 17.4189 108.915 17.1016C109.509 16.7842 109.957 16.3285 110.258 15.7344C110.567 15.1403 110.787 14.4282 110.917 13.5981ZM128.08 9.11816V11.0347H118.461V9.11816H128.08ZM118.827 1.47656V19.25H116.471V1.47656H118.827ZM130.131 1.47656V19.25H127.787V1.47656H130.131ZM141.117 3.05127L135.233 19.25H132.829L139.604 1.47656H141.154L141.117 3.05127ZM146.049 19.25L140.153 3.05127L140.116 1.47656H141.667L148.466 19.25H146.049ZM145.744 12.6704V14.5991H135.758V12.6704H145.744ZM150.846 1.47656H156.73C158.065 1.47656 159.192 1.68001 160.111 2.08691C161.039 2.49382 161.743 3.09603 162.223 3.89355C162.711 4.68294 162.956 5.65544 162.956 6.81104C162.956 7.62484 162.789 8.36947 162.455 9.04492C162.13 9.71224 161.658 10.2819 161.039 10.7539C160.429 11.2178 159.696 11.5636 158.842 11.7915L158.183 12.0479H152.653L152.628 10.1313H156.803C157.65 10.1313 158.354 9.98486 158.915 9.69189C159.477 9.39079 159.9 8.98796 160.185 8.4834C160.469 7.97884 160.612 7.42139 160.612 6.81104C160.612 6.12744 160.478 5.5293 160.209 5.0166C159.94 4.50391 159.517 4.10921 158.939 3.83252C158.37 3.54769 157.633 3.40527 156.73 3.40527H153.202V19.25H150.846V1.47656ZM161.234 19.25L156.913 11.1934L159.367 11.1812L163.749 19.1035V19.25H161.234Z" fill="url(#paint1_linear_497_3210)"/>
</g>
<mask id="mask1_497_3210" style="mask-type:alpha" maskUnits="userSpaceOnUse" x="68" y="1" width="100" height="21">
<path d="M167.821 1.25L68.3149 21.75H167.821V1.25Z" fill="url(#paint2_linear_497_3210)"/>
</mask>
<g mask="url(#mask1_497_3210)">
<path d="M9.41455 12.6938H4.83691L4.8125 9.88623H8.52344C9.19076 9.88623 9.7238 9.81299 10.1226 9.6665C10.5213 9.51188 10.8102 9.28809 10.9893 8.99512C11.1764 8.70215 11.27 8.33594 11.27 7.89648C11.27 7.39193 11.1764 6.98503 10.9893 6.67578C10.8021 6.36654 10.505 6.14274 10.0981 6.00439C9.69938 5.85791 9.18262 5.78467 8.54785 5.78467H6.44824V20.25H2.16357V2.47656H8.54785C9.64648 2.47656 10.6271 2.57829 11.4897 2.78174C12.3524 2.97705 13.0848 3.27816 13.687 3.68506C14.2974 4.09196 14.7612 4.60465 15.0786 5.22314C15.396 5.8335 15.5547 6.55371 15.5547 7.38379C15.5547 8.10807 15.4001 8.7876 15.0908 9.42236C14.7816 10.0571 14.2648 10.5739 13.5405 10.9727C12.8244 11.3633 11.8438 11.5667 10.5986 11.583L9.41455 12.6938ZM9.24365 20.25H3.79932L5.26416 16.9541H9.24365C9.82959 16.9541 10.2975 16.8646 10.6475 16.6855C11.0055 16.4984 11.2619 16.2542 11.4165 15.9531C11.5793 15.6439 11.6606 15.3021 11.6606 14.9277C11.6606 14.472 11.5833 14.0773 11.4287 13.7437C11.2822 13.41 11.0462 13.1536 10.7207 12.9746C10.3952 12.7874 9.9598 12.6938 9.41455 12.6938H5.81348L5.83789 9.88623H10.147L11.1479 11.0093C12.3361 10.9604 13.276 11.1273 13.9678 11.5098C14.6676 11.8923 15.1681 12.3968 15.4692 13.0234C15.7703 13.6501 15.9209 14.3052 15.9209 14.9888C15.9209 16.1525 15.6686 17.125 15.1641 17.9062C14.6676 18.6875 13.923 19.2734 12.9302 19.6641C11.9373 20.0547 10.7085 20.25 9.24365 20.25ZM33.3403 11.0093V11.7295C33.3403 13.0885 33.1491 14.3092 32.7666 15.3916C32.3923 16.4658 31.8592 17.3854 31.1675 18.1504C30.4757 18.9072 29.6579 19.4891 28.7139 19.896C27.7699 20.2948 26.7282 20.4941 25.5889 20.4941C24.4414 20.4941 23.3916 20.2948 22.4395 19.896C21.4954 19.4891 20.6735 18.9072 19.9736 18.1504C19.2819 17.3854 18.7448 16.4658 18.3623 15.3916C17.988 14.3092 17.8008 13.0885 17.8008 11.7295V11.0093C17.8008 9.65023 17.988 8.42952 18.3623 7.34717C18.7448 6.26481 19.2778 5.34521 19.9614 4.58838C20.6532 3.8234 21.471 3.24154 22.415 2.84277C23.3672 2.43587 24.417 2.23242 25.5645 2.23242C26.7038 2.23242 27.7454 2.43587 28.6895 2.84277C29.6416 3.24154 30.4635 3.8234 31.1553 4.58838C31.847 5.34521 32.3841 6.26481 32.7666 7.34717C33.1491 8.42952 33.3403 9.65023 33.3403 11.0093ZM28.9946 11.7295V10.9849C28.9946 10.106 28.9173 9.33285 28.7627 8.66553C28.6162 7.99007 28.3965 7.42448 28.1035 6.96875C27.8105 6.51302 27.4484 6.17122 27.0171 5.94336C26.5939 5.70736 26.1097 5.58936 25.5645 5.58936C24.9948 5.58936 24.4984 5.70736 24.0752 5.94336C23.652 6.17122 23.298 6.51302 23.0132 6.96875C22.7284 7.42448 22.5127 7.99007 22.3662 8.66553C22.2279 9.33285 22.1587 10.106 22.1587 10.9849V11.7295C22.1587 12.6003 22.2279 13.3734 22.3662 14.0488C22.5127 14.7161 22.7284 15.2817 23.0132 15.7456C23.3062 16.2095 23.6642 16.5594 24.0874 16.7954C24.5187 17.0314 25.0192 17.1494 25.5889 17.1494C26.1341 17.1494 26.6183 17.0314 27.0415 16.7954C27.4647 16.5594 27.8187 16.2095 28.1035 15.7456C28.3965 15.2817 28.6162 14.7161 28.7627 14.0488C28.9173 13.3734 28.9946 12.6003 28.9946 11.7295ZM35.562 2.47656H42.5566C43.9238 2.47656 45.112 2.68001 46.1211 3.08691C47.1302 3.49382 47.9074 4.09603 48.4526 4.89355C49.006 5.69108 49.2827 6.67578 49.2827 7.84766C49.2827 8.86491 49.124 9.71533 48.8066 10.3989C48.4893 11.0825 48.0457 11.6481 47.4761 12.0957C46.9146 12.5352 46.2594 12.8973 45.5107 13.1821L44.1069 13.9756H38.2354L38.2109 10.6675H42.5566C43.1019 10.6675 43.5535 10.5698 43.9116 10.3745C44.2697 10.1792 44.5382 9.90251 44.7173 9.54443C44.9045 9.17822 44.998 8.74284 44.998 8.23828C44.998 7.72559 44.9045 7.28613 44.7173 6.91992C44.5301 6.55371 44.2534 6.27295 43.8872 6.07764C43.5291 5.88232 43.0856 5.78467 42.5566 5.78467H39.8467V20.25H35.562V2.47656ZM45.291 20.25L41.3604 12.3887L45.9014 12.3643L49.8809 20.0669V20.25H45.291ZM59.4023 6.21191L55.0688 20.25H50.4668L56.9976 2.47656H59.915L59.4023 6.21191ZM62.9912 20.25L58.6455 6.21191L58.084 2.47656H61.0381L67.6055 20.25H62.9912ZM62.8203 13.6216V16.9297H53.7017V13.6216H62.8203ZM69.6196 2.47656H75.5034C76.8381 2.47656 77.9652 2.68001 78.8848 3.08691C79.8125 3.49382 80.5164 4.09603 80.9966 4.89355C81.4849 5.68294 81.729 6.65544 81.729 7.81104C81.729 8.62484 81.5622 9.36947 81.2285 10.0449C80.903 10.7122 80.431 11.2819 79.8125 11.7539C79.2021 12.2178 78.4697 12.5636 77.6152 12.7915L76.9561 13.0479H71.4263L71.4019 11.1313H75.5767C76.423 11.1313 77.127 10.9849 77.6885 10.6919C78.25 10.3908 78.6732 9.98796 78.958 9.4834C79.2428 8.97884 79.3853 8.42139 79.3853 7.81104C79.3853 7.12744 79.251 6.5293 78.9824 6.0166C78.7139 5.50391 78.2907 5.10921 77.7129 4.83252C77.1432 4.54769 76.4067 4.40527 75.5034 4.40527H71.9756V20.25H69.6196V2.47656ZM80.0078 20.25L75.6865 12.1934L78.1401 12.1812L82.5225 20.1035V20.25H80.0078ZM91.6045 4.05127L85.7207 20.25H83.3159L90.0908 2.47656H91.6411L91.6045 4.05127ZM96.5361 20.25L90.6401 4.05127L90.6035 2.47656H92.1538L98.9531 20.25H96.5361ZM96.231 13.6704V15.5991H86.2456V13.6704H96.231ZM111.917 14.5981H114.261C114.139 15.7212 113.817 16.7262 113.296 17.6133C112.776 18.5003 112.039 19.2043 111.087 19.7251C110.135 20.2378 108.947 20.4941 107.522 20.4941C106.481 20.4941 105.533 20.2988 104.678 19.9082C103.832 19.5176 103.104 18.9642 102.493 18.248C101.883 17.5238 101.411 16.6571 101.077 15.6479C100.752 14.6307 100.589 13.4995 100.589 12.2544V10.4844C100.589 9.23926 100.752 8.11214 101.077 7.10303C101.411 6.08577 101.887 5.21501 102.505 4.49072C103.132 3.76644 103.885 3.20898 104.764 2.81836C105.643 2.42773 106.631 2.23242 107.73 2.23242C109.073 2.23242 110.208 2.4847 111.136 2.98926C112.063 3.49382 112.784 4.19368 113.296 5.08887C113.817 5.97591 114.139 7.00537 114.261 8.17725H111.917C111.803 7.34717 111.591 6.63509 111.282 6.04102C110.973 5.4388 110.534 4.97493 109.964 4.64941C109.394 4.32389 108.65 4.16113 107.73 4.16113C106.941 4.16113 106.245 4.31169 105.643 4.61279C105.049 4.9139 104.548 5.34115 104.141 5.89453C103.742 6.44792 103.441 7.11117 103.238 7.88428C103.034 8.65739 102.933 9.51595 102.933 10.46V12.2544C102.933 13.1252 103.022 13.943 103.201 14.708C103.388 15.473 103.669 16.1444 104.043 16.7222C104.418 17.3 104.894 17.7557 105.472 18.0894C106.049 18.4149 106.733 18.5776 107.522 18.5776C108.523 18.5776 109.321 18.4189 109.915 18.1016C110.509 17.7842 110.957 17.3285 111.258 16.7344C111.567 16.1403 111.787 15.4282 111.917 14.5981ZM129.08 10.1182V12.0347H119.461V10.1182H129.08ZM119.827 2.47656V20.25H117.471V2.47656H119.827ZM131.131 2.47656V20.25H128.787V2.47656H131.131ZM142.117 4.05127L136.233 20.25H133.829L140.604 2.47656H142.154L142.117 4.05127ZM147.049 20.25L141.153 4.05127L141.116 2.47656H142.667L149.466 20.25H147.049ZM146.744 13.6704V15.5991H136.758V13.6704H146.744ZM151.846 2.47656H157.73C159.065 2.47656 160.192 2.68001 161.111 3.08691C162.039 3.49382 162.743 4.09603 163.223 4.89355C163.711 5.68294 163.956 6.65544 163.956 7.81104C163.956 8.62484 163.789 9.36947 163.455 10.0449C163.13 10.7122 162.658 11.2819 162.039 11.7539C161.429 12.2178 160.696 12.5636 159.842 12.7915L159.183 13.0479H153.653L153.628 11.1313H157.803C158.65 11.1313 159.354 10.9849 159.915 10.6919C160.477 10.3908 160.9 9.98796 161.185 9.4834C161.469 8.97884 161.612 8.42139 161.612 7.81104C161.612 7.12744 161.478 6.5293 161.209 6.0166C160.94 5.50391 160.517 5.10921 159.939 4.83252C159.37 4.54769 158.633 4.40527 157.73 4.40527H154.202V20.25H151.846V2.47656ZM162.234 20.25L157.913 12.1934L160.367 12.1812L164.749 20.1035V20.25H162.234Z" fill="url(#paint3_linear_497_3210)"/>
</g>
<defs>
<linearGradient id="paint0_linear_497_3210" x1="83.4106" y1="0.25" x2="83.4106" y2="20.75" gradientUnits="userSpaceOnUse">
<stop stop-color="#07387B"/>
<stop offset="1" stop-color="#050B2F"/>
</linearGradient>
<linearGradient id="paint1_linear_497_3210" x1="82.3086" y1="-3.75" x2="82.3086" y2="25.25" gradientUnits="userSpaceOnUse">
<stop stop-color="#07387B"/>
<stop offset="1" stop-color="#050B2F"/>
</linearGradient>
<linearGradient id="paint2_linear_497_3210" x1="118.068" y1="1.25" x2="118.068" y2="21.75" gradientUnits="userSpaceOnUse">
<stop stop-color="#07387B"/>
<stop offset="1" stop-color="#050B2F"/>
</linearGradient>
<linearGradient id="paint3_linear_497_3210" x1="83.3086" y1="-2.75" x2="83.3086" y2="26.25" gradientUnits="userSpaceOnUse">
<stop stop-color="#07387B"/>
<stop offset="1" stop-color="#050B2F"/>
</linearGradient>
</defs>
</svg>
