<svg width="207" height="23" viewBox="0 0 207 23" fill="none" xmlns="http://www.w3.org/2000/svg">
<path d="M7.55469 22H2.82324L2.85254 18.0449H7.55469C8.53125 18.0449 9.35645 17.8105 10.0303 17.3418C10.7139 16.873 11.2314 16.1748 11.583 15.2471C11.9443 14.3096 12.125 13.1572 12.125 11.79V10.8672C12.125 9.8418 12.0225 8.94336 11.8174 8.17188C11.6221 7.39062 11.3291 6.74121 10.9385 6.22363C10.5479 5.69629 10.0596 5.30078 9.47363 5.03711C8.89746 4.77344 8.2334 4.6416 7.48145 4.6416H2.73535V0.671875H7.48145C8.92676 0.671875 10.25 0.920898 11.4512 1.41895C12.6621 1.90723 13.707 2.61035 14.5859 3.52832C15.4746 4.43652 16.1582 5.51563 16.6367 6.76562C17.125 8.00586 17.3691 9.38281 17.3691 10.8965V11.79C17.3691 13.2939 17.125 14.6709 16.6367 15.9209C16.1582 17.1709 15.4795 18.25 14.6006 19.1582C13.7217 20.0664 12.6816 20.7695 11.4805 21.2676C10.2891 21.7559 8.98047 22 7.55469 22ZM5.76758 0.671875V22H0.625977V0.671875H5.76758ZM25.5137 0.671875V22H20.3867V0.671875H25.5137ZM37.2031 16.9756L41.6416 0.671875H47.3984L40.2061 22H36.4854L37.2031 16.9756ZM33.1748 0.671875L37.6133 16.9756L38.3604 22H34.5957L27.4473 0.671875H33.1748ZM54.4297 0.671875V22H49.3027V0.671875H54.4297ZM64.9766 22H60.2451L60.2744 18.0449H64.9766C65.9531 18.0449 66.7783 17.8105 67.4521 17.3418C68.1357 16.873 68.6533 16.1748 69.0049 15.2471C69.3662 14.3096 69.5469 13.1572 69.5469 11.79V10.8672C69.5469 9.8418 69.4443 8.94336 69.2393 8.17188C69.0439 7.39062 68.751 6.74121 68.3604 6.22363C67.9697 5.69629 67.4814 5.30078 66.8955 5.03711C66.3193 4.77344 65.6553 4.6416 64.9033 4.6416H60.1572V0.671875H64.9033C66.3486 0.671875 67.6719 0.920898 68.873 1.41895C70.084 1.90723 71.1289 2.61035 72.0078 3.52832C72.8965 4.43652 73.5801 5.51563 74.0586 6.76562C74.5469 8.00586 74.791 9.38281 74.791 10.8965V11.79C74.791 13.2939 74.5469 14.6709 74.0586 15.9209C73.5801 17.1709 72.9014 18.25 72.0225 19.1582C71.1436 20.0664 70.1035 20.7695 68.9023 21.2676C67.7109 21.7559 66.4023 22 64.9766 22ZM63.1895 0.671875V22H58.0479V0.671875H63.1895ZM92.1494 18.0449V22H80.7822V18.0449H92.1494ZM82.6133 0.671875V22H77.4717V0.671875H82.6133ZM90.6846 9.13867V12.9619H80.7822V9.13867H90.6846ZM92.1934 0.671875V4.6416H80.7822V0.671875H92.1934ZM107.984 15.2178H110.797C110.65 16.5654 110.265 17.7715 109.64 18.8359C109.015 19.9004 108.131 20.7451 106.988 21.3701C105.846 21.9854 104.42 22.293 102.711 22.293C101.461 22.293 100.323 22.0586 99.2979 21.5898C98.2822 21.1211 97.4082 20.457 96.6758 19.5977C95.9434 18.7285 95.377 17.6885 94.9766 16.4775C94.5859 15.2568 94.3906 13.8994 94.3906 12.4053V10.2812C94.3906 8.78711 94.5859 7.43457 94.9766 6.22363C95.377 5.00293 95.9482 3.95801 96.6904 3.08887C97.4424 2.21973 98.3457 1.55078 99.4004 1.08203C100.455 0.613281 101.642 0.378906 102.96 0.378906C104.571 0.378906 105.934 0.681641 107.047 1.28711C108.16 1.89258 109.024 2.73242 109.64 3.80664C110.265 4.87109 110.65 6.10645 110.797 7.5127H107.984C107.848 6.5166 107.594 5.66211 107.223 4.94922C106.852 4.22656 106.324 3.66992 105.641 3.2793C104.957 2.88867 104.063 2.69336 102.96 2.69336C102.013 2.69336 101.178 2.87402 100.455 3.23535C99.7422 3.59668 99.1416 4.10938 98.6533 4.77344C98.1748 5.4375 97.8135 6.2334 97.5693 7.16113C97.3252 8.08887 97.2031 9.11914 97.2031 10.252V12.4053C97.2031 13.4502 97.3105 14.4316 97.5254 15.3496C97.75 16.2676 98.0869 17.0732 98.5361 17.7666C98.9854 18.46 99.5566 19.0068 100.25 19.4072C100.943 19.7979 101.764 19.9932 102.711 19.9932C103.912 19.9932 104.869 19.8027 105.582 19.4219C106.295 19.041 106.832 18.4941 107.193 17.7812C107.564 17.0684 107.828 16.2139 107.984 15.2178ZM131.07 10.6621V12.0098C131.07 13.6113 130.87 15.0469 130.47 16.3164C130.069 17.5859 129.493 18.665 128.741 19.5537C127.989 20.4424 127.086 21.1211 126.031 21.5898C124.986 22.0586 123.814 22.293 122.516 22.293C121.256 22.293 120.099 22.0586 119.044 21.5898C117.999 21.1211 117.091 20.4424 116.319 19.5537C115.558 18.665 114.967 17.5859 114.547 16.3164C114.127 15.0469 113.917 13.6113 113.917 12.0098V10.6621C113.917 9.06055 114.122 7.62988 114.532 6.37012C114.952 5.10059 115.543 4.02148 116.305 3.13281C117.066 2.23438 117.97 1.55078 119.015 1.08203C120.069 0.613281 121.227 0.378906 122.486 0.378906C123.785 0.378906 124.957 0.613281 126.002 1.08203C127.057 1.55078 127.96 2.23438 128.712 3.13281C129.474 4.02148 130.055 5.10059 130.455 6.37012C130.865 7.62988 131.07 9.06055 131.07 10.6621ZM128.272 12.0098V10.6328C128.272 9.36328 128.141 8.24023 127.877 7.26367C127.623 6.28711 127.247 5.4668 126.749 4.80273C126.251 4.13867 125.641 3.63574 124.918 3.29395C124.205 2.95215 123.395 2.78125 122.486 2.78125C121.607 2.78125 120.812 2.95215 120.099 3.29395C119.396 3.63574 118.79 4.13867 118.282 4.80273C117.784 5.4668 117.398 6.28711 117.125 7.26367C116.852 8.24023 116.715 9.36328 116.715 10.6328V12.0098C116.715 13.2891 116.852 14.4219 117.125 15.4082C117.398 16.3848 117.789 17.21 118.297 17.8838C118.814 18.5479 119.425 19.0508 120.128 19.3926C120.841 19.7344 121.637 19.9053 122.516 19.9053C123.434 19.9053 124.249 19.7344 124.962 19.3926C125.675 19.0508 126.275 18.5479 126.764 17.8838C127.262 17.21 127.638 16.3848 127.892 15.4082C128.146 14.4219 128.272 13.2891 128.272 12.0098ZM136.197 0.671875H138.937L145.924 18.0596L152.896 0.671875H155.65L146.979 22H144.84L136.197 0.671875ZM135.304 0.671875H137.721L138.116 13.6797V22H135.304V0.671875ZM154.112 0.671875H156.529V22H153.717V13.6797L154.112 0.671875ZM164.527 0.671875V22H161.7V0.671875H164.527ZM185.431 11.3799V19.1875C185.167 19.5781 184.747 20.0176 184.171 20.5059C183.595 20.9844 182.799 21.4043 181.783 21.7656C180.777 22.1172 179.479 22.293 177.887 22.293C176.588 22.293 175.392 22.0684 174.298 21.6191C173.214 21.1602 172.271 20.4961 171.471 19.627C170.68 18.748 170.064 17.6836 169.625 16.4336C169.195 15.1738 168.98 13.748 168.98 12.1562V10.501C168.98 8.90918 169.166 7.48828 169.537 6.23828C169.918 4.98828 170.475 3.92871 171.207 3.05957C171.939 2.18066 172.838 1.5166 173.902 1.06738C174.967 0.608398 176.188 0.378906 177.564 0.378906C179.195 0.378906 180.558 0.662109 181.651 1.22852C182.755 1.78516 183.614 2.55664 184.229 3.54297C184.854 4.5293 185.255 5.65234 185.431 6.91211H182.604C182.477 6.14062 182.223 5.4375 181.842 4.80273C181.471 4.16797 180.938 3.66016 180.245 3.2793C179.552 2.88867 178.658 2.69336 177.564 2.69336C176.578 2.69336 175.724 2.87402 175.001 3.23535C174.278 3.59668 173.683 4.11426 173.214 4.78809C172.745 5.46191 172.394 6.27734 172.159 7.23438C171.935 8.19141 171.822 9.27051 171.822 10.4717V12.1562C171.822 13.3867 171.964 14.4854 172.247 15.4521C172.54 16.4189 172.955 17.2441 173.492 17.9277C174.029 18.6016 174.669 19.1143 175.411 19.4658C176.163 19.8174 176.993 19.9932 177.901 19.9932C178.907 19.9932 179.723 19.9102 180.348 19.7441C180.973 19.5684 181.461 19.3633 181.812 19.1289C182.164 18.8848 182.433 18.6553 182.618 18.4404V13.665H177.682V11.3799H185.431ZM206.539 10.6621V12.0098C206.539 13.6113 206.339 15.0469 205.938 16.3164C205.538 17.5859 204.962 18.665 204.21 19.5537C203.458 20.4424 202.555 21.1211 201.5 21.5898C200.455 22.0586 199.283 22.293 197.984 22.293C196.725 22.293 195.567 22.0586 194.513 21.5898C193.468 21.1211 192.56 20.4424 191.788 19.5537C191.026 18.665 190.436 17.5859 190.016 16.3164C189.596 15.0469 189.386 13.6113 189.386 12.0098V10.6621C189.386 9.06055 189.591 7.62988 190.001 6.37012C190.421 5.10059 191.012 4.02148 191.773 3.13281C192.535 2.23438 193.438 1.55078 194.483 1.08203C195.538 0.613281 196.695 0.378906 197.955 0.378906C199.254 0.378906 200.426 0.613281 201.471 1.08203C202.525 1.55078 203.429 2.23438 204.181 3.13281C204.942 4.02148 205.523 5.10059 205.924 6.37012C206.334 7.62988 206.539 9.06055 206.539 10.6621ZM203.741 12.0098V10.6328C203.741 9.36328 203.609 8.24023 203.346 7.26367C203.092 6.28711 202.716 5.4668 202.218 4.80273C201.72 4.13867 201.109 3.63574 200.387 3.29395C199.674 2.95215 198.863 2.78125 197.955 2.78125C197.076 2.78125 196.28 2.95215 195.567 3.29395C194.864 3.63574 194.259 4.13867 193.751 4.80273C193.253 5.4668 192.867 6.28711 192.594 7.26367C192.32 8.24023 192.184 9.36328 192.184 10.6328V12.0098C192.184 13.2891 192.32 14.4219 192.594 15.4082C192.867 16.3848 193.258 17.21 193.766 17.8838C194.283 18.5479 194.894 19.0508 195.597 19.3926C196.31 19.7344 197.105 19.9053 197.984 19.9053C198.902 19.9053 199.718 19.7344 200.431 19.3926C201.144 19.0508 201.744 18.5479 202.232 17.8838C202.73 17.21 203.106 16.3848 203.36 15.4082C203.614 14.4219 203.741 13.2891 203.741 12.0098Z" fill="black"/>
</svg>
