<svg width="168" height="22" viewBox="0 0 168 22" fill="none" xmlns="http://www.w3.org/2000/svg">
<mask id="mask0_341_3490" style="mask-type:alpha" maskUnits="userSpaceOnUse" x="0" y="0" width="167" height="21">
<path d="M166.821 0L67.3151 20.5H0.103394L0 0H166.821Z" fill="#C4C4C4"/>
</mask>
<g mask="url(#mask0_341_3490)">
<path d="M8.41479 11.4438H3.83716L3.81274 8.63623H7.52368C8.191 8.63623 8.72404 8.56299 9.1228 8.4165C9.52157 8.26188 9.81047 8.03809 9.9895 7.74512C10.1767 7.45215 10.2703 7.08594 10.2703 6.64648C10.2703 6.14193 10.1767 5.73503 9.9895 5.42578C9.80233 5.11654 9.50529 4.89274 9.09839 4.75439C8.69963 4.60791 8.18286 4.53467 7.5481 4.53467H5.44849V19H1.16382V1.22656H7.5481C8.64673 1.22656 9.62736 1.32829 10.49 1.53174C11.3526 1.72705 12.085 2.02816 12.6873 2.43506C13.2976 2.84196 13.7615 3.35465 14.0789 3.97314C14.3962 4.5835 14.5549 5.30371 14.5549 6.13379C14.5549 6.85807 14.4003 7.5376 14.0911 8.17236C13.7818 8.80713 13.2651 9.32389 12.5408 9.72266C11.8246 10.1133 10.844 10.3167 9.59888 10.333L8.41479 11.4438ZM8.2439 19H2.79956L4.2644 15.7041H8.2439C8.82983 15.7041 9.29777 15.6146 9.64771 15.4355C10.0058 15.2484 10.2621 15.0042 10.4167 14.7031C10.5795 14.3939 10.6609 14.0521 10.6609 13.6777C10.6609 13.222 10.5836 12.8273 10.429 12.4937C10.2825 12.16 10.0465 11.9036 9.72095 11.7246C9.39543 11.5374 8.96004 11.4438 8.41479 11.4438H4.81372L4.83813 8.63623H9.14722L10.1482 9.75928C11.3363 9.71045 12.2763 9.87728 12.968 10.2598C13.6679 10.6423 14.1684 11.1468 14.4695 11.7734C14.7706 12.4001 14.9211 13.0552 14.9211 13.7388C14.9211 14.9025 14.6689 15.875 14.1643 16.6562C13.6679 17.4375 12.9233 18.0234 11.9304 18.4141C10.9376 18.8047 9.70874 19 8.2439 19ZM32.3406 9.75928V10.4795C32.3406 11.8385 32.1493 13.0592 31.7668 14.1416C31.3925 15.2158 30.8595 16.1354 30.1677 16.9004C29.476 17.6572 28.6581 18.2391 27.7141 18.646C26.7701 19.0448 25.7284 19.2441 24.5891 19.2441C23.4417 19.2441 22.3918 19.0448 21.4397 18.646C20.4957 18.2391 19.6737 17.6572 18.9739 16.9004C18.2821 16.1354 17.745 15.2158 17.3625 14.1416C16.9882 13.0592 16.801 11.8385 16.801 10.4795V9.75928C16.801 8.40023 16.9882 7.17952 17.3625 6.09717C17.745 5.01481 18.2781 4.09521 18.9617 3.33838C19.6534 2.5734 20.4713 1.99154 21.4153 1.59277C22.3674 1.18587 23.4172 0.982422 24.5647 0.982422C25.704 0.982422 26.7457 1.18587 27.6897 1.59277C28.6418 1.99154 29.4638 2.5734 30.1555 3.33838C30.8472 4.09521 31.3844 5.01481 31.7668 6.09717C32.1493 7.17952 32.3406 8.40023 32.3406 9.75928ZM27.9949 10.4795V9.73486C27.9949 8.85596 27.9176 8.08285 27.7629 7.41553C27.6165 6.74007 27.3967 6.17448 27.1038 5.71875C26.8108 5.26302 26.4486 4.92122 26.0173 4.69336C25.5942 4.45736 25.1099 4.33936 24.5647 4.33936C23.995 4.33936 23.4986 4.45736 23.0754 4.69336C22.6523 4.92122 22.2983 5.26302 22.0134 5.71875C21.7286 6.17448 21.5129 6.74007 21.3665 7.41553C21.2281 8.08285 21.1589 8.85596 21.1589 9.73486V10.4795C21.1589 11.3503 21.2281 12.1234 21.3665 12.7988C21.5129 13.4661 21.7286 14.0317 22.0134 14.4956C22.3064 14.9595 22.6645 15.3094 23.0876 15.5454C23.519 15.7814 24.0194 15.8994 24.5891 15.8994C25.1344 15.8994 25.6186 15.7814 26.0417 15.5454C26.4649 15.3094 26.8189 14.9595 27.1038 14.4956C27.3967 14.0317 27.6165 13.4661 27.7629 12.7988C27.9176 12.1234 27.9949 11.3503 27.9949 10.4795ZM34.5623 1.22656H41.5569C42.9241 1.22656 44.1122 1.43001 45.1213 1.83691C46.1305 2.24382 46.9076 2.84603 47.4529 3.64355C48.0063 4.44108 48.283 5.42578 48.283 6.59766C48.283 7.61491 48.1243 8.46533 47.8069 9.14893C47.4895 9.83252 47.046 10.3981 46.4763 10.8457C45.9148 11.2852 45.2597 11.6473 44.511 11.9321L43.1072 12.7256H37.2356L37.2112 9.41748H41.5569C42.1021 9.41748 42.5538 9.31982 42.9119 9.12451C43.2699 8.9292 43.5385 8.65251 43.7175 8.29443C43.9047 7.92822 43.9983 7.49284 43.9983 6.98828C43.9983 6.47559 43.9047 6.03613 43.7175 5.66992C43.5304 5.30371 43.2537 5.02295 42.8875 4.82764C42.5294 4.63232 42.0859 4.53467 41.5569 4.53467H38.8469V19H34.5623V1.22656ZM44.2913 19L40.3606 11.1387L44.9016 11.1143L48.8811 18.8169V19H44.2913ZM58.4026 4.96191L54.0691 19H49.467L55.9978 1.22656H58.9153L58.4026 4.96191ZM61.9915 19L57.6458 4.96191L57.0842 1.22656H60.0383L66.6057 19H61.9915ZM61.8206 12.3716V15.6797H52.7019V12.3716H61.8206ZM68.6199 1.22656H74.5037C75.8383 1.22656 76.9654 1.43001 77.885 1.83691C78.8127 2.24382 79.5167 2.84603 79.9968 3.64355C80.4851 4.43294 80.7292 5.40544 80.7292 6.56104C80.7292 7.37484 80.5624 8.11947 80.2288 8.79492C79.9032 9.46224 79.4312 10.0319 78.8127 10.5039C78.2024 10.9678 77.47 11.3136 76.6155 11.5415L75.9563 11.7979H70.4265L70.4021 9.88135H74.5769C75.4233 9.88135 76.1272 9.73486 76.6887 9.44189C77.2502 9.14079 77.6734 8.73796 77.9583 8.2334C78.2431 7.72884 78.3855 7.17139 78.3855 6.56104C78.3855 5.87744 78.2512 5.2793 77.9827 4.7666C77.7141 4.25391 77.2909 3.85921 76.7131 3.58252C76.1435 3.29769 75.407 3.15527 74.5037 3.15527H70.9758V19H68.6199V1.22656ZM79.0081 19L74.6868 10.9434L77.1404 10.9312L81.5227 18.8535V19H79.0081ZM90.6047 2.80127L84.7209 19H82.3162L89.0911 1.22656H90.6414L90.6047 2.80127ZM95.5364 19L89.6404 2.80127L89.6038 1.22656H91.1541L97.9534 19H95.5364ZM95.2312 12.4204V14.3491H85.2458V12.4204H95.2312ZM110.917 13.3481H113.261C113.139 14.4712 112.817 15.4762 112.297 16.3633C111.776 17.2503 111.039 17.9543 110.087 18.4751C109.135 18.9878 107.947 19.2441 106.523 19.2441C105.481 19.2441 104.533 19.0488 103.678 18.6582C102.832 18.2676 102.104 17.7142 101.493 16.998C100.883 16.2738 100.411 15.4071 100.077 14.3979C99.7519 13.3807 99.5891 12.2495 99.5891 11.0044V9.23438C99.5891 7.98926 99.7519 6.86214 100.077 5.85303C100.411 4.83577 100.887 3.96501 101.506 3.24072C102.132 2.51644 102.885 1.95898 103.764 1.56836C104.643 1.17773 105.632 0.982422 106.73 0.982422C108.073 0.982422 109.208 1.2347 110.136 1.73926C111.064 2.24382 111.784 2.94368 112.297 3.83887C112.817 4.72591 113.139 5.75537 113.261 6.92725H110.917C110.803 6.09717 110.592 5.38509 110.282 4.79102C109.973 4.1888 109.534 3.72493 108.964 3.39941C108.394 3.07389 107.65 2.91113 106.73 2.91113C105.941 2.91113 105.245 3.06169 104.643 3.36279C104.049 3.6639 103.548 4.09115 103.141 4.64453C102.743 5.19792 102.441 5.86117 102.238 6.63428C102.035 7.40739 101.933 8.26595 101.933 9.20996V11.0044C101.933 11.8752 102.022 12.693 102.201 13.458C102.389 14.223 102.669 14.8944 103.044 15.4722C103.418 16.05 103.894 16.5057 104.472 16.8394C105.05 17.1649 105.733 17.3276 106.523 17.3276C107.524 17.3276 108.321 17.1689 108.915 16.8516C109.509 16.5342 109.957 16.0785 110.258 15.4844C110.567 14.8903 110.787 14.1782 110.917 13.3481ZM128.08 8.86816V10.7847H118.461V8.86816H128.08ZM118.827 1.22656V19H116.471V1.22656H118.827ZM130.131 1.22656V19H127.787V1.22656H130.131ZM141.117 2.80127L135.234 19H132.829L139.604 1.22656H141.154L141.117 2.80127ZM146.049 19L140.153 2.80127L140.116 1.22656H141.667L148.466 19H146.049ZM145.744 12.4204V14.3491H135.759V12.4204H145.744ZM150.846 1.22656H156.73C158.065 1.22656 159.192 1.43001 160.112 1.83691C161.039 2.24382 161.743 2.84603 162.223 3.64355C162.712 4.43294 162.956 5.40544 162.956 6.56104C162.956 7.37484 162.789 8.11947 162.455 8.79492C162.13 9.46224 161.658 10.0319 161.039 10.5039C160.429 10.9678 159.697 11.3136 158.842 11.5415L158.183 11.7979H152.653L152.629 9.88135H156.803C157.65 9.88135 158.354 9.73486 158.915 9.44189C159.477 9.14079 159.9 8.73796 160.185 8.2334C160.47 7.72884 160.612 7.17139 160.612 6.56104C160.612 5.87744 160.478 5.2793 160.209 4.7666C159.941 4.25391 159.517 3.85921 158.94 3.58252C158.37 3.29769 157.634 3.15527 156.73 3.15527H153.202V19H150.846V1.22656ZM161.235 19L156.913 10.9434L159.367 10.9312L163.749 18.8535V19H161.235Z" fill="white"/>
</g>
<mask id="mask1_341_3490" style="mask-type:alpha" maskUnits="userSpaceOnUse" x="68" y="1" width="100" height="21">
<path d="M167.821 1L68.3151 21.5H167.821V1Z" fill="#C4C4C4"/>
</mask>
<g mask="url(#mask1_341_3490)">
<path d="M9.41479 12.4438H4.83716L4.81274 9.63623H8.52368C9.191 9.63623 9.72404 9.56299 10.1228 9.4165C10.5216 9.26188 10.8105 9.03809 10.9895 8.74512C11.1767 8.45215 11.2703 8.08594 11.2703 7.64648C11.2703 7.14193 11.1767 6.73503 10.9895 6.42578C10.8023 6.11654 10.5053 5.89274 10.0984 5.75439C9.69963 5.60791 9.18286 5.53467 8.5481 5.53467H6.44849V20H2.16382V2.22656H8.5481C9.64673 2.22656 10.6274 2.32829 11.49 2.53174C12.3526 2.72705 13.085 3.02816 13.6873 3.43506C14.2976 3.84196 14.7615 4.35465 15.0789 4.97314C15.3962 5.5835 15.5549 6.30371 15.5549 7.13379C15.5549 7.85807 15.4003 8.5376 15.0911 9.17236C14.7818 9.80713 14.2651 10.3239 13.5408 10.7227C12.8246 11.1133 11.844 11.3167 10.5989 11.333L9.41479 12.4438ZM9.2439 20H3.79956L5.2644 16.7041H9.2439C9.82983 16.7041 10.2978 16.6146 10.6477 16.4355C11.0058 16.2484 11.2621 16.0042 11.4167 15.7031C11.5795 15.3939 11.6609 15.0521 11.6609 14.6777C11.6609 14.222 11.5836 13.8273 11.429 13.4937C11.2825 13.16 11.0465 12.9036 10.7209 12.7246C10.3954 12.5374 9.96004 12.4438 9.41479 12.4438H5.81372L5.83813 9.63623H10.1472L11.1482 10.7593C12.3363 10.7104 13.2763 10.8773 13.968 11.2598C14.6679 11.6423 15.1684 12.1468 15.4695 12.7734C15.7706 13.4001 15.9211 14.0552 15.9211 14.7388C15.9211 15.9025 15.6689 16.875 15.1643 17.6562C14.6679 18.4375 13.9233 19.0234 12.9304 19.4141C11.9376 19.8047 10.7087 20 9.2439 20ZM33.3406 10.7593V11.4795C33.3406 12.8385 33.1493 14.0592 32.7668 15.1416C32.3925 16.2158 31.8595 17.1354 31.1677 17.9004C30.476 18.6572 29.6581 19.2391 28.7141 19.646C27.7701 20.0448 26.7284 20.2441 25.5891 20.2441C24.4417 20.2441 23.3918 20.0448 22.4397 19.646C21.4957 19.2391 20.6737 18.6572 19.9739 17.9004C19.2821 17.1354 18.745 16.2158 18.3625 15.1416C17.9882 14.0592 17.801 12.8385 17.801 11.4795V10.7593C17.801 9.40023 17.9882 8.17952 18.3625 7.09717C18.745 6.01481 19.2781 5.09521 19.9617 4.33838C20.6534 3.5734 21.4713 2.99154 22.4153 2.59277C23.3674 2.18587 24.4172 1.98242 25.5647 1.98242C26.704 1.98242 27.7457 2.18587 28.6897 2.59277C29.6418 2.99154 30.4638 3.5734 31.1555 4.33838C31.8472 5.09521 32.3844 6.01481 32.7668 7.09717C33.1493 8.17952 33.3406 9.40023 33.3406 10.7593ZM28.9949 11.4795V10.7349C28.9949 9.85596 28.9176 9.08285 28.7629 8.41553C28.6165 7.74007 28.3967 7.17448 28.1038 6.71875C27.8108 6.26302 27.4486 5.92122 27.0173 5.69336C26.5942 5.45736 26.1099 5.33936 25.5647 5.33936C24.995 5.33936 24.4986 5.45736 24.0754 5.69336C23.6523 5.92122 23.2983 6.26302 23.0134 6.71875C22.7286 7.17448 22.5129 7.74007 22.3665 8.41553C22.2281 9.08285 22.1589 9.85596 22.1589 10.7349V11.4795C22.1589 12.3503 22.2281 13.1234 22.3665 13.7988C22.5129 14.4661 22.7286 15.0317 23.0134 15.4956C23.3064 15.9595 23.6645 16.3094 24.0876 16.5454C24.519 16.7814 25.0194 16.8994 25.5891 16.8994C26.1344 16.8994 26.6186 16.7814 27.0417 16.5454C27.4649 16.3094 27.8189 15.9595 28.1038 15.4956C28.3967 15.0317 28.6165 14.4661 28.7629 13.7988C28.9176 13.1234 28.9949 12.3503 28.9949 11.4795ZM35.5623 2.22656H42.5569C43.9241 2.22656 45.1122 2.43001 46.1213 2.83691C47.1305 3.24382 47.9076 3.84603 48.4529 4.64355C49.0063 5.44108 49.283 6.42578 49.283 7.59766C49.283 8.61491 49.1243 9.46533 48.8069 10.1489C48.4895 10.8325 48.046 11.3981 47.4763 11.8457C46.9148 12.2852 46.2597 12.6473 45.511 12.9321L44.1072 13.7256H38.2356L38.2112 10.4175H42.5569C43.1021 10.4175 43.5538 10.3198 43.9119 10.1245C44.2699 9.9292 44.5385 9.65251 44.7175 9.29443C44.9047 8.92822 44.9983 8.49284 44.9983 7.98828C44.9983 7.47559 44.9047 7.03613 44.7175 6.66992C44.5304 6.30371 44.2537 6.02295 43.8875 5.82764C43.5294 5.63232 43.0859 5.53467 42.5569 5.53467H39.8469V20H35.5623V2.22656ZM45.2913 20L41.3606 12.1387L45.9016 12.1143L49.8811 19.8169V20H45.2913ZM59.4026 5.96191L55.0691 20H50.467L56.9978 2.22656H59.9153L59.4026 5.96191ZM62.9915 20L58.6458 5.96191L58.0842 2.22656H61.0383L67.6057 20H62.9915ZM62.8206 13.3716V16.6797H53.7019V13.3716H62.8206ZM69.6199 2.22656H75.5037C76.8383 2.22656 77.9654 2.43001 78.885 2.83691C79.8127 3.24382 80.5167 3.84603 80.9968 4.64355C81.4851 5.43294 81.7292 6.40544 81.7292 7.56104C81.7292 8.37484 81.5624 9.11947 81.2288 9.79492C80.9032 10.4622 80.4312 11.0319 79.8127 11.5039C79.2024 11.9678 78.47 12.3136 77.6155 12.5415L76.9563 12.7979H71.4265L71.4021 10.8813H75.5769C76.4233 10.8813 77.1272 10.7349 77.6887 10.4419C78.2502 10.1408 78.6734 9.73796 78.9583 9.2334C79.2431 8.72884 79.3855 8.17139 79.3855 7.56104C79.3855 6.87744 79.2512 6.2793 78.9827 5.7666C78.7141 5.25391 78.2909 4.85921 77.7131 4.58252C77.1435 4.29769 76.407 4.15527 75.5037 4.15527H71.9758V20H69.6199V2.22656ZM80.0081 20L75.6868 11.9434L78.1404 11.9312L82.5227 19.8535V20H80.0081ZM91.6047 3.80127L85.7209 20H83.3162L90.0911 2.22656H91.6414L91.6047 3.80127ZM96.5364 20L90.6404 3.80127L90.6038 2.22656H92.1541L98.9534 20H96.5364ZM96.2312 13.4204V15.3491H86.2458V13.4204H96.2312ZM111.917 14.3481H114.261C114.139 15.4712 113.817 16.4762 113.297 17.3633C112.776 18.2503 112.039 18.9543 111.087 19.4751C110.135 19.9878 108.947 20.2441 107.523 20.2441C106.481 20.2441 105.533 20.0488 104.678 19.6582C103.832 19.2676 103.104 18.7142 102.493 17.998C101.883 17.2738 101.411 16.4071 101.077 15.3979C100.752 14.3807 100.589 13.2495 100.589 12.0044V10.2344C100.589 8.98926 100.752 7.86214 101.077 6.85303C101.411 5.83577 101.887 4.96501 102.506 4.24072C103.132 3.51644 103.885 2.95898 104.764 2.56836C105.643 2.17773 106.632 1.98242 107.73 1.98242C109.073 1.98242 110.208 2.2347 111.136 2.73926C112.064 3.24382 112.784 3.94368 113.297 4.83887C113.817 5.72591 114.139 6.75537 114.261 7.92725H111.917C111.803 7.09717 111.592 6.38509 111.282 5.79102C110.973 5.1888 110.534 4.72493 109.964 4.39941C109.394 4.07389 108.65 3.91113 107.73 3.91113C106.941 3.91113 106.245 4.06169 105.643 4.36279C105.049 4.6639 104.548 5.09115 104.141 5.64453C103.743 6.19792 103.441 6.86117 103.238 7.63428C103.035 8.40739 102.933 9.26595 102.933 10.21V12.0044C102.933 12.8752 103.022 13.693 103.201 14.458C103.389 15.223 103.669 15.8944 104.044 16.4722C104.418 17.05 104.894 17.5057 105.472 17.8394C106.05 18.1649 106.733 18.3276 107.523 18.3276C108.524 18.3276 109.321 18.1689 109.915 17.8516C110.509 17.5342 110.957 17.0785 111.258 16.4844C111.567 15.8903 111.787 15.1782 111.917 14.3481ZM129.08 9.86816V11.7847H119.461V9.86816H129.08ZM119.827 2.22656V20H117.471V2.22656H119.827ZM131.131 2.22656V20H128.787V2.22656H131.131ZM142.117 3.80127L136.234 20H133.829L140.604 2.22656H142.154L142.117 3.80127ZM147.049 20L141.153 3.80127L141.116 2.22656H142.667L149.466 20H147.049ZM146.744 13.4204V15.3491H136.759V13.4204H146.744ZM151.846 2.22656H157.73C159.065 2.22656 160.192 2.43001 161.112 2.83691C162.039 3.24382 162.743 3.84603 163.223 4.64355C163.712 5.43294 163.956 6.40544 163.956 7.56104C163.956 8.37484 163.789 9.11947 163.455 9.79492C163.13 10.4622 162.658 11.0319 162.039 11.5039C161.429 11.9678 160.697 12.3136 159.842 12.5415L159.183 12.7979H153.653L153.629 10.8813H157.803C158.65 10.8813 159.354 10.7349 159.915 10.4419C160.477 10.1408 160.9 9.73796 161.185 9.2334C161.47 8.72884 161.612 8.17139 161.612 7.56104C161.612 6.87744 161.478 6.2793 161.209 5.7666C160.941 5.25391 160.517 4.85921 159.94 4.58252C159.37 4.29769 158.634 4.15527 157.73 4.15527H154.202V20H151.846V2.22656ZM162.235 20L157.913 11.9434L160.367 11.9312L164.749 19.8535V20H162.235Z" fill="white"/>
</g>
</svg>
