<svg width="280" height="149" viewBox="0 0 280 149" fill="none" xmlns="http://www.w3.org/2000/svg">
<path d="M278.188 148.615H122.279C121.799 148.614 121.338 148.423 120.998 148.083C120.659 147.743 120.467 147.282 120.467 146.8V1.81458C120.467 1.33352 120.659 0.872338 120.998 0.532173C121.338 0.192009 121.799 0.000629607 122.279 0H278.188C278.668 0.000629607 279.129 0.192009 279.468 0.532173C279.808 0.872338 279.999 1.33352 280 1.81458V146.8C279.999 147.281 279.808 147.742 279.468 148.083C279.129 148.423 278.668 148.614 278.188 148.615V148.615ZM122.279 0.724405C121.991 0.725033 121.715 0.839842 121.511 1.04371C121.308 1.24757 121.193 1.52389 121.193 1.8122V146.8C121.193 147.088 121.308 147.365 121.511 147.569C121.715 147.772 121.991 147.887 122.279 147.888H278.188C278.476 147.887 278.752 147.773 278.955 147.569C279.159 147.365 279.273 147.088 279.274 146.8V1.81458C279.273 1.52627 279.159 1.24995 278.955 1.04609C278.752 0.842223 278.476 0.727414 278.188 0.726786L122.279 0.724405Z" fill="#E6E6E6"/>
<path d="M195.949 37.675C195.623 37.675 195.31 37.8048 195.079 38.0359C194.848 38.2669 194.719 38.5802 194.719 38.907C194.719 39.2337 194.848 39.5471 195.079 39.7781C195.31 40.0091 195.623 40.1389 195.949 40.1389H263.455C263.782 40.1389 264.094 40.0091 264.325 39.7781C264.556 39.5471 264.686 39.2337 264.686 38.907C264.686 38.5802 264.556 38.2669 264.325 38.0359C264.094 37.8048 263.782 37.675 263.455 37.675H195.949Z" fill="#E6E6E6"/>
<path d="M195.949 45.0674C195.623 45.0674 195.31 45.1972 195.079 45.4282C194.848 45.6592 194.719 45.9726 194.719 46.2993C194.719 46.626 194.848 46.9394 195.079 47.1704C195.31 47.4015 195.623 47.5312 195.949 47.5312H230.412C230.739 47.5312 231.051 47.4015 231.282 47.1704C231.513 46.9394 231.643 46.626 231.643 46.2993C231.643 45.9726 231.513 45.6592 231.282 45.4282C231.051 45.1972 230.739 45.0674 230.412 45.0674H195.949Z" fill="#E6E6E6"/>
<path d="M136.946 80.8469C136.62 80.8469 136.307 80.9767 136.076 81.2078C135.845 81.4388 135.716 81.7521 135.716 82.0789C135.716 82.4056 135.845 82.7189 136.076 82.95C136.307 83.181 136.62 83.3108 136.946 83.3108H263.521C263.847 83.3108 264.16 83.181 264.391 82.95C264.621 82.7189 264.751 82.4056 264.751 82.0789C264.751 81.7521 264.621 81.4388 264.391 81.2078C264.16 80.9767 263.847 80.8469 263.521 80.8469H136.946Z" fill="#E6E6E6"/>
<path d="M136.946 88.2393C136.62 88.2393 136.307 88.3691 136.076 88.6001C135.845 88.8311 135.716 89.1445 135.716 89.4712C135.716 89.7979 135.845 90.1113 136.076 90.3423C136.307 90.5733 136.62 90.7031 136.946 90.7031H230.478C230.804 90.7031 231.117 90.5733 231.348 90.3423C231.578 90.1113 231.708 89.7979 231.708 89.4712C231.708 89.1445 231.578 88.8311 231.348 88.6001C231.117 88.3691 230.804 88.2393 230.478 88.2393H136.946Z" fill="#E6E6E6"/>
<path d="M136.946 95.4644C136.62 95.4644 136.307 95.5941 136.076 95.8252C135.845 96.0562 135.716 96.3696 135.716 96.6963C135.716 97.023 135.845 97.3364 136.076 97.5674C136.307 97.7984 136.62 97.9282 136.946 97.9282H263.521C263.847 97.9282 264.16 97.7984 264.391 97.5674C264.621 97.3364 264.751 97.023 264.751 96.6963C264.751 96.3696 264.621 96.0562 264.391 95.8252C264.16 95.5941 263.847 95.4644 263.521 95.4644H136.946Z" fill="#E6E6E6"/>
<path d="M136.946 102.857C136.62 102.857 136.307 102.986 136.076 103.218C135.845 103.449 135.716 103.762 135.716 104.089C135.716 104.415 135.845 104.729 136.076 104.96C136.307 105.191 136.62 105.321 136.946 105.321H230.478C230.804 105.321 231.117 105.191 231.348 104.96C231.578 104.729 231.708 104.415 231.708 104.089C231.708 103.762 231.578 103.449 231.348 103.218C231.117 102.986 230.804 102.857 230.478 102.857H136.946Z" fill="#E6E6E6"/>
<path d="M178.888 63.6306H81.0289C80.5485 63.6301 80.0879 63.4387 79.7481 63.0986C79.4084 62.7584 79.2173 62.2972 79.2168 61.8161V18.8116C79.2173 18.3306 79.4084 17.8693 79.7481 17.5291C80.0879 17.189 80.5485 16.9976 81.0289 16.9971H178.888C179.369 16.9976 179.829 17.189 180.169 17.5291C180.509 17.8693 180.7 18.3306 180.7 18.8116V61.8161C180.7 62.2972 180.509 62.7584 180.169 63.0986C179.829 63.4387 179.369 63.6301 178.888 63.6306Z" fill="#439AD8"/>
<path d="M262.738 131.618H225.645C225.164 131.618 224.704 131.426 224.364 131.086C224.024 130.746 223.833 130.285 223.833 129.803V123.852C223.833 123.371 224.024 122.91 224.364 122.57C224.704 122.229 225.164 122.038 225.645 122.038H262.738C263.219 122.038 263.679 122.229 264.019 122.57C264.359 122.91 264.55 123.371 264.55 123.852V129.803C264.55 130.285 264.359 130.746 264.019 131.086C263.679 131.426 263.219 131.618 262.738 131.618Z" fill="#439AD8"/>
<path d="M42.9216 72.7837C41.3231 71.5887 40.8539 69.3556 41.8738 67.796C41.9751 67.6433 42.0897 67.4998 42.2162 67.3673L42.3184 35.5969L47.0345 36.4786L47.2416 67.7256C48.3161 68.9737 48.533 70.7925 47.6628 72.1233C46.6429 73.6829 44.5203 73.9786 42.9216 72.7837Z" fill="#FFB8B8"/>
<path d="M67.4475 143.896L72.3094 143.895L74.6226 125.116L67.4468 125.117L67.4475 143.896Z" fill="#FFB8B8"/>
<path d="M66.2075 142.306L75.7825 142.306H75.7829C77.4012 142.306 78.9532 142.95 80.0975 144.095C81.2418 145.241 81.8847 146.795 81.8849 148.416V148.614L66.2078 148.615L66.2075 142.306Z" fill="#2F2E41"/>
<path d="M22.2375 143.896L27.0998 143.895L29.4126 125.116L22.2368 125.117L22.2375 143.896Z" fill="#FFB8B8"/>
<path d="M20.9976 142.306L30.5726 142.306H30.5729C32.1912 142.306 33.7432 142.95 34.8875 144.095C36.0318 145.241 36.6748 146.795 36.6749 148.416V148.614L20.9979 148.615L20.9976 142.306Z" fill="#2F2E41"/>
<path d="M67.1638 138.65L66.7563 136.202C66.3377 136.056 65.982 135.77 65.7485 135.392C65.3109 134.7 65.2412 133.725 65.5412 132.496L62.2607 104.754L45.134 86.9606L34.1469 113.498L29.7975 134.497V137.531L21.1136 138.648L21.5088 135.788C21.1766 135.645 20.8998 135.398 20.7202 135.084C20.2213 134.253 20.2282 132.964 20.7405 131.254L20.7627 131.18L20.7343 130.924C20.7144 130.745 20.845 113.593 25.9371 105.094L31.0369 79.2923C30.9045 78.9289 30.2506 76.8133 31.4497 73.2383C32.6332 69.7103 35.9429 64.0266 44.9901 56.9854L45.0212 56.9613L45.0597 56.9532C45.1599 56.9324 55.1385 54.9459 60.2991 61.7037L60.334 61.7493V61.8069C60.334 62.2247 60.325 71.9473 59.5573 74.1046L71.8031 96.6519C72.0415 96.9049 74.1824 99.3806 73.422 105.889L75.4002 128.077C75.6266 128.509 77.6743 132.584 75.4174 134.198L75.822 136.999L67.1638 138.65Z" fill="#2F2E41"/>
<path d="M46.6776 45.4154C44.3783 45.4154 41.3227 44.6016 39.4523 40.8505L39.4155 40.7768L44.0235 30.9955C44.6205 29.7282 45.6891 28.7453 47.0006 28.2569C48.3121 27.7686 49.7624 27.8136 51.0412 28.3824C52.32 28.9511 53.3257 29.9985 53.8431 31.3003C54.3606 32.6022 54.3487 34.0551 53.81 35.3483L49.8261 44.9118L49.7567 44.9375C48.7617 45.2575 47.7227 45.4188 46.6776 45.4154Z" fill="#439AD8"/>
<path d="M59.4423 64.8084L44.9155 57.9393L46.9123 33.5449L50.5527 29.0895L51.2579 28.9383C54.4989 28.2434 57.8666 28.4302 61.0111 29.4792L61.0802 29.5023L67.0598 42.276C67.0974 42.3397 71.4096 49.9636 65.4483 53.9831L59.4423 64.8084Z" fill="#439AD8"/>
<path d="M79.4129 57.0341C79.2395 57.1064 79.0721 57.1923 78.9123 57.291L63.6046 50.2793L63.212 46.2032L56.9914 45.9927L56.9863 53.2762C56.9859 53.8646 57.1761 54.4372 57.5284 54.9082C57.8807 55.3791 58.376 55.7229 58.94 55.888L77.3219 61.2675C77.5107 61.9669 77.9076 62.5922 78.46 63.0602C79.0123 63.5282 79.6939 63.8167 80.414 63.8873C81.1341 63.958 81.8586 63.8074 82.4911 63.4557C83.1237 63.104 83.6343 62.5677 83.9551 61.9183C84.2758 61.2689 84.3916 60.5371 84.2868 59.8202C84.1821 59.1033 83.8619 58.4353 83.3689 57.9051C82.8758 57.3748 82.2332 57.0075 81.5265 56.8519C80.8199 56.6963 80.0826 56.7599 79.4129 57.0341L79.4129 57.0341Z" fill="#FFB8B8"/>
<path d="M60.6894 47.9428C58.9451 47.9428 56.9765 47.3388 55.0871 45.4467L55.0288 45.3884L56.3055 34.6492C56.4709 33.2579 57.1735 31.9866 58.2631 31.1074C59.3526 30.2281 60.7425 29.8108 62.1353 29.9447C63.5282 30.0786 64.8134 30.7531 65.716 31.8238C66.6186 32.8945 67.0669 34.2764 66.9649 35.6738L66.2113 46.0084L66.1536 46.0547C66.1166 46.0844 63.7482 47.9428 60.6894 47.9428Z" fill="#439AD8"/>
<path d="M65.3573 20.5915C67.9376 15.8648 66.2029 9.93844 61.4827 7.35461C56.7624 4.77077 50.8442 6.50789 48.2639 11.2346C45.6836 15.9612 47.4183 21.8876 52.1385 24.4714C56.8587 27.0553 62.777 25.3181 65.3573 20.5915Z" fill="#FFB8B8"/>
<path d="M66.7238 10.7451C66.2404 7.93013 63.9838 5.59656 61.2955 4.64176C58.6071 3.68695 55.5755 3.99746 52.943 5.09699C52.5046 5.28093 52.0759 5.48732 51.6587 5.71534C50.6964 3.87871 48.3374 2.8135 46.1797 2.92847C43.573 3.06736 41.2189 4.4485 38.9549 5.75017C36.691 7.05185 34.2617 8.34695 31.6518 8.28634C26.9355 8.17685 23.4267 3.79832 18.8916 2.49708C16.8727 1.91784 14.7245 1.97643 12.7401 2.66487C10.7557 3.35331 9.03175 4.63806 7.80344 6.34384C6.57513 8.04961 5.9023 10.0933 5.87673 12.1962C5.85117 14.299 6.47412 16.3585 7.6606 18.0937C9.59566 14.6212 14.1399 13.4484 18.083 13.9211C22.0259 14.3938 25.7007 16.1245 29.5636 17.0464C33.4266 17.9683 37.9004 17.9288 40.8925 15.3144C42.5899 13.8314 43.5864 11.7119 45.064 10.0094C46.0635 8.85789 47.4864 7.88555 48.9402 7.65668C47.5082 8.94807 46.4149 10.5719 45.7565 12.3856C44.5907 15.7023 45.214 19.6846 47.6324 22.2339C50.225 24.9671 54.2942 25.6955 58.0584 25.6513L58.1372 25.5711C56.9847 23.8436 56.0751 21.4483 57.344 19.8047C58.5966 18.1822 61.0671 18.4213 62.9854 17.7033C65.6573 16.7034 67.207 13.5602 66.7238 10.7451Z" fill="#2F2E41"/>
<path d="M93.0156 149H0.339473C0.249439 149 0.163093 148.964 0.0994291 148.9C0.0357656 148.837 0 148.75 0 148.66C0 148.57 0.0357656 148.483 0.0994291 148.42C0.163093 148.356 0.249439 148.32 0.339473 148.32H93.0156C93.1057 148.32 93.192 148.356 93.2557 148.42C93.3193 148.483 93.3551 148.57 93.3551 148.66C93.3551 148.75 93.3193 148.837 93.2557 148.9C93.192 148.964 93.1057 149 93.0156 149Z" fill="#CCCCCC"/>
<path d="M125.568 32.0798C125.143 32.0812 124.799 32.6338 124.8 33.3142C124.801 33.9927 125.144 34.5424 125.568 34.5437H161.847C162.272 34.5423 162.616 33.9897 162.615 33.3093C162.614 32.6309 162.271 32.0812 161.847 32.0798H125.568Z" fill="white"/>
<path d="M125.568 39.2185C125.143 39.2199 124.799 39.7725 124.8 40.4529C124.801 41.1313 125.144 41.681 125.568 41.6824H161.847C162.272 41.681 162.616 41.1284 162.615 40.448C162.614 39.7695 162.271 39.2198 161.847 39.2185H125.568Z" fill="white"/>
<path d="M125.568 46.2708C125.143 46.2721 124.799 46.8247 124.8 47.5051C124.801 48.1836 125.144 48.7333 125.568 48.7346H141.179C141.604 48.7333 141.948 48.1806 141.947 47.5002C141.946 46.8218 141.603 46.2721 141.179 46.2708H125.568Z" fill="white"/>
<path d="M107.147 50.1719C112.584 50.1719 116.992 45.7583 116.992 40.3137C116.992 34.8692 112.584 30.4556 107.147 30.4556C101.71 30.4556 97.3022 34.8692 97.3022 40.3137C97.3022 45.7583 101.71 50.1719 107.147 50.1719Z" fill="white"/>
</svg>
