<svg width="300" height="200" viewBox="0 0 300 200" fill="none" xmlns="http://www.w3.org/2000/svg">
<g clip-path="url(#clip0_74_4651)">
<path d="M107.61 115.102C117.891 96.9592 137.502 83.0287 158.263 84.3707C142.949 101.076 134.02 122.676 133.054 145.35C132.713 154.096 133.242 163.859 127.453 170.407C123.851 174.482 118.346 176.456 112.933 176.87C107.52 177.283 102.108 176.302 96.7669 175.325L95.4713 175.724C94.9781 154.861 97.329 133.244 107.61 115.102Z" fill="#F0F0F0"/>
<path d="M158.293 84.8076C142.942 92.2213 129.851 104.603 121.815 119.704C120.078 122.968 118.599 126.432 117.954 130.094C117.308 133.757 117.759 137.245 119.007 140.724C120.147 143.905 121.681 147.027 122.03 150.431C122.399 154.018 121.083 157.373 118.714 160.035C115.816 163.293 111.924 165.312 108.049 167.153C103.747 169.197 99.2463 171.253 96.1993 175.068C95.8301 175.53 95.1366 174.929 95.5052 174.467C100.807 167.829 109.881 166.581 116.174 161.233C119.11 158.738 121.315 155.339 121.176 151.358C121.054 147.876 119.475 144.656 118.293 141.445C117.051 138.073 116.432 134.683 116.877 131.089C117.333 127.412 118.68 123.883 120.327 120.588C124.04 113.157 129.121 106.335 134.943 100.438C141.633 93.6591 149.43 88.0784 157.997 83.9372C158.527 83.6811 158.82 84.5531 158.293 84.8076Z" fill="white"/>
<path d="M124.169 114.657C121.816 112.931 120.151 110.421 119.471 107.577C118.792 104.733 119.142 101.739 120.46 99.1301C120.729 98.6031 121.558 98.9968 121.289 99.5245C120.057 101.952 119.731 104.74 120.369 107.388C121.007 110.035 122.567 112.366 124.768 113.961C125.246 114.308 124.645 115.002 124.169 114.657Z" fill="white"/>
<path d="M118.217 139.188C124.114 138.323 129.47 135.261 133.216 130.611C133.587 130.15 134.281 130.752 133.91 131.212C130.003 136.044 124.423 139.219 118.284 140.105C117.699 140.189 117.635 139.271 118.217 139.188V139.188Z" fill="white"/>
<path d="M142.086 94.7907C142.858 95.649 143.83 96.3016 144.916 96.6898C146.001 97.078 147.165 97.1896 148.305 97.0147C148.888 96.9233 148.952 97.8412 148.372 97.9321C147.112 98.1194 145.826 97.9945 144.626 97.5683C143.426 97.142 142.348 96.4275 141.487 95.487C141.398 95.4052 141.344 95.2926 141.335 95.1721C141.326 95.0516 141.364 94.9323 141.439 94.8384C141.519 94.7466 141.632 94.6901 141.753 94.6812C141.874 94.6723 141.994 94.7116 142.086 94.7907Z" fill="white"/>
<path d="M199.569 141.604C199.206 141.671 198.844 141.739 198.477 141.813C193.603 142.746 188.811 144.075 184.151 145.786C183.789 145.913 183.424 146.046 183.065 146.183C171.882 150.426 161.58 156.714 152.685 164.729C149.149 167.922 145.859 171.38 142.845 175.073C138.684 180.174 134.576 186.037 129.137 189.363C128.574 189.716 127.989 190.034 127.386 190.315L96.0573 177.279C96.0009 177.214 95.9412 177.155 95.8845 177.09L94.6099 176.626C94.752 176.425 94.9038 176.219 95.046 176.018C95.128 175.901 95.2169 175.786 95.2989 175.669C95.3558 175.592 95.413 175.515 95.4599 175.442C95.4788 175.416 95.4979 175.391 95.5138 175.372C95.5607 175.299 95.612 175.237 95.656 175.171C96.5012 174.018 97.3559 172.869 98.2201 171.725C98.2231 171.718 98.2231 171.718 98.233 171.713C104.84 163.008 112.23 154.779 120.63 147.938C120.883 147.732 121.139 147.519 121.406 147.319C125.209 144.256 129.256 141.51 133.505 139.109C135.836 137.801 138.231 136.613 140.682 135.548C147.02 132.81 153.748 131.089 160.619 130.448C174.316 129.172 188.268 132.304 198.773 140.937C199.042 141.158 199.304 141.376 199.569 141.604Z" fill="#F0F0F0"/>
<path d="M199.334 141.973C182.627 138.621 164.744 140.601 149.265 147.804C145.918 149.362 142.658 151.234 139.945 153.768C137.231 156.303 135.498 159.36 134.406 162.892C133.407 166.12 132.758 169.539 130.994 172.468C129.135 175.555 126.071 177.439 122.582 178.134C118.313 178.984 113.994 178.245 109.795 177.375C105.133 176.41 100.306 175.332 95.583 176.538C95.0108 176.685 94.8181 175.785 95.3895 175.639C103.607 173.541 111.601 178.025 119.835 177.556C123.677 177.337 127.477 175.955 129.756 172.692C131.748 169.838 132.42 166.314 133.403 163.036C134.435 159.594 135.976 156.513 138.489 153.912C141.059 151.251 144.253 149.248 147.545 147.611C154.969 143.921 163.121 141.543 171.309 140.35C180.719 138.979 190.294 139.232 199.619 141.099C200.196 141.215 199.907 142.088 199.334 141.973V141.973Z" fill="white"/>
<path d="M154.173 145.197C153.329 142.397 153.506 139.387 154.671 136.706C155.835 134.025 157.912 131.846 160.53 130.559C161.06 130.3 161.486 131.115 160.955 131.374C158.514 132.568 156.58 134.598 155.501 137.097C154.422 139.596 154.268 142.4 155.069 145.002C155.242 145.568 154.345 145.759 154.173 145.197Z" fill="white"/>
<path d="M134.697 161.188C139.925 164.059 146.039 164.849 151.821 163.399C152.394 163.255 152.587 164.154 152.014 164.298C145.995 165.796 139.633 164.961 134.2 161.961C133.683 161.674 134.182 160.903 134.697 161.188Z" fill="white"/>
<path d="M180.402 140.156C180.503 141.307 180.887 142.416 181.521 143.381C182.155 144.347 183.017 145.139 184.032 145.687C184.553 145.967 184.053 146.738 183.535 146.46C182.417 145.849 181.465 144.973 180.763 143.908C180.06 142.843 179.629 141.621 179.505 140.35C179.484 140.231 179.508 140.108 179.573 140.007C179.638 139.905 179.74 139.833 179.857 139.803C179.975 139.778 180.099 139.801 180.201 139.867C180.303 139.933 180.375 140.037 180.402 140.156Z" fill="white"/>
<path d="M139.889 163.11C135.502 141.829 130.017 134.734 130.017 134.734L127.922 133.104L125.403 131.14L125.415 130.888L124.817 130.684L124.677 130.575L124.447 130.398L124.41 130.437L124.332 130.519L112.93 126.631L98.4648 121.702L91.7666 112.968C90.6757 111.546 89.2713 110.396 87.6633 109.609C86.0554 108.822 84.2876 108.42 82.4987 108.433L61.1067 108.592C58.2143 108.613 55.4345 109.72 53.3138 111.693L39.2532 124.776L17.3442 135.273L17.3072 135.236L17.0771 135.401L13.692 137.024L13.8316 137.754L11.7364 139.27C11.7364 139.27 6.252 145.873 1.86442 165.675C0.748274 170.713 0.198865 181.522 0.000557285 194.841C-0.00940368 195.514 0.114257 196.184 0.364346 196.809C0.614435 197.434 0.985965 198.004 1.45733 198.484C1.9287 198.964 2.4905 199.345 3.11007 199.605C3.72963 199.866 4.39461 200 5.06632 200H122.087V200H136.693C137.364 200 138.028 199.866 138.648 199.606C139.267 199.346 139.828 198.965 140.3 198.485C140.771 198.006 141.143 197.437 141.393 196.812C141.643 196.188 141.768 195.519 141.759 194.846C141.565 180.353 141.016 168.575 139.889 163.11Z" fill="#3F3D56"/>
<path d="M154.904 18.5593C150.351 18.5593 145.985 20.3736 142.765 23.6031C139.546 26.8326 137.737 31.2127 137.737 35.7798C137.737 40.347 139.546 44.7271 142.765 47.9565C145.985 51.186 150.351 53.0003 154.904 53.0003H282.834C287.386 53.0003 291.753 51.186 294.972 47.9565C298.191 44.7271 300 40.347 300 35.7798C300 31.2127 298.191 26.8326 294.972 23.6031C291.753 20.3736 287.386 18.5593 282.834 18.5593H154.904Z" fill="#E5E5E5"/>
<path d="M154.904 22.0444C151.272 22.0444 147.79 23.4916 145.222 26.0674C142.654 28.6433 141.211 32.137 141.211 35.7798C141.211 39.4227 142.654 42.9163 145.222 45.4922C147.79 48.0681 151.272 49.5152 154.904 49.5152H282.834C286.465 49.5152 289.948 48.0681 292.515 45.4922C295.083 42.9163 296.526 39.4227 296.526 35.7798C296.526 32.137 295.083 28.6433 292.515 26.0674C289.948 23.4916 286.465 22.0444 282.834 22.0444H154.904Z" fill="white"/>
<path d="M75.1622 100.371C90.6403 100.371 103.188 87.7844 103.188 72.2575C103.188 56.7306 90.6403 44.1436 75.1622 44.1436C59.6842 44.1436 47.1367 56.7306 47.1367 72.2575C47.1367 87.7844 59.6842 100.371 75.1622 100.371Z" fill="#9E616A"/>
<path d="M67.9924 98.9948C67.8727 98.7303 67.7533 98.465 67.6343 98.1987C67.6802 98.2002 67.7256 98.2068 67.7715 98.208L67.9924 98.9948Z" fill="#2F2E41"/>
<path d="M46.3573 45.4219C47.7748 44.2876 49.4314 43.2439 51.2437 43.3026C53.0559 43.3612 54.8937 45.0031 54.5182 46.7827C57.847 40.8702 63.1453 36.3229 69.4832 33.9389C75.8212 31.5548 82.7937 31.4864 89.1769 33.7456C93.6811 35.3397 98.0981 38.5289 99.1328 43.2065C99.3984 44.4072 99.4554 45.7238 100.203 46.6989C101.145 47.9282 102.948 48.2063 104.433 47.7739C104.447 47.7695 104.462 47.7651 104.477 47.7607C104.728 47.6748 104.999 47.6664 105.254 47.7365C105.51 47.8066 105.739 47.952 105.911 48.154C106.083 48.356 106.191 48.6051 106.221 48.8693C106.25 49.1335 106.2 49.4005 106.077 49.6359L104.803 52.0202C106.409 52.3794 108.078 52.3438 109.668 51.9164C109.932 51.8469 110.211 51.8611 110.467 51.957C110.723 52.0529 110.943 52.2259 111.097 52.4521C111.251 52.6783 111.331 52.9468 111.327 53.2207C111.323 53.4945 111.234 53.7604 111.073 53.9818C106.871 59.7696 99.8501 63.507 92.6856 63.4631C87.5935 63.4319 82.449 61.6714 77.4932 62.8461C75.576 63.3006 73.7846 64.1798 72.2503 65.4194C70.716 66.6589 69.4779 68.2274 68.6267 70.0096C67.7754 71.7918 67.3328 73.7425 67.3312 75.7187C67.3295 77.6949 67.769 79.6464 68.6172 81.43C67.0948 79.7595 64.1518 80.155 62.5944 81.7929C61.0372 83.4308 60.634 85.8754 60.7909 88.1333C61.0309 91.5868 62.3797 94.8409 63.8016 98.0081C51.8799 97.6316 40.6039 89.2423 36.8084 77.8955C32.997 66.5013 36.9915 52.9169 46.3573 45.4219Z" fill="#2F2E41"/>
<path opacity="0.2" d="M27.5845 156.685L35.445 199.588L40.1615 200L27.5845 156.685Z" fill="black"/>
<path opacity="0.2" d="M114.169 153.45L106.309 199.557L101.592 200L114.169 153.45Z" fill="black"/>
<path d="M53.0619 30.9832C51.5547 31.6145 49.9821 30.9227 49.3226 29.3382C48.6529 27.7295 49.2784 26.0965 50.8097 25.455C52.3411 24.8136 53.8857 25.5071 54.5661 27.1418C55.2364 28.7519 54.6178 30.3315 53.0619 30.9832ZM50.1748 22.2886L48.9765 22.7906C48.6771 22.9145 48.3423 22.9212 48.0383 22.8093C47.7342 22.6974 47.4831 22.4752 47.3346 22.1865L47.2753 22.0702C45.9859 19.7374 45.8383 16.9023 46.8388 13.648C47.7657 10.7287 48.1507 8.67559 47.3765 6.81557C46.4813 4.66504 44.5698 3.99138 42.1322 4.96725C41.1868 5.36327 40.886 5.35696 40.142 6.09734C39.9802 6.26035 39.7873 6.38899 39.5748 6.47561C39.3623 6.56222 39.1346 6.60502 38.9053 6.60146C38.6836 6.59885 38.4648 6.55147 38.2617 6.46217C38.0587 6.37286 37.8757 6.24345 37.7236 6.08166C37.4305 5.76986 37.2663 5.35813 37.2642 4.92961C37.262 4.50109 37.4221 4.08772 37.7119 3.77297C38.9625 2.45977 40.4708 1.42087 42.1417 0.721815C47.379 -1.47202 50.0155 1.76686 51.222 4.66535C52.4021 7.50041 51.7383 10.1309 50.6717 13.5376C49.7778 16.3683 49.8299 18.4659 50.8453 20.5515C50.9186 20.7092 50.9593 20.8801 50.9652 21.054C50.971 21.2279 50.9417 21.4011 50.8791 21.5634C50.8165 21.7256 50.7218 21.8735 50.6008 21.9981C50.4798 22.1228 50.3349 22.2216 50.1749 22.2886L50.1748 22.2886Z" fill="#439AD8"/>
<path d="M183.162 43.9927H157.709C157.628 43.9933 157.548 43.9778 157.473 43.9471C157.398 43.9165 157.33 43.8713 157.272 43.8141C157.215 43.7569 157.169 43.6889 157.138 43.6141C157.107 43.5392 157.091 43.4588 157.091 43.3777C157.091 43.2966 157.107 43.2163 157.138 43.1414C157.169 43.0665 157.215 42.9985 157.272 42.9414C157.33 42.8842 157.398 42.839 157.473 42.8083C157.548 42.7777 157.628 42.7622 157.709 42.7627H183.162C183.324 42.7638 183.479 42.8291 183.593 42.9443C183.707 43.0595 183.771 43.2153 183.771 43.3777C183.771 43.5401 183.707 43.6959 183.593 43.8111C183.479 43.9263 183.324 43.9916 183.162 43.9927Z" fill="#439AD8"/>
<path d="M215.451 44.1978H189.998C189.917 44.1984 189.837 44.1829 189.762 44.1522C189.687 44.1216 189.619 44.0763 189.561 44.0192C189.504 43.962 189.459 43.894 189.427 43.8191C189.396 43.7442 189.38 43.6639 189.38 43.5828C189.38 43.5017 189.396 43.4214 189.427 43.3465C189.459 43.2716 189.504 43.2036 189.561 43.1464C189.619 43.0893 189.687 43.0441 189.762 43.0134C189.837 42.9827 189.917 42.9672 189.998 42.9678H215.451C215.532 42.9672 215.612 42.9827 215.687 43.0134C215.762 43.0441 215.83 43.0893 215.887 43.1464C215.945 43.2036 215.99 43.2716 216.021 43.3465C216.052 43.4214 216.068 43.5017 216.068 43.5828C216.068 43.6639 216.052 43.7442 216.021 43.8191C215.99 43.894 215.945 43.962 215.887 44.0192C215.83 44.0763 215.762 44.1216 215.687 44.1522C215.612 44.1829 215.532 44.1984 215.451 44.1978Z" fill="#439AD8"/>
<path d="M247.74 44.4027H222.287C222.125 44.4015 221.97 44.3363 221.856 44.221C221.742 44.1058 221.678 43.95 221.678 43.7876C221.678 43.6252 221.742 43.4694 221.856 43.3542C221.97 43.239 222.125 43.1737 222.287 43.1726H247.74C247.821 43.1721 247.901 43.1876 247.976 43.2182C248.051 43.2489 248.119 43.2941 248.176 43.3513C248.234 43.4084 248.279 43.4764 248.31 43.5513C248.341 43.6262 248.357 43.7065 248.357 43.7876C248.357 43.8688 248.341 43.9491 248.31 44.024C248.279 44.0989 248.234 44.1668 248.176 44.224C248.119 44.2812 248.051 44.3264 247.976 44.357C247.901 44.3877 247.821 44.4032 247.74 44.4027H247.74Z" fill="#439AD8"/>
<path d="M280.029 44.6077H254.576C254.414 44.6066 254.259 44.5413 254.145 44.4261C254.031 44.3109 253.967 44.1551 253.967 43.9927C253.967 43.8303 254.031 43.6745 254.145 43.5593C254.259 43.4441 254.414 43.3788 254.576 43.3777H280.029C280.191 43.3788 280.346 43.4441 280.46 43.5593C280.574 43.6745 280.638 43.8303 280.638 43.9927C280.638 44.1551 280.574 44.3109 280.46 44.4261C280.346 44.5413 280.191 44.6066 280.029 44.6077Z" fill="#439AD8"/>
<path d="M170.379 38.3325C172.992 38.3325 175.11 36.2079 175.11 33.5869C175.11 30.966 172.992 28.8413 170.379 28.8413C167.766 28.8413 165.648 30.966 165.648 33.5869C165.648 36.2079 167.766 38.3325 170.379 38.3325Z" fill="#439AD8"/>
<path d="M202.863 38.3325C205.476 38.3325 207.594 36.2079 207.594 33.5869C207.594 30.966 205.476 28.8413 202.863 28.8413C200.25 28.8413 198.132 30.966 198.132 33.5869C198.132 36.2079 200.25 38.3325 202.863 38.3325Z" fill="#439AD8"/>
<path d="M235.347 38.3325C237.96 38.3325 240.078 36.2079 240.078 33.5869C240.078 30.966 237.96 28.8413 235.347 28.8413C232.735 28.8413 230.617 30.966 230.617 33.5869C230.617 36.2079 232.735 38.3325 235.347 38.3325Z" fill="#439AD8"/>
<path d="M267.831 38.3325C270.444 38.3325 272.562 36.2079 272.562 33.5869C272.562 30.966 270.444 28.8413 267.831 28.8413C265.219 28.8413 263.101 30.966 263.101 33.5869C263.101 36.2079 265.219 38.3325 267.831 38.3325Z" fill="#439AD8"/>
</g>
<defs>
<clipPath id="clip0_74_4651">
<rect width="300" height="200" fill="white"/>
</clipPath>
</defs>
</svg>
