<svg width="302" height="180" viewBox="0 0 302 180" fill="none" xmlns="http://www.w3.org/2000/svg">
<g clip-path="url(#clip0_74_4130)">
<path d="M231.218 177.965C227.352 174.707 225.003 169.562 225.619 164.553C226.235 159.544 230.05 154.94 234.998 153.876C239.946 152.812 245.587 155.757 247.09 160.576C247.917 151.285 248.87 141.605 253.825 133.694C258.311 126.53 266.081 121.404 274.502 120.487C282.924 119.57 291.79 123.033 297.042 129.66C302.294 136.286 303.58 145.92 299.902 153.527C297.192 159.132 292.2 163.302 286.969 166.696C270.067 177.568 249.795 181.989 229.883 179.146L231.218 177.965Z" fill="#F2F2F2"/>
<path d="M288.715 123.225C281.766 128.868 275.391 135.178 269.683 142.066C260.749 152.808 253.52 164.851 248.247 177.777C247.861 178.72 249.397 179.131 249.779 178.198C258.406 157.191 272.179 138.675 289.838 124.345C290.631 123.701 289.501 122.587 288.715 123.225Z" fill="white"/>
<path d="M97.2187 177.08C102.529 172.606 105.755 165.539 104.909 158.659C104.063 151.78 98.8236 145.455 92.0272 143.994C85.2309 142.533 77.4835 146.577 75.4192 153.196C74.2832 140.435 72.974 127.14 66.1689 116.274C60.007 106.434 49.3344 99.3934 37.7678 98.1338C26.2011 96.8742 14.0229 101.631 6.80925 110.733C-0.404436 119.834 -2.17068 133.066 2.8816 143.515C6.60344 151.212 13.4604 156.941 20.6447 161.602C43.5653 176.47 71.9983 182.671 99.0527 178.702" fill="#F2F2F2"/>
<path d="M18.2475 101.895C27.7914 109.645 36.5469 118.312 44.3874 127.772C52.2292 137.223 59.133 147.409 65.0019 158.188C68.2824 164.235 71.2293 170.455 73.8295 176.822C74.3597 178.117 72.2501 178.681 71.7258 177.4C67.1202 166.176 61.4222 155.428 54.7135 145.311C48.0374 135.231 40.3962 125.82 31.8973 117.211C27.0903 112.344 22.0185 107.745 16.7049 103.433C15.6157 102.549 17.1673 101.018 18.2475 101.895L18.2475 101.895Z" fill="white"/>
<path d="M216.78 179.606H90.0791V50.0059C90.0791 22.4325 112.581 0 140.239 0H166.621C194.279 0 216.78 22.4325 216.78 50.0059V179.606Z" fill="#F2F2F2"/>
<path d="M190.399 179.606H90.0793V50.0059C90.0516 39.4404 93.4075 29.1419 99.6585 20.6099C99.8889 20.2968 100.119 19.9878 100.356 19.6821C103.379 15.7287 106.977 12.247 111.031 9.35194C111.26 9.18583 111.49 9.02261 111.724 8.85938C115.116 6.51911 118.785 4.60598 122.648 3.16355C122.878 3.07686 123.111 2.99001 123.345 2.9067C126.839 1.66367 130.461 0.812206 134.143 0.36802C134.372 0.336926 134.606 0.312595 134.841 0.288263C138.43 -0.0942974 142.049 -0.0942974 145.638 0.288263C145.872 0.312595 146.106 0.336923 146.337 0.368352C150.019 0.812568 153.64 1.66393 157.133 2.90672C157.367 2.99002 157.6 3.07687 157.83 3.16373C161.646 4.58797 165.272 6.47254 168.628 8.7754C168.861 8.93508 169.095 9.09832 169.325 9.26154C171.597 10.8786 173.731 12.6801 175.706 14.6476C177.29 16.2258 178.765 17.9081 180.123 19.6831C180.359 19.9878 180.589 20.2968 180.819 20.6094C187.07 29.1415 190.426 39.4402 190.399 50.0059V179.606Z" fill="#CCCCCC"/>
<path d="M182.242 121.641C185.309 121.641 187.796 119.162 187.796 116.104C187.796 113.046 185.309 110.567 182.242 110.567C179.174 110.567 176.688 113.046 176.688 116.104C176.688 119.162 179.174 121.641 182.242 121.641Z" fill="#439AD8"/>
<path d="M206.401 175.724H202.145L200.121 159.36L206.402 159.36L206.401 175.724Z" fill="#FFB8B8"/>
<path d="M199.105 174.512H207.313V179.664H193.938C193.938 178.987 194.071 178.317 194.331 177.692C194.591 177.067 194.971 176.499 195.451 176.021C195.931 175.542 196.501 175.163 197.128 174.904C197.755 174.645 198.427 174.512 199.105 174.512Z" fill="#2F2E41"/>
<path d="M227.576 175.724H223.32L221.295 159.36L227.577 159.36L227.576 175.724Z" fill="#FFB8B8"/>
<path d="M220.28 174.512H228.487V179.664H215.112C215.112 178.987 215.246 178.317 215.506 177.692C215.765 177.067 216.146 176.499 216.626 176.021C217.106 175.542 217.675 175.163 218.302 174.904C218.929 174.645 219.601 174.512 220.28 174.512Z" fill="#2F2E41"/>
<path d="M185.052 117.201C184.746 116.751 184.543 116.24 184.456 115.703C184.369 115.167 184.402 114.618 184.551 114.095C184.7 113.572 184.963 113.088 185.32 112.678C185.677 112.267 186.12 111.939 186.618 111.718L201.085 71.9669L208.203 75.8398L191.685 113.827C192.003 114.686 191.994 115.631 191.66 116.483C191.326 117.335 190.689 118.035 189.872 118.451C189.054 118.867 188.112 118.969 187.224 118.739C186.335 118.508 185.563 117.961 185.052 117.201Z" fill="#FFB8B8"/>
<path d="M225.402 124.67C224.929 124.4 224.521 124.029 224.207 123.585C223.894 123.14 223.681 122.633 223.586 122.098C223.49 121.563 223.513 121.013 223.653 120.488C223.794 119.963 224.048 119.475 224.398 119.058L219.916 77.0083L228.017 77.3773L229.88 118.739C230.543 119.371 230.95 120.224 231.025 121.136C231.099 122.049 230.835 122.956 230.283 123.687C229.731 124.418 228.93 124.922 228.03 125.103C227.13 125.284 226.195 125.13 225.402 124.67Z" fill="#FFB8B8"/>
<path d="M212.478 64.604C217.187 64.604 221.004 60.7986 221.004 56.1044C221.004 51.4102 217.187 47.6047 212.478 47.6047C207.769 47.6047 203.952 51.4102 203.952 56.1044C203.952 60.7986 207.769 64.604 212.478 64.604Z" fill="#FFB8B8"/>
<path d="M225.347 115.107H199.644L199.674 114.907C199.721 114.609 204.255 84.994 200.911 75.3053C200.575 74.3532 200.605 73.3109 200.994 72.3792C201.383 71.4475 202.104 70.6921 203.018 70.2585H203.018C207.798 68.0142 216.975 65.2506 224.72 71.9574C225.86 72.9605 226.75 74.2143 227.32 75.6195C227.89 77.0247 228.124 78.5428 228.004 80.0538L225.347 115.107Z" fill="#439AD8"/>
<path d="M204.58 89.3706L193.008 87.0301L198.433 74.2156C198.757 72.9744 199.562 71.9123 200.671 71.2621C201.781 70.612 203.103 70.4269 204.349 70.7475C205.594 71.0681 206.662 71.8683 207.317 72.9724C207.971 74.0765 208.16 75.3944 207.842 76.6371L204.58 89.3706Z" fill="#439AD8"/>
<path d="M219.401 93.7163L218.706 77.8177C218.178 74.829 219.894 72.0038 222.534 71.542C225.174 71.0818 227.751 73.1547 228.281 76.1653L230.896 91.0209L219.401 93.7163Z" fill="#439AD8"/>
<path d="M224.492 113.203C228.628 128.906 229.079 148.872 227.964 170.649L222.41 169.957L212.343 128.43L206.789 170.649L200.541 170.303C198.674 147.453 196.857 127.836 199.846 114.934L224.492 113.203Z" fill="#2F2E41"/>
<path d="M218.096 62.6732C216.505 64.3622 213.552 63.4555 213.344 61.148C213.328 60.9689 213.329 60.7886 213.348 60.6097C213.455 59.5876 214.047 58.6596 213.905 57.5804C213.873 57.3118 213.773 57.0558 213.614 56.8367C212.346 55.1447 209.371 57.5935 208.175 56.0618C207.441 55.1226 208.304 53.6438 207.741 52.5941C206.998 51.2086 204.797 51.8921 203.418 51.1333C201.882 50.2891 201.974 47.9408 202.985 46.5125C204.217 44.7705 206.378 43.841 208.512 43.7071C210.646 43.5731 212.766 44.1482 214.758 44.9222C217.021 45.8017 219.266 47.0171 220.659 49.0014C222.353 51.4146 222.516 54.6588 221.669 57.4806C221.154 59.197 219.395 61.2939 218.096 62.6732Z" fill="#2F2E41"/>
<path d="M291.58 179.829H35.2983C35.1889 179.828 35.0841 179.785 35.0069 179.707C34.9296 179.63 34.8862 179.526 34.8862 179.417C34.8862 179.307 34.9296 179.203 35.0069 179.126C35.0841 179.048 35.1889 179.005 35.2983 179.005H291.58C291.689 179.005 291.794 179.048 291.871 179.126C291.948 179.203 291.992 179.307 291.992 179.417C291.992 179.526 291.948 179.63 291.871 179.707C291.794 179.785 291.689 179.828 291.58 179.829Z" fill="#3F3D56"/>
<path d="M162.802 142.058H117.676C117.081 142.061 116.51 141.83 116.087 141.413C115.664 140.997 115.424 140.431 115.419 139.838V39.4217C115.424 38.8292 115.664 38.2627 116.087 37.8465C116.51 37.4303 117.081 37.1984 117.676 37.2016H162.802C163.397 37.1984 163.968 37.4303 164.391 37.8465C164.814 38.2627 165.054 38.8292 165.059 39.4217V139.838C165.054 140.431 164.814 140.997 164.391 141.413C163.968 141.83 163.397 142.061 162.802 142.058Z" fill="white"/>
<path d="M165.059 69.6932H115.419V70.3854H165.059V69.6932Z" fill="#CCCCCC"/>
<path d="M165.232 109.182H115.593V109.875H165.232V109.182Z" fill="#CCCCCC"/>
<path d="M131.734 37.2017H131.04V142.404H131.734V37.2017Z" fill="#CCCCCC"/>
<path d="M149.091 37.2017H148.396V142.404H149.091V37.2017Z" fill="#CCCCCC"/>
</g>
<defs>
<clipPath id="clip0_74_4130">
<rect width="302" height="180" fill="white"/>
</clipPath>
</defs>
</svg>
