<svg width="320" height="127" viewBox="0 0 320 127" fill="none" xmlns="http://www.w3.org/2000/svg">
<g clip-path="url(#clip0_38_10809)">
<path d="M50.4956 76.7867C50.2152 76.7996 49.9377 76.7259 49.7005 76.5756C49.4634 76.4253 49.2781 76.2055 49.1699 75.9463C49.0616 75.687 49.0355 75.4006 49.0952 75.126C49.1549 74.8513 49.2975 74.6017 49.5036 74.4109C49.5381 74.2736 49.5628 74.1749 49.5973 74.0375C49.329 73.355 48.8633 72.7682 48.2597 72.3525C47.6562 71.9367 46.9425 71.7109 46.21 71.704C45.4775 71.6971 44.7596 71.9094 44.1484 72.3136C43.5372 72.7179 43.0604 73.2958 42.7793 73.9732C41.157 77.7756 39.0573 81.7121 40.1015 85.9003C33.2043 71.2625 35.5498 53.0545 45.7431 40.5365C48.5606 38.9823 50.8443 36.221 51.4388 33.0148C50.0444 33.4879 48.3058 32.3522 49.3542 30.8814C49.8087 30.3192 50.2675 29.7615 50.7219 29.1994C45.425 23.5505 39.1138 32.4285 44.9442 40.0527C43.0369 42.4472 41.3848 45.0348 40.0149 47.7734C40.3313 44.8654 39.9537 41.9238 38.9132 39.1905C37.8587 36.6432 35.8822 34.4978 34.1417 32.2956C32.0254 29.6124 27.6698 30.8503 27.3851 34.2554C29.3381 34.8982 29.5918 37.7232 27.3578 38.1098C27.9429 44.4444 32.0757 50.2658 37.7678 53.0439C35.6658 58.9498 34.845 65.2366 35.3601 71.4851C34.3554 64.1824 26.5271 62.4103 21.0554 59.5078C20.7072 59.2841 20.3014 59.1668 19.8877 59.1701C19.4741 59.1735 19.0703 59.2973 18.7256 59.5265C18.381 59.7557 18.1104 60.0803 17.9469 60.4609C17.7834 60.8414 17.7341 61.2614 17.8049 61.6696C18.5601 61.9771 19.2829 62.3589 19.9627 62.8095C20.2813 63.024 20.5258 63.3318 20.6627 63.6909C20.7997 64.05 20.8224 64.4427 20.7277 64.8152C20.633 65.1877 20.4256 65.5217 20.1339 65.7715C19.8422 66.0214 19.4805 66.1747 19.0983 66.2106C21.8564 73.046 28.9871 77.636 36.3107 77.6101C37.0145 80.6726 38.0343 83.6536 39.3535 86.505H50.2232C50.2622 86.384 50.2973 86.2592 50.3323 86.1382C49.3262 86.2016 48.3161 86.1413 47.3246 85.9588C49.9865 82.8029 52.0452 81.1928 50.4959 76.7869L50.4956 76.7867Z" fill="#F2F2F2"/>
<path d="M274.053 76.7867C274.333 76.7996 274.611 76.7259 274.848 76.5756C275.085 76.4253 275.271 76.2055 275.379 75.9463C275.487 75.687 275.513 75.4006 275.453 75.126C275.394 74.8513 275.251 74.6017 275.045 74.4109C275.011 74.2736 274.986 74.1749 274.951 74.0375C275.22 73.355 275.685 72.7682 276.289 72.3525C276.892 71.9367 277.606 71.7109 278.339 71.704C279.071 71.6971 279.789 71.9094 280.4 72.3136C281.012 72.7179 281.488 73.2958 281.769 73.9732C283.392 77.7756 285.491 81.7121 284.447 85.9003C291.344 71.2625 288.999 53.0545 278.806 40.5365C275.988 38.9823 273.704 36.221 273.11 33.0148C274.504 33.4879 276.243 32.3522 275.194 30.8814C274.74 30.3192 274.281 29.7615 273.827 29.1994C279.124 23.5505 285.435 32.4285 279.604 40.0527C281.512 42.4472 283.164 45.0348 284.534 47.7734C284.217 44.8654 284.595 41.9238 285.635 39.1905C286.69 36.6432 288.666 34.4978 290.407 32.2956C292.523 29.6124 296.879 30.8503 297.164 34.2554C295.211 34.8982 294.957 37.7232 297.191 38.1098C296.606 44.4444 292.473 50.2658 286.781 53.0439C288.883 58.9498 289.704 65.2366 289.189 71.4851C290.193 64.1824 298.022 62.4103 303.493 59.5078C303.842 59.2841 304.247 59.1668 304.661 59.1701C305.075 59.1735 305.478 59.2973 305.823 59.5265C306.168 59.7557 306.438 60.0803 306.602 60.4609C306.765 60.8414 306.815 61.2614 306.744 61.6696C305.989 61.9771 305.266 62.3589 304.586 62.8095C304.267 63.024 304.023 63.3318 303.886 63.6909C303.749 64.05 303.726 64.4427 303.821 64.8152C303.916 65.1877 304.123 65.5217 304.415 65.7715C304.706 66.0214 305.068 66.1747 305.45 66.2106C302.692 73.046 295.562 77.636 288.238 77.6101C287.534 80.6726 286.514 83.6536 285.195 86.505H274.325C274.286 86.384 274.251 86.2592 274.216 86.1382C275.222 86.2016 276.233 86.1413 277.224 85.9588C274.562 82.8029 272.503 81.1928 274.053 76.7869L274.053 76.7867Z" fill="#F2F2F2"/>
<path d="M2.00657e-06 86.7879C-0.000175065 86.8472 0.0113689 86.906 0.0339638 86.9608C0.0565587 87.0157 0.0897631 87.0655 0.131664 87.1075C0.173565 87.1494 0.223334 87.1827 0.278113 87.2053C0.332893 87.2279 0.391598 87.2395 0.450853 87.2393H319.549C319.669 87.2393 319.783 87.1918 319.868 87.1071C319.952 87.0224 320 86.9076 320 86.7879C320 86.6681 319.952 86.5533 319.868 86.4687C319.783 86.384 319.669 86.3364 319.549 86.3364H0.45083C0.391577 86.3363 0.332877 86.3478 0.278102 86.3704C0.223326 86.3931 0.173556 86.4263 0.131658 86.4683C0.0897603 86.5102 0.0565582 86.5601 0.0339638 86.6149C0.0113695 86.6698 -0.000172536 86.7285 2.00657e-06 86.7879Z" fill="#CCCCCC"/>
<path d="M56.2606 80.52C56.1094 78.3018 56.1086 76.1843 56.0653 74.5515C55.9769 71.2258 63.1395 71.4631 66.9909 71.3605L80.9752 70.6966C84.8266 70.5941 88.0318 73.2163 88.1202 76.5419C88.2085 79.8675 85.147 82.6566 81.2956 82.7591C75.6385 87.6761 71.2507 87.9153 63.4906 87.5866C61.6279 87.507 59.8601 86.7419 58.526 85.4379C57.1918 84.1338 56.3852 82.3827 56.2606 80.52Z" fill="#2F2E41"/>
<path d="M88.416 118.717L92.4227 119.373L96.8544 104.21L90.941 103.242L88.416 118.717Z" fill="#FFB6B6"/>
<path d="M90.008 87.0988C82.5376 88.9381 77.0214 86.8667 72.4781 87.1353C69.8955 82.7714 61.6516 77.2286 66.1497 74.8955C68.6546 73.5962 94.1193 70.6009 97.4622 74.0578C102.169 78.9252 101.512 87.7785 99.953 94.7933C99.9114 94.9805 99.8692 95.1664 99.8264 95.3509C99.7474 95.6914 99.6667 96.0268 99.5843 96.3571C99.4806 96.7734 98.7637 96.7664 98.6567 97.1637C98.5058 97.7242 98.9638 98.6789 98.8115 99.1949C98.5505 100.079 97.7614 100.91 98.0511 101.614C98.8502 103.556 97.2001 105.066 96.7625 105.13L90.7009 103.613C90.2729 103.512 89.2684 102.447 90.8741 101.512C91.3287 101.247 90.9448 100.38 90.9745 99.7152C90.9927 99.3066 91.0087 98.8759 91.0213 98.428C91.038 97.8328 91.0485 97.2073 91.0497 96.5633C91.0556 93.3866 90.8343 89.7601 90.008 87.0988Z" fill="#2F2E41"/>
<path d="M88.7669 113.084L94.7082 114.302L94.0374 116.811L98.5689 122.147C98.7928 122.41 98.9267 122.739 98.951 123.084C98.9754 123.429 98.8889 123.773 98.7043 124.065C98.5197 124.357 98.2465 124.583 97.9248 124.709C97.603 124.835 97.2495 124.855 96.9158 124.765L89.9537 122.898L89.4173 120.095L88.2851 122.451L85.6602 121.747L88.7669 113.084Z" fill="#2F2E41"/>
<path d="M44.0405 92.314L44.3872 96.3644L60.1544 96.9532L59.6425 90.9749L44.0405 92.314Z" fill="#FFB6B6"/>
<path d="M82.3981 84.2554C75.5072 81.7284 72.9307 75.5691 70.7156 69.1054C74.3083 65.5292 79.2539 60.1674 82.6146 63.9629C84.4862 66.0766 99.3787 84.2061 96.8504 88.2983C92.9603 94.5944 80.2665 96.53 70.6968 97.0692C70.1116 97.1021 69.539 97.1301 68.979 97.1531C68.4647 97.1744 67.9633 97.1921 67.4748 97.2061C65.4981 97.2636 63.415 96.3455 62.3913 97.2502C60.5471 98.8803 59.3173 98.0941 59.2566 97.1637L58.8778 90.7146C58.6018 89.6769 61.506 88.8074 62.6662 89.9559C63.4998 90.7811 63.144 89.8431 65.3319 89.3439C70.621 88.1371 77.9368 86.2632 82.3981 84.2554Z" fill="#2F2E41"/>
<path d="M49.581 91.2748L49.8565 97.3413L47.263 97.3045L43.2068 103.011C43.0065 103.293 42.7214 103.503 42.3933 103.611C42.0651 103.719 41.711 103.72 41.3827 103.612C41.0544 103.504 40.769 103.295 40.5682 103.013C40.3675 102.731 40.2618 102.393 40.2668 102.047L40.369 94.8307L42.9519 93.6233L40.3935 93.1012L40.432 90.3804L49.581 91.2748Z" fill="#2F2E41"/>
<path d="M58.7312 76.2884C58.7141 76.2582 58.7057 76.2238 58.7067 76.1891C58.7078 76.1544 58.7183 76.1207 58.7371 76.0916C56.4101 76.0052 54.1003 76.5386 54.7106 74.4021C54.7978 74.0969 56.892 71.865 57.0141 71.5304C57.1201 71.24 56.477 69.7808 56.6048 69.4704C56.8554 68.8621 57.9051 69.3757 58.2164 68.7023C58.326 68.4654 57.6268 67.8173 57.7414 67.5736C57.8491 67.3443 58.7702 67.5197 58.8811 67.285C60.9657 62.8751 63.5224 57.5543 62.8501 53.159C61.998 47.5891 62.1277 39.6852 61.9628 34.6867C61.9309 33.6944 62.2305 32.7197 62.8142 31.9172C63.3979 31.1146 64.2323 30.53 65.1853 30.2559C66.7055 29.8133 68.5281 29.0331 69.7378 27.6829C70.0542 27.3296 70.0924 27.9631 70.1328 27.1018C70.1821 26.0527 70.2331 24.9677 70.7924 24.4076L70.8167 24.3834L70.8492 24.3723C73.2039 23.5869 77.1801 24.095 78.3623 24.3686L78.4135 24.3806L78.4453 24.4227C78.9341 25.0684 78.9071 26.1016 78.8811 27.1006C78.8577 27.9995 78.8355 27.4016 79.2334 27.6576C79.5412 27.8559 79.837 28.0455 80.1208 28.2263C83.6206 30.4616 85.3773 31.5838 86.6643 35.2352C87.0711 36.2963 87.2241 37.4379 87.1112 38.5689C86.6518 42.2227 84.7023 69.0055 83.9213 69.9393C83.7186 70.1816 84.2452 70.6026 84.4633 70.917C84.7761 71.3681 83.7821 71.7576 83.6264 72.0557C83.5203 72.2588 83.2463 72.3535 82.7639 72.3535C80.9458 72.3535 59.2604 77.2786 58.7312 76.2884Z" fill="#3F3D56"/>
<path d="M73.9073 61.2959C74.5847 61.7218 73.2589 62.7462 72.459 62.7462C72.0749 62.7462 71.7065 62.5934 71.4349 62.3214C71.1633 62.0494 71.0107 61.6805 71.0107 61.2959C71.0107 60.495 71.9081 58.5917 72.278 59.3019C72.379 59.4957 73.0233 60.7402 73.9073 61.2959Z" fill="#439AD8"/>
<path d="M76.2608 61.2959C76.9382 61.7218 75.6124 62.7462 74.8125 62.7462C74.4284 62.7462 74.0601 62.5934 73.7884 62.3214C73.5168 62.0494 73.3643 61.6805 73.3643 61.2959C73.3643 60.495 74.2616 58.5917 74.6315 59.3019C74.7325 59.4957 75.3768 60.7402 76.2608 61.2959Z" fill="#439AD8"/>
<path d="M75.1357 60.9705C74.3694 60.7407 75.3748 59.3997 76.1458 59.1863C76.3291 59.1356 76.5206 59.1215 76.7094 59.1449C76.8981 59.1683 77.0804 59.2286 77.2459 59.3226C77.4113 59.4165 77.5567 59.5421 77.6736 59.6923C77.7906 59.8425 77.8769 60.0142 77.9275 60.1978C78.1406 60.9698 77.782 63.0437 77.2366 62.4579C77.0877 62.2979 76.1355 61.2703 75.1357 60.9705Z" fill="#439AD8"/>
<path d="M84.2261 61.2959C84.9035 61.7218 83.5777 62.7462 82.7778 62.7462C82.3937 62.7462 82.0254 62.5934 81.7538 62.3214C81.4822 62.0494 81.3296 61.6805 81.3296 61.2959C81.3296 60.495 82.2269 58.5917 82.5968 59.3019C82.6978 59.4957 83.3421 60.7402 84.2261 61.2959Z" fill="#439AD8"/>
<path d="M86.5796 61.2959C87.2571 61.7218 85.9312 62.7462 85.1314 62.7462C84.7473 62.7462 84.3789 62.5934 84.1073 62.3214C83.8357 62.0494 83.6831 61.6805 83.6831 61.2959C83.6831 60.495 84.5805 58.5917 84.9503 59.3019C85.0513 59.4957 85.6957 60.7402 86.5796 61.2959Z" fill="#439AD8"/>
<path d="M85.4545 60.9705C84.6883 60.7407 85.6937 59.3997 86.4647 59.1863C86.8349 59.0839 87.2306 59.1329 87.5647 59.3226C87.8989 59.5122 88.1441 59.8271 88.2464 60.1978C88.4595 60.9698 88.1009 63.0437 87.5554 62.4579C87.4065 62.2979 86.4544 61.2703 85.4545 60.9705Z" fill="#439AD8"/>
<path d="M68.7997 60.9705C68.0335 60.7407 69.0389 59.3997 69.8099 59.1863C70.1801 59.0839 70.5758 59.1329 70.9099 59.3226C71.2441 59.5122 71.4893 59.8271 71.5916 60.1978C71.8047 60.9698 71.4461 63.0437 70.9007 62.4579C70.7517 62.2979 69.7996 61.2703 68.7997 60.9705Z" fill="#439AD8"/>
<path d="M79.0985 62.5204C78.7746 63.2527 77.5723 62.0854 77.4578 61.2927C77.4028 60.9121 77.5011 60.5251 77.731 60.217C77.9609 59.9089 78.3036 59.7049 78.6838 59.6498C79.4754 59.5351 81.485 60.1519 80.8361 60.6202C80.6589 60.748 79.5212 61.5648 79.0985 62.5204Z" fill="#439AD8"/>
<path d="M81.8754 60.0917C82.0683 59.3144 83.4537 60.2566 83.703 61.0176C83.7623 61.1985 83.7855 61.3894 83.7711 61.5793C83.7567 61.7692 83.7051 61.9544 83.6193 62.1244C83.5334 62.2943 83.415 62.4457 83.2707 62.5698C83.1264 62.6939 82.9592 62.7883 82.7785 62.8477C82.0185 63.0974 79.9328 62.837 80.4913 62.2636C80.6438 62.1071 81.6238 61.106 81.8754 60.0917Z" fill="#439AD8"/>
<path d="M80.789 59.0041C80.9819 58.2268 82.3673 59.1689 82.6166 59.9299C82.6759 60.1109 82.699 60.3018 82.6847 60.4917C82.6703 60.6816 82.6187 60.8668 82.5328 61.0367C82.447 61.2067 82.3285 61.358 82.1843 61.4821C82.04 61.6062 81.8728 61.7006 81.692 61.76C80.9321 62.0097 78.8463 61.7493 79.4049 61.176C79.5573 61.0194 80.5373 60.0184 80.789 59.0041Z" fill="#439AD8"/>
<path d="M67.0149 66.2745L68.7162 71.8292C68.8946 72.7913 69.4036 73.6605 70.1549 74.2861C70.9063 74.9117 71.8526 75.2543 72.8297 75.2544H84.867C85.8594 75.2573 86.8203 74.9057 87.5769 74.2628C88.3336 73.6198 88.8364 72.7277 88.995 71.7467L88.999 71.7285L90.5062 66.1986C90.5971 65.639 90.5654 65.0664 90.4134 64.5203C90.2614 63.9743 89.9926 63.4678 89.6259 63.036C89.2591 62.6042 88.803 62.2573 88.2891 62.0195C87.7752 61.7816 87.2158 61.6584 86.6497 61.6584H70.8582C70.2856 61.6584 69.72 61.7845 69.2014 62.0276C68.6829 62.2707 68.224 62.625 67.8573 63.0654C67.4906 63.5058 67.2251 64.0216 67.0795 64.5761C66.934 65.1307 66.9119 65.7105 67.0149 66.2745V66.2745Z" fill="#CCCCCC"/>
<path d="M77.6963 56.0931L88.1332 53.4429L89.7555 58.8202C89.7555 58.8202 78.527 59.6528 78.1072 59.6567C77.7934 60.1015 77.3521 60.4404 76.8418 60.6285C76.3314 60.8167 75.7761 60.8453 75.2491 60.7105C74.7222 60.5758 74.2485 60.284 73.8908 59.8738C73.5331 59.4636 73.3082 58.9543 73.2458 58.4133C73.1834 57.8723 73.2865 57.3251 73.5414 56.8441C73.7963 56.363 74.1911 55.9708 74.6735 55.7193C75.1559 55.4678 75.7032 55.3689 76.2429 55.4357C76.7827 55.5024 77.2895 55.7317 77.6963 56.0931Z" fill="#FFB6B6"/>
<path d="M84.661 31.7078C92.1027 35.6898 93.0908 44.5667 97.6564 52.368C98.0556 55.9755 97.5441 59.1456 93.92 59.2097L92.2164 59.607L90.977 59.2776L90.3222 59.9864L88.9352 59.3247L87.3334 59.6317L84.0127 59.7083L86.1078 53.8971L89.0952 52.1974L85.564 43.6435L84.661 31.7078Z" fill="#3F3D56"/>
<path d="M61.9187 17.1571C63.1329 15.5757 62.273 13.3136 62.2338 11.3093C62.1607 7.56943 65.4597 4.27792 69.0422 3.79113C72.6248 3.30436 76.1964 5.18366 78.5571 7.97073C80.8712 10.7029 82.6073 12.1349 83.8601 15.543C84.2802 16.6858 84.2682 19.9389 84.1224 21.1622C83.9767 22.3854 83.0524 23.6173 81.8672 23.6269C81.9274 23.8645 81.9213 24.1141 81.8497 24.3484C81.7781 24.5828 81.6437 24.793 81.461 24.9562C81.2784 25.1194 81.0545 25.2293 80.8139 25.2739C80.5732 25.3185 80.3249 25.2962 80.096 25.2093C78.033 24.3088 73.8162 24.5671 73.8162 24.5671C70.0765 23.9507 66.3367 23.3343 62.597 22.718C61.6387 22.56 60.6459 22.3891 59.9129 21.6751C59.7086 21.4844 59.5479 21.2518 59.4419 20.9931C59.3358 20.7344 59.2869 20.4559 59.2986 20.1765C59.3958 18.7274 61.0816 18.2473 61.9187 17.1571Z" fill="#2F2E41"/>
<path d="M74.2515 24.1507C78.3391 24.1507 81.6528 20.8325 81.6528 16.7393C81.6528 12.6461 78.3391 9.32788 74.2515 9.32788C70.1638 9.32788 66.8501 12.6461 66.8501 16.7393C66.8501 20.8325 70.1638 24.1507 74.2515 24.1507Z" fill="#FFB6B6"/>
<path d="M78.7211 15.3578L69.0377 13.01C68.6205 12.911 68.2584 12.6528 68.0285 12.2904C67.7986 11.928 67.7191 11.4901 67.8068 11.0698C68.0091 10.1514 68.3902 9.28201 68.9285 8.51131C69.4668 7.74062 70.1515 7.0838 70.9436 6.57845C71.7357 6.0731 72.6196 5.72916 73.5446 5.5663C74.4696 5.40344 75.4176 5.42486 76.3343 5.62935L79.2019 6.27244C80.1245 6.47933 80.9973 6.86615 81.7706 7.41082C82.5439 7.95549 83.2024 8.64735 83.7087 9.44688C84.2149 10.2464 84.559 11.138 84.7212 12.0706C84.8833 13.0033 84.8604 13.9588 84.6538 14.8826L84.5935 14.9075C82.7869 15.6565 80.793 15.8272 78.8855 15.3962C78.8308 15.3839 78.7758 15.3711 78.7211 15.3578Z" fill="#2F2E41"/>
<path d="M69.1452 22.6031L67.3432 18.9185C67.1344 18.5842 67.0376 18.192 67.0668 17.7988C67.1391 17.414 67.5898 17.0858 67.9254 17.2867C68.2369 17.4732 71.2623 13.0457 71.6162 13.1261C71.983 13.2094 72.2124 12.7463 72.2993 12.3798C72.6283 10.9911 71.1634 12.233 71.0897 10.8076C71.016 9.38225 69.3011 10.209 68.1795 9.32827C67.0579 8.44754 65.291 8.33709 64.2563 9.31875C63.4891 10.0466 63.2615 11.1648 63.1075 12.2117C62.7503 14.6413 62.5787 17.0946 62.5942 19.5503C62.5981 20.1535 62.6514 20.8386 63.1213 21.2161C63.3861 21.3965 63.6887 21.5135 64.0059 21.5582L67.8602 22.4027" fill="#2F2E41"/>
<path d="M66.9462 7.91657C68.9607 7.91657 70.5937 6.28134 70.5937 4.26419C70.5937 2.24704 68.9607 0.611816 66.9462 0.611816C64.9318 0.611816 63.2988 2.24704 63.2988 4.26419C63.2988 6.28134 64.9318 7.91657 66.9462 7.91657Z" fill="#2F2E41"/>
<path d="M126.137 53.1307V85.6434C126.138 86.0578 126.302 86.455 126.595 86.748C126.887 87.041 127.284 87.2057 127.698 87.2061H175.813C176.227 87.2057 176.623 87.041 176.916 86.748C177.209 86.455 177.373 86.0578 177.373 85.6434V53.1307C177.372 52.7167 177.208 52.32 176.915 52.0275C176.623 51.7349 176.226 51.5704 175.813 51.5698H127.698C127.284 51.5704 126.888 51.7349 126.595 52.0275C126.303 52.32 126.138 52.7167 126.137 53.1307Z" fill="#3F3D56"/>
<path d="M127.266 53.5354V85.2425C127.266 85.4638 127.354 85.676 127.511 85.8326C127.667 85.9891 127.879 86.0772 128.1 86.0776H175.413C175.634 86.0772 175.845 85.9891 176.002 85.8326C176.158 85.676 176.246 85.4638 176.247 85.2425V53.5354C176.246 53.3137 176.159 53.1011 176.002 52.9442C175.846 52.7873 175.634 52.699 175.413 52.6985H128.1C127.879 52.699 127.667 52.7873 127.51 52.9442C127.354 53.1011 127.266 53.3137 127.266 53.5354Z" fill="#439AD8"/>
<path d="M125.131 91.9844C125.219 92.095 125.331 92.1843 125.459 92.2454C125.586 92.3065 125.726 92.3378 125.867 92.3371H177.387C177.528 92.3369 177.667 92.3053 177.795 92.2446C177.922 92.1838 178.034 92.0954 178.123 91.9858C178.211 91.8763 178.275 91.7482 178.308 91.6111C178.341 91.474 178.343 91.3312 178.314 91.1931L177.514 87.3892C177.481 87.234 177.41 87.0897 177.307 86.9692C177.204 86.8488 177.072 86.7561 176.924 86.6995C176.817 86.6574 176.703 86.6359 176.588 86.636H126.664C126.549 86.6359 126.435 86.6574 126.328 86.6995C126.18 86.756 126.048 86.8488 125.945 86.9692C125.842 87.0896 125.77 87.234 125.737 87.3892L124.938 91.1931C124.909 91.3311 124.912 91.4737 124.945 91.6106C124.979 91.7475 125.042 91.8752 125.131 91.9844Z" fill="#2F2E41"/>
<path d="M174.82 88.2744H176.037C176.139 88.2744 176.222 88.1915 176.222 88.0892V87.5062C176.222 87.404 176.139 87.321 176.037 87.321H174.82C174.718 87.321 174.635 87.404 174.635 87.5062V88.0892C174.635 88.1915 174.718 88.2744 174.82 88.2744Z" fill="#3F3D56"/>
<path d="M171.647 88.2744H172.863C172.966 88.2744 173.048 88.1915 173.048 88.0892V87.5062C173.048 87.404 172.966 87.321 172.863 87.321H171.647C171.544 87.321 171.462 87.404 171.462 87.5062V88.0892C171.462 88.1915 171.544 88.2744 171.647 88.2744Z" fill="#3F3D56"/>
<path d="M168.473 88.2744H169.69C169.792 88.2744 169.875 88.1915 169.875 88.0892V87.5062C169.875 87.404 169.792 87.321 169.69 87.321H168.473C168.371 87.321 168.288 87.404 168.288 87.5062V88.0892C168.288 88.1915 168.371 88.2744 168.473 88.2744Z" fill="#3F3D56"/>
<path d="M165.299 88.2744H166.516C166.618 88.2744 166.701 88.1915 166.701 88.0892V87.5062C166.701 87.404 166.618 87.321 166.516 87.321H165.299C165.197 87.321 165.114 87.404 165.114 87.5062V88.0892C165.114 88.1915 165.197 88.2744 165.299 88.2744Z" fill="#3F3D56"/>
<path d="M162.125 88.2744H163.342C163.445 88.2744 163.527 88.1915 163.527 88.0892V87.5062C163.527 87.404 163.445 87.321 163.342 87.321H162.125C162.023 87.321 161.941 87.404 161.941 87.5062V88.0892C161.941 88.1915 162.023 88.2744 162.125 88.2744Z" fill="#3F3D56"/>
<path d="M158.952 88.2744H160.169C160.271 88.2744 160.354 88.1915 160.354 88.0892V87.5062C160.354 87.404 160.271 87.321 160.169 87.321H158.952C158.85 87.321 158.767 87.404 158.767 87.5062V88.0892C158.767 88.1915 158.85 88.2744 158.952 88.2744Z" fill="#3F3D56"/>
<path d="M155.778 88.2744H156.995C157.097 88.2744 157.18 88.1915 157.18 88.0892V87.5062C157.18 87.404 157.097 87.321 156.995 87.321H155.778C155.676 87.321 155.593 87.404 155.593 87.5062V88.0892C155.593 88.1915 155.676 88.2744 155.778 88.2744Z" fill="#3F3D56"/>
<path d="M152.605 88.2744H153.822C153.924 88.2744 154.007 88.1915 154.007 88.0892V87.5062C154.007 87.404 153.924 87.321 153.822 87.321H152.605C152.503 87.321 152.42 87.404 152.42 87.5062V88.0892C152.42 88.1915 152.503 88.2744 152.605 88.2744Z" fill="#3F3D56"/>
<path d="M149.431 88.2744H150.648C150.75 88.2744 150.833 88.1915 150.833 88.0892V87.5062C150.833 87.404 150.75 87.321 150.648 87.321H149.431C149.329 87.321 149.246 87.404 149.246 87.5062V88.0892C149.246 88.1915 149.329 88.2744 149.431 88.2744Z" fill="#3F3D56"/>
<path d="M146.258 88.2744H147.475C147.577 88.2744 147.66 88.1915 147.66 88.0892V87.5062C147.66 87.404 147.577 87.321 147.475 87.321H146.258C146.156 87.321 146.073 87.404 146.073 87.5062V88.0892C146.073 88.1915 146.156 88.2744 146.258 88.2744Z" fill="#3F3D56"/>
<path d="M143.084 88.2744H144.301C144.403 88.2744 144.486 88.1915 144.486 88.0892V87.5062C144.486 87.404 144.403 87.321 144.301 87.321H143.084C142.982 87.321 142.899 87.404 142.899 87.5062V88.0892C142.899 88.1915 142.982 88.2744 143.084 88.2744Z" fill="#3F3D56"/>
<path d="M139.911 88.2744H141.128C141.23 88.2744 141.312 88.1915 141.312 88.0892V87.5062C141.312 87.404 141.23 87.321 141.128 87.321H139.911C139.809 87.321 139.726 87.404 139.726 87.5062V88.0892C139.726 88.1915 139.809 88.2744 139.911 88.2744Z" fill="#3F3D56"/>
<path d="M136.737 88.2744H137.954C138.056 88.2744 138.139 88.1915 138.139 88.0892V87.5062C138.139 87.404 138.056 87.321 137.954 87.321H136.737C136.635 87.321 136.552 87.404 136.552 87.5062V88.0892C136.552 88.1915 136.635 88.2744 136.737 88.2744Z" fill="#3F3D56"/>
<path d="M133.563 88.2744H134.78C134.883 88.2744 134.965 88.1915 134.965 88.0892V87.5062C134.965 87.404 134.883 87.321 134.78 87.321H133.563C133.461 87.321 133.379 87.404 133.379 87.5062V88.0892C133.379 88.1915 133.461 88.2744 133.563 88.2744Z" fill="#3F3D56"/>
<path d="M130.39 88.2744H131.607C131.709 88.2744 131.792 88.1915 131.792 88.0892V87.5062C131.792 87.404 131.709 87.321 131.607 87.321H130.39C130.288 87.321 130.205 87.404 130.205 87.5062V88.0892C130.205 88.1915 130.288 88.2744 130.39 88.2744Z" fill="#3F3D56"/>
<path d="M127.216 88.2744H128.433C128.535 88.2744 128.618 88.1915 128.618 88.0892V87.5062C128.618 87.404 128.535 87.321 128.433 87.321H127.216C127.114 87.321 127.031 87.404 127.031 87.5062V88.0892C127.031 88.1915 127.114 88.2744 127.216 88.2744Z" fill="#3F3D56"/>
<path d="M174.857 89.8633H176.074C176.176 89.8633 176.259 89.7804 176.259 89.6781V89.0951C176.259 88.9929 176.176 88.9099 176.074 88.9099H174.857C174.755 88.9099 174.672 88.9929 174.672 89.0951V89.6781C174.672 89.7804 174.755 89.8633 174.857 89.8633Z" fill="#3F3D56"/>
<path d="M171.684 89.8633H172.901C173.003 89.8633 173.086 89.7804 173.086 89.6781V89.0951C173.086 88.9929 173.003 88.9099 172.901 88.9099H171.684C171.582 88.9099 171.499 88.9929 171.499 89.0951V89.6781C171.499 89.7804 171.582 89.8633 171.684 89.8633Z" fill="#3F3D56"/>
<path d="M168.51 89.8633H169.727C169.829 89.8633 169.912 89.7804 169.912 89.6781V89.0951C169.912 88.9929 169.829 88.9099 169.727 88.9099H168.51C168.408 88.9099 168.325 88.9929 168.325 89.0951V89.6781C168.325 89.7804 168.408 89.8633 168.51 89.8633Z" fill="#3F3D56"/>
<path d="M165.336 89.8633H166.553C166.655 89.8633 166.738 89.7804 166.738 89.6781V89.0951C166.738 88.9929 166.655 88.9099 166.553 88.9099H165.336C165.234 88.9099 165.151 88.9929 165.151 89.0951V89.6781C165.151 89.7804 165.234 89.8633 165.336 89.8633Z" fill="#3F3D56"/>
<path d="M162.163 89.8633H163.38C163.482 89.8633 163.565 89.7804 163.565 89.6781V89.0951C163.565 88.9929 163.482 88.9099 163.38 88.9099H162.163C162.061 88.9099 161.978 88.9929 161.978 89.0951V89.6781C161.978 89.7804 162.061 89.8633 162.163 89.8633Z" fill="#3F3D56"/>
<path d="M158.99 89.8633H160.207C160.309 89.8633 160.392 89.7804 160.392 89.6781V89.0951C160.392 88.9929 160.309 88.9099 160.207 88.9099H158.99C158.888 88.9099 158.805 88.9929 158.805 89.0951V89.6781C158.805 89.7804 158.888 89.8633 158.99 89.8633Z" fill="#3F3D56"/>
<path d="M155.816 89.8633H157.033C157.135 89.8633 157.218 89.7804 157.218 89.6781V89.0951C157.218 88.9929 157.135 88.9099 157.033 88.9099H155.816C155.714 88.9099 155.631 88.9929 155.631 89.0951V89.6781C155.631 89.7804 155.714 89.8633 155.816 89.8633Z" fill="#3F3D56"/>
<path d="M152.642 89.8633H153.859C153.961 89.8633 154.044 89.7804 154.044 89.6781V89.0951C154.044 88.9929 153.961 88.9099 153.859 88.9099H152.642C152.54 88.9099 152.457 88.9929 152.457 89.0951V89.6781C152.457 89.7804 152.54 89.8633 152.642 89.8633Z" fill="#3F3D56"/>
<path d="M149.469 89.8633H150.686C150.788 89.8633 150.871 89.7804 150.871 89.6781V89.0951C150.871 88.9929 150.788 88.9099 150.686 88.9099H149.469C149.367 88.9099 149.284 88.9929 149.284 89.0951V89.6781C149.284 89.7804 149.367 89.8633 149.469 89.8633Z" fill="#3F3D56"/>
<path d="M146.295 89.8633H147.512C147.614 89.8633 147.697 89.7804 147.697 89.6781V89.0951C147.697 88.9929 147.614 88.9099 147.512 88.9099H146.295C146.193 88.9099 146.11 88.9929 146.11 89.0951V89.6781C146.11 89.7804 146.193 89.8633 146.295 89.8633Z" fill="#3F3D56"/>
<path d="M143.122 89.8633H144.338C144.441 89.8633 144.523 89.7804 144.523 89.6781V89.0951C144.523 88.9929 144.441 88.9099 144.338 88.9099H143.122C143.019 88.9099 142.937 88.9929 142.937 89.0951V89.6781C142.937 89.7804 143.019 89.8633 143.122 89.8633Z" fill="#3F3D56"/>
<path d="M139.948 89.8633H141.165C141.267 89.8633 141.35 89.7804 141.35 89.6781V89.0951C141.35 88.9929 141.267 88.9099 141.165 88.9099H139.948C139.846 88.9099 139.763 88.9929 139.763 89.0951V89.6781C139.763 89.7804 139.846 89.8633 139.948 89.8633Z" fill="#3F3D56"/>
<path d="M136.774 89.8633H137.991C138.093 89.8633 138.176 89.7804 138.176 89.6781V89.0951C138.176 88.9929 138.093 88.9099 137.991 88.9099H136.774C136.672 88.9099 136.589 88.9929 136.589 89.0951V89.6781C136.589 89.7804 136.672 89.8633 136.774 89.8633Z" fill="#3F3D56"/>
<path d="M133.601 89.8633H134.818C134.92 89.8633 135.002 89.7804 135.002 89.6781V89.0951C135.002 88.9929 134.92 88.9099 134.818 88.9099H133.601C133.498 88.9099 133.416 88.9929 133.416 89.0951V89.6781C133.416 89.7804 133.498 89.8633 133.601 89.8633Z" fill="#3F3D56"/>
<path d="M130.427 89.8633H131.644C131.746 89.8633 131.829 89.7804 131.829 89.6781V89.0951C131.829 88.9929 131.746 88.9099 131.644 88.9099H130.427C130.325 88.9099 130.242 88.9929 130.242 89.0951V89.6781C130.242 89.7804 130.325 89.8633 130.427 89.8633Z" fill="#3F3D56"/>
<path d="M127.253 89.8633H128.47C128.572 89.8633 128.655 89.7804 128.655 89.6781V89.0951C128.655 88.9929 128.572 88.9099 128.47 88.9099H127.253C127.151 88.9099 127.068 88.9929 127.068 89.0951V89.6781C127.068 89.7804 127.151 89.8633 127.253 89.8633Z" fill="#3F3D56"/>
<path d="M148.516 91.77H160.841C160.943 91.77 161.026 91.6871 161.026 91.5848V91.0019C161.026 90.8996 160.943 90.8167 160.841 90.8167H148.516C148.414 90.8167 148.332 90.8996 148.332 91.0019V91.5848C148.332 91.6871 148.414 91.77 148.516 91.77Z" fill="#3F3D56"/>
<path d="M151.856 81.194C158.133 81.194 163.222 76.0986 163.222 69.8132C163.222 63.5277 158.133 58.4324 151.856 58.4324C145.579 58.4324 140.491 63.5277 140.491 69.8132C140.491 76.0986 145.579 81.194 151.856 81.194Z" fill="white"/>
<path d="M149.304 74.3271C149.156 74.3305 149.009 74.2962 148.878 74.2275C148.737 74.1562 148.618 74.0479 148.535 73.9141C148.451 73.7804 148.405 73.6263 148.402 73.4685L148.215 66.2032C148.211 66.0457 148.249 65.89 148.326 65.7523C148.403 65.6147 148.515 65.5001 148.651 65.4207C148.787 65.3413 148.941 65.2999 149.099 65.3008C149.256 65.3017 149.41 65.345 149.545 65.426L156.521 68.8808C156.648 68.9569 156.754 69.0639 156.828 69.1919C156.903 69.3198 156.944 69.4645 156.948 69.6126C156.952 69.7606 156.918 69.9073 156.85 70.0389C156.782 70.1705 156.682 70.2828 156.56 70.3655L149.771 74.176C149.633 74.2699 149.471 74.3223 149.304 74.3271Z" fill="#439AD8"/>
<path d="M194.168 119.665L190.546 118.048L195.06 102.949L200.405 105.336L194.168 119.665Z" fill="#FFB8B8"/>
<path d="M195.245 117.19L191.327 115.437L190.712 115.161L189.807 117.57L183.08 119.242C182.747 119.324 182.45 119.511 182.231 119.775C182.012 120.038 181.882 120.366 181.862 120.708C181.842 121.05 181.932 121.391 182.118 121.678C182.305 121.966 182.578 122.187 182.899 122.308L189.582 124.833L191.63 122.885L191.183 125.437L193.7 126.389L196.198 117.618L195.245 117.19Z" fill="#2F2E41"/>
<path d="M200.815 65.8153C201.269 66.1286 201.785 66.3385 202.329 66.4301C202.872 66.5218 203.429 66.4931 203.96 66.346C204.491 66.1989 204.983 65.937 205.402 65.5788C205.821 65.2206 206.157 64.7747 206.385 64.2726L219.719 65.5215L216.446 59.3716L204.285 59.1284C203.417 58.8003 202.459 58.8023 201.593 59.1341C200.727 59.4659 200.012 60.1044 199.584 60.9286C199.156 61.7529 199.045 62.7056 199.272 63.6062C199.499 64.5069 200.048 65.2929 200.815 65.8153L200.815 65.8153Z" fill="#FFB6B6"/>
<path d="M214.336 65.3944L232.789 67.466L232.853 67.3845C232.974 67.2287 245.048 51.7523 247.077 48.0682C248.325 45.8548 248.78 43.2804 248.365 40.7727L248.351 40.7113L248.303 40.6707C247.32 39.8452 246.084 39.38 244.801 39.3518C243.518 39.3236 242.264 39.7342 241.245 40.5157C236.346 44.3152 232.395 49.2029 229.706 54.793L228.18 57.9746L214.336 59.3418V65.3944Z" fill="#439AD8"/>
<path d="M255.711 75.0224L256.244 76.2269C256.41 77.3353 257.056 76.2326 257 77.1726C259.745 79.4372 252.22 94.5739 246.565 93.9578C243.943 94.7824 240.853 95.1191 237.623 95.1418C237.309 95.1445 236.994 95.1441 236.678 95.1406C236.477 95.1384 235.858 94.3894 235.655 94.3849C235.048 94.3713 234.854 95.0931 234.242 95.0605C233.758 95.035 232.867 95.4479 232.79 94.9682C232.622 93.9347 232.309 94.169 231.94 94.9002C231.684 95.4072 230.811 94.7967 230.25 94.7363C227.012 94.3875 223.878 93.8564 221.169 93.3109C220.16 93.1104 219.212 92.9061 218.34 92.7075C216.687 92.3349 215.304 91.9869 214.303 91.7221C213.175 91.427 212.533 91.236 212.533 91.236L204.489 97.7895L198.255 111.408C197.776 111.451 192.589 110.084 192.589 110.084C192.036 109.579 191.646 108.92 191.471 108.191C191.296 107.463 191.343 106.698 191.606 105.997C191.923 105.045 194.171 98.0111 196.523 91.8696C197.22 90.0462 197.941 88.1964 198.684 86.356C199.292 84.8447 199.912 83.3391 200.539 81.8544C201.629 79.2801 206.895 77.8918 213.096 77.1636C213.411 77.1276 213.729 77.0917 214.048 77.0576C217.208 76.7247 220.561 76.5526 223.696 76.4732C225.266 76.4335 226.781 76.4183 228.19 76.4164C228.645 76.4164 229.088 76.4177 229.518 76.4202H229.52C230.682 76.4259 231.751 76.4429 232.691 76.4618C232.875 76.4656 233.052 76.4713 233.226 76.4751H233.228C233.345 76.477 233.46 76.4808 233.573 76.4826C235.63 76.5356 236.892 76.5999 236.892 76.5999L236.789 73.0115L237.482 71.981L237.576 71.2433V71.2414L237.587 71.1487L237.665 71.1469L239.025 71.1204L250.456 70.8972L255.325 70.6906L255.711 75.0224Z" fill="#2F2E41"/>
<path d="M238.328 99.6587L237.066 103.423L221.626 100.36L223.49 94.8044L238.328 99.6587Z" fill="#FFB8B8"/>
<path d="M235.766 98.8203L234.395 102.893L234.18 103.532L236.661 104.206L238.963 110.752C239.076 111.076 239.29 111.355 239.573 111.548C239.856 111.741 240.194 111.839 240.536 111.826C240.878 111.814 241.208 111.692 241.476 111.479C241.745 111.266 241.938 110.972 242.028 110.641L243.902 103.739L241.771 101.882L244.351 102.085L245.057 99.4855L236.1 97.8303L235.766 98.8203Z" fill="#2F2E41"/>
<path d="M228.294 95.5792C228.119 96.0735 228.636 95.3936 228.449 95.8836C227.729 97.7828 226.391 101.019 226.129 101.541C226.026 101.521 206.612 98.8164 203.994 98.0538L208.03 87.8047L208.484 86.6556L215.171 89.043L217.461 91.0044L222.462 91.6461L228.294 95.5792Z" fill="#2F2E41"/>
<path d="M240.861 29.7696C245.934 29.7696 250.046 25.6518 250.046 20.5723C250.046 15.4928 245.934 11.375 240.861 11.375C235.788 11.375 231.676 15.4928 231.676 20.5723C231.676 25.6518 235.788 29.7696 240.861 29.7696Z" fill="#FFB6B6"/>
<path d="M206.035 69.511C206.71 69.9353 205.39 70.9558 204.593 70.9558C204.21 70.9558 203.843 70.8036 203.572 70.5326C203.302 70.2617 203.15 69.8942 203.15 69.511C203.15 68.7131 204.044 66.8171 204.412 67.5245C204.513 67.7177 205.155 68.9575 206.035 69.511Z" fill="#439AD8"/>
<path d="M208.38 69.511C209.055 69.9353 207.734 70.9558 206.937 70.9558C206.554 70.9558 206.187 70.8036 205.917 70.5326C205.646 70.2617 205.494 69.8942 205.494 69.511C205.494 68.7131 206.388 66.8171 206.757 67.5245C206.857 67.7177 207.499 68.9575 208.38 69.511Z" fill="#439AD8"/>
<path d="M207.259 69.1868C206.496 68.9579 207.497 67.6219 208.265 67.4094C208.634 67.3073 209.028 67.3561 209.361 67.5451C209.694 67.7341 209.938 68.0477 210.04 68.417C210.253 69.1861 209.895 71.2521 209.352 70.6685C209.204 70.5092 208.255 69.4855 207.259 69.1868Z" fill="#439AD8"/>
<path d="M216.315 69.511C216.99 69.9353 215.669 70.9558 214.872 70.9558C214.49 70.9558 214.123 70.8036 213.852 70.5326C213.582 70.2617 213.43 69.8942 213.43 69.511C213.43 68.7131 214.324 66.8171 214.692 67.5245C214.793 67.7177 215.435 68.9575 216.315 69.511Z" fill="#439AD8"/>
<path d="M218.659 69.511C219.334 69.9353 218.014 70.9558 217.217 70.9558C216.834 70.9558 216.467 70.8036 216.196 70.5326C215.926 70.2617 215.774 69.8942 215.774 69.511C215.774 68.7131 216.668 66.8171 217.036 67.5245C217.137 67.7177 217.779 68.9575 218.659 69.511Z" fill="#439AD8"/>
<path d="M217.539 69.1868C216.776 68.9579 217.777 67.6219 218.545 67.4094C218.914 67.3073 219.308 67.3561 219.641 67.5451C219.974 67.7341 220.218 68.0477 220.32 68.417C220.532 69.1861 220.175 71.2521 219.632 70.6685C219.484 70.5092 218.535 69.4855 217.539 69.1868Z" fill="#439AD8"/>
<path d="M200.947 69.1868C200.184 68.9579 201.185 67.6219 201.953 67.4094C202.322 67.3073 202.716 67.3561 203.049 67.5451C203.382 67.7341 203.626 68.0477 203.728 68.417C203.941 69.1861 203.583 71.2521 203.04 70.6685C202.892 70.5092 201.943 69.4855 200.947 69.1868Z" fill="#439AD8"/>
<path d="M211.207 70.7309C210.884 71.4604 209.687 70.2976 209.572 69.5079C209.545 69.3201 209.555 69.1288 209.602 68.945C209.649 68.7611 209.731 68.5882 209.845 68.4363C209.958 68.2843 210.1 68.1561 210.263 68.0592C210.426 67.9622 210.606 67.8984 210.794 67.8712C211.582 67.7569 213.584 68.3714 212.938 68.8379C212.761 68.9652 211.628 69.7789 211.207 70.7309Z" fill="#439AD8"/>
<path d="M213.973 68.3115C214.165 67.5371 215.546 68.4756 215.794 69.2338C215.853 69.4141 215.876 69.6042 215.862 69.7934C215.847 69.9826 215.796 70.1671 215.711 70.3364C215.625 70.5057 215.507 70.6564 215.363 70.7801C215.22 70.9037 215.053 70.9978 214.873 71.0569C214.116 71.3057 212.038 71.0463 212.594 70.4751C212.746 70.3192 213.723 69.3219 213.973 68.3115Z" fill="#439AD8"/>
<path d="M212.891 67.2279C213.083 66.4535 214.464 67.392 214.712 68.1502C214.771 68.3304 214.794 68.5206 214.78 68.7098C214.765 68.8989 214.714 69.0835 214.629 69.2528C214.543 69.4221 214.425 69.5728 214.281 69.6964C214.138 69.8201 213.971 69.9142 213.791 69.9733C213.034 70.2221 210.956 69.9626 211.512 69.3915C211.664 69.2355 212.641 68.2383 212.891 67.2279Z" fill="#439AD8"/>
<path d="M206.18 63.8162C205.857 64.5458 204.659 63.3829 204.545 62.5932C204.518 62.4055 204.528 62.2142 204.575 62.0303C204.621 61.8464 204.704 61.6736 204.817 61.5216C204.931 61.3696 205.073 61.2415 205.236 61.1445C205.399 61.0476 205.579 60.9837 205.766 60.9565C206.555 60.8423 208.557 61.4567 207.911 61.9232C207.734 62.0506 206.601 62.8642 206.18 63.8162Z" fill="#439AD8"/>
<path d="M199.169 74.4709L200.864 80.0045C201.041 80.9629 201.549 81.8288 202.297 82.452C203.046 83.0753 203.988 83.4165 204.962 83.4167H216.953C217.942 83.4196 218.899 83.0693 219.653 82.4288C220.407 81.7883 220.908 80.8995 221.066 79.9223L221.07 79.9041L222.571 74.3952C222.662 73.8378 222.63 73.2673 222.479 72.7233C222.327 72.1793 222.059 71.6748 221.694 71.2446C221.329 70.8144 220.874 70.4689 220.362 70.232C219.85 69.995 219.293 69.8723 218.729 69.8723H202.998C202.427 69.8723 201.864 69.9978 201.347 70.2401C200.831 70.4823 200.373 70.8352 200.008 71.274C199.643 71.7127 199.378 72.2265 199.233 72.7789C199.088 73.3314 199.066 73.909 199.169 74.4709Z" fill="#E6E6E6"/>
<path d="M238.425 32.4977C238.425 32.4977 245.05 31.6397 247.068 32.4481C247.787 32.7357 248.505 35.3771 249.851 36.1638C249.876 36.178 249.9 36.1921 249.924 36.206C251.181 36.9209 252.216 37.968 252.918 39.2329C253.62 40.4977 253.961 41.9315 253.903 43.3773C253.577 49.8826 254.076 56.4031 255.388 62.7827C255.483 63.2554 255.584 63.7341 255.69 64.2188C255.814 64.7883 255.946 65.3668 256.085 65.9543C256.344 67.0503 256.63 68.1807 256.944 69.3455C257.107 69.9521 256.145 71.5145 256.324 72.1421C256.444 72.5635 256.567 72.9898 256.695 73.4211C257.077 74.7162 258.626 75.1114 259.077 76.5035C259.083 76.9487 258.974 77.3878 258.761 77.7787C258.548 78.1697 258.239 78.4994 257.863 78.7363C257.486 78.9732 257.055 79.1094 256.611 79.1318C256.167 79.1543 255.725 79.0622 255.327 78.8644L231.916 77.0365L234.144 73.5788L232.633 71.4982L233.766 70.7416L234.333 68.661L232.541 61.6527L229.975 55.7615C229.089 53.7295 228.971 51.445 229.64 49.3319C230.31 47.2189 231.722 45.4208 233.615 44.2716L236.555 36.4734L238.425 32.4977Z" fill="#439AD8"/>
<path d="M221.374 80.5391C221.545 80.0145 221.828 79.5335 222.204 79.1303C222.58 78.727 223.04 78.4112 223.551 78.2051C224.062 77.999 224.612 77.9076 225.162 77.9373C225.712 77.9671 226.249 78.1173 226.735 78.3773L236.571 69.2753L237.7 76.1519L228.187 83.7411C227.696 84.5296 226.934 85.1106 226.045 85.3739C225.155 85.6373 224.2 85.5647 223.36 85.1701C222.521 84.7754 221.855 84.086 221.489 83.2325C221.123 82.379 221.082 81.4206 221.374 80.5391H221.374Z" fill="#FFB6B6"/>
<path d="M236.963 77.2005L251.333 66.5805L251.381 66.5811C251.365 66.384 249.719 46.8141 248.707 42.7309C248.121 40.2578 246.707 38.0599 244.701 36.5022L244.649 36.4667L244.587 36.4695C243.305 36.5333 242.083 37.0327 241.122 37.8852C240.162 38.7377 239.52 39.8925 239.303 41.1591C238.288 47.2803 238.707 53.5541 240.528 59.4852L241.567 62.8578L235.089 68.7277L236.963 77.2005Z" fill="#439AD8"/>
<path d="M270.338 34.106C269.278 35.61 267.731 36.7007 265.96 37.1928C265.251 37.4041 264.519 37.5286 263.78 37.5635C263.689 36.7269 263.47 35.9092 263.132 35.1387C263.167 35.9588 263.053 36.7783 262.796 37.5579C261.687 37.4949 260.602 37.2039 259.609 36.7029C258.635 36.2119 257.788 35.5002 257.136 34.6242C256.483 33.7483 256.044 32.7322 255.852 31.6565C255.463 29.1409 256.602 26.6707 257.014 24.1588C257.428 21.6469 256.651 18.4655 254.196 17.8054C252.326 17.3023 252.536 17.5198 250.981 18.6755C252.598 21.0697 246.625 29.8436 244.181 29.0785C242.799 28.6459 241.914 27.3762 241.629 27.3762C239.708 30.69 243.325 36.2736 239.68 37.433L239.98 37.1323C242.181 34.4218 237.581 28.6851 239.782 25.9746C240.396 25.2161 241.049 24.3177 240.868 23.3587C240.696 22.447 239.251 21.9647 238.828 22.7137C239.589 20.9679 238.465 18.6376 236.605 18.1894C234.952 17.7903 234.982 18.282 233.324 18.4958C233.215 17.7781 233.013 17.0779 232.721 16.4133C232.752 17.1294 232.668 17.8457 232.474 18.5355C231.888 18.524 231.322 18.3193 230.864 17.9529C229.512 16.8616 229.786 14.5691 230.993 13.3189C232.202 12.0686 233.998 11.6185 235.711 11.3272C236.209 7.8543 245.778 7.49203 247.046 10.9621C247.587 8.37082 250.826 7.02599 253.344 7.82986C255.862 8.63373 257.609 10.9886 258.529 13.4702C259.449 15.9499 259.706 18.6187 260.272 21.2025C260.839 23.7862 261.797 26.4172 263.769 28.1782C265.741 29.9372 268.954 30.5198 271.032 28.8856C271.334 29.7491 271.428 30.6717 271.308 31.5787C271.187 32.4857 270.855 33.3515 270.338 34.106Z" fill="#2F2E41"/>
<path d="M75.8016 26.6207C75.4777 27.3531 74.2755 26.1858 74.1609 25.3931C74.1059 25.0124 74.2042 24.6255 74.4341 24.3174C74.664 24.0093 75.0068 23.8052 75.3869 23.7501C76.1785 23.6355 78.1881 24.2523 77.5392 24.7205C77.362 24.8484 76.2243 25.6651 75.8016 26.6207Z" fill="#439AD8"/>
<path d="M76.417 30.3153L77.565 41.4724L82.9489 42.6548C82.9489 42.6548 80.011 29.6738 79.8488 29.2861C80.133 28.8218 80.2696 28.282 80.2407 27.7382C80.2119 27.1944 80.0188 26.6721 79.687 26.2406C79.3553 25.809 78.9006 25.4885 78.3829 25.3214C77.8653 25.1543 77.3092 25.1485 76.7883 25.3047C76.2673 25.4609 75.8059 25.7719 75.4653 26.1964C75.1246 26.6209 74.9207 27.1389 74.8804 27.682C74.8402 28.2251 74.9655 28.7677 75.2399 29.2379C75.5143 29.7081 75.9247 30.0838 76.417 30.3153Z" fill="#FFB6B6"/>
<path d="M62.9047 32.066C60.5488 32.7625 69.1843 50.1214 81.2372 52.7492C82.0564 52.4994 82.8146 52.0811 83.4632 51.5211C84.1119 50.9612 84.6367 50.2719 85.0041 49.4972C85.3715 48.7226 85.5735 47.8797 85.5971 47.0225C85.6207 46.1653 85.4654 45.3125 85.1412 44.5188L81.5905 36.2032L76.5037 38.8765L76.8023 42.8493L72.8106 38.3923L64.5889 34.6434L62.9047 32.066Z" fill="#3F3D56"/>
</g>
<defs>
<clipPath id="clip0_38_10809">
<rect width="320" height="125.778" fill="white" transform="translate(0 0.611084)"/>
</clipPath>
</defs>
</svg>
