<svg width="36" height="20" viewBox="0 0 36 20" fill="none" xmlns="http://www.w3.org/2000/svg">
<mask id="mask0_599_4118" style="mask-type:alpha" maskUnits="userSpaceOnUse" x="0" y="0" width="34" height="20">
<path d="M33.4449 0L0.355713 19.5V0H33.4449Z" fill="#C4C4C4"/>
</mask>
<g mask="url(#mask0_599_4118)">
<path d="M8.87231 11.4438H4.29468L4.27026 8.63623H7.9812C8.64852 8.63623 9.18156 8.56299 9.58032 8.4165C9.97909 8.26188 10.268 8.03809 10.447 7.74512C10.6342 7.45215 10.7278 7.08594 10.7278 6.64648C10.7278 6.14193 10.6342 5.73503 10.447 5.42578C10.2598 5.11654 9.96281 4.89274 9.55591 4.75439C9.15715 4.60791 8.64038 4.53467 8.00562 4.53467H5.90601V19H1.62134V1.22656H8.00562C9.10425 1.22656 10.0849 1.32829 10.9475 1.53174C11.8101 1.72705 12.5426 2.02816 13.1448 2.43506C13.7551 2.84196 14.219 3.35465 14.5364 3.97314C14.8538 4.5835 15.0125 5.30371 15.0125 6.13379C15.0125 6.85807 14.8578 7.5376 14.5486 8.17236C14.2393 8.80713 13.7226 9.32389 12.9983 9.72266C12.2821 10.1133 11.3015 10.3167 10.0564 10.333L8.87231 11.4438ZM8.70142 19H3.25708L4.72192 15.7041H8.70142C9.28735 15.7041 9.75529 15.6146 10.1052 15.4355C10.4633 15.2484 10.7196 15.0042 10.8743 14.7031C11.037 14.3939 11.1184 14.0521 11.1184 13.6777C11.1184 13.222 11.0411 12.8273 10.8865 12.4937C10.74 12.16 10.504 11.9036 10.1785 11.7246C9.85295 11.5374 9.41756 11.4438 8.87231 11.4438H5.27124L5.29565 8.63623H9.60474L10.6057 9.75928C11.7939 9.71045 12.7338 9.87728 13.4255 10.2598C14.1254 10.6423 14.6259 11.1468 14.927 11.7734C15.2281 12.4001 15.3787 13.0552 15.3787 13.7388C15.3787 14.9025 15.1264 15.875 14.6218 16.6562C14.1254 17.4375 13.3808 18.0234 12.3879 18.4141C11.3951 18.8047 10.1663 19 8.70142 19ZM18.467 1.22656H24.3508C25.6855 1.22656 26.8126 1.43001 27.7322 1.83691C28.6599 2.24382 29.3639 2.84603 29.844 3.64355C30.3323 4.43294 30.5764 5.40544 30.5764 6.56104C30.5764 7.37484 30.4096 8.11947 30.0759 8.79492C29.7504 9.46224 29.2784 10.0319 28.6599 10.5039C28.0496 10.9678 27.3171 11.3136 26.4626 11.5415L25.8035 11.7979H20.2737L20.2493 9.88135H24.4241C25.2704 9.88135 25.9744 9.73486 26.5359 9.44189C27.0974 9.14079 27.5206 8.73796 27.8054 8.2334C28.0903 7.72884 28.2327 7.17139 28.2327 6.56104C28.2327 5.87744 28.0984 5.2793 27.8298 4.7666C27.5613 4.25391 27.1381 3.85921 26.5603 3.58252C25.9906 3.29769 25.2542 3.15527 24.3508 3.15527H20.823V19H18.467V1.22656ZM28.8552 19L24.5339 10.9434L26.9875 10.9312L31.3699 18.8535V19H28.8552Z" fill="url(#paint0_linear_599_4118)"/>
</g>
<mask id="mask1_599_4118" style="mask-type:alpha" maskUnits="userSpaceOnUse" x="2" y="0" width="34" height="20">
<path d="M35.4449 0L2.35571 19.5H35.4655L35.4449 0Z" fill="#C4C4C4"/>
</mask>
<g mask="url(#mask1_599_4118)">
<path d="M10.8723 11.4438H6.29468L6.27026 8.63623H9.9812C10.6485 8.63623 11.1816 8.56299 11.5803 8.4165C11.9791 8.26188 12.268 8.03809 12.447 7.74512C12.6342 7.45215 12.7278 7.08594 12.7278 6.64648C12.7278 6.14193 12.6342 5.73503 12.447 5.42578C12.2598 5.11654 11.9628 4.89274 11.5559 4.75439C11.1571 4.60791 10.6404 4.53467 10.0056 4.53467H7.90601V19H3.62134V1.22656H10.0056C11.1042 1.22656 12.0849 1.32829 12.9475 1.53174C13.8101 1.72705 14.5426 2.02816 15.1448 2.43506C15.7551 2.84196 16.219 3.35465 16.5364 3.97314C16.8538 4.5835 17.0125 5.30371 17.0125 6.13379C17.0125 6.85807 16.8578 7.5376 16.5486 8.17236C16.2393 8.80713 15.7226 9.32389 14.9983 9.72266C14.2821 10.1133 13.3015 10.3167 12.0564 10.333L10.8723 11.4438ZM10.7014 19H5.25708L6.72192 15.7041H10.7014C11.2874 15.7041 11.7553 15.6146 12.1052 15.4355C12.4633 15.2484 12.7196 15.0042 12.8743 14.7031C13.037 14.3939 13.1184 14.0521 13.1184 13.6777C13.1184 13.222 13.0411 12.8273 12.8865 12.4937C12.74 12.16 12.504 11.9036 12.1785 11.7246C11.8529 11.5374 11.4176 11.4438 10.8723 11.4438H7.27124L7.29565 8.63623H11.6047L12.6057 9.75928C13.7939 9.71045 14.7338 9.87728 15.4255 10.2598C16.1254 10.6423 16.6259 11.1468 16.927 11.7734C17.2281 12.4001 17.3787 13.0552 17.3787 13.7388C17.3787 14.9025 17.1264 15.875 16.6218 16.6562C16.1254 17.4375 15.3808 18.0234 14.3879 18.4141C13.3951 18.8047 12.1663 19 10.7014 19ZM20.467 1.22656H26.3508C27.6855 1.22656 28.8126 1.43001 29.7322 1.83691C30.6599 2.24382 31.3639 2.84603 31.844 3.64355C32.3323 4.43294 32.5764 5.40544 32.5764 6.56104C32.5764 7.37484 32.4096 8.11947 32.0759 8.79492C31.7504 9.46224 31.2784 10.0319 30.6599 10.5039C30.0496 10.9678 29.3171 11.3136 28.4626 11.5415L27.8035 11.7979H22.2737L22.2493 9.88135H26.4241C27.2704 9.88135 27.9744 9.73486 28.5359 9.44189C29.0974 9.14079 29.5206 8.73796 29.8054 8.2334C30.0903 7.72884 30.2327 7.17139 30.2327 6.56104C30.2327 5.87744 30.0984 5.2793 29.8298 4.7666C29.5613 4.25391 29.1381 3.85921 28.5603 3.58252C27.9906 3.29769 27.2542 3.15527 26.3508 3.15527H22.823V19H20.467V1.22656ZM30.8552 19L26.5339 10.9434L28.9875 10.9312L33.3699 18.8535V19H30.8552Z" fill="url(#paint1_linear_599_4118)"/>
</g>
<defs>
<linearGradient id="paint0_linear_599_4118" x1="16.2664" y1="-4" x2="16.2664" y2="25" gradientUnits="userSpaceOnUse">
<stop stop-color="#07387B"/>
<stop offset="1" stop-color="#050B2F"/>
</linearGradient>
<linearGradient id="paint1_linear_599_4118" x1="18.2664" y1="-4" x2="18.2664" y2="25" gradientUnits="userSpaceOnUse">
<stop stop-color="#07387B"/>
<stop offset="1" stop-color="#050B2F"/>
</linearGradient>
</defs>
</svg>
