<svg width="151" height="150" viewBox="0 0 151 150" fill="none" xmlns="http://www.w3.org/2000/svg">
<rect width="150.004" height="150" transform="translate(0.0214844)" fill="url(#paint0_linear_260_3933)"/>
<g clip-path="url(#clip0_260_3933)">
<path fill-rule="evenodd" clip-rule="evenodd" d="M67.1582 35.0408C65.161 35.5077 64.8584 38.7072 66.7272 39.5984C67.7068 40.0655 69.1626 39.9904 69.9104 39.4341C70.5464 38.9611 70.8436 38.3176 70.8436 37.4138C70.8436 36.23 70.2996 35.4281 69.2536 35.0701C69.0276 34.9927 67.458 34.9708 67.1582 35.0408ZM43.542 41.7302C41.8746 41.8971 40.3484 42.5032 39.3532 43.3935C39.2518 43.4842 39.1642 43.5523 39.1588 43.5445C39.1536 43.537 39.1112 43.3897 39.0648 43.2174C38.785 42.1797 38.7974 42.1857 36.9008 42.1857C35.4168 42.1857 35.314 42.197 35.1302 42.3799L35.0234 42.4861V53.3685V64.2509L35.1522 64.3633C35.3428 64.5299 35.4066 64.5348 37.3382 64.5348C39.0824 64.5348 39.1192 64.5333 39.2892 64.4551C39.6206 64.3028 39.595 64.6047 39.616 60.6104C39.6262 58.6749 39.6482 57.1122 39.665 57.1381C39.752 57.272 40.5788 57.7472 41.1716 58.0041C42.0742 58.3953 43.5514 58.5949 44.633 58.4715C46.2536 58.2869 47.4318 57.6465 48.6388 56.2946C48.7528 56.1669 49.1372 55.6298 49.1762 55.5436C49.1946 55.503 49.2426 55.4201 49.2828 55.3594C50.3198 53.7926 50.8282 50.9086 50.524 48.321C50.345 46.7994 49.8734 45.4188 49.177 44.3783C47.9342 42.5215 45.7742 41.5065 43.542 41.7302ZM83.2778 41.7425C82.5576 41.8124 81.871 41.9632 81.1716 42.2052C80.4848 42.4427 79.3866 43.0031 78.5914 43.5215C78.4082 43.6408 78.3938 43.6434 78.3938 43.5573C78.3938 43.5213 78.3538 43.3678 78.3048 43.2164C78.2558 43.065 78.205 42.8891 78.1916 42.8254C78.1516 42.6344 77.9738 42.3952 77.798 42.2963L77.6346 42.2042L76.233 42.1932C74.6616 42.1811 74.5214 42.197 74.3424 42.4085C74.1664 42.6165 74.1706 42.4213 74.1806 50.2422L74.19 57.6808L74.2676 57.8278C74.3218 57.9309 74.399 58.0023 74.5258 58.0674L74.7066 58.1599H76.5224H78.3382L78.514 58.0706C78.6474 58.0027 78.7098 57.9404 78.7732 57.8127L78.8568 57.6439L78.8668 51.904L78.8768 46.1638L79.089 46.0689C81.4062 45.033 83.2526 45.1309 83.7784 46.3174C83.967 46.7432 83.9614 46.5707 83.9756 52.2814L83.989 57.6421L84.071 57.8083C84.1292 57.9265 84.2012 58.0013 84.3196 58.0672L84.4864 58.1599L86.151 58.1713C88.2904 58.1858 88.4128 58.1669 88.5828 57.7944C88.6486 57.6501 88.6514 57.4105 88.6532 51.8954L88.655 46.1471L88.7928 46.0848C89.9446 45.566 91.4614 45.2656 92.3012 45.3901C92.9482 45.4859 93.4064 45.8548 93.6076 46.4418L93.7086 46.7365L93.728 52.1535C93.7492 58.0077 93.739 57.7432 93.9508 57.9585C94.1474 58.1589 94.139 58.1579 95.9266 58.1707C98.0684 58.186 98.164 58.1717 98.346 57.8075L98.4278 57.6439L98.4292 51.7458C98.4312 44.6664 98.4492 44.9335 97.8916 43.8446C96.5158 41.1587 92.1696 40.9689 88.3276 43.4265C87.9602 43.6615 88.02 43.6596 87.8624 43.4417C87.1878 42.5074 86.3414 42.0016 85.1108 41.7974C84.708 41.7306 83.71 41.7007 83.2778 41.7425ZM108.006 41.7453C106.785 41.8466 105.602 42.1735 104.756 42.6435C104.364 42.8614 103.985 43.102 103.912 43.1794C103.902 43.1903 103.802 43.2693 103.69 43.3549C103.394 43.581 102.899 44.0908 102.566 44.5128C102.506 44.5898 102.23 44.9957 102.107 45.19C100.398 47.8813 100.476 53.3992 102.254 55.6909C102.27 55.7112 102.36 55.8336 102.456 55.9629C102.638 56.2098 103.173 56.7662 103.394 56.9379C103.465 56.9937 103.565 57.0738 103.616 57.1164C104.28 57.671 105.541 58.2136 106.672 58.4315C108.667 58.8162 111.264 58.6164 113.293 57.9225C114.453 57.5257 114.442 57.5433 114.457 56.0411C114.475 54.2675 114.424 54.2228 112.81 54.6152C111.394 54.9596 110.425 55.0736 109.264 55.033C106.774 54.9459 105.598 54.0059 105.226 51.8033C105.158 51.4035 105.158 51.3852 105.23 51.4125C105.319 51.4465 106.067 51.5719 106.505 51.6262C107.113 51.7016 109.314 51.6899 109.949 51.6077C111.403 51.4198 112.285 51.1413 113.241 50.569C114.003 50.1131 114.58 49.3661 114.908 48.4137C115.033 48.0484 115.076 46.0189 114.967 45.5806C114.298 42.8865 111.674 41.4407 108.006 41.7453ZM61.5974 42.0951C60.8232 42.2336 59.8338 42.6624 59.345 43.0717C59.2342 43.1645 59.1348 43.2431 59.0212 43.328C58.8274 43.4729 58.5886 43.6872 58.2152 44.0512C57.8592 44.3982 57.8012 44.4145 57.8012 44.1674C57.8012 44.1451 57.7254 43.8108 57.633 43.4242C57.4404 42.6194 57.364 42.4575 57.1058 42.3064L56.9308 42.2042H55.4308H53.9308L53.7748 42.2931C53.4576 42.4738 53.4864 41.688 53.4864 50.1636V57.6808L53.5636 57.8282C53.6128 57.9221 53.7 58.0091 53.8042 58.0678L53.9678 58.1599H55.8012H57.6346L57.8102 58.0706C57.9436 58.0027 58.0062 57.9404 58.0696 57.8127L58.153 57.6439L58.1716 52.3045L58.19 46.9649L58.5188 46.8437C58.9474 46.6859 59.8724 46.4651 60.4308 46.3873C61.152 46.2868 61.4898 46.2742 62.2898 46.3182C63.8526 46.4042 63.8018 46.4776 63.7996 44.1315C63.7976 41.9542 63.8576 42.0615 62.6346 42.0496C62.1232 42.0446 61.802 42.0587 61.5974 42.0951ZM66.2642 42.2306C66.0676 42.3001 65.9566 42.4035 65.8874 42.5822C65.799 42.8103 65.7798 57.4585 65.8676 57.7048C66.0272 58.1525 66.0524 58.1579 68.0526 58.1715C70.1908 58.1858 70.2662 58.1734 70.4346 57.7828C70.5338 57.5526 70.546 42.8087 70.4474 42.5735C70.3734 42.3976 70.2338 42.2698 70.0646 42.2231C69.8784 42.1715 66.412 42.1785 66.2642 42.2306ZM109.116 45.0618C110.443 45.2522 111.095 46.3003 110.667 47.5551C110.302 48.6261 108.452 49.0008 105.64 48.5737L105.238 48.5126L105.264 48.3063C105.316 47.8852 105.496 47.2531 105.673 46.8738C105.723 46.7667 105.764 46.6706 105.764 46.6603C105.764 46.6203 106.149 46.0762 106.276 45.9362C106.908 45.2405 108.006 44.9024 109.116 45.0618ZM43.3382 45.377C45.0232 45.7027 45.7694 47.0238 45.8272 49.784C45.8818 52.3803 45.404 53.8117 44.2498 54.5093C43.1624 55.1666 41.1818 55.0205 39.7364 54.1766L39.6162 54.1066L39.6254 50.1085L39.6346 46.1107L39.914 45.9614C40.953 45.4071 42.3026 45.1768 43.3382 45.377ZM107.894 96.431C106.748 96.5064 105.717 96.6698 104.616 96.9506C104.158 97.0674 103.09 97.4132 102.83 97.5288C102.743 97.5676 102.488 97.6809 102.264 97.7802C101.751 98.008 101.251 98.2876 100.654 98.6818C99.92 99.1665 99.69 99.4441 99.69 99.8458C99.69 100.417 99.9404 100.496 101.239 100.333C106.458 99.6757 109.511 99.766 110.472 100.606C111.114 101.166 111.029 102.813 110.206 105.751C109.907 106.819 109.333 108.546 108.73 110.191C108.604 110.536 108.47 110.892 108.433 110.984C108.016 112.008 108.38 112.601 109.191 112.219C109.364 112.138 110.109 111.517 110.14 111.428C110.147 111.409 110.231 111.311 110.326 111.213C110.545 110.986 110.883 110.58 111.144 110.228C111.22 110.127 111.295 110.027 111.312 110.006C111.381 109.924 111.873 109.183 111.937 109.065C111.975 108.995 112.034 108.897 112.067 108.846C112.268 108.536 112.88 107.331 113.077 106.856C113.132 106.725 113.201 106.562 113.232 106.496C113.527 105.854 114.147 103.919 114.34 103.042C114.955 100.239 114.989 98.0607 114.426 97.5004C113.66 96.7389 110.666 96.2486 107.894 96.431ZM35.6302 97.3806C35.0058 97.6721 35.0712 98.4285 35.7792 99.1066C36.4784 99.7762 37.3848 100.61 37.5604 100.744C37.6216 100.791 37.6882 100.849 37.7086 100.873C37.749 100.919 38.018 101.152 38.2992 101.384C38.3976 101.465 38.5048 101.558 38.5378 101.59C38.5914 101.643 39.4778 102.377 39.6164 102.483C39.6474 102.507 39.7236 102.568 39.7858 102.619C39.8482 102.669 39.9546 102.752 40.0224 102.803C40.0902 102.854 40.2058 102.949 40.279 103.014C40.3524 103.079 40.423 103.133 40.436 103.134C40.449 103.134 40.524 103.192 40.6026 103.263C40.6812 103.333 40.757 103.391 40.7708 103.392C40.7846 103.392 40.8198 103.416 40.8492 103.446C40.8786 103.475 41.1172 103.657 41.3796 103.851C41.642 104.044 41.8754 104.218 41.8982 104.237C41.9212 104.256 42.0712 104.363 42.2316 104.476C42.392 104.589 42.5404 104.695 42.5614 104.712C42.5822 104.729 42.649 104.775 42.7096 104.814C42.7702 104.852 42.839 104.902 42.8626 104.925C42.8862 104.947 42.9946 105.021 43.1034 105.09C43.2122 105.158 43.3096 105.224 43.3196 105.237C43.3354 105.257 44.5296 106.048 44.7472 106.183C44.787 106.208 45.1196 106.416 45.4864 106.646C45.853 106.876 46.178 107.076 46.2086 107.09C46.2392 107.104 46.3078 107.144 46.3612 107.179C46.4146 107.215 46.5728 107.31 46.7128 107.391C46.8528 107.472 47.0008 107.558 47.0416 107.583C47.0826 107.608 47.166 107.655 47.2272 107.687C47.2882 107.719 47.3988 107.782 47.473 107.826C48.0994 108.2 50.1052 109.244 51.0048 109.666C52.1238 110.19 52.3268 110.283 52.3444 110.283C52.3548 110.283 52.4692 110.332 52.5986 110.392C52.728 110.451 53.039 110.586 53.2898 110.691C53.5404 110.796 53.7956 110.903 53.8568 110.93C55.792 111.772 59.6064 113.001 61.9782 113.548C62.1966 113.599 62.4836 113.665 62.616 113.695C62.9934 113.781 63.8728 113.967 64.0974 114.008C64.2096 114.028 64.4178 114.068 64.5604 114.096C64.703 114.124 64.9196 114.165 65.042 114.187C65.1642 114.208 65.3892 114.25 65.542 114.279C65.9748 114.362 67.226 114.546 68.042 114.648C68.7404 114.734 69.015 114.763 70.5604 114.914C71.5144 115.006 77.8484 115.031 78.9678 114.946C82.3696 114.687 85.5792 114.157 89.0234 113.285C89.5428 113.153 90.0096 113.031 90.0604 113.014C90.1114 112.996 90.2196 112.964 90.3012 112.941C90.6232 112.852 91.4986 112.596 91.7086 112.53C92.656 112.228 94.1494 111.724 94.542 111.573C94.654 111.53 94.8122 111.473 94.8938 111.447C94.9752 111.421 95.1252 111.366 95.2272 111.324C95.329 111.283 95.654 111.154 95.9494 111.039C98.145 110.183 100.832 108.882 102.759 107.744C102.847 107.691 102.989 107.609 103.073 107.56C103.509 107.31 105.384 106.109 105.431 106.051C105.441 106.038 105.572 105.945 105.722 105.845C105.872 105.746 106.014 105.646 106.037 105.624C106.06 105.603 106.171 105.523 106.283 105.448C106.395 105.372 106.531 105.273 106.585 105.227C106.639 105.181 106.72 105.118 106.766 105.088C107.817 104.384 108.209 103.883 108.208 103.246C108.206 102.162 107.056 101.621 105.986 102.199C105.935 102.227 105.744 102.314 105.56 102.393C105.259 102.523 104.995 102.639 104.666 102.787C104.602 102.816 104.54 102.84 104.528 102.84C104.516 102.84 104.419 102.88 104.311 102.93C103.95 103.096 102.082 103.837 101.32 104.116C98.7286 105.066 96.3684 105.798 93.7826 106.455C92.7682 106.712 92.2894 106.829 91.8382 106.929C90.2054 107.291 89.3216 107.464 87.8012 107.722C81.4638 108.796 75.3832 109.009 68.9494 108.384C62.454 107.753 56.063 106.281 49.8568 103.985C49.3974 103.815 49.2698 103.767 48.9678 103.65C48.9272 103.634 48.8148 103.586 48.7182 103.544C48.6218 103.501 48.5312 103.466 48.517 103.466C48.4868 103.466 47.8148 103.198 47.5886 103.095C47.5022 103.056 47.4222 103.024 47.4106 103.024C47.3992 103.024 47.3198 102.993 47.2344 102.954C47.1488 102.916 46.9122 102.815 46.7086 102.731C46.5048 102.646 46.2632 102.542 46.1716 102.501C46.0798 102.459 45.8798 102.371 45.7272 102.305C44.5908 101.817 41.9154 100.52 40.865 99.9485C40.5844 99.7957 40.3454 99.6707 40.3338 99.6707C40.3222 99.6707 40.2684 99.6401 40.2144 99.6029C40.1602 99.5655 39.991 99.4684 39.8382 99.3872C39.6034 99.2624 38.9522 98.8983 38.7642 98.7868C38.7336 98.7687 38.5586 98.6658 38.3752 98.5582C38.192 98.4505 38.015 98.3461 37.9822 98.3258C37.9492 98.3055 37.8576 98.2518 37.7784 98.2062C37.579 98.0916 37.417 97.9931 36.997 97.7314C36.3088 97.3026 35.9786 97.2178 35.6302 97.3806Z" fill="white"/>
<path fill-rule="evenodd" clip-rule="evenodd" d="M55.7951 65.549C54.4991 65.7665 53.7287 66.6355 53.6641 67.9526C53.5749 69.7763 54.6729 70.8023 56.6413 70.7342C58.3259 70.6759 59.2607 69.7459 59.2613 68.1275C59.2617 66.2881 57.8129 65.2101 55.7951 65.549ZM73.7655 65.7389C73.5717 65.7942 73.4299 65.9112 73.3533 66.0787C73.2875 66.223 73.2843 66.4061 73.2835 70.1251L73.2827 74.0203L72.9773 73.8157C70.5121 72.1643 66.9305 72.2871 64.7537 74.0977C61.0471 77.1804 60.8093 85.2415 64.3257 88.5996C66.6249 90.7953 70.4819 90.9304 73.1555 88.9089L73.5327 88.6237L73.6527 89.0623C73.9039 89.9794 73.8555 89.9609 75.9865 89.9609H77.6347L77.8179 89.8688C77.9497 89.8025 78.0225 89.7353 78.0771 89.6292L78.1531 89.4817L78.1625 77.8548L78.1719 66.2278L78.0885 66.0652C77.9901 65.8736 77.8687 65.7769 77.6687 65.7309C77.4697 65.6849 73.9291 65.6921 73.7655 65.7389ZM105.783 72.7004C100.917 73.0936 98.1739 76.6738 98.4667 82.2482C98.7441 87.5315 101.671 90.4321 106.727 90.4365C111.011 90.4401 113.797 88.3551 114.724 84.452C115.097 82.8843 115.127 80.6002 114.798 78.9798C113.914 74.6373 110.577 72.3128 105.783 72.7004ZM89.0235 72.8291C87.5309 72.9573 86.6293 73.1742 85.6717 73.6356C82.7367 75.0498 81.1729 78.3311 81.4245 82.5479C81.6977 87.1273 83.9937 89.6979 88.2643 90.2051C90.7659 90.5024 94.8197 89.74 95.2457 88.8922L95.3383 88.7079V87.5287C95.3383 85.7905 95.2913 85.7416 93.9367 86.0717C88.9579 87.2847 86.3939 86.3849 85.8849 83.2461C85.8105 82.7872 85.7857 82.8107 86.2509 82.8999C89.0831 83.4425 92.5065 83.0133 94.1689 81.9071C95.6337 80.9323 96.3101 79.0867 95.9373 77.0819C95.4111 74.2535 92.5971 72.5225 89.0235 72.8291ZM35.4681 73.1784C35.0181 73.2693 34.9069 73.6331 35.1301 74.2837C35.3413 74.8992 40.8115 89.1538 40.9143 89.3568C41.2123 89.944 41.2843 89.9609 43.5049 89.9609H45.3013L45.5167 89.8556C45.8021 89.7162 45.9387 89.5255 46.1679 88.9475C46.4709 88.1836 51.6161 74.7323 51.7497 74.3552C51.9709 73.7306 51.9177 73.3694 51.5821 73.2176C51.4147 73.1418 48.1235 73.1065 47.6759 73.1756C47.2095 73.2476 46.9879 73.4454 46.8227 73.9367C46.7759 74.0756 46.0069 76.6642 45.1137 79.689C44.2205 82.714 43.4805 85.1888 43.4693 85.1888C43.4581 85.1888 42.7183 82.6643 41.8255 79.5786C39.9619 73.1372 40.0561 73.404 39.5829 73.2255C39.3893 73.1523 35.8003 73.1113 35.4681 73.1784ZM54.5847 73.1778C54.3331 73.2285 54.1997 73.3238 54.0975 73.5266L54.0049 73.7103V81.504C54.0049 90.1332 53.9875 89.5401 54.2483 89.7747C54.4521 89.9577 54.4905 89.9609 56.5235 89.9609C58.6567 89.9609 58.6353 89.9639 58.8081 89.6415L58.8939 89.4817V81.5591C58.8939 72.5104 58.9309 73.4339 58.5605 73.2496L58.3753 73.1575L56.5605 73.1513C55.5623 73.1479 54.6733 73.1599 54.5847 73.1778ZM90.1901 76.3238C91.1141 76.5771 91.5767 77.1802 91.5785 78.1337C91.5815 79.7979 89.8337 80.4054 86.4495 79.9165C85.8155 79.8249 85.8593 79.8773 85.9687 79.341C86.3299 77.569 87.2009 76.5572 88.5975 76.2869C88.9483 76.2191 89.8875 76.2408 90.1901 76.3238ZM71.2339 76.5124C71.9187 76.63 72.6859 76.8845 73.1225 77.139L73.2827 77.2325V81.4457C73.2827 84.7715 73.2731 85.6668 73.2365 85.6966C72.6479 86.1778 71.2143 86.5787 70.2133 86.5421C67.8483 86.4558 66.7547 84.7037 66.8499 81.1538C66.9477 77.5105 68.3567 76.0187 71.2339 76.5124ZM107.338 76.5486C109.064 76.8481 109.943 78.3399 110.047 81.1462C110.177 84.6848 109.015 86.6072 106.746 86.6058C104.516 86.6042 103.457 84.9878 103.452 81.5776C103.446 77.8906 104.821 76.1118 107.338 76.5486Z" fill="white"/>
</g>
<defs>
<linearGradient id="paint0_linear_260_3933" x1="-0.0214898" y1="150" x2="149.979" y2="9.34979e-06" gradientUnits="userSpaceOnUse">
<stop stop-color="#002664"/>
<stop offset="1" stop-color="#25BEED"/>
</linearGradient>
<clipPath id="clip0_260_3933">
<rect width="80" height="80" fill="white" transform="translate(35.0234 35)"/>
</clipPath>
</defs>
</svg>
