<svg width="151" height="150" viewBox="0 0 151 150" fill="none" xmlns="http://www.w3.org/2000/svg">
<rect width="150.004" height="150" transform="translate(0.0283203)" fill="black"/>
<g clip-path="url(#clip0_260_3993)">
<path d="M51.7885 64.6932C52.9186 63.3326 53.4786 61.5876 53.3513 59.8235C51.6193 59.9907 50.0204 60.8258 48.8936 62.1518C48.3326 62.7869 47.9025 63.5267 47.6282 64.3286C47.3539 65.1304 47.2408 65.9786 47.2953 66.8243C48.1581 66.8412 49.013 66.6575 49.7928 66.2877C50.5725 65.9179 51.2557 65.372 51.7885 64.6932V64.6932ZM53.2448 67.1458C50.7584 67.0019 48.6628 68.5665 47.4729 68.5665C46.283 68.5665 44.4715 67.2239 42.5179 67.2594C41.2388 67.2955 39.9915 67.6666 38.9007 68.3357C37.81 69.0048 36.9139 69.9485 36.3021 71.0724C33.6381 75.6899 35.5917 82.5682 38.1846 86.3279C39.4455 88.1146 40.9551 90.2439 42.9619 90.1747C44.9688 90.1054 45.5904 88.9315 47.8813 88.9315C50.1723 88.9315 50.8472 90.1747 52.8363 90.1303C54.8254 90.0859 56.2106 88.3401 57.4538 86.4008C58.3505 85.0761 59.0504 83.6285 59.5317 82.1029C58.3374 81.5742 57.3215 80.7116 56.6063 79.6188C55.891 78.5261 55.5069 77.2499 55.5002 75.9439C55.5149 74.7851 55.8202 73.6485 56.388 72.6383C56.9558 71.628 57.768 70.7764 58.7502 70.1614C58.1261 69.269 57.3048 68.5325 56.3501 68.0089C55.3953 67.4853 54.3327 67.1887 53.2448 67.1422V67.1458ZM69.1041 63.5619V68.6323H73.1533V71.9799H69.1041V83.9766C69.1041 85.7667 69.9033 86.6796 71.6792 86.6796C72.1663 86.6708 72.6524 86.6352 73.1355 86.573V89.9474C72.343 90.0757 71.5408 90.1351 70.738 90.125C66.5467 90.125 64.9306 88.4964 64.9306 84.4135V72.0599H61.7516V68.7033H64.8418V63.5654L69.1041 63.5619ZM87.3077 89.9403H82.8678L75.4088 68.7033H79.8309L85.07 85.7667H85.1766L90.4156 68.7033H94.749L87.3077 89.9403ZM106.808 89.9403H102.972V81.238H94.7312V77.4055H102.954V68.7033H106.79V77.4055H115.03V81.238H106.808V89.9403Z" fill="white"/>
</g>
<defs>
<clipPath id="clip0_260_3993">
<rect width="80" height="30.353" fill="white" transform="translate(35.0303 59.8235)"/>
</clipPath>
</defs>
</svg>
