<svg width="151" height="150" viewBox="0 0 151 150" fill="none" xmlns="http://www.w3.org/2000/svg">
<rect width="150.004" height="150" transform="translate(0.0322266)" fill="#F47521"/>
<g clip-path="url(#clip0_260_4007)">
<path d="M44.8142 79.8975C44.0567 70.34 47.2217 60.9 53.5867 53.7375C59.9567 46.59 68.9667 42.33 78.5367 41.9675C88.1067 41.615 97.4042 45.17 104.289 51.825C111.192 58.4775 115.059 67.645 115.032 77.2275V75C115.032 52.9025 97.1292 35 75.0317 35C52.9342 35 35.0317 52.9025 35.0317 75C35.0317 97.0975 52.9342 115 75.0317 115H77.7017C59.2392 113.697 44.9142 98.3875 44.8117 79.8975H44.8142ZM99.0317 81.6675C84.6592 81.72 81.0742 61.7075 94.5917 56.77C90.6342 54.66 86.1942 53.58 81.7017 53.6725C70.3742 53.6725 60.1642 60.4925 55.8292 70.95C51.4967 81.42 53.8892 93.4625 61.8992 101.47C69.9067 109.48 81.9492 111.873 92.4192 107.54C102.877 103.203 109.697 92.9925 109.697 81.6675C109.777 79.885 109.634 78.0875 109.257 76.3275C107.067 79.83 103.164 81.875 99.0342 81.6675H99.0317Z" fill="white"/>
</g>
<defs>
<clipPath id="clip0_260_4007">
<rect width="80" height="80" fill="white" transform="translate(35.0342 35)"/>
</clipPath>
</defs>
</svg>
