<svg width="151" height="150" viewBox="0 0 151 150" fill="none" xmlns="http://www.w3.org/2000/svg">
<rect width="150.004" height="150" transform="translate(0.0141602)" fill="#241C32"/>
<rect width="75.0018" height="150" transform="translate(0.0141602)" fill="url(#paint0_linear_260_3892)"/>
<path d="M35.6199 78.9251C35.6423 78.9251 35.6424 78.9251 35.6648 78.9326C36.0094 78.9775 36.3465 79.0374 36.6012 79.1573C36.8409 79.2622 36.9832 79.397 37.1105 79.6367C37.3053 79.9962 37.3203 80.4981 37.1405 80.8801C37.0056 81.1648 36.721 81.4045 36.4588 81.5318C36.1892 81.6667 35.9195 81.7266 35.6124 81.764C35.0731 81.824 34.4888 81.7116 34.0094 81.4794C33.7247 81.3371 33.3727 81.0974 33.1929 80.7903C33.0656 80.5655 33.0656 80.2659 33.2229 80.0487C33.4776 79.7041 34.0169 79.6292 34.4214 79.6442C34.7285 79.6592 35.2903 79.7491 35.5824 79.8539C35.6648 79.8839 35.9644 80.0037 36.0169 80.0562C36.0543 80.0936 36.0768 80.1461 36.0618 80.1985C35.9944 80.4007 35.4925 80.5131 35.3502 80.5356C34.9607 80.5955 34.7659 80.4457 34.324 80.2734C34.2116 80.2285 34.0693 80.1835 33.957 80.176C33.7547 80.1535 33.515 80.2135 33.4776 80.4307C33.4551 80.5431 33.5899 80.6479 33.6873 80.6929C33.9195 80.7977 34.1143 80.8277 34.3465 80.8352C35.0281 80.8427 35.7997 80.7303 36.3615 80.3333C36.4364 80.2809 36.5113 80.1985 36.5113 80.1011C36.5113 79.8989 36.1592 79.7715 36.1592 79.7715C35.7847 79.6142 35.0806 79.5393 34.7285 79.5094C34.354 79.4794 33.7547 79.427 33.6124 79.4045C33.4626 79.382 33.3053 79.3521 33.1779 79.2996C33.0506 79.2397 32.9232 79.1124 32.8858 78.97C32.8184 78.7153 32.9008 78.4007 33.0431 78.191C33.4176 77.6517 34.294 77.4494 34.9532 77.367C35.5899 77.2846 36.6161 77.2921 37.2379 77.6217C37.3352 77.6741 37.3802 77.7191 37.3652 77.824C37.3277 78.0187 37.1779 78.1386 37.0056 78.1985C36.8184 78.2584 36.4364 78.2809 36.2716 78.2884C35.5225 78.3333 34.6161 78.3109 33.897 78.5056C33.8446 78.5206 33.7472 78.5506 33.7098 78.5805C33.5974 78.7004 33.9195 78.7378 33.9869 78.7528C34.0094 78.7603 34.0094 78.7603 34.0319 78.7603L35.6199 78.9251ZM31.148 75.5768C31.148 75.5768 31.2678 75.397 31.3727 75.2547C31.56 75 31.897 74.6479 32.1517 74.4307C32.2266 74.3633 32.324 74.2884 32.324 74.2884C32.324 74.2884 32.1817 74.3034 32.0993 74.3183C31.9045 74.3558 31.6274 74.5431 31.485 74.6629C31.2528 74.8652 30.9982 75.1873 31.1105 75.4719C31.1255 75.5243 31.148 75.5768 31.148 75.5768ZM32.4438 75.9213C32.8109 75.8989 33.1555 75.7865 33.4776 75.6142C33.7922 75.4419 34.2566 75.0974 34.2041 74.6929C34.1892 74.5655 34.1068 74.4607 33.9944 74.4157C33.8521 74.3558 33.7847 74.3633 33.6049 74.4157C33.4776 74.4532 33.4176 74.4756 33.2903 74.5506C32.9307 74.7603 32.4139 75.2097 32.1367 75.5693C32.0693 75.6517 32.0094 75.7491 31.957 75.8165C31.927 75.8539 31.897 75.8914 31.9045 75.9064C31.9195 75.9363 32.3015 75.9363 32.4438 75.9213ZM31.5075 76.6105C31.4701 76.6479 31.4326 76.7453 31.3877 76.8202C31.3652 76.8577 31.3277 76.9026 31.2978 76.9251C31.2004 76.9925 31.118 77 31.0281 76.9176C30.9008 76.8052 30.8259 76.6255 30.8184 76.4532C30.8184 76.3783 30.8259 76.2959 30.8109 76.2285C30.7884 76.1236 30.6835 76.0112 30.6236 75.9064C30.5562 75.7865 30.5038 75.5768 30.4963 75.4419C30.4738 75.015 30.6985 74.6255 30.9832 74.3183C31.2753 74.0037 31.6573 73.7491 32.0768 73.5693C32.4663 73.4045 33.0431 73.2921 33.4776 73.4419C33.6199 73.4869 33.8146 73.6067 33.912 73.7341C33.9345 73.7565 33.9495 73.7865 33.9719 73.8015C33.9944 73.8165 34.0394 73.8165 34.0843 73.824C34.2191 73.8464 34.4214 73.9513 34.5038 74.0187C34.6686 74.161 34.7585 74.2959 34.7959 74.4906C34.8783 74.8801 34.6536 75.3146 34.3989 75.5768C33.957 76.0262 33.5225 76.3408 32.9607 76.5655C32.7135 76.6629 32.3315 76.7528 32.0468 76.7303C31.957 76.7228 31.8671 76.7004 31.7847 76.6929C31.7397 76.6854 31.5824 76.6479 31.5674 76.6404C31.5375 76.618 31.515 76.6105 31.5075 76.6105ZM32.0094 77.4794C32.0244 77.4794 32.0543 77.4869 32.0768 77.5019C32.2716 77.5768 32.354 77.7565 32.4064 77.9588C32.5188 78.4232 32.5637 79.4569 32.5862 79.8614C32.6012 80.161 32.6086 80.4607 32.6236 80.7603C32.6311 81.015 32.6536 81.3521 32.6012 81.5843C32.5787 81.6667 32.5262 81.7715 32.4438 81.8165C32.3465 81.8764 32.1367 81.8839 32.0169 81.8539C31.7247 81.794 31.6349 81.6067 31.5899 81.3221C31.4925 80.6404 31.5375 79.2996 31.5974 78.7378C31.6199 78.5506 31.6873 77.9513 31.7847 77.7041C31.8146 77.6292 31.8895 77.4569 32.0094 77.4794ZM23.2229 78.618C23.2229 78.618 22.7959 78.6479 22.4963 78.6779C22.1218 78.7153 21.4101 78.8427 21.0056 78.985C20.8858 79.03 20.6311 79.1348 20.6161 79.2622C20.5937 79.3895 20.6761 79.4944 20.7659 79.5992C20.8184 79.6592 21.1105 79.9438 21.1929 80.0112C21.5375 80.3034 22.2416 80.7453 22.7585 80.9625C22.9382 81.0374 23.2304 81.1423 23.2304 81.1423C23.2304 81.1423 23.2079 80.3034 23.2154 79.4794C23.2154 79.0449 23.2229 78.618 23.2229 78.618ZM31.103 78.9476C31.1255 79.1723 31.0731 79.5992 31.0581 79.6517C31.0431 79.779 30.9457 80.0786 30.9232 80.1161C30.8409 80.2959 30.7659 80.4457 30.6835 80.5955C30.5412 80.8502 30.2041 81.2547 30.0094 81.427C29.2678 82.0637 28.1218 82.4307 27.1405 82.5506C26.4738 82.6329 25.7098 82.618 24.9982 82.4906C24.7585 82.4457 24.3914 82.3633 24.3914 82.3633C24.3914 82.3633 24.3914 82.5056 24.3839 82.6105C24.3764 82.6554 24.3465 82.7828 24.324 82.8202C24.2716 82.9251 24.1892 82.9775 24.0693 83.0075C23.9195 83.0374 23.7622 83.0449 23.6274 82.985C23.4027 82.8876 23.3203 82.6779 23.2828 82.4382C23.2528 82.2434 23.2154 81.9064 23.2154 81.9064C23.2154 81.9064 23.0506 81.824 22.9083 81.7565C22.4813 81.5468 22.0693 81.2846 21.7098 81.0225C21.6124 80.9476 21.1854 80.5955 21.088 80.5056C20.8259 80.2584 20.5862 80.0037 20.4064 79.6891C20.2641 79.4419 20.2266 79.2172 20.3315 78.955C20.4813 78.588 21.0056 78.3109 21.3652 78.1536C21.6274 78.0337 22.4588 77.764 22.7959 77.7191C22.9607 77.6966 23.2079 77.6517 23.2229 77.6442C23.2304 77.6367 23.2304 77.6367 23.2379 77.6292C23.2453 77.6217 23.2603 77.2547 23.2528 77.1198C23.2528 76.985 23.3502 76.1311 23.3802 75.9438C23.3952 75.8464 23.4701 75.4644 23.545 75.367C23.5974 75.2996 23.6798 75.3071 23.7547 75.3521C24.1442 75.5992 24.2641 76.4457 24.294 76.8727C24.309 77.1348 24.324 77.5318 24.324 77.5318C24.324 77.5318 24.7734 77.5168 25.0506 77.5243C25.3203 77.5318 25.6199 77.5768 25.897 77.6142C26.2566 77.6741 26.9532 77.824 27.3502 78.0262C27.6798 78.191 27.9869 78.4756 28.0918 78.7753C28.1817 79.0449 28.1742 79.2397 28.0319 79.4869C27.8746 79.764 27.5749 79.9738 27.2678 79.9888C27.1779 79.9962 26.8334 79.9513 26.7285 79.8689C26.691 79.8389 26.691 79.779 26.721 79.7416C26.7285 79.7266 26.8933 79.6442 26.9832 79.5918C27.0281 79.5693 27.0731 79.5393 27.103 79.5019C27.1779 79.4344 27.2528 79.3595 27.2453 79.2697C27.2379 79.1573 27.1105 79.0824 26.9982 79.0374C26.4513 78.8202 25.3577 78.6404 24.8334 78.6105C24.6236 78.5955 24.3315 78.588 24.3315 78.588L24.3914 81.5019C24.3914 81.5019 24.6311 81.5468 24.8259 81.5768C24.9382 81.5918 25.4027 81.6367 25.5225 81.6367C26.4663 81.6592 27.515 81.5768 28.3764 81.1723C28.7585 80.9925 29.103 80.7753 29.3652 80.4682C29.7098 80.0712 29.897 79.5243 29.8446 78.955C29.7922 78.3333 29.3577 77.5992 29.0056 77.1498C28.0843 75.9663 26.5038 74.985 25.1105 74.4157C23.6873 73.8315 22.2865 73.4944 20.7809 73.4419C20.3914 73.427 19.545 73.4494 19.118 73.5693C19.0581 73.5843 18.9982 73.6067 18.9382 73.6217C18.8933 73.6292 18.8259 73.6592 18.8034 73.6816C18.7959 73.6891 18.7809 73.7041 18.7809 73.7041C18.7809 73.7041 18.8109 73.7191 18.8334 73.7266C18.8783 73.7491 19.0731 73.7565 19.1704 73.779C19.2603 73.794 19.3502 73.8389 19.3877 73.9064C19.4251 73.9663 19.4251 74.0187 19.3877 74.0712C19.2903 74.191 18.9233 74.1685 18.7659 74.1461C18.6012 74.1161 18.3914 74.0712 18.354 73.9213C18.309 73.7491 18.3914 73.5843 18.4813 73.427C18.6611 73.1124 18.9083 72.9551 19.2828 72.8502C19.8071 72.7079 20.4738 72.603 20.9682 72.588C22.0918 72.5431 23.1555 72.7453 24.2491 73.0749C24.8708 73.2622 25.6873 73.5768 26.2865 73.8689C26.7135 74.0786 27.3952 74.4532 27.7697 74.7079C27.8895 74.7903 28.5937 75.2996 28.6985 75.3895C28.9232 75.5768 29.2229 75.8389 29.4401 76.0562C29.8596 76.4682 30.3764 77.0974 30.6236 77.6067C30.6835 77.7266 30.7285 77.8464 30.8109 77.9813C30.8409 78.0262 30.9532 78.3109 30.9682 78.3933C30.9907 78.4756 31.0131 78.5955 31.0206 78.603C31.0581 78.6105 31.1105 78.8502 31.103 78.9476ZM45.2528 78.3034C44.7285 78.4232 43.3427 78.4906 43.3427 78.4906L43.1704 79.0374C43.1704 79.0374 43.8596 78.9775 44.3689 79.03C44.3689 79.03 44.5337 79.0075 44.5487 79.2172C44.5562 79.4045 44.5337 79.6142 44.5337 79.6142C44.5337 79.6142 44.5262 79.7416 44.3465 79.7715C44.1592 79.8015 42.8558 79.8539 42.8558 79.8539L42.6461 80.5655C42.6461 80.5655 42.5712 80.7303 42.7435 80.6854C42.9083 80.6404 44.2716 80.3858 44.4513 80.4232C44.6386 80.4682 44.8558 80.7228 44.7884 80.955C44.7135 81.2397 43.3502 82.1086 42.5262 82.0487C42.5262 82.0487 42.0918 82.0786 41.7247 81.4869C41.3802 80.9251 41.8521 79.8614 41.8521 79.8614C41.8521 79.8614 41.6349 79.367 41.7922 79.1947C41.7922 79.1947 41.882 79.1124 42.1592 79.0899L42.4963 78.4007C42.4963 78.4007 42.1143 78.4232 41.8895 78.1461C41.6798 77.8839 41.6648 77.7565 41.8221 77.6891C41.9944 77.6067 43.5824 77.3146 44.6686 77.3521C44.6686 77.3521 45.0506 77.3146 45.3727 77.9738C45.3652 77.9738 45.5225 78.2434 45.2528 78.3034ZM41.1555 80.9625C41.0131 81.2921 40.6461 81.6442 40.1892 81.427C39.7397 81.2097 39.0131 79.7341 39.0131 79.7341C39.0131 79.7341 38.736 79.1873 38.6835 79.1947C38.6835 79.1947 38.6236 79.0899 38.5862 79.6891C38.5487 80.2884 38.5937 81.4569 38.354 81.6367C38.1292 81.824 37.8521 81.7491 37.7098 81.5318C37.5824 81.3221 37.53 80.8127 37.5974 79.9288C37.6798 79.0449 37.8895 78.1011 38.1517 77.809C38.4139 77.5168 38.6236 77.7266 38.706 77.809C38.706 77.809 39.0581 78.1311 39.6349 79.0599L39.7397 79.2322C39.7397 79.2322 40.2641 80.1161 40.324 80.1161C40.324 80.1161 40.3689 80.1535 40.4064 80.1236C40.4588 80.1086 40.4364 79.824 40.4364 79.824C40.4364 79.824 40.324 78.8577 39.8446 77.2322C39.8446 77.2322 39.7697 77.03 39.8221 76.8352C39.8746 76.6404 40.0618 76.7303 40.0618 76.7303C40.0618 76.7303 40.8034 77.1049 41.1704 78.3183C41.5375 79.5318 41.2903 80.633 41.1555 80.9625ZM49.1629 80.2359C48.8259 80.8277 47.8671 82.0637 46.5937 81.7715C46.1742 82.7903 45.8221 83.824 45.6199 85.3595C45.6199 85.3595 45.5749 85.6592 45.3277 85.5543C45.0805 85.4644 44.6761 85.0599 44.5937 84.4906C44.5038 83.7416 44.8408 82.4831 45.515 81.0374C45.3203 80.7153 45.1854 80.2584 45.2978 79.5992C45.2978 79.5992 45.4701 78.3858 46.691 77.2921C46.691 77.2921 46.8409 77.1648 46.9232 77.2022C47.0131 77.2397 46.9757 77.6367 46.9008 77.8315C46.8259 78.0262 46.2791 78.9625 46.2791 78.9625C46.2791 78.9625 45.942 79.5992 46.0319 80.1011C46.6686 79.1198 48.1292 77.1348 49.0281 77.7565C49.3277 77.9738 49.4701 78.4457 49.4701 78.955C49.4701 79.4045 49.3652 79.8764 49.1629 80.2359ZM48.9008 78.6779C48.9008 78.6779 48.8483 78.2884 48.4663 78.7153C48.1367 79.0824 47.545 79.764 47.0656 80.6854C47.5674 80.6255 48.0468 80.3558 48.1967 80.221C48.4364 80.0112 48.9907 79.4344 48.9008 78.6779ZM56.1742 78.588H53.8446C53.7997 77.794 53.7023 77.0225 53.5525 76.2285C53.5375 76.1461 53.4626 76.0861 53.3802 76.0861H52.8408C52.7959 76.0861 52.751 76.1086 52.721 76.1461C52.691 76.1835 52.6761 76.2285 52.691 76.2809C52.8408 77.0524 52.9382 77.809 52.9907 78.5955H50.751C50.6461 78.5955 50.5637 78.6779 50.5637 78.7828V79.2697C50.5637 79.3745 50.6461 79.4569 50.751 79.4569H53.0281C53.0281 79.5768 53.0281 79.6816 53.0281 79.7865C53.0281 80.4831 52.9982 81.0599 52.9307 81.7116C52.9232 81.764 52.9382 81.809 52.9757 81.8464C53.0056 81.8839 53.0581 81.9064 53.103 81.9064H53.6049C53.7023 81.9064 53.7847 81.8315 53.7922 81.7341C53.8596 81.0824 53.8895 80.4981 53.8895 79.7865C53.8895 79.6891 53.8895 79.5768 53.8895 79.4569H56.1892C56.294 79.4569 56.3764 79.3745 56.3764 79.2697V78.7828C56.3614 78.6704 56.279 78.588 56.1742 78.588Z" fill="white"/>
<path d="M53.2303 74.9475C52.0467 72.0262 50.0318 69.5318 47.425 67.749C44.7509 65.9138 41.6198 64.9475 38.3614 64.9475C32.9756 64.9475 27.9868 67.6217 25.0055 72.1011C24.9756 72.146 24.9681 72.2134 24.9831 72.2659C25.0055 72.3258 25.043 72.3632 25.1029 72.3857L25.5224 72.528C25.5449 72.5355 25.5748 72.543 25.5973 72.543C25.6722 72.543 25.7471 72.5056 25.7921 72.4381C27.1629 70.4307 29.013 68.7528 31.1479 67.5992C33.3501 66.4082 35.852 65.7715 38.3688 65.7715C41.4175 65.7715 44.3539 66.6704 46.8632 68.3707C49.3127 70.0262 51.2228 72.3408 52.3688 75.0599C52.4063 75.1423 52.4812 75.1947 52.5711 75.1947H53.073C53.1329 75.1947 53.1853 75.1647 53.2153 75.1198C53.2527 75.0599 53.2527 74.9999 53.2303 74.9475Z" fill="white"/>
<rect width="75.0018" height="150" transform="translate(75.0161)" fill="#241C32"/>
<g clip-path="url(#clip0_260_3892)">
<path d="M127.667 74.5319V71.7407H129.611V74.5319H132.517V76.3927H129.611V79.1764H127.667V76.3927H124.753V74.5319H127.667Z" fill="white"/>
<path d="M118.993 72.5013H120.215C120.951 72.5013 121.422 72.8817 121.422 73.5457C121.422 74.2689 120.951 74.7397 120.215 74.7397H118.993V72.5013ZM121.098 76.1955C122.363 76.0334 123.408 74.9454 123.408 73.5613C123.408 71.7656 122.186 70.7805 120.215 70.7805H117.036V79.8179H118.993V76.1955L121.422 79.8148H123.688L121.098 76.1955Z" fill="white"/>
<path d="M105.277 72.5606V70.7805H99.3164V72.5606H101.302V79.8148H103.291V72.5606H105.277Z" fill="white"/>
<path d="M95.6376 74.1068C95.0484 73.8418 94.8271 73.5488 94.8271 73.1653C94.8271 72.7227 95.195 72.3548 95.7842 72.3704C96.2985 72.3829 96.6976 72.6634 96.9781 73.3274L98.6709 72.5761C98.2002 71.3697 97.2431 70.6652 95.7 70.6652C94.0665 70.6652 92.86 71.7407 92.86 73.1809C92.86 74.166 93.3463 74.9454 94.4935 75.5221L95.7592 76.155C96.4638 76.5103 96.8036 76.7722 96.8036 77.2866C96.8036 77.8446 96.3484 78.2436 95.7592 78.2436C95.1264 78.2436 94.5528 77.8882 94.2878 77.0964L92.5171 77.6108C92.9286 79.0978 94.1506 79.9676 95.7405 79.9676C97.4613 79.9676 98.7862 78.864 98.7862 77.2741C98.7862 76.0521 98.1253 75.2415 96.8566 74.6711L95.6376 74.1068Z" fill="white"/>
<path d="M116.506 73.6486H111.92L110.502 69.2904L109.083 73.6486H104.498L108.176 76.3483C108.176 76.3483 109.975 75.1636 112.154 74.7178C108.94 77.0902 107.194 79.4439 107.194 79.4439L106.792 80.7095L110.502 78.0161L114.211 80.7095L112.796 76.3483L116.506 73.6486Z" fill="url(#paint1_linear_260_3892)"/>
</g>
<defs>
<linearGradient id="paint0_linear_260_3892" x1="37.5009" y1="0" x2="37.5009" y2="150" gradientUnits="userSpaceOnUse">
<stop stop-color="#07387B"/>
<stop offset="1" stop-color="#050B2F"/>
</linearGradient>
<linearGradient id="paint1_linear_260_3892" x1="106.306" y1="80.2273" x2="114.717" y2="71.8234" gradientUnits="userSpaceOnUse">
<stop offset="0.28" stop-color="#FA1660"/>
<stop offset="0.78" stop-color="#FF7D17"/>
</linearGradient>
<clipPath id="clip0_260_3892">
<rect width="40" height="11.4191" fill="white" transform="translate(92.5171 69.2904)"/>
</clipPath>
</defs>
</svg>
