<svg width="151" height="150" viewBox="0 0 151 150" fill="none" xmlns="http://www.w3.org/2000/svg">
<rect width="150.004" height="150" transform="translate(0.00732422)" fill="url(#paint0_linear_260_3856)"/>
<path d="M71.2193 82.8502C71.2642 82.8502 71.2642 82.8502 71.3091 82.8652C71.9983 82.955 72.6724 83.0749 73.1818 83.3146C73.6612 83.5243 73.9458 83.794 74.2005 84.2734C74.59 84.9925 74.62 85.9962 74.2604 86.7603C73.9908 87.3296 73.4215 87.809 72.8972 88.0637C72.3578 88.3333 71.8185 88.4532 71.2043 88.5281C70.1256 88.6479 68.9571 88.4232 67.9983 87.9588C67.429 87.6741 66.7249 87.1947 66.3653 86.5805C66.1106 86.1311 66.1106 85.5318 66.4252 85.0974C66.9346 84.4082 68.0133 84.2584 68.8222 84.2884C69.4365 84.3183 70.5601 84.4981 71.1443 84.7078C71.3091 84.7678 71.9084 85.0075 72.0133 85.1123C72.0882 85.1872 72.1331 85.2921 72.1031 85.397C71.9683 85.8015 70.9646 86.0262 70.6799 86.0711C69.9009 86.191 69.5114 85.8914 68.6275 85.5468C68.4028 85.4569 68.1181 85.367 67.8934 85.352C67.4889 85.3071 67.0095 85.427 66.9346 85.8614C66.8897 86.0861 67.1593 86.2959 67.3541 86.3858C67.8185 86.5955 68.208 86.6554 68.6724 86.6704C70.0357 86.6854 71.5788 86.4607 72.7024 85.6666C72.8522 85.5618 73.002 85.397 73.002 85.2022C73.002 84.7977 72.2979 84.5431 72.2979 84.5431C71.5488 84.2284 70.1406 84.0786 69.4365 84.0187C68.6874 83.9588 67.4889 83.8539 67.2043 83.809C66.9046 83.764 66.59 83.7041 66.3354 83.5992C66.0807 83.4794 65.826 83.2247 65.7511 82.9401C65.6163 82.4307 65.781 81.8015 66.0657 81.382C66.8148 80.3034 68.5676 79.8989 69.8859 79.7341C71.1593 79.5693 73.2118 79.5843 74.4552 80.2434C74.65 80.3483 74.7399 80.4382 74.7099 80.6479C74.635 81.0374 74.3354 81.2771 73.9908 81.397C73.6163 81.5168 72.8522 81.5618 72.5226 81.5768C71.0245 81.6667 69.2118 81.6217 67.7736 82.0112C67.6687 82.0412 67.4739 82.1011 67.399 82.161C67.1743 82.4007 67.8185 82.4756 67.9533 82.5056C67.9983 82.5206 67.9983 82.5206 68.0432 82.5206L71.2193 82.8502ZM62.2754 76.1535C62.2754 76.1535 62.5151 75.794 62.7249 75.5093C63.0994 75 63.7736 74.2959 64.2829 73.8614C64.4327 73.7266 64.6275 73.5768 64.6275 73.5768C64.6275 73.5768 64.3428 73.6067 64.1781 73.6367C63.7885 73.7116 63.2342 74.0861 62.9496 74.3258C62.4852 74.7303 61.9758 75.3745 62.2005 75.9438C62.2305 76.0487 62.2754 76.1535 62.2754 76.1535ZM64.8672 76.8427C65.6013 76.7977 66.2904 76.573 66.9346 76.2284C67.5638 75.8839 68.4927 75.1947 68.3878 74.3858C68.3578 74.1311 68.193 73.9213 67.9683 73.8314C67.6837 73.7116 67.5488 73.7266 67.1893 73.8314C66.9346 73.9064 66.8148 73.9513 66.5601 74.1011C65.841 74.5206 64.8073 75.4195 64.253 76.1386C64.1181 76.3034 63.9983 76.4981 63.8934 76.6329C63.8335 76.7079 63.7736 76.7828 63.7885 76.8127C63.8185 76.8726 64.5825 76.8726 64.8672 76.8427ZM62.9945 78.221C62.9196 78.2959 62.8447 78.4906 62.7548 78.6404C62.7099 78.7153 62.635 78.8052 62.5751 78.8502C62.3803 78.985 62.2155 79 62.0357 78.8352C61.781 78.6105 61.6312 78.2509 61.6163 77.9064C61.6163 77.7565 61.6312 77.5917 61.6013 77.4569C61.5563 77.2472 61.3466 77.0225 61.2267 76.8127C61.0919 76.573 60.987 76.1535 60.9721 75.8839C60.9271 75.0299 61.3766 74.2509 61.9458 73.6367C62.5301 73.0075 63.2942 72.4981 64.1331 72.1386C64.9121 71.809 66.0657 71.5843 66.9346 71.8839C67.2193 71.9738 67.6088 72.2135 67.8035 72.4682C67.8485 72.5131 67.8784 72.573 67.9234 72.603C67.9683 72.6329 68.0582 72.6329 68.1481 72.6479C68.4178 72.6929 68.8222 72.9026 68.987 73.0374C69.3166 73.3221 69.4964 73.5917 69.5713 73.9813C69.7361 74.7603 69.2867 75.6292 68.7773 76.1535C67.8934 77.0524 67.0245 77.6816 65.9009 78.1311C65.4065 78.3258 64.6425 78.5056 64.0732 78.4607C63.8934 78.4457 63.7136 78.4007 63.5488 78.3858C63.459 78.3708 63.1443 78.2959 63.1144 78.2809C63.0545 78.2359 63.0095 78.221 62.9945 78.221ZM63.9983 79.9588C64.0282 79.9588 64.0882 79.9738 64.1331 80.0037C64.5226 80.1535 64.6874 80.5131 64.7923 80.9176C65.017 81.8464 65.1069 83.9138 65.1518 84.7228C65.1818 85.3221 65.1968 85.9213 65.2267 86.5206C65.2417 87.0299 65.2867 87.7041 65.1818 88.1685C65.1369 88.3333 65.032 88.5431 64.8672 88.6329C64.6724 88.7528 64.253 88.7678 64.0133 88.7078C63.429 88.588 63.2492 88.2135 63.1593 87.6442C62.9646 86.2809 63.0545 83.5992 63.1743 82.4756C63.2193 82.1011 63.3541 80.9026 63.5488 80.4082C63.6088 80.2584 63.7586 79.9138 63.9983 79.9588ZM46.4252 82.2359C46.4252 82.2359 45.5713 82.2959 44.9721 82.3558C44.223 82.4307 42.7998 82.6854 41.9908 82.97C41.7511 83.0599 41.2417 83.2696 41.2118 83.5243C41.1668 83.779 41.3316 83.9887 41.5114 84.1985C41.6163 84.3183 42.2005 84.8876 42.3653 85.0225C43.0545 85.6067 44.4627 86.4906 45.4964 86.9251C45.856 87.0749 46.4402 87.2846 46.4402 87.2846C46.4402 87.2846 46.3953 85.6067 46.4103 83.9588C46.4103 83.0899 46.4252 82.2359 46.4252 82.2359ZM62.1855 82.8951C62.2305 83.3446 62.1256 84.1985 62.0957 84.3034C62.0657 84.558 61.8709 85.1573 61.826 85.2322C61.6612 85.5917 61.5114 85.8914 61.3466 86.191C61.0619 86.7004 60.3878 87.5093 59.9983 87.8539C58.5151 89.1273 56.223 89.8614 54.2605 90.1011C52.9271 90.2659 51.399 90.2359 49.9758 89.9813C49.4964 89.8914 48.7623 89.7266 48.7623 89.7266C48.7623 89.7266 48.7623 90.0112 48.7473 90.221C48.7324 90.3108 48.6724 90.5655 48.6275 90.6404C48.5226 90.8502 48.3578 90.955 48.1181 91.015C47.8185 91.0749 47.5039 91.0899 47.2342 90.97C46.7848 90.7753 46.62 90.3558 46.5451 89.8764C46.4852 89.4869 46.4103 88.8127 46.4103 88.8127C46.4103 88.8127 46.0807 88.6479 45.796 88.5131C44.9421 88.0936 44.1181 87.5693 43.399 87.0449C43.2043 86.8951 42.3503 86.191 42.1556 86.0112C41.6312 85.5168 41.1518 85.0075 40.7923 84.3783C40.5076 83.8839 40.4327 83.4344 40.6425 82.9101C40.9421 82.176 41.9908 81.6217 42.7099 81.3071C43.2342 81.0674 44.8972 80.5281 45.5713 80.4382C45.9009 80.3932 46.3953 80.3034 46.4252 80.2884C46.4402 80.2734 46.4402 80.2734 46.4552 80.2584C46.4702 80.2434 46.5002 79.5093 46.4852 79.2397C46.4852 78.97 46.6799 77.2622 46.7399 76.8876C46.7698 76.6929 46.9196 75.9288 47.0694 75.7341C47.1743 75.5992 47.3391 75.6142 47.4889 75.7041C48.2679 76.1985 48.5076 77.8914 48.5676 78.7453C48.5975 79.2696 48.6275 80.0637 48.6275 80.0637C48.6275 80.0637 49.5264 80.0337 50.0807 80.0487C50.62 80.0637 51.2193 80.1535 51.7736 80.2284C52.4927 80.3483 53.8859 80.6479 54.6799 81.0524C55.3391 81.382 55.9533 81.9513 56.1631 82.5505C56.3428 83.0899 56.3279 83.4794 56.0432 83.9738C55.7286 84.5281 55.1294 84.9476 54.5151 84.9775C54.3354 84.9925 53.6462 84.9026 53.4365 84.7378C53.3616 84.6779 53.3616 84.558 53.4215 84.4831C53.4365 84.4532 53.7661 84.2884 53.9458 84.1835C54.0357 84.1386 54.1256 84.0786 54.1855 84.0037C54.3354 83.8689 54.4852 83.7191 54.4702 83.5393C54.4552 83.3146 54.2005 83.1648 53.9758 83.0749C52.8822 82.6404 50.6949 82.2809 49.6462 82.221C49.2267 82.191 48.6425 82.176 48.6425 82.176L48.7623 88.0037C48.7623 88.0037 49.2417 88.0936 49.6312 88.1535C49.856 88.1835 50.7848 88.2734 51.0245 88.2734C52.9121 88.3183 55.0095 88.1535 56.7324 87.3446C57.4964 86.985 58.1855 86.5505 58.7099 85.9363C59.399 85.1423 59.7736 84.0487 59.6687 82.9101C59.5638 81.6667 58.6949 80.1985 57.9908 79.2996C56.1481 76.9326 52.987 74.97 50.2005 73.8314C47.3541 72.6629 44.5526 71.9888 41.5414 71.8839C40.7623 71.8539 39.0694 71.8989 38.2155 72.1386C38.0957 72.1685 37.9758 72.2135 37.856 72.2434C37.7661 72.2584 37.6312 72.3183 37.5863 72.3633C37.5713 72.3783 37.5414 72.4082 37.5414 72.4082C37.5414 72.4082 37.6013 72.4382 37.6462 72.4532C37.7361 72.4981 38.1256 72.5131 38.3204 72.558C38.5002 72.588 38.6799 72.6779 38.7548 72.8127C38.8297 72.9326 38.8297 73.0374 38.7548 73.1423C38.5601 73.382 37.826 73.3371 37.5114 73.2921C37.1818 73.2322 36.7623 73.1423 36.6874 72.8427C36.5975 72.4981 36.7623 72.1685 36.9421 71.8539C37.3017 71.2247 37.796 70.9101 38.5451 70.7004C39.5938 70.4157 40.9271 70.206 41.9159 70.176C44.1631 70.0861 46.2904 70.4906 48.4777 71.1498C49.7211 71.5243 51.3541 72.1535 52.5526 72.7378C53.4065 73.1573 54.7698 73.9064 55.5189 74.4157C55.7586 74.5805 57.1668 75.5992 57.3766 75.779C57.826 76.1535 58.4252 76.6779 58.8597 77.1123C59.6987 77.9363 60.7324 79.1947 61.2267 80.2135C61.3466 80.4532 61.4365 80.6929 61.6013 80.9625C61.6612 81.0524 61.8859 81.6217 61.9159 81.7865C61.9608 81.9513 62.0058 82.191 62.0208 82.206C62.0957 82.221 62.2005 82.7004 62.1855 82.8951ZM90.4852 81.6067C89.4365 81.8464 86.6649 81.9813 86.6649 81.9813L86.3204 83.0749C86.3204 83.0749 87.6987 82.955 88.7174 83.0599C88.7174 83.0599 89.047 83.015 89.0769 83.4344C89.0919 83.809 89.047 84.2284 89.047 84.2284C89.047 84.2284 89.032 84.4831 88.6724 84.5431C88.2979 84.603 85.6912 84.7078 85.6912 84.7078L85.2717 86.1311C85.2717 86.1311 85.1219 86.4607 85.4664 86.3708C85.796 86.2809 88.5226 85.7715 88.8822 85.8464C89.2567 85.9363 89.6912 86.4457 89.5563 86.9101C89.4065 87.4794 86.6799 89.2172 85.032 89.0974C85.032 89.0974 84.1631 89.1573 83.429 87.9738C82.7399 86.8502 83.6837 84.7228 83.6837 84.7228C83.6837 84.7228 83.2492 83.7341 83.5638 83.3895C83.5638 83.3895 83.7436 83.2247 84.2979 83.1798L84.9721 81.8015C84.9721 81.8015 84.208 81.8464 83.7586 81.2921C83.3391 80.7678 83.3091 80.5131 83.6237 80.3783C83.9683 80.2135 87.1443 79.6292 89.3166 79.7041C89.3166 79.7041 90.0807 79.6292 90.7249 80.9475C90.7099 80.9475 91.0245 81.4869 90.4852 81.6067ZM82.2904 86.9251C82.0058 87.5843 81.2717 88.2884 80.3578 87.8539C79.459 87.4195 78.0058 84.4681 78.0058 84.4681C78.0058 84.4681 77.4515 83.3745 77.3466 83.3895C77.3466 83.3895 77.2267 83.1798 77.1518 84.3783C77.0769 85.5768 77.1668 87.9138 76.6874 88.2734C76.238 88.6479 75.6837 88.4981 75.399 88.0637C75.1443 87.6442 75.0395 86.6255 75.1743 84.8577C75.3391 83.0899 75.7586 81.2022 76.2829 80.618C76.8073 80.0337 77.2267 80.4532 77.3915 80.618C77.3915 80.618 78.0957 81.2622 79.2492 83.1198L79.459 83.4644C79.459 83.4644 80.5076 85.2322 80.6275 85.2322C80.6275 85.2322 80.7174 85.3071 80.7923 85.2472C80.8972 85.2172 80.8522 84.6479 80.8522 84.6479C80.8522 84.6479 80.6275 82.7153 79.6687 79.4644C79.6687 79.4644 79.5189 79.0599 79.6237 78.6704C79.7286 78.2809 80.1031 78.4607 80.1031 78.4607C80.1031 78.4607 81.5863 79.2097 82.3204 81.6367C83.0545 84.0637 82.5601 86.2659 82.2904 86.9251ZM98.3054 85.4719C97.6312 86.6554 95.7136 89.1273 93.1668 88.5431C92.3279 90.5805 91.6237 92.6479 91.2193 95.7191C91.2193 95.7191 91.1294 96.3183 90.635 96.1086C90.1406 95.9288 89.3316 95.1198 89.1668 93.9813C88.987 92.4831 89.6612 89.9663 91.0095 87.0749C90.62 86.4307 90.3503 85.5168 90.5751 84.1985C90.5751 84.1985 90.9196 81.7715 93.3616 79.5843C93.3616 79.5843 93.6612 79.3296 93.826 79.4045C94.0058 79.4794 93.9309 80.2734 93.781 80.6629C93.6312 81.0524 92.5376 82.9251 92.5376 82.9251C92.5376 82.9251 91.8634 84.1985 92.0432 85.2022C93.3166 83.2397 96.238 79.2696 98.0357 80.5131C98.635 80.9476 98.9196 81.8914 98.9196 82.9101C98.9196 83.809 98.7099 84.7528 98.3054 85.4719ZM97.781 82.3558C97.781 82.3558 97.6762 81.5768 96.9121 82.4307C96.253 83.1648 95.0694 84.5281 94.1106 86.3708C95.1144 86.2509 96.0732 85.7116 96.3728 85.4419C96.8522 85.0225 97.9608 83.8689 97.781 82.3558ZM112.328 82.176H107.669C107.579 80.588 107.384 79.0449 107.084 77.4569C107.054 77.2921 106.905 77.1723 106.74 77.1723H105.661C105.571 77.1723 105.481 77.2172 105.421 77.2921C105.362 77.367 105.332 77.4569 105.362 77.5618C105.661 79.1049 105.856 80.618 105.961 82.191H101.481C101.272 82.191 101.107 82.3558 101.107 82.5655V83.5393C101.107 83.749 101.272 83.9138 101.481 83.9138H106.036C106.036 84.1535 106.036 84.3633 106.036 84.573C106.036 85.9663 105.976 87.1198 105.841 88.4232C105.826 88.5281 105.856 88.618 105.931 88.6929C105.991 88.7678 106.096 88.8127 106.186 88.8127H107.189C107.384 88.8127 107.549 88.6629 107.564 88.4681C107.699 87.1648 107.759 85.9962 107.759 84.573C107.759 84.3783 107.759 84.1535 107.759 83.9138H112.358C112.568 83.9138 112.732 83.749 112.732 83.5393V82.5655C112.702 82.3408 112.538 82.176 112.328 82.176Z" fill="white"/>
<path d="M106.44 74.8951C104.073 69.0524 100.043 64.0637 94.8295 60.4981C89.4812 56.8277 83.219 54.8951 76.7022 54.8951C65.9307 54.8951 55.9531 60.2435 49.9906 69.2023C49.9307 69.2921 49.9157 69.427 49.9456 69.5318C49.9906 69.6517 50.0655 69.7266 50.1853 69.7715L51.0243 70.0562C51.0692 70.0712 51.1292 70.0862 51.1741 70.0862C51.3239 70.0862 51.4737 70.0112 51.5636 69.8764C54.3052 65.8614 58.0056 62.5056 62.2752 60.1985C66.6797 57.8165 71.6835 56.5431 76.7172 56.5431C82.8146 56.5431 88.6872 58.3408 93.7059 61.7416C98.6048 65.0524 102.425 69.6817 104.717 75.1199C104.792 75.2847 104.942 75.3895 105.122 75.3895H106.125C106.245 75.3895 106.35 75.3296 106.41 75.2397C106.485 75.1199 106.485 75 106.44 74.8951Z" fill="white"/>
<defs>
<linearGradient id="paint0_linear_260_3856" x1="75.0018" y1="0" x2="75.0018" y2="150" gradientUnits="userSpaceOnUse">
<stop stop-color="#07387B"/>
<stop offset="1" stop-color="#050B2F"/>
</linearGradient>
</defs>
</svg>
