<svg width="151" height="150" viewBox="0 0 151 150" fill="none" xmlns="http://www.w3.org/2000/svg">
<rect width="150.004" height="150" transform="translate(0.0175781)" fill="url(#paint0_linear_260_3913)"/>
<g clip-path="url(#clip0_260_3913)">
<path d="M39.3937 83.7191C38.0001 83.7554 36.6329 83.3359 35.4995 82.5242C35.1101 82.2041 35.0355 81.9588 35.2488 81.5694C35.3982 81.292 35.5316 81.0039 35.6702 80.7319C35.9156 80.2411 36.1503 80.1557 36.6358 80.4438C37.5307 81.0068 38.5714 81.2943 39.6284 81.2706C41.3407 81.2173 41.9862 80.1504 41.9542 78.6941C41.6423 79.0154 41.2639 79.2645 40.8455 79.4239C40.4271 79.5833 39.9789 79.6492 39.5324 79.617C38.5741 79.6037 37.6431 79.2964 36.8652 78.7368C36.1731 78.2429 35.6376 77.5604 35.3227 76.7706C35.0077 75.9809 34.9265 75.1172 35.0888 74.2826C35.1864 73.3579 35.5633 72.4848 36.1694 71.7796C36.7754 71.0744 37.5819 70.5706 38.4815 70.3351C39.1208 70.1296 39.8052 70.1092 40.4556 70.2763C41.1059 70.4434 41.6958 70.7911 42.1569 71.2793C42.1569 70.8579 42.1889 70.5912 42.3649 70.4525C42.6337 70.3372 42.9276 70.2931 43.2184 70.3244C44.584 70.3244 44.552 70.2711 44.5414 71.2153C44.5414 73.1783 44.5414 76.0162 44.5414 77.9526C44.5414 80.5078 43.7359 83.7191 39.3937 83.7191ZM42.0609 74.9867C42.0843 74.6777 42.0438 74.3672 41.942 74.0745C41.8402 73.7818 41.6791 73.5132 41.4689 73.2855C41.2587 73.0578 41.0039 72.8758 40.7202 72.7509C40.4366 72.626 40.1303 72.5609 39.8204 72.5596C39.5035 72.5442 39.187 72.5965 38.892 72.7129C38.5969 72.8294 38.3299 73.0073 38.1089 73.2349C37.8879 73.4624 37.7179 73.7345 37.6101 74.0328C37.5024 74.3312 37.4593 74.6491 37.4839 74.9654C37.4839 76.5283 38.4708 77.4085 39.8097 77.4192C40.1208 77.4203 40.4288 77.3567 40.7139 77.2323C40.9991 77.1079 41.2552 76.9254 41.4659 76.6966C41.6767 76.4678 41.8375 76.1976 41.9381 75.9032C42.0387 75.6088 42.0769 75.2967 42.0502 74.9867H42.0609Z" fill="white"/>
<path d="M105.738 83.0523C105.412 82.8816 105.508 82.5188 105.663 82.2468C105.716 82.1401 105.78 82.0334 105.844 81.9267C106.282 81.0786 106.282 81.0679 107.183 81.2813C107.432 81.3671 107.704 81.3605 107.949 81.2626C108.194 81.1647 108.395 80.9819 108.517 80.7478C108.805 80.2931 109.055 79.8148 109.264 79.3182C109.264 79.3182 106.82 73.7491 105.706 71.1886C105.391 70.4684 105.423 70.4258 106.196 70.4258C106.692 70.4258 107.183 70.4258 107.679 70.4258C107.827 70.406 107.976 70.4422 108.099 70.527C108.221 70.6119 108.307 70.7394 108.341 70.8845C108.997 72.5595 110.421 76.2189 110.421 76.2189C110.693 75.4241 111.003 74.6186 111.259 73.8931C111.605 72.8956 111.979 71.9087 112.326 70.9005C112.355 70.7365 112.449 70.591 112.586 70.496C112.723 70.401 112.892 70.3642 113.056 70.3938C113.51 70.4258 113.969 70.3938 114.433 70.3938C115.062 70.3938 115.169 70.5645 114.934 71.1459C114.401 72.5595 113.808 73.9785 113.238 75.4134C112.534 77.1631 111.637 79.2969 110.944 81.0359C110.506 82.1028 109.461 83.6604 107.743 83.6604C107.024 83.6986 106.314 83.4834 105.738 83.0523V83.0523Z" fill="white"/>
<path d="M62.4651 71.1565C63.1252 70.5414 63.9902 70.1935 64.8923 70.1803C65.5727 70.1816 66.2435 70.3401 66.8524 70.6437C67.4613 70.9472 67.9918 71.3874 68.4023 71.93C69.7199 73.5303 69.7306 76.6776 68.2743 78.2566C67.9208 78.6962 67.4813 79.059 66.9827 79.3229C66.484 79.5867 65.9368 79.7459 65.3745 79.7909C64.8122 79.8358 64.2466 79.7655 63.7124 79.5843C63.1782 79.403 62.6866 79.1146 62.2678 78.7367C62.2038 78.6834 62.2678 79.2701 62.1397 79.4355C61.985 79.7342 60.1874 79.7129 60.006 79.4355C59.9347 79.2973 59.9016 79.1427 59.91 78.9874C59.91 75.072 59.91 71.0392 59.91 67.1237C59.91 66.649 60.118 66.4569 60.5768 66.4676C61.0355 66.4783 61.3502 66.4996 61.745 66.4676C62.2784 66.4676 62.4225 66.6916 62.4225 67.1664C62.4331 68.3133 62.4545 71.1138 62.4651 71.1565ZM64.6522 72.5701C63.3773 72.5701 62.4011 73.5143 62.3691 74.9866C62.3456 75.2994 62.3867 75.6136 62.4897 75.9098C62.5927 76.206 62.7556 76.4778 62.968 76.7085C63.1805 76.9392 63.4382 77.1237 63.7249 77.2506C64.0117 77.3775 64.3215 77.4442 64.6351 77.4464C64.9487 77.4486 65.2594 77.3863 65.548 77.2634C65.8365 77.1405 66.0967 76.9596 66.3124 76.7319C66.5281 76.5043 66.6947 76.2347 66.8018 75.94C66.909 75.6453 66.9545 75.3317 66.9354 75.0186C66.9598 74.7048 66.9187 74.3894 66.8148 74.0923C66.7109 73.7952 66.5464 73.523 66.3318 73.2928C66.1171 73.0626 65.857 72.8795 65.5679 72.7551C65.2788 72.6307 64.967 72.5677 64.6522 72.5701V72.5701Z" fill="white"/>
<path d="M83.5303 78.8168C83.5303 80.1344 83.5303 81.3453 83.5303 82.5508C83.5303 83.4417 83.5303 83.4417 82.6074 83.4417C82.2874 83.4417 81.9673 83.4417 81.6526 83.4417C81.2365 83.4417 81.1191 83.2496 81.1191 82.8656V70.9645C81.1191 70.5751 81.2685 70.3724 81.6846 70.4311C81.946 70.4311 82.4261 70.4311 82.6928 70.4311C83.4236 70.4311 83.3809 70.6444 83.3809 71.3433C85.9361 68.9161 89.7075 70.7405 90.385 73.8504C90.6613 74.9161 90.568 76.0439 90.1203 77.0496C89.6727 78.0554 88.8972 78.8796 87.9205 79.3875C87.3256 79.7084 86.6537 79.8588 85.9788 79.8221C85.3039 79.7854 84.6523 79.563 84.0957 79.1795C83.9197 79.0835 83.7863 78.9768 83.5303 78.8168ZM83.4876 74.976C83.4681 75.2904 83.5125 75.6056 83.6183 75.9024C83.724 76.1992 83.8887 76.4715 84.1026 76.7029C84.3165 76.9342 84.5751 77.1198 84.8627 77.2484C85.1503 77.377 85.461 77.446 85.7761 77.4511C86.0928 77.4558 86.4071 77.3943 86.6988 77.2707C86.9904 77.147 87.2531 76.9638 87.47 76.7329C87.6868 76.502 87.8531 76.2284 87.9583 75.9295C88.0634 75.6307 88.105 75.3132 88.0805 74.9973C88.0805 73.621 87.3284 72.6235 85.8828 72.5702C85.5626 72.5523 85.2423 72.6023 84.9429 72.7171C84.6435 72.8318 84.3717 73.0086 84.1455 73.2358C83.9193 73.463 83.7437 73.7356 83.6303 74.0355C83.5169 74.3354 83.4683 74.6559 83.4876 74.976V74.976Z" fill="white"/>
<path d="M102.302 71.2632C102.42 70.4044 102.302 70.3937 103.246 70.4044C103.535 70.4044 103.78 70.4044 104.095 70.4044C104.569 70.351 104.719 70.6178 104.719 71.0285V78.9874C104.719 79.4355 104.527 79.6809 104.041 79.6382C103.796 79.6382 103.54 79.6382 103.3 79.6382C102.452 79.6382 102.281 79.6382 102.281 78.7047C101.971 79.0488 101.592 79.3251 101.17 79.516C100.748 79.707 100.291 79.8085 99.8271 79.8143C99.3181 79.8454 98.8079 79.7741 98.3269 79.6046C97.8458 79.435 97.4037 79.1708 97.0266 78.8274C96.4348 78.3333 95.9661 77.7085 95.6573 77.0021C95.3486 76.2957 95.2084 75.5273 95.2477 74.7574C95.287 73.9875 95.5048 73.2373 95.8839 72.5661C96.263 71.8949 96.793 71.321 97.432 70.8898C98.0873 70.4266 98.8745 70.1868 99.6768 70.206C100.479 70.2252 101.254 70.5024 101.886 70.9965L102.302 71.2632ZM97.7361 74.9973C97.7361 76.4429 98.6909 77.5151 99.9978 77.4831C100.314 77.4825 100.628 77.4167 100.918 77.2897C101.208 77.1627 101.469 76.9773 101.684 76.7451C101.899 76.5128 102.064 76.2387 102.169 75.9398C102.273 75.641 102.315 75.3237 102.292 75.008C102.306 74.6938 102.257 74.38 102.147 74.0852C102.038 73.7904 101.87 73.5207 101.654 73.2922C101.438 73.0637 101.178 72.8811 100.89 72.7552C100.602 72.6293 100.291 72.5627 99.9765 72.5595C99.6696 72.5676 99.3675 72.637 99.0878 72.7636C98.8081 72.8901 98.5566 73.0712 98.3479 73.2963C98.1392 73.5214 97.9775 73.786 97.8725 74.0744C97.7674 74.3628 97.721 74.6694 97.7361 74.976V74.9973Z" fill="white"/>
<path d="M58.8481 74.976C58.863 75.6151 58.7493 76.2506 58.5137 76.8448C58.2781 77.439 57.9254 77.9797 57.4767 78.4349C57.028 78.8901 56.4923 79.2505 55.9015 79.4946C55.3108 79.7387 54.677 79.8615 54.0378 79.8558C53.3986 79.85 52.7671 79.7159 52.1808 79.4613C51.5945 79.2066 51.0654 78.8368 50.6249 78.3736C50.1843 77.9104 49.8414 77.3634 49.6165 76.7651C49.3916 76.1668 49.2893 75.5293 49.3156 74.8907C49.3324 73.6319 49.8469 72.431 50.7465 71.5504C51.6461 70.6698 52.8577 70.1811 54.1165 70.1911C54.7434 70.1874 55.3647 70.3091 55.9439 70.5489C56.5231 70.7888 57.0486 71.142 57.4894 71.5877C57.9302 72.0335 58.2774 72.5629 58.5108 73.1447C58.7441 73.7266 58.8588 74.3492 58.8481 74.976ZM56.357 75.0827C56.3772 74.7746 56.3357 74.4656 56.2347 74.1739C56.1338 73.8821 55.9755 73.6135 55.7692 73.3838C55.5629 73.1541 55.3127 72.968 55.0334 72.8365C54.7541 72.7049 54.4513 72.6305 54.1429 72.6177C53.8344 72.6049 53.5265 72.6539 53.2373 72.7619C52.948 72.8698 52.6833 73.0346 52.4587 73.2464C52.234 73.4581 52.054 73.7127 51.9292 73.9951C51.8045 74.2775 51.7374 74.582 51.732 74.8907C51.7082 75.2128 51.7491 75.5365 51.8525 75.8426C51.9559 76.1487 52.1196 76.4309 52.334 76.6726C52.5483 76.9143 52.809 77.1106 53.1005 77.2498C53.392 77.389 53.7085 77.4684 54.0312 77.4832C54.3421 77.4804 54.6495 77.4159 54.9353 77.2934C55.2211 77.1709 55.4797 76.9927 55.6961 76.7694C55.9125 76.5461 56.0824 76.2819 56.1958 75.9924C56.3093 75.7028 56.3641 75.3936 56.357 75.0827Z" fill="white"/>
<path d="M70.4024 74.9654C70.4208 73.7063 70.9386 72.506 71.8419 71.6286C72.7453 70.7513 73.9602 70.2687 75.2193 70.2871C76.4785 70.3055 77.6787 70.8234 78.5561 71.7267C79.4334 72.6301 79.916 73.8449 79.8976 75.1041C79.8885 75.7276 79.7567 76.3431 79.5097 76.9156C79.2627 77.4882 78.9053 78.0064 78.458 78.4409C78.0107 78.8753 77.4822 79.2173 76.9027 79.4475C76.3232 79.6777 75.7041 79.7915 75.0806 79.7824C73.8215 79.764 72.6212 79.2461 71.7439 78.3428C70.8665 77.4394 70.384 76.2245 70.4024 74.9654ZM77.4491 74.9654C77.4665 74.6458 77.4169 74.326 77.3033 74.0267C77.1897 73.7274 77.0147 73.4552 76.7896 73.2276C76.5645 73 76.2943 72.822 75.9963 72.7051C75.6983 72.5883 75.3791 72.535 75.0593 72.5489C74.7359 72.5623 74.4187 72.6421 74.1275 72.7833C73.8363 72.9246 73.5773 73.1243 73.3666 73.37C73.156 73.6157 72.9981 73.9021 72.903 74.2115C72.8078 74.5208 72.7774 74.8465 72.8135 75.1681C72.8316 75.7903 73.0923 76.3807 73.5398 76.8133C73.9873 77.2458 74.5862 77.4863 75.2087 77.4832C75.5222 77.4712 75.8302 77.3961 76.1141 77.2625C76.398 77.1288 76.6521 76.9393 76.8612 76.7053C77.0703 76.4714 77.2301 76.1976 77.3311 75.9005C77.4321 75.6034 77.4723 75.289 77.4491 74.9761V74.9654Z" fill="white"/>
<path d="M94.1192 73.109C94.1192 75.072 94.1192 77.0458 94.1192 79.0088C94.1192 79.4676 93.9485 79.649 93.5057 79.6276C93.1166 79.6063 92.7266 79.6063 92.3375 79.6276C91.804 79.6596 91.6387 79.4142 91.6387 78.9341V67.3478C91.6387 66.681 91.7294 66.585 92.3908 66.5743C92.7589 66.5743 93.1323 66.5743 93.5057 66.5743C93.9591 66.5743 94.1192 66.7557 94.1192 67.1985C94.1085 69.1722 94.1192 71.1459 94.1192 73.109Z" fill="white"/>
<path d="M45.7414 73.0983V67.0384C45.7414 66.3183 46.0295 66.0729 46.9203 66.4676C47.9498 66.9157 48.2166 67.0011 48.2166 67.8599C48.2166 71.1352 48.2166 74.7946 48.1846 78.1606C48.1846 78.8168 48.2166 79.1048 47.4057 79.4676C47.2404 79.5423 46.9096 79.713 46.6643 79.8036C46.1788 80.0063 45.7307 79.8036 45.7414 79.0942C45.7414 77.6752 45.7414 76.2509 45.7414 74.8266C45.7307 74.2825 45.7307 73.6851 45.7414 73.0983Z" fill="white"/>
</g>
<defs>
<linearGradient id="paint0_linear_260_3913" x1="149.982" y1="75" x2="-0.0175737" y2="75" gradientUnits="userSpaceOnUse">
<stop stop-color="#FE8F00"/>
<stop offset="1" stop-color="#FE012B"/>
</linearGradient>
<clipPath id="clip0_260_3913">
<rect width="80" height="17.4382" fill="white" transform="translate(35.0195 66.2809)"/>
</clipPath>
</defs>
</svg>
