<svg width="151" height="150" viewBox="0 0 151 150" fill="none" xmlns="http://www.w3.org/2000/svg">
<rect width="150.004" height="150" transform="translate(0.0249023)" fill="url(#paint0_linear_260_3970)"/>
<g clip-path="url(#clip0_260_3970)">
<path d="M57.2707 76.5222C54.6148 76.5222 52.2319 77.4355 50.6049 79.1885C48.9673 77.4355 46.5739 76.5432 43.9181 76.5432C39.0788 76.5537 35.1423 79.5559 35.0269 85.2035C35.0269 85.214 35.0269 98.1152 35.0269 98.1152C35.0269 99.2909 35.9821 100.246 37.1578 100.257H39.1523C39.3412 100.257 39.4882 100.099 39.4882 99.9102V99.8997V85.235C39.5722 82.4532 41.5247 80.9731 43.9181 80.9731C46.3115 80.9731 48.2745 82.4427 48.3689 85.2245V98.0417C48.3689 99.2279 49.3347 100.267 50.5104 100.267H52.5049C52.7043 100.257 52.8513 100.089 52.8408 99.8892V85.277C52.9248 82.4952 54.8773 80.9521 57.2707 80.9521C59.664 80.9521 61.627 82.4217 61.7215 85.2035V98.0837C61.7215 99.2699 62.6873 100.267 63.863 100.257H65.8575C66.0569 100.257 66.1829 100.057 66.1829 99.8577C66.1829 99.8577 66.1829 85.1615 66.1829 85.1405C66.0464 79.5035 62.1099 76.5222 57.2707 76.5222Z" fill="white"/>
<path d="M112.193 77.1835C112.245 77.0995 112.224 76.9945 112.14 76.9315C112.109 76.9105 112.077 76.9 112.035 76.9H108.466C107.626 76.9 106.818 76.9945 106.094 78.0022L102.441 83.3874C102.157 83.8073 101.737 84.3111 101.15 84.3111C100.562 84.3111 100.152 83.8073 99.8584 83.3874L96.2264 78.0127C95.5021 76.9945 94.6833 76.9 93.854 76.9105H90.2849C90.1904 76.9105 90.1064 76.984 90.1064 77.089C90.1064 77.1205 90.1169 77.1625 90.1379 77.194L97.1816 87.5863C97.5805 88.1951 97.5805 88.9929 97.1816 89.6018L90.1379 99.9941C90.0854 100.078 90.1064 100.194 90.1904 100.246C90.2219 100.267 90.2534 100.278 90.2849 100.278H93.854C94.6938 100.278 95.5021 100.173 96.2264 99.1648L99.8794 93.7797C100.163 93.3598 100.583 92.8559 101.171 92.8559C101.758 92.8559 102.178 93.3598 102.462 93.7797L106.115 99.1648C106.839 100.183 107.658 100.278 108.487 100.278L112.056 100.267C112.151 100.267 112.235 100.194 112.235 100.089C112.235 100.057 112.224 100.015 112.203 99.9836L105.16 89.5913C104.761 88.9824 104.761 88.1846 105.16 87.5758L112.193 77.1835Z" fill="white"/>
<path d="M88.7309 76.9106H87.3243C86.558 76.9106 85.8442 77.32 85.4558 77.9813L84.9309 78.8841C82.9049 77.1835 80.2911 76.5222 78.1181 76.5222C71.5678 76.5222 67.2114 81.1515 67.2114 88.4787C67.2114 95.8688 71.6413 100.435 78.0656 100.435C80.522 100.435 82.9574 99.6163 84.5215 98.3566C84.6055 99.4693 85.5397 100.257 86.6734 100.257H88.7099C88.9094 100.257 89.0668 100.173 89.0668 99.9732L89.0773 77.257C89.0878 77.0681 88.9199 76.9106 88.7309 76.9106ZM78.0342 95.9842C74.3076 95.9842 71.5783 93.2129 71.5783 88.4787C71.5783 83.7444 74.3076 80.9731 78.0342 80.9731C81.7607 80.9731 84.49 83.7444 84.49 88.4787C84.49 93.2129 81.7502 95.9842 78.0342 95.9842Z" fill="white"/>
<path d="M51.833 64.9751H56.1474V74.4962H62.8132V49.9745H56.1474V59.0967H51.833V49.9745H44.9678V74.4962H51.833V64.9751Z" fill="white"/>
<path d="M82.1071 67.6204C83.0834 69.6149 86.4635 74.6221 93.3288 74.6221C100.194 74.6221 105.789 68.9116 105.789 62.0464C105.789 55.0237 100.194 49.5651 93.3288 49.5651C86.4635 49.5651 82.9574 54.6143 82.0966 56.6507C82.1071 53.596 79.0839 49.9745 75.5568 49.9745H64.1987V74.4962H74.801C79.0629 74.4962 82.1071 70.7906 82.1071 67.6204ZM93.3393 55.8005C96.7824 55.8005 99.5852 58.5928 99.5852 62.0464C99.5852 65.4895 96.7929 68.2923 93.3393 68.2923C89.8961 68.2923 87.0934 65.5 87.0934 62.0464C87.0934 58.5928 89.8857 55.8005 93.3393 55.8005ZM80.9105 60.4928C80.753 61.1961 80.7425 63.2116 80.9209 63.9149C80.4066 63.1171 79.1784 62.1408 78.3911 62.0359C79.1784 61.9414 80.4591 61.0596 80.9105 60.4928ZM70.5496 55.4331H73.9192C74.906 55.4331 75.6723 56.3988 75.6723 57.501C75.6723 58.6032 74.8955 59.569 73.9192 59.569H70.5496V55.4331ZM70.5286 68.7856V64.6392H73.8982C74.8745 64.6392 75.6513 65.605 75.6513 66.7072C75.6513 67.8094 74.8745 68.7751 73.8982 68.7751H70.5286V68.7856Z" fill="white"/>
<path d="M93.3393 66.9487C96.0476 66.9487 98.2416 64.7547 98.2416 62.0464C98.2416 59.3381 96.0476 57.1442 93.3393 57.1442C90.631 57.1442 88.437 59.3381 88.437 62.0464C88.4266 64.7442 90.6205 66.9487 93.3393 66.9487C93.3288 66.9487 93.3288 66.9487 93.3393 66.9487Z" fill="white"/>
<path d="M112.812 77.0785H113.137V78.0022H113.4V77.0785H113.725V76.858H112.812V77.0785Z" fill="white"/>
<path d="M114.765 76.858L114.46 77.3724L114.145 76.858H113.883V78.0022H114.145V77.3409L114.439 77.8238H114.471L114.765 77.3409V78.0022H115.027V76.858H114.765Z" fill="white"/>
</g>
<defs>
<linearGradient id="paint0_linear_260_3970" x1="149.975" y1="150" x2="-0.0249014" y2="-7.3501e-06" gradientUnits="userSpaceOnUse">
<stop stop-color="#407ED6"/>
<stop offset="0.494792" stop-color="#3B2DC5"/>
<stop offset="1" stop-color="#B048FC"/>
</linearGradient>
<clipPath id="clip0_260_3970">
<rect width="80" height="50.87" fill="white" transform="translate(35.0269 49.5651)"/>
</clipPath>
</defs>
</svg>
