<svg width="151" height="150" viewBox="0 0 151 150" fill="none" xmlns="http://www.w3.org/2000/svg">
<rect width="150.004" height="150" transform="translate(0.00341797)" fill="black"/>
<path d="M81.2977 35.236L81.2663 52.8375L81.2348 70.4391L79.789 66.353V66.3425L77.9136 105.527C79.7575 110.724 80.7424 113.5 80.7529 113.511C80.7634 113.521 81.8111 113.584 83.0788 113.647C86.9134 113.835 91.67 114.244 95.2846 114.694C96.1228 114.799 96.8353 114.852 96.8876 114.81C96.94 114.768 96.9505 96.8519 96.94 74.9861L96.9086 35.236H81.2977V35.236Z" fill="#B1060F" stroke="black" stroke-width="0.29074"/>
<path d="M53.062 35.1836V74.9757C53.062 96.8624 53.083 114.789 53.1144 114.82C53.1458 114.852 54.4974 114.715 56.1318 114.537C57.7662 114.359 60.0188 114.129 61.1399 114.034C62.8581 113.888 68.0129 113.563 68.5996 113.552C68.7777 113.552 68.7882 112.662 68.8091 96.6947L68.8405 79.837L70.0873 83.3574C70.2759 83.9022 70.3388 84.0698 70.5274 84.6041L72.4028 45.4302C72.0046 44.3091 72.2142 44.8959 71.7637 43.6177C70.234 39.2906 68.9348 35.6341 68.8825 35.4665L68.7777 35.1731H53.062V35.1836Z" fill="#B1060F" stroke="black" stroke-width="0.29074"/>
<path d="M81.2977 35.236L81.2663 52.8375L81.2348 70.4391L79.789 66.353V66.3425L77.9136 105.527C79.7575 110.724 80.7424 113.5 80.7529 113.511C80.7634 113.521 81.8111 113.584 83.0788 113.647C86.9134 113.835 91.67 114.244 95.2846 114.694C96.1228 114.799 96.8353 114.852 96.8876 114.81C96.94 114.768 96.9505 96.8519 96.94 74.9861L96.9086 35.236H81.2977V35.236Z" fill="#B1060F" stroke="black" stroke-width="0.29074"/>
<path d="M53.062 35.1836V74.9757C53.062 96.8624 53.083 114.789 53.1144 114.82C53.1458 114.852 54.4974 114.715 56.1318 114.537C57.7662 114.359 60.0188 114.129 61.1399 114.034C62.8581 113.888 68.0129 113.563 68.5996 113.552C68.7777 113.552 68.7882 112.662 68.8091 96.6947L68.8405 79.837L70.0873 83.3574C70.2759 83.9022 70.3388 84.0698 70.5274 84.6041L72.4028 45.4302C72.0046 44.3091 72.2142 44.8959 71.7637 43.6177C70.234 39.2906 68.9348 35.6341 68.8825 35.4665L68.7777 35.1731H53.062V35.1836Z" fill="#B1060F" stroke="black" stroke-width="0.29074"/>
<path d="M53.062 35.1836V57.5208L68.7986 99.2616C68.7986 98.3082 68.7986 97.7844 68.8091 96.6947L68.8405 79.837L70.0873 83.3574C77.0022 102.971 80.7216 113.49 80.7426 113.51C80.753 113.521 81.8007 113.584 83.0685 113.647C86.9031 113.835 91.6597 114.244 95.2743 114.694C96.1125 114.799 96.8249 114.852 96.8773 114.81C96.9087 114.778 96.9297 105.998 96.9297 93.604L81.2769 48.5733L81.2664 52.8375L81.235 70.4391L79.7891 66.353C78.3747 62.3612 77.4318 59.6896 71.7427 43.6177C70.2131 39.2906 68.9139 35.6341 68.8615 35.4665L68.7567 35.1731H53.062V35.1836Z" fill="url(#paint0_radial_260_3828)"/>
<path d="M53.062 35.1836L68.8301 79.8685V79.8475L70.0769 83.3678C77.0022 102.971 80.7216 113.49 80.7426 113.51C80.753 113.521 81.8007 113.584 83.0685 113.647C86.9031 113.835 91.6597 114.244 95.2743 114.694C96.102 114.799 96.8249 114.852 96.8668 114.81L81.235 70.4286V70.4391L79.7891 66.353C78.3747 62.3612 77.4318 59.6896 71.7427 43.6177C70.2131 39.2906 68.9139 35.6341 68.8615 35.4665L68.7567 35.1731H60.9094L53.062 35.1836Z" fill="#E50914"/>
<defs>
<radialGradient id="paint0_radial_260_3828" cx="0" cy="0" r="1" gradientUnits="userSpaceOnUse" gradientTransform="translate(74.2614 74.5367) rotate(-19.1007) scale(2.89115 105.907)">
<stop/>
<stop offset="1" stop-opacity="0"/>
</radialGradient>
</defs>
</svg>
