<svg width="151" height="150" viewBox="0 0 151 150" fill="none" xmlns="http://www.w3.org/2000/svg">
<rect width="150.004" height="150" transform="translate(0.0107422)" fill="#241C32"/>
<g clip-path="url(#clip0_260_3879)">
<path d="M105.313 74.0639V68.4816H109.199V74.0639H115.013V77.7855H109.199V83.353H105.313V77.7855H99.4839V74.0639H105.313Z" fill="white"/>
<path d="M87.9653 70.0027H90.4094C91.8808 70.0027 92.8222 70.7633 92.8222 72.0914C92.8222 73.5378 91.8808 74.4793 90.4094 74.4793H87.9653V70.0027ZM92.1738 77.391C94.7052 77.0668 96.7938 74.8908 96.7938 72.1225C96.7938 68.5312 94.3498 66.561 90.4094 66.561H84.0498V84.6359H87.9653V77.391L92.8222 84.6297H97.355L92.1738 77.391Z" fill="white"/>
<path d="M60.5319 70.1211V66.561H48.6108V70.1211H52.5824V84.6296H56.5603V70.1211H60.5319Z" fill="white"/>
<path d="M41.2538 73.2136C40.0754 72.6836 39.6327 72.0976 39.6327 71.3307C39.6327 70.4453 40.3684 69.7096 41.5468 69.7408C42.5756 69.7657 43.3736 70.3269 43.9348 71.6549L47.3203 70.1523C46.3788 67.7394 44.4647 66.3303 41.3785 66.3303C38.1114 66.3303 35.6985 68.4813 35.6985 71.3619C35.6985 73.3321 36.6712 74.8908 38.9656 76.0442L41.4969 77.3099C42.906 78.0207 43.5856 78.5444 43.5856 79.5732C43.5856 80.6892 42.6753 81.4873 41.4969 81.4873C40.2313 81.4873 39.0841 80.7765 38.5541 79.1928L35.0127 80.2216C35.8357 83.1956 38.2798 84.9351 41.4595 84.9351C44.9012 84.9351 47.551 82.728 47.551 79.5482C47.551 77.1042 46.2292 75.4831 43.6916 74.3421L41.2538 73.2136Z" fill="white"/>
<path d="M82.9898 72.2971H73.8183L70.9815 63.5808L68.1446 72.2971H58.9731L66.3303 77.6965C66.3303 77.6965 69.9278 75.3273 74.286 74.4357C67.8578 79.1804 64.3663 83.8877 64.3663 83.8877L63.562 86.4191L70.9815 81.0322L78.401 86.4191L75.5703 77.6965L82.9898 72.2971Z" fill="url(#paint0_linear_260_3879)"/>
</g>
<defs>
<linearGradient id="paint0_linear_260_3879" x1="62.5892" y1="85.4545" x2="79.4124" y2="68.6468" gradientUnits="userSpaceOnUse">
<stop offset="0.28" stop-color="#FA1660"/>
<stop offset="0.78" stop-color="#FF7D17"/>
</linearGradient>
<clipPath id="clip0_260_3879">
<rect width="80" height="22.8383" fill="white" transform="translate(35.0127 63.5808)"/>
</clipPath>
</defs>
</svg>
