<svg width="151" height="150" viewBox="0 0 151 150" fill="none" xmlns="http://www.w3.org/2000/svg">
<rect width="150.004" height="150" fill="#292929"/>
<g clip-path="url(#clip0_260_3716)">
<path d="M58.0578 69.645C57.9248 69.1722 57.6642 68.7411 57.3022 68.3949C56.9401 68.0487 56.4893 67.7995 55.9949 67.6723C54.1746 67.2063 46.8747 67.2063 46.8747 67.2063C46.8747 67.2063 39.5805 67.2063 37.7602 67.6723C37.2658 67.7995 36.815 68.0487 36.4529 68.3949C36.0909 68.7411 35.8303 69.1722 35.6972 69.645C35.21 71.3856 35.21 75.0162 35.21 75.0162C35.21 75.0162 35.21 78.6468 35.6972 80.3874C35.8303 80.8602 36.0909 81.2913 36.4529 81.6375C36.815 81.9837 37.2658 82.2329 37.7602 82.3601C39.5805 82.8261 46.8775 82.8261 46.8775 82.8261C46.8775 82.8261 54.1746 82.8261 55.9949 82.3601C56.4893 82.2329 56.9401 81.9837 57.3022 81.6375C57.6642 81.2913 57.9248 80.8602 58.0578 80.3874C58.5451 78.6468 58.5451 75.0162 58.5451 75.0162C58.5451 75.0162 58.5451 71.3856 58.0578 69.645V69.645Z" fill="#FF0000"/>
<path d="M44.5435 78.3634L50.6063 75.0162L44.5435 71.6689V78.3634Z" fill="white"/>
<path d="M68.9144 72.1628V72.7026C68.9144 75.4012 67.6633 76.9781 64.9268 76.9781H64.51V81.7008H62.2749V68.3182H65.1243C67.7301 68.3182 68.9144 69.3715 68.9144 72.1628ZM66.5626 72.3545C66.5626 70.4078 66.1958 69.9455 64.9277 69.9455H64.511V75.3859H64.8948C66.0961 75.3859 66.5636 74.5566 66.5636 72.7539L66.5626 72.3545ZM74.2031 71.7643L74.0864 74.3011C73.1354 74.1095 72.3508 74.2534 72.0009 74.8408V81.7008H69.7827V71.9236H71.5512L71.7516 74.0429H71.8353C72.0686 72.4957 72.8193 71.714 73.7873 71.714C73.9272 71.7178 74.0665 71.7346 74.2031 71.7643V71.7643ZM76.7552 77.5512V78.0459C76.7552 79.7694 76.8549 80.3596 77.6225 80.3596C78.3563 80.3596 78.5237 79.8198 78.5397 78.7008L80.5246 78.8123C80.6751 80.9182 79.5237 81.8591 77.5717 81.8591C75.203 81.8591 74.5022 80.3757 74.5022 77.6798V75.9706C74.5022 73.1308 75.2867 71.7428 77.6385 71.7428C80.0072 71.7428 80.6083 72.923 80.6083 75.8744V77.5512H76.7552ZM76.7552 75.5407V76.2423H78.44V75.5452C78.44 73.7461 78.3064 73.2315 77.5934 73.2315C76.8803 73.2315 76.7552 73.7587 76.7552 75.5452V75.5407ZM92.0708 74.3128V81.699H89.7708V74.4765C89.7708 73.6786 89.5535 73.2801 89.053 73.2801C88.6523 73.2801 88.2854 73.5032 88.0352 73.9179C88.0495 74.0502 88.0552 74.1833 88.0521 74.3164V81.7026H85.7483V74.4765C85.7483 73.6786 85.531 73.2801 85.0306 73.2801C84.6298 73.2801 84.278 73.5032 84.0297 73.9026V81.7035H81.7278V71.9236H83.5462L83.7503 73.1685H83.7832C84.3006 72.2276 85.135 71.7167 86.119 71.7167C87.087 71.7167 87.6373 72.179 87.8875 73.0093C88.4218 72.1637 89.2224 71.7167 90.1396 71.7167C91.5374 71.7167 92.0708 72.6738 92.0708 74.3128ZM93.2223 69.4192C93.2223 68.3658 93.623 68.0636 94.4734 68.0636C95.3407 68.0636 95.7245 68.4144 95.7245 69.4192C95.7245 70.5041 95.3407 70.7757 94.4734 70.7757C93.623 70.7748 93.2223 70.5041 93.2223 69.4192ZM93.3558 71.9236H95.558V81.7035H93.3558V71.9236ZM103.082 71.9236V81.7035H101.28L101.08 80.5071H101.03C100.513 81.4642 99.762 81.8627 98.8279 81.8627C97.4601 81.8627 96.8421 81.0333 96.8421 79.2306V71.9236H99.144V79.1029C99.144 79.9646 99.3321 80.3155 99.795 80.3155C100.003 80.3074 100.204 80.2451 100.377 80.1353C100.55 80.0256 100.688 79.8726 100.777 79.693V71.9236H103.082ZM114.76 74.3128V81.699H112.458V74.4765C112.458 73.6786 112.241 73.2801 111.74 73.2801C111.339 73.2801 110.972 73.5032 110.722 73.9179C110.736 74.049 110.742 74.1809 110.739 74.3128V81.699H108.437V74.4765C108.437 73.6786 108.22 73.2801 107.719 73.2801C107.319 73.2801 106.967 73.5032 106.719 73.9026V81.7035H104.417V71.9236H106.233L106.434 73.1676H106.466C106.984 72.2267 107.818 71.7158 108.802 71.7158C109.77 71.7158 110.321 72.1781 110.571 73.0084C111.105 72.1628 111.906 71.7158 112.823 71.7158C114.229 71.7167 114.76 72.6738 114.76 74.3128V74.3128Z" fill="white"/>
</g>
<defs>
<clipPath id="clip0_260_3716">
<rect width="80" height="15.6522" fill="white" transform="translate(35.002 67.174)"/>
</clipPath>
</defs>
</svg>
